<svg id="default" xmlns="http://www.w3.org/2000/svg" width="440" height="352" viewBox="0 0 440 352">
  <g id="person1">
    <g id="bg">
      <rect id="Rectangle_1" data-name="Rectangle 1" width="440" height="352" fill="rgba(255,255,255,0)"/>
      <path id="Tracé_1" data-name="Tracé 1" d="M25.342,214.093C34.207,227.134,77.011,253.3,77.011,253.3H251.184s126.134-64.7,59.774-131C267.816,79.166,220.706,10.2,130.116,8.693,48.39,7.272,26.608,47.148,13.184,91.873,2.715,126.649-1.928,179.149,25.342,214.093Z" transform="translate(52.033 52.344)" fill="#3fae69" opacity="0.084"/>
    </g>
    <g id="illu" transform="translate(86.893 83.816)">
      <path id="Union_11_1_" d="M296.137,268.85a1.739,1.739,0,0,1,0-3.479h13.748a1.739,1.739,0,0,1,0,3.479Zm-230.6,0a1.739,1.739,0,0,1,0-3.479H94.761V183.446h89.75a46.833,46.833,0,0,1-6.831-6.262H137.215l-33.462-34.44,2.594-2.261L137.82,172.14h37.872a2.3,2.3,0,0,1-.432-.783H164.278c-6.917,0-8.819-5.827-9.511-3.479h-4.15a13.974,13.974,0,0,1,14.18-11.306c7.782,0,11.154,5.653,14.353,8.61,10.462,10.523,17.985,13.654,26.8,13.654,7.263,0,12.364-1.392,18.936-6.523l-2.594-2.435,19.973-20.09c-1.556-1.478-3.8-3.827-5.015-5.044a40.591,40.591,0,0,1-16.6,3.74c-20.406,0-37.266-16.611-38.131-37.049V107.61c-3.8-1.565-6.053-4.261-6.053-8.871,0-4,2.421-6.7,6.053-8.436V52.819c-10.462,4.435-18.071,8.7-18.071,8.7l-.259-3.218S195.06,39.6,220.74,39.6c25.766,0,38.131,9.654,38.131,23.134l.086,49.137c-.086,2-.259,2.348-.259,2.783a40.38,40.38,0,0,1-1.3,6.436,36.474,36.474,0,0,1-2.68,6.61l-1.3,2.435a38.593,38.593,0,0,1-5.447,6.957c1.643,1.565,3.2,3.131,4.15,4a3.532,3.532,0,0,1,.432.783,14.811,14.811,0,0,1,13.4,2.261,5.876,5.876,0,0,1,11.24,2.348h0v57.921h0c.087,0,0,18.09,0,24.786s-6.052,12.7-13.488,12.7-26.026-.087-26.026-.087v16.872l14.526.087a5.767,5.767,0,0,1,4.5-2.174,5.9,5.9,0,0,1,5.88,5.914,5.5,5.5,0,0,1-.778,2.87h23.864a1.739,1.739,0,0,1,0,3.479Zm57.27-3.392c0-2.7,2.8-22.96,15.014-22.96h16.947l35.45-35.657a6.379,6.379,0,0,1,4.756-2.261c.519,0,9.6,0,17.985-.087v-4.522H99.17v65.488Zm83.148-77.837c6.4,0,12.97-.261,21.184-4.7A52.252,52.252,0,0,1,205.954,187.621ZM48.329,268.85a1.739,1.739,0,0,1,0-3.479h6.917a1.739,1.739,0,0,1,0,3.479Z" transform="translate(-46.6 -39.6)" fill="#fff" stroke="#fff" stroke-linecap="round" stroke-linejoin="round" stroke-width="5"/>
      <path id="Union_10_6_" d="M263.28,230.639l5.534-27.743L257.4,191.415l23.086-23.221s6.658-7.479,14.267-2.087c7.523,5.392,4.237,40.093,4.237,40.093l-1.816-.087v24.612Z" transform="translate(-75.133 -55.831)" fill="#3fae69"/>
      <path id="Union_15" data-name="Union 15" d="M0,121.291S12.278,134.162,26.8,134.6s21.443-5.3,21.443-5.3l-3.891-3.653,3.891-2.7,8.128,5.74s-3.977,5.566-23.518,10.436a22.465,22.465,0,0,1-5.478.685C10.932,139.8,0,121.291,0,121.291ZM60.7,91.705a31.668,31.668,0,0,1-16.083,4.452C25.075,96.07,15.737,72.067,15.65,62.239V9.014c21.1-11.219,39.86-10.7,51.879-5.3S78.6,21.189,78.6,47.107c0,9.74.433,5.913.433,18.263,0,6.36-4.15,14.38-10.738,20.64L73.9,92.166,66.84,98.449Z" transform="translate(130.907 11.337)" fill="#faded4"/>
      <path id="Union_9_6_" d="M186.979,278.019l33.635-33.831h12.019V256.8l-33.376,33.57Zm-4.237-2h0l-4.842-4.87L212.746,236.1h19.282v3.914H218.539l-35.8,36.005Zm56.981-17.046V244.188h49.2v14.785Zm7.436-18.959h-7.34V236.1h7.34v3.914Z" transform="translate(-64.373 -65.207)" fill="#5eb6e4"/>
      <path id="Tracé_3046_1_" d="M222.091,91.1a3.914,3.914,0,1,0,3.891,3.914v-.435a1.731,1.731,0,0,1-1.124.348,2.147,2.147,0,0,1-2.162-2.174,1.982,1.982,0,0,1,.519-1.392A2.65,2.65,0,0,0,222.091,91.1Z" transform="translate(-69.827 -46.311)" fill="#002f2d"/>
      <path id="Union_14" data-name="Union 14" d="M18.935,229.336a1.739,1.739,0,0,1,0-3.479H48.16V143.846h89.751a46.848,46.848,0,0,1-6.83-6.261H90.615l-33.462-34.44,2.594-2.261L91.22,132.54h39.688c8.041,9.219,15.477,15.48,28.533,15.48,7.7,0,15.477-.435,26.2-7.826l-5.016-4.61c-6.484,5.218-12.97,7.044-21.184,7.044-10.289,0-16.947-2.783-30.435-16.35-5.275-5.217-8.3-5.914-11.067-5.914-6.917,0-8.993,5.654-9.685,8H104.1a13.975,13.975,0,0,1,14.18-11.307c7.781,0,11.154,5.566,14.353,8.61,10.549,10.523,18.071,13.654,26.8,13.654,7.264,0,12.365-1.391,18.936-6.522l-2.594-2.435,19.974-20.09c-1.556-1.479-3.8-3.827-5.015-5.044a39.238,39.238,0,0,1-16.6,3.74c-20.406,0-37.266-16.611-38.131-37.049V68.1c-3.8-1.566-6.052-4.262-6.052-8.871,0-4.088,2.507-6.783,6.052-8.436V22.177h3.8V53.746a5.935,5.935,0,0,0-5.793,5.479,6.135,6.135,0,0,0,5.793,6.262v4.7A34.82,34.82,0,0,0,141.8,82.1a24.035,24.035,0,0,0,1.643,3.827,34.2,34.2,0,0,0,30.782,19.394c19.2,0,34.327-15.655,34.327-34.961V68.705l.086-45.224c0-10.436-10.29-20.437-34.24-20.437-22.827,0-56.548,18.872-56.548,18.872l-.26-3.218S148.46,0,174.14,0c25.766,0,38.131,9.653,38.131,23.134l.086,49.137c-.173,2-.259,2.348-.259,2.783a40.421,40.421,0,0,1-1.3,6.436,36.509,36.509,0,0,1-2.681,6.61l-1.3,2.435a38.612,38.612,0,0,1-5.447,6.957c1.729,1.566,3.285,3.131,4.15,4,.173.261.259.522.433.783a14.769,14.769,0,0,1,13.4,2.261,5.876,5.876,0,0,1,11.24,2.348v57.835c.173,0,0,18.089.086,24.786,0,6.783-5.966,12.7-13.488,12.7s-26.026-.086-26.026-.086v16.959l14.526.086a5.768,5.768,0,0,1,4.5-2.174,5.993,5.993,0,0,1,5.193,8.87h26.859a1.739,1.739,0,0,1,0,3.479Zm186.153-3.479a5.768,5.768,0,0,1-.685-2.174L191.26,223.6H175.437v-4.523h11.414V202.2H175.437V191.853h40.725c3.027,0,4.669-2.348,4.669-7.654v-7.827h-2.767c-9.166,0-37.7.087-42.628.087v-3.74h5.534l.95-4.262h-6.571v-3.566h3.026c.346,0,2.94-.087,4.237-.087l5.274-21.742c-3.632,1.74-9.251,5.914-16.947,7.219v75.576Zm-38.643,0v-29.57L137.2,225.858Zm-88.466,0c-.009-2.551.538-22.96,20.237-22.96h9.951l35.451-35.657a5.968,5.968,0,0,1,4.756-2.261c.606,0,9.6,0,17.985-.087V160.37H52.656v65.488Zm5.883-.522,46.958.175-12.969-12.872c-8.214,0-16.7-.087-21.712-.087C90,212.551,83,216.9,83.862,225.336Zm70.132-47.659c-.779.957-33.116,32.787-33.116,32.787l13.576,13.655,31.9-32.353.086-15.306c-5.36.087-9.6.087-9.857.087q-.132-.011-.262-.011A2.922,2.922,0,0,0,153.994,177.677ZM82.824,215.943c1.9-2.783,5.274-6.436,14.267-6.436h17.561l-3.372-3.391H98.215C91.384,206.116,85.418,208.03,82.824,215.943ZM146.038,169.5c-.778.869-32.943,33.309-32.943,33.309l5.533,5.478,32.857-33.134a5.968,5.968,0,0,1,4.756-2.262c.432,0,4.756-.086,10.116-.086l.26-4.349c-8.734,0-17.639-.087-17.986-.087q-.131-.011-.26-.011A2.927,2.927,0,0,0,146.038,169.5Zm38.478,3.217h36.661V117.059c0-9.566-5.188-12.088-10.895-12.088a11.123,11.123,0,0,0-7.695,3.13l-22.049,22.177,15.736,15.829,15.91-16,2.68,2.7-18.417,18.524-6.313-6.522Zm9.165-69.141L198,108.015l1.9-1.913.346-.348a12.807,12.807,0,0,1,2.68-2.174l-3.891-3.913A33.908,33.908,0,0,1,193.681,103.579ZM.729,229.336a1.739,1.739,0,0,1,0-3.479H7.646a1.739,1.739,0,0,1,0,3.479Zm251.807-.086a1.74,1.74,0,0,1,0-3.479h13.748a1.739,1.739,0,0,1,1.729,1.74,1.685,1.685,0,0,1-1.729,1.74Z" transform="translate(0 0)" fill="#002f2d"/>
    </g>
  </g>
  <path id="Tracé_220" data-name="Tracé 220" d="M233.7,173.14a19.589,19.589,0,0,1-5.708-.834,1.5,1.5,0,0,1,.953-2.845,16.991,16.991,0,0,0,5.944.634,10.775,10.775,0,0,0,9.134-5.832,1.5,1.5,0,0,1,2.633,1.437,13.794,13.794,0,0,1-11.645,7.394C234.564,173.126,234.126,173.14,233.7,173.14Z" transform="translate(-23.061 39.605) rotate(-9)" fill="#002f2d"/>
</svg>
