<svg id="help-2" xmlns="http://www.w3.org/2000/svg" width="440" height="352" viewBox="0 0 440 352">
  <g id="femme">
    <g id="bg">
      <rect id="Rectangle_1" data-name="Rectangle 1" width="440" height="352" fill="rgba(255,255,255,0)"/>
      <path id="Tracé_1" data-name="Tracé 1" d="M25.342,214.093C34.207,227.134,77.011,253.3,77.011,253.3H251.184s126.134-64.7,59.774-131C267.816,79.166,220.706,10.2,130.116,8.693,48.39,7.272,26.608,47.148,13.184,91.873,2.715,126.649-1.928,179.149,25.342,214.093Z" transform="translate(52.033 52.344)" fill="#3fae69" opacity="0.084"/>
    </g>
    <path id="Tracé_128" data-name="Tracé 128" d="M56.128,296.8H49.176a4.6,4.6,0,0,0-4.576,4.576,4.526,4.526,0,0,0,4.576,4.488h6.952a4.583,4.583,0,0,0,4.576-4.488A4.659,4.659,0,0,0,56.128,296.8Z" transform="translate(38.677 10.447)" fill="#fff"/>
    <path id="Tracé_129" data-name="Tracé 129" d="M291.792,265.48H269.528v-.088a8.751,8.751,0,0,0-8.8-8.712h0a8.575,8.575,0,0,0-5.632,2.112l-9.064-.088v-11.44c5.544,0,17.776.088,23.5.088,8.888,0,16.456-7.128,16.456-15.576V212.152c0-2.728,0-4.312-.088-5.28V148.616a8.747,8.747,0,0,0-2.64-6.16,8.225,8.225,0,0,0-6.16-2.464,9.04,9.04,0,0,0-6.16,2.552,17.589,17.589,0,0,0-1.848-.88,32.911,32.911,0,0,0,8.712-6.952c6.688-6.864,6.336-14.7,6.16-17.952v-.88c0-4.312-1.584-10.912-2.992-16.808a68.855,68.855,0,0,1-1.672-7.92c-2.112-19.184-2.816-23.5-2.9-23.672V67.3c-4.752-21.472-19.8-31.5-47.168-31.5-9.768,0-24.112,1.584-36.608,9.064-12.056,6.6-13.816,20.68-13.992,22.088l-.88,5.544a2.836,2.836,0,0,0,.616,2.2,3.054,3.054,0,0,0,2.024,1.056c.176,0,2.552.176,5.192.176V94.936c-5.016,2.992-6.072,7.04-6.072,10.12,0,4.928,2.112,8.536,6.248,10.736.88,7.656,6.512,38.192,39.864,38.192h.176a42.2,42.2,0,0,0,16.28-3.784l1.76,1.76-18.216,18.216a2.788,2.788,0,0,0-.792,2.024,2.865,2.865,0,0,0,.88,2.024l.176.176c-4.576,2.992-8.712,4.048-14.784,4.048-7.3,0-14.432-2.2-25.168-12.936-.528-.528-1.144-1.144-1.76-1.848-2.992-3.256-7.128-7.656-14.7-7.656a16.913,16.913,0,0,0-17.072,13.64,2.863,2.863,0,0,0,.352,1.936h-9.5l-30.976-30.976a2.835,2.835,0,0,0-3.784-.176l-2.552,2.288a2.631,2.631,0,0,0-.968,2.024,2.788,2.788,0,0,0,.792,2.024l33.88,34.672a2.865,2.865,0,0,0,2.024.88H181.44l.616.616.176.176H98.808a2.78,2.78,0,0,0-2.816,2.816v79.64H68.976a4.6,4.6,0,0,0-4.576,4.576,4.526,4.526,0,0,0,4.576,4.488H291.792a4.583,4.583,0,0,0,4.576-4.488A4.737,4.737,0,0,0,291.792,265.48ZM105.848,205.2H195.96a8.452,8.452,0,0,0-2.816,2.2L158.12,242.424h-12.5c-18.832,0-21.56,16.192-22.264,23.056H105.848S105.848,205.2,105.848,205.2Z" transform="translate(36.301 41.767)" fill="#fff"/>
    <path id="Tracé_130" data-name="Tracé 130" d="M348.98,296.8h-13.9a4.6,4.6,0,0,0-4.576,4.576,4.526,4.526,0,0,0,4.576,4.488h13.9a4.583,4.583,0,0,0,4.576-4.488A4.659,4.659,0,0,0,348.98,296.8Z" transform="translate(4.369 10.447)" fill="#fff"/>
    <path id="Union_23" data-name="Union 23" d="M0,102.2s13.024,12.936,28.336,13.375c15.4.528,22.7-5.28,22.7-5.28l-2.024-1.848,6.248-3.52,4.4,4.752s-4.224,5.632-24.9,10.472a25.027,25.027,0,0,1-5.745.674C11.579,120.821,0,102.2,0,102.2ZM65.12,74.123,72.248,67.7l5.1,5.9L70.224,80.02Zm-17.336,3.52c-19.8-.088-29.216-24.2-29.3-34.233V1.875C38.632.467,46.816-.676,54.736.467,63.448,1.7,66.528,2.755,66.176,28.275c6.513-1.232,7.92,4.488,8.009,5.808.176,2.2.352,8.976-7.568,8.976v3.52c0,8.624-3.256,18.216,4.488,21.649-2.71,2.884-17.144,9.417-23.2,9.417Z" transform="translate(214.045 114.147)" fill="#faded4"/>
    <path id="Tracé_189" data-name="Tracé 189" d="M501.985-939.544l-5.058-4.976,34.482-32.732,4.177,11.09Z" transform="translate(-286.671 1241.03)" fill="#faded4"/>
    <path id="Tracé_190" data-name="Tracé 190" d="M228.723,322.526l4.038,4.043,34.857-34.541c.174,0-2.209-2.586-3.546-2.4C263.044,290.191,228.723,322.526,228.723,322.526Z" transform="translate(-27.447 -34.754)" fill="#faded4"/>
    <path id="Union_10_1_" d="M260.464,232.174h35.552V207.446l1.848.088s3.344-34.848-4.224-40.3c-7.656-5.456-14.432,2.112-14.432,2.112L255.8,192.75l7.3,7.744s-.7,7.128.264,12.056C264.952,220.822,260.464,232.174,260.464,232.174Z" transform="translate(13.333 26.232)" fill="#3fae69"/>
    <path id="Rectangle_398_1_" d="M49.56,300h6.952a1.765,1.765,0,0,1,1.76,1.76h0a1.765,1.765,0,0,1-1.76,1.76H49.56a1.765,1.765,0,0,1-1.76-1.76h0A1.765,1.765,0,0,1,49.56,300Z" transform="translate(38.293 10.063)" fill="#002f2d"/>
    <path id="Rectangle_399_1_" d="M349.364,303.12h-13.9a1.765,1.765,0,0,1-1.76-1.76h0a1.765,1.765,0,0,1,1.76-1.76h13.9a1.765,1.765,0,0,1,1.76,1.76h0A1.825,1.825,0,0,1,349.364,303.12Z" transform="translate(3.985 10.111)" fill="#002f2d"/>
    <path id="Tracé_131" data-name="Tracé 131" d="M222.972,99.4a3.85,3.85,0,0,0-3.872,3.872,3.906,3.906,0,0,0,3.872,3.872,3.85,3.85,0,0,0,3.872-3.872v-.44a2.5,2.5,0,0,1-1.056.352,2.141,2.141,0,0,1-2.112-2.112,2.077,2.077,0,0,1,.616-1.408A3.531,3.531,0,0,0,222.972,99.4Z" transform="translate(17.737 34.135)" fill="#002f2d"/>
    <path id="Tracé_132" data-name="Tracé 132" d="M266.2,124.5h2.992a8.894,8.894,0,0,0,9.24-9.328c0-5.632-3.872-9.152-9.328-9.152v-1.144l.176-4.576-2.64.088-.176,7.92a16.984,16.984,0,0,0,2.728.088c3.608,0,5.808,2.992,5.808,6.776,0,3.432-1.672,6.6-5.808,6.6h-2.816Z" transform="translate(12.085 34.027)" fill="#002f2d"/>
    <path id="Tracé_133" data-name="Tracé 133" d="M270.732,141.532a27.1,27.1,0,0,0,19.888-9.416,22.93,22.93,0,0,0,5.192-15.84s-3.96-21.472-5.192-31.592c-1.32-10.384-.088-22.088-11-32.3-8.8-8.272-19.888-11.176-31.152-11.088-7.216.088-18.392.7-28.424,4.752-8.712,3.608-11.7,16.368-11.7,16.368s-2.816,13.288.264,13.376c13.376-.352,30.712-2.376,30.712-2.376s10.736-1.144,17.072,1.936c4.488,2.552,3.168,17.952,3.168,17.952a48.04,48.04,0,0,1,.616,6.424,18.53,18.53,0,0,1,5.192.88s3.96.88,3.96,7.3c0,0,.176,8.184-7.656,8.1a50.635,50.635,0,0,1-1.5,13.024c-1.848,6.072.88,12.584,7.128,12.32C267.124,141.532,269.236,141.532,270.732,141.532Z" transform="translate(19.169 41.107)" fill="#002f2d"/>
    <path id="Tracé_134" data-name="Tracé 134" d="M218.844,70.7a83.248,83.248,0,0,0-1.144,8.624s1.76-.088,2.464-.088C220.164,79.236,218.756,72.284,218.844,70.7Z" transform="translate(17.905 37.579)" fill="#f8ccc1"/>
    <path id="Soustraction_12" data-name="Soustraction 12" d="M224.576,233.108H1.761a1.76,1.76,0,1,1,0-3.52H30.536V147.572h86.416a51.266,51.266,0,0,1-7.656-6.16H73.129L39.6,107.092l2.553-2.288,31.415,31.416h35.464a47.142,47.142,0,0,0,6.664,6.268,45.333,45.333,0,0,0,7.834,4.864,42.777,42.777,0,0,0,8.792,3.149,41.273,41.273,0,0,0,9.534,1.119c7.282,0,14.72-.626,25.608-8.184l-2.9-2.9a47.384,47.384,0,0,1-22.792,5.808c-6.386,0-10.4-.786-13.869-2.713-3.449-1.919-6.33-4.922-10.691-9.467l-.008-.008c-1.532-1.6-3.439-3.586-5.615-5.763-5.44-5.441-8.461-5.9-11.088-5.9a9.048,9.048,0,0,0-7.149,3.1,12.993,12.993,0,0,0-2.53,4.818H86.768a14.094,14.094,0,0,1,4.51-7.887,14.394,14.394,0,0,1,9.658-3.465,14.231,14.231,0,0,1,8.249,2.749,29.309,29.309,0,0,1,5.057,4.746c.431.484.758.848,1.038,1.129,1.271,1.271,2.412,2.438,3.419,3.469,3.975,4.065,6.845,7,10.188,8.951,3.474,2.027,7.326,2.892,12.88,2.892a41.043,41.043,0,0,0,10.495-1.375,43.124,43.124,0,0,0,9.57-3.817l-3.7-3.7,19.976-19.976c-1.459-1.546-3.709-3.8-4.918-5.007l-.03-.03-.007-.008-.061-.06a38.31,38.31,0,0,1-7.941,2.74,39.044,39.044,0,0,1-8.6.957,35.261,35.261,0,0,1-13.543-2.634,34.424,34.424,0,0,1-10.92-7.221A37.875,37.875,0,0,1,124.4,92.083a42.5,42.5,0,0,1-3.842-13.327,14.6,14.6,0,0,1-.265-2.816V75.5a9.785,9.785,0,0,1-4.41-3.323,9.339,9.339,0,0,1-1.574-5.565c0-2.5,1.053-5.976,6.071-8.36v-18.3h3.872V61.332a5.88,5.88,0,0,0-4.091,1.705,5.336,5.336,0,0,0-1.716,3.751,6.281,6.281,0,0,0,1.914,4.51,5.792,5.792,0,0,0,3.893,1.738v1.231c0,.951,0,1.849.088,2.816a38.166,38.166,0,0,0,1.936,8.976l.045.106c.951,2.262,1.362,3.2,1.539,3.59a21.382,21.382,0,0,0,1.525,2.771l.129.207c.087.14.181.291.282.454a33.516,33.516,0,0,0,11.023,11.561,29.691,29.691,0,0,0,15.9,4.367,34.405,34.405,0,0,0,11.98-2.266,36.687,36.687,0,0,0,10.2-5.83l5.456-.088c.568-.02,2.117-.752,4.6-2.176,2.061-1.18,4.737-2.82,7.739-4.742,5.621-3.6,10.541-6.994,10.625-7.249,2.476-6.693.018-17.5-.088-17.952-.3-1.275-.622-2.419-.963-3.63l0-.006c-1.274-4.527-2.717-9.658-3.963-24.611-.175-2.1-.351-4.294-.352-4.312a40.72,40.72,0,0,0-3.337-13.8,29.059,29.059,0,0,0-5.791-8.492,23.946,23.946,0,0,0-8.987-5.835l-.006,0-.094-.033a56.723,56.723,0,0,0-11.1-3.185A60.073,60.073,0,0,0,162.1,3.988,76.217,76.217,0,0,0,143.617,6.42a62.494,62.494,0,0,0-10.461,3.9,42.21,42.21,0,0,0-7.4,4.374,16.427,16.427,0,0,0-5.111,5.8c-1.711,3.655-2.25,6.742-3.144,11.858-.105.6-.236,1.349-.376,2.135l-4.487-.176c.477-3.572.945-6.3,1.474-8.6a36.191,36.191,0,0,1,2.134-6.622,21.529,21.529,0,0,1,6.185-7.75A39.646,39.646,0,0,1,130.812,6.2a58.587,58.587,0,0,1,11.4-3.916A101.659,101.659,0,0,1,162.878,0a59.49,59.49,0,0,1,22.978,4.132c.033.014.092.037.206.08a29.342,29.342,0,0,1,10.444,6.922,33.274,33.274,0,0,1,6.5,9.574,44.9,44.9,0,0,1,3.7,15.28,188.5,188.5,0,0,0,3.19,23.771,78.435,78.435,0,0,0,2,7.993c.007.038.026.118.055.239v0l.017.071a47.044,47.044,0,0,1,1.218,7.625,29.9,29.9,0,0,1-1.378,12.392,22.44,22.44,0,0,1-4.564,6.963,29.516,29.516,0,0,1-6.635,5.325,35.962,35.962,0,0,1-10.538,4.08c-.176,0-.953.087-2.376.265l.528.527a1.815,1.815,0,0,1,.438.784,14.662,14.662,0,0,1,13.377,2.208,5.673,5.673,0,0,1,2.123-2.552,5.972,5.972,0,0,1,7.415.715,5.726,5.726,0,0,1,1.727,4.125v82.192a11.7,11.7,0,0,1-1.039,4.8,12.93,12.93,0,0,1-2.854,4.043,13.712,13.712,0,0,1-9.571,3.828c-6.83,0-23.269-.074-26.01-.088H173.8v16.9l14.52.088a5.873,5.873,0,0,1,10.384,3.784,5.731,5.731,0,0,1-1.144,3.432h27.1a1.709,1.709,0,0,1,1.672,1.849A1.762,1.762,0,0,1,224.576,233.108Zm-79.411-36.23h0L112.742,223l6.674,6.586h29.569v-32.71ZM35.113,163.939V229.5h23.32l-.088-.088A31.114,31.114,0,0,1,59.017,223a28.051,28.051,0,0,1,1.876-5.865,20.08,20.08,0,0,1,3.826-5.729c3.48-3.586,8.234-5.4,14.129-5.4H90.816l23.869-23.87,8.182-8.182,3.237-3.237a6.559,6.559,0,0,1,4.84-2.2c.982,0,9.825,0,17.951-.088v-4.488ZM164.472,149.6a3.575,3.575,0,0,1-.968.528,38.486,38.486,0,0,1-10.208,3.608v75.68h34.672a5.633,5.633,0,0,1-1.056-2.728l-13.2-.088H157.785v-4.488h11.44v-16.9H157.873V195.093l.627,0c13.366-.06,21.839-.072,26.594-.072,6.924,0,11.283.026,12.956.076.132,0,.273.006.432.006,2.717,0,4.1-.828,4.777-1.522a2.9,2.9,0,0,0,.833-1.522V174.649h-.018V118.444a11.058,11.058,0,0,0-11-9.768,11.189,11.189,0,0,0-7.744,3.168l-22.087,22.088,15.751,15.84,15.929-15.928,2.728,2.728-18.48,18.392-8.8-8.8c-.274.183-.586.374-.836.528-.307.188-.581.358-.836.527a67.8,67.8,0,0,0-.176,12.408,35.925,35.925,0,0,1-1.405,12.278H157.8v.043h-.061V168.34h6.113a26.948,26.948,0,0,0,.7-8.272,71.5,71.5,0,0,1-.088-10.473ZM76.648,215.772a13.966,13.966,0,0,0-5.255,1.048,12.424,12.424,0,0,0-4.5,3.111,10.916,10.916,0,0,0-2.651,8.689l48.927.264L100.057,215.86c-4.766,0-10.294-.03-14.331-.052h-.387C81.843,215.787,78.824,215.772,76.648,215.772Zm58.874-38.5h0a29.9,29.9,0,0,1,2.041,2.988,3.755,3.755,0,0,0-.987.837c-.779.866-32.854,32.332-33.176,32.648l7.438,7.385L144.051,195h.124a5.2,5.2,0,0,0,1.27.06c1.345,0,3.325-.05,3.547-.055l0-20.565h-.011v-2.5c-4.92,0-10.669-.028-17.088-.082h-.011l-.405,0h-.032l-.416,0A3.175,3.175,0,0,0,128.481,173c-.833.75-29.623,29.694-32.9,32.992l-.05.051-.047.046,5.544,5.367c6.69-6.689,28.424-28.422,32.416-32.415l.5-.5a10.752,10.752,0,0,1,1.585-1.273ZM78.76,209.436a19.281,19.281,0,0,0-9.361,1.958,11.873,11.873,0,0,0-3.6,3.017,15.281,15.281,0,0,0-2.532,4.881,13.131,13.131,0,0,1,4.51-4.345A19.762,19.762,0,0,1,77.7,212.78H96.976l-3.52-3.344ZM181.633,103.571h0a37.834,37.834,0,0,1-5.368,3.872c.29.29.614.609.949.938l.009.009.023.023c1.123,1.107,2.4,2.361,3.331,3.43L182.425,110a.81.81,0,0,0,.27-.252,1.1,1.1,0,0,1,.082-.1,20.524,20.524,0,0,1,2.728-2.112l-1.086-1.085-.05-.05-1.152-1.153v-.088l-1.584-1.584Z" transform="translate(104.308 80.211)" fill="#002f2d"/>
    <path id="Union_31" data-name="Union 31" d="M65.681,20.65c-5.672-.171-40.244,0-40.244,0L25.521.206h46.2V17.612s-.351,3.044-5.61,3.044C65.972,20.656,65.829,20.654,65.681,20.65Zm-53.946-.085L0,0H16.628V20.565ZM25.521.206Z" transform="translate(236.676 254.655)" fill="#3fae69"/>
    <path id="Tracé_191" data-name="Tracé 191" d="M316.223,120.467c.5,1.819,3.427,4.392,5.427,4.408s3.14-9.523,3.14-9.523S315.724,118.648,316.223,120.467Z" transform="translate(-33.392 -7.972)" fill="none" stroke="#3fae69" stroke-width="2"/>
  </g>
  <path id="bouche" d="M211.269,137.3c8.7-1.483,16.118-7.812,20.271-15.03l-2.326-1.571-1.333-.9c-3.856,7.317-10.086,12.36-18.491,13.151A11.664,11.664,0,0,0,211.269,137.3Z" transform="translate(21.884 39.628)" fill="#002f2d"/>
  <g id="Groupe_47" data-name="Groupe 47" transform="translate(128.629 69.626)">
    <path id="Union_11" data-name="Union 11" d="M47.2,126.9l-9.9,1.8a4.1,4.1,0,0,1-1.1-.1,4.464,4.464,0,0,1-2.8-1.9,4.983,4.983,0,0,1-.6-3.4l1.9-9a23.333,23.333,0,0,1,5-26,23.594,23.594,0,0,1,16.8-6.9A23.222,23.222,0,0,1,72.9,88l.6.5a23.753,23.753,0,0,1-8.2,38.6,24.575,24.575,0,0,1-8.8,1.7A23.445,23.445,0,0,1,47.2,126.9ZM0,87.8a14.8,14.8,0,1,1,14.8,14.8A14.8,14.8,0,0,1,0,87.8ZM26.6,70A35.542,35.542,0,0,1,6.9,50.7,35.9,35.9,0,0,1,14.4,11l.4-.5.2-.1A35.887,35.887,0,0,1,40.3,0h.3A35.564,35.564,0,0,1,65.9,10.5a35.9,35.9,0,0,1,7.7,39.9l-.1.1a1.729,1.729,0,0,0-.1,1l2.8,14.6a5.126,5.126,0,0,1-.7,4,5.392,5.392,0,0,1-3.4,2.3,4.868,4.868,0,0,1-1.2.1l-1.1-.1L55.4,69.5a2.536,2.536,0,0,0-1.2.2,36.029,36.029,0,0,1-27.6.3Z" fill="#fff"/>
    <path id="Tracé_56" data-name="Tracé 56" d="M163.8,77,166,88.3,154.8,86a9.853,9.853,0,0,0-1.7-.2,9.954,9.954,0,0,0-3.8.8,35.826,35.826,0,0,1-6.4,1.8,23.718,23.718,0,0,1-4.6.3,28.185,28.185,0,0,1-27.6-23.8v-.2h0a27.312,27.312,0,0,1,2-15.2,28.178,28.178,0,1,1,51.8,22.2A8.839,8.839,0,0,0,163.8,77Z" transform="translate(-95.4 -22.1)" fill="#5eb6e4" opacity="0.197"/>
    <path id="Tracé_59" data-name="Tracé 59" d="M151,145.4a15.773,15.773,0,0,1-3.7-1.1,5.45,5.45,0,0,0-2.2-.5,3.751,3.751,0,0,0-1,.1l-6.6,1.2,1.5-6.5a5.525,5.525,0,0,0-.3-3.1,16.4,16.4,0,0,1,.2-12.5,16.027,16.027,0,0,1,9-8.7,16.4,16.4,0,0,1,12.5.2,16.027,16.027,0,0,1,8.7,9,16.583,16.583,0,0,1,.9,8.8h0v.1a16.314,16.314,0,0,1-16.4,13.3A23,23,0,0,1,151,145.4Z" transform="translate(-95.4 -22.1)" fill="#3fae69" opacity="0.198"/>
    <path id="Union_12" data-name="Union 12" d="M45.3,120.9a2.773,2.773,0,0,0-1.3-.3h-.5l-9,1.8h-.7a1.553,1.553,0,0,1-.8-.6,1.164,1.164,0,0,1-.2-1l1.9-9a2.249,2.249,0,0,0-.2-1.8A20.54,20.54,0,0,1,67.9,87.4l.1.1h.1A20.449,20.449,0,0,1,72.4,110,20.079,20.079,0,0,1,61,121.1a21.077,21.077,0,0,1-7.7,1.476A19.817,19.817,0,0,1,45.3,120.9Zm1.4-3a17.409,17.409,0,0,0,3.9,1.1,13.368,13.368,0,0,0,2.8.1,17.36,17.36,0,0,0,17.1-14.5v-.1a17.773,17.773,0,0,0-1.1-9.4A17.15,17.15,0,0,0,60,85.8a17.5,17.5,0,0,0-13.3.1,17.15,17.15,0,0,0-9.3,9.4,17.5,17.5,0,0,0,.1,13.3,5.429,5.429,0,0,1,.4,3.3l-1.4,7,6.9-1.4a3.4,3.4,0,0,1,1-.1A5.92,5.92,0,0,1,46.7,117.9ZM58,103.2a2,2,0,1,1,2,2A2.006,2.006,0,0,1,58,103.2Zm-6.5,0a2,2,0,1,1,2,2A2,2,0,0,1,51.5,103.2Zm-6.6,0a2,2,0,1,1,2,2A2,2,0,0,1,44.9,103.2ZM0,84.7A11.7,11.7,0,1,1,11.7,96.4,11.715,11.715,0,0,1,0,84.7Zm2.5-.1a9.2,9.2,0,1,0,9.2-9.2A9.176,9.176,0,0,0,2.5,84.6Zm8.1,4.6V83.9a1.1,1.1,0,0,1,2.2,0v5.3a1.1,1.1,0,0,1-2.2,0Zm0-8.5a1.1,1.1,0,1,1,1.1,1.1A1.1,1.1,0,0,1,10.6,80.7ZM24.5,63.8A32.914,32.914,0,0,1,13.3,10l.2-.1.2-.2a33.074,33.074,0,0,1,46.7-.1A32.7,32.7,0,0,1,67.5,46a4.816,4.816,0,0,0-.4,2.9L70,63.5a2.225,2.225,0,0,1-.3,1.6,1.76,1.76,0,0,1-1.3.9H67.3L52.8,63.1H52a5.382,5.382,0,0,0-2.2.4,32.657,32.657,0,0,1-25.3.3ZM26.1,6.3A28.861,28.861,0,0,0,8.4,37.5v.2A29.124,29.124,0,0,0,37,62a24.826,24.826,0,0,0,4.7-.4,29.422,29.422,0,0,0,6.6-1.9,10.884,10.884,0,0,1,3.9-.8,11.131,11.131,0,0,1,1.7.2l11.6,2.3L63.1,49.8a8.443,8.443,0,0,1,.7-5.4A29,29,0,0,0,37.1,4.14,29.4,29.4,0,0,0,26.1,6.3Zm9.4,37A1.5,1.5,0,1,1,37,44.8,1.5,1.5,0,0,1,35.5,43.3Zm.1-5.7V34.7a1.538,1.538,0,0,1,1.5-1.5,4.4,4.4,0,1,0-4.4-4.4,1.5,1.5,0,0,1-3,0v-.2a7.3,7.3,0,0,1,14.6.2A7.479,7.479,0,0,1,38.6,36v1.6a1.5,1.5,0,0,1-3,0Z" transform="translate(3.1 3.199)" fill="#002f2d"/>
  </g>
</svg>
