<svg id="login-2" xmlns="http://www.w3.org/2000/svg" width="440" height="352" viewBox="0 0 440 352">
  <g id="bg">
    <rect id="Rectangle_1" data-name="Rectangle 1" width="440" height="352" fill="rgba(255,255,255,0)"/>
    <path id="Tracé_1" data-name="Tracé 1" d="M25.342,214.093C34.207,227.134,77.011,253.3,77.011,253.3H251.184s126.134-64.7,59.774-131C267.816,79.166,220.706,10.2,130.116,8.693,48.39,7.272,26.608,47.148,13.184,91.873,2.715,126.649-1.928,179.149,25.342,214.093Z" transform="translate(52.033 52.344)" fill="#3fae69" opacity="0.084"/>
  </g>
  <g id="Groupe_51" data-name="Groupe 51" transform="translate(31 52.9)">
    <g id="Groupe_50" data-name="Groupe 50">
      <path id="Tracé_137" data-name="Tracé 137" d="M379.6,294.5H309.9a24.316,24.316,0,0,0,3-12.9H294.6l-.1-43.7,9-2.8.3-17V218l14.1-14.5s3.2-3.1.6-6.2l-8.5-8.8v-.1s17.1-1.4,28.1-4.9A29.809,29.809,0,0,0,355.6,168c6.3-14.3-3.6-40.5-3.2-43.1,0,0,4.1-7.1-1.4-13.6l-1.8-25c-1.2-9.6-4.4-16.2-9.2-21.5-8-8.9-20.2-11.3-20.2-11.3s-38.2-16-62.8,8.9C245.1,76,244,86.9,242.7,99.6c-.4,10.5-4.4,34.5-5.7,40.3-4.8,21.8,3.5,30.9,3.5,30.9H230.3l.2,7.9H169.1s-3.2-8.7-18.2-8.7c-15.1,0-22.5,20.9-22.5,20.9L91,153.8l-6.5,6.4,39.4,42.3H59.3v92H8a5.271,5.271,0,0,0-5.3,5.3A5.335,5.335,0,0,0,8,305.1H379.7a5.271,5.271,0,0,0,5.3-5.3A5.49,5.49,0,0,0,379.6,294.5ZM125.4,269s-1.1-.4-14.6-.4c-17.7,0-22.9,19.4-24.2,26H71.9V229.2h94.4Zm130.4,25.5a10.647,10.647,0,0,0-18.8-6.8l-9.4-.3.1-11.6,19.1.2,25.4-25.7v34.8a22.263,22.263,0,0,0,2.4,9.5Z" transform="translate(-2.7 -48.439)" fill="#fff"/>
      <path id="Tracé_4859_5_" d="M283.9,176l-11.6,11.2s3.3,5.2,9.8,0a103.276,103.276,0,0,0,10.2-9.6l-7.6-1.5Z" transform="translate(-2.7 -48.439)" fill="#f8cdc2"/>
      <path id="Union_5_5_" d="M271.3,176.5l3.6,4s-6.1,4.8-.9,8.7c5.1,3.8,9.4-1.8,9.4-1.8l7.4,6.2,7.2,13.8,1.4,21.2-28.5,9.3-26.7,24-27.9-28.5a51.683,51.683,0,0,0,20-18C241,208,248.3,197.1,271.3,176.5ZM241,186.7h13.6L241,200.5V186.7Z" transform="translate(-2.7 -48.439)" fill="#3fae6a"/>
      <path id="Tracé_138" data-name="Tracé 138" d="M197.5,246.4" transform="translate(-2.7 -48.439)" fill="#002f2d"/>
      <path id="Tracé_139" data-name="Tracé 139" d="M299.3,162.6" transform="translate(-2.7 -48.439)" fill="#002f2d"/>
      <path id="Tracé_140" data-name="Tracé 140" d="M136.4,237.5" transform="translate(-2.7 -48.439)" fill="#002f2d"/>
      <path id="Tracé_141" data-name="Tracé 141" d="M307.4,237.5" transform="translate(-2.7 -48.439)" fill="#002f2d"/>
      <path id="Tracé_142" data-name="Tracé 142" d="M239.6,189.5" transform="translate(-2.7 -48.439)" fill="#002f2d"/>
      <path id="Tracé_143" data-name="Tracé 143" d="M313.6,177.5" transform="translate(-2.7 -48.439)" fill="#002f2d"/>
      <path id="Union_4_5_" d="M282.5,285.2V240.8h-3v-5.4l8.8-2.6,1,4.8v47.5l-6.8.1Z" transform="translate(-2.7 -48.439)" fill="#faded4"/>
      <path id="Tracé_4860_5_" d="M157,185.4h79.6v4.5H149.4S151.1,185.4,157,185.4Z" transform="translate(-2.7 -48.439)" fill="#faded4"/>
      <rect id="Rectangle_396_5_" width="5.5" height="19.2" transform="translate(266.4 169.461)" fill="#fff"/>
      <path id="Rectangle_385_5_" d="M29.6,298.5H338.1a2.006,2.006,0,0,1,2,2h0a2.006,2.006,0,0,1-2,2H29.6a2.006,2.006,0,0,1-2-2h0A1.944,1.944,0,0,1,29.6,298.5Z" transform="translate(-2.7 -48.439)" fill="#002f2d"/>
      <path id="Rectangle_386_5_" d="M10.2,298.5H18a2.006,2.006,0,0,1,2,2h0a2.006,2.006,0,0,1-2,2H10.2a2.006,2.006,0,0,1-2-2h0A2,2,0,0,1,10.2,298.5Z" transform="translate(-2.7 -48.439)" fill="#002f2d"/>
      <path id="Rectangle_388_5_" d="M377,302.3H349.8a2.006,2.006,0,0,1-2-2h0a2.006,2.006,0,0,1,2-2H377a2.006,2.006,0,0,1,2,2h0A2.149,2.149,0,0,1,377,302.3Z" transform="translate(-2.7 -48.439)" fill="#002f2d"/>
      <path id="Tracé_144" data-name="Tracé 144" d="M61.3,205.5v96.4h5.1V224.2H196.3v5.3c-9.5.1-19.8.1-20.5.1-2.4,0-3.8.9-5.5,2.6L130,272.5H116.3c-24.2,0-23.3,26.7-23.3,26.8h69.6l-5.6-5.407L191.088,265.4H196.3v36.5h5.1V224.2h0V205.5ZM173,234.7a3.33,3.33,0,0,1,2.9-1.3c.4,0,10.5.1,20.5.1v5c-6.1,0-11.1.1-11.5.1-2.4,0-3.8.9-5.5,2.6l-37.6,37.6-6.4-6.2C135.3,272.4,172.1,235.7,173,234.7ZM98.7,287.6c3-9.1,9.8-11.3,17.7-11.3h16.8l3.8,3.8H115c-10.3,0-14.1,4.1-16.3,7.5Zm1.1,10.7c-1-9.6,7.1-14.7,14.2-14.7,5.8,0,17.3.1,26.7.1l15,14.8Zm54.278-7.09L144.4,281.1s36.9-36.2,37.9-37.2a3.33,3.33,0,0,1,2.9-1.3c.3,0,5,0,11.1-.1V260h-5.212Z" transform="translate(-2.7 -48.439)" fill="#002f2d"/>
      <path id="Tracé_145" data-name="Tracé 145" d="M197.5,246.1" transform="translate(-2.7 -48.439)" fill="#ea5b27"/>
      <path id="Tracé_146" data-name="Tracé 146" d="M136.4,237.3" transform="translate(-2.7 -48.439)" fill="#ea5b27"/>
      <path id="Tracé_147" data-name="Tracé 147" d="M307.4,237.3" transform="translate(-2.7 -48.439)" fill="#ea5b27"/>
      <path id="Tracé_148" data-name="Tracé 148" d="M238.9,189.6" transform="translate(-2.7 -48.439)" fill="#ea5b27"/>
      <path id="Tracé_149" data-name="Tracé 149" d="M126.1,192.7,90.3,156.8l-3,2.7,38.3,39.1h54.1v-5.9Z" transform="translate(-2.7 -48.439)" fill="#002f2d"/>
      <path id="Tracé_150" data-name="Tracé 150" d="M311.6,194.7l-15.1-15.1-17.5-6-3.5,3.5c-.4-.3-2.1-1.6-2.6-2a14.02,14.02,0,0,0-8.1-2.2c-14.4,0-29.2-.1-29.2-.1l-.1,9H166.7a15.548,15.548,0,0,0-14.5-8.9,16.718,16.718,0,0,0-16.7,13.2h4.6c.8-2.7,3.7-9,11.7-9,8.5,0,10.9,6.9,10.9,8.9.8,0,60.1-.3,72.7-.3v19c-.4.5-1,1.3-1,1.3-1,1.4-2,2.9-3,4.4-6.5,10.1-16.782,16.528-18.8,17.8s-3.921,1.4-6.6,1.4v4.1h7l4.8,4.8c-2.8,0-7.1.1-11.9.1v4.1c6.7,0,13.1-.1,16-.1l17.8,17.5h-34V272h13v19.3h-13v5.1h18.1l15.1.1a6.676,6.676,0,1,0,6.6-7.5,6.888,6.888,0,0,0-5.1,2.4l-16.5-.1V272h20.5l33.1-33.1c0,12.1-.5,38.4-.5,46.5,0,10.7,8.6,16.6,16.7,16.6s16-6.2,16-16.5h-4.2c0,4.1-2.3,13.1-11.7,13.1-9.5,0-13.3-7.8-13.3-13.1,0-2.7.4-40.3.4-49.3l6.6-1.9v51.3h3.4V233.8l9-2.7V216.5L312,204.4C314.6,201.8,314.8,197.9,311.6,194.7Zm-35.7-13.8,5.9-5.9a45.418,45.418,0,0,0,7.5,3.1l-8.5,8.5c-1.7,1.7-4.2,3-6.3.8C272.4,185.3,274.4,182.4,275.9,180.9Zm21.3,46.7-25.9,7.9V217.8h-3.1v16.9l-24.4,24.2L215,230.6a60.866,60.866,0,0,0,19.2-18.4c7.5-11.6,14-16.8,14.1-16.9l-2-2.5a64.115,64.115,0,0,0-8.2,8.5l.2-25.3h26.1c4,0,6.2.6,8.9,3.3-2.3,2.3-3.6,7-.7,9.9,3.6,3.6,8.5.9,10.3-1,6.5,6.5,14,12.4,14.3,22.5v16.9Z" transform="translate(-2.7 -48.439)" fill="#002f2d"/>
      <g id="Groupe_48" data-name="Groupe 48" transform="translate(163.1 63.161)">
        <path id="Tracé_151" data-name="Tracé 151" d="M203.3,114.7a6.04,6.04,0,0,0-3,.7h0a6.765,6.765,0,0,0-3.1-.7,7.719,7.719,0,0,0-1.5.2H180.8v-3.1h-7.2v5.1H173v-5.1h-7.2v17.6H173v-5.6h.7v5.6h7.2v-1.1a5.955,5.955,0,0,0,3.8,1.2,7.773,7.773,0,0,0,1.6-.2h22.8v-8.8a6.089,6.089,0,0,0-1.5-4.3A6.386,6.386,0,0,0,203.3,114.7Z" transform="translate(-165.8 -111.6)" fill="#fff"/>
        <path id="Tracé_152" data-name="Tracé 152" d="M220.7,113a6.2,6.2,0,0,0-4.3-1.4,9.225,9.225,0,0,0-4.9,1.3l-2.1,1.2,2.9,6,1-.5-.1.1a6.438,6.438,0,0,0-.7,2.8v1.6a4.776,4.776,0,0,0-.4,1.8,4.333,4.333,0,0,0,1,2.8,3.868,3.868,0,0,0,2.8,1.2,3.631,3.631,0,0,0,2.8-1.2,3.763,3.763,0,0,0,1-2.7,3.677,3.677,0,0,0-.5-2v-1a1.381,1.381,0,0,1,.4-.3,8.941,8.941,0,0,0,1.7-1.6,5.854,5.854,0,0,0,1-1.7,6.537,6.537,0,0,0,.4-2.1A6.229,6.229,0,0,0,220.7,113Zm-6.1,12.6h0v.5c0-.1-.1-.2-.1-.3A.349.349,0,0,0,214.6,125.6Zm2.6.2h0v-.2h0a.139.139,0,0,0,0,.2Z" transform="translate(-165.8 -111.6)" fill="#fff"/>
      </g>
      <g id="Groupe_49" data-name="Groupe 49" transform="translate(165.6 65.561)">
        <path id="Tracé_153" data-name="Tracé 153" d="M178.3,126.9h-2.1v-5.6h-5.8v5.6h-2.1V114.4h2.1v5.1h5.8v-5.1h2.1Z" transform="translate(-168.3 -114)" fill="#002f2d"/>
        <path id="Tracé_154" data-name="Tracé 154" d="M188.1,126.9l-.3-1.3h-.1a4.263,4.263,0,0,1-1.2,1.1,4.223,4.223,0,0,1-4.4-.5,3.573,3.573,0,0,1-.9-2.6v-6.2h2.1v5.8a2.86,2.86,0,0,0,.5,1.7,1.678,1.678,0,0,0,1.4.6,2.268,2.268,0,0,0,1.9-.8,4.326,4.326,0,0,0,.6-2.6v-4.7h2.1v9.5Z" transform="translate(-168.3 -114)" fill="#002f2d"/>
        <path id="Tracé_155" data-name="Tracé 155" d="M200.5,126.9h-2.1v-5.8a2.861,2.861,0,0,0-.4-1.7,1.428,1.428,0,0,0-1.3-.5,1.879,1.879,0,0,0-1.7.8,4.326,4.326,0,0,0-.6,2.6V127h-2v-9.5H194l.3,1.3h.1a3.179,3.179,0,0,1,1.2-1.1,3.287,3.287,0,0,1,1.7-.4c1.5,0,2.5.5,2.9,1.5h.1a3.179,3.179,0,0,1,1.2-1.1,3.425,3.425,0,0,1,1.8-.4,3.042,3.042,0,0,1,2.5.9,4.138,4.138,0,0,1,.8,2.7v6.2h-2v-5.8a2.861,2.861,0,0,0-.4-1.7,1.428,1.428,0,0,0-1.3-.5,1.83,1.83,0,0,0-1.7.7,3.715,3.715,0,0,0-.6,2.3l-.1,4.8Z" transform="translate(-168.3 -114)" fill="#002f2d"/>
        <path id="Tracé_156" data-name="Tracé 156" d="M214.9,123.1v-.6a3.808,3.808,0,0,1,.3-1.6,3.559,3.559,0,0,1,1.2-1.3,5.138,5.138,0,0,0,1.3-1.3,2.016,2.016,0,0,0,.3-1.1,1.29,1.29,0,0,0-.5-1.1,1.955,1.955,0,0,0-1.4-.4,6.052,6.052,0,0,0-1.5.2,8.428,8.428,0,0,0-1.4.6l-.7-1.5a7.107,7.107,0,0,1,3.7-1,4.551,4.551,0,0,1,2.7.8,2.765,2.765,0,0,1,1,2.3,5.02,5.02,0,0,1-.2,1.2,2.664,2.664,0,0,1-.6,1c-.3.3-.7.7-1.3,1.2a5.626,5.626,0,0,0-1.1,1.1,2.016,2.016,0,0,0-.3,1.1v.4Zm-.3,2.7c0-.9.4-1.3,1.3-1.3a1.689,1.689,0,0,1,1,.3,1.493,1.493,0,0,1,.3,1,1.689,1.689,0,0,1-.3,1,1.333,1.333,0,0,1-1,.4,1.284,1.284,0,0,1-1-.4A1.327,1.327,0,0,1,214.6,125.8Z" transform="translate(-168.3 -114)" fill="#002f2d"/>
      </g>
      <path id="Tracé_157" data-name="Tracé 157" d="M300.2,230.8" transform="translate(-2.7 -48.439)" fill="#fff"/>
      <path id="e_1_" d="M295.2,175.9c22.4.2,41.1-17.8,41.1-31.5s.7-8.8.7-19.5c6.1.4,8.7-2.8,8.8-8.5s0-4.8-7.1-6c0-8-8.6-9.7-10.4-21.2-.5-3.2-16.242-18.164-20.642-17.064C292.058,75.936,286.7,99.6,260.8,100.4V141C260.7,151.9,271.8,175.8,295.2,175.9Z" transform="translate(-2.7 -48.439)" fill="#faded4"/>
      <path id="Tracé_158" data-name="Tracé 158" d="M279.6,110.5a9.454,9.454,0,0,0-9.5,8.4h3.2a6.456,6.456,0,0,1,6.4-5.2,6.555,6.555,0,0,1,6.4,5.2h3.2A9.878,9.878,0,0,0,279.6,110.5Z" transform="translate(-2.7 -48.439)" fill="#002f2d"/>
      <path id="Tracé_159" data-name="Tracé 159" d="M310.5,111.5a4.4,4.4,0,0,0,0,8.8,4.439,4.439,0,0,0,4.4-4.4.9.9,0,0,0-.1-.5,2.836,2.836,0,0,1-1.3.4,2.369,2.369,0,0,1-2.4-2.4,2.609,2.609,0,0,1,.7-1.7A4.438,4.438,0,0,0,310.5,111.5Z" transform="translate(-2.7 -48.439)" fill="#002f2d"/>
      <path id="Tracé_160" data-name="Tracé 160" d="M303.2,141l3-3.2a16.191,16.191,0,0,0-20.7,7.1,15.84,15.84,0,0,0,0,15.5l3-3.2A12.213,12.213,0,0,1,303.2,141Z" transform="translate(-2.7 -48.439)" fill="#002f2d"/>
      <path id="Soustraction_5" data-name="Soustraction 5" d="M65.448,135.652c-.616,0-1.168-.04-1.229-.044l-3.2-3.2a11.021,11.021,0,0,1-1.2.1l-6.7-3.9.2-1.2c-1.972-.094-3.436-.189-3.6-.2a41.328,41.328,0,0,1-9.6-3l-3.9,4.5a10.287,10.287,0,0,0-1.994-2.589,9.063,9.063,0,0,0-6.318-2.589,10.522,10.522,0,0,0-1.887.177l-5.9-1a23.935,23.935,0,0,1-7.625-7.213,32.59,32.59,0,0,1-4.778-10.38,46.786,46.786,0,0,1-1.2-16.108,66.749,66.749,0,0,0-1.087,7.661c-.331,3.91-.428,9.45.987,13.64a25.813,25.813,0,0,0,9.3,12.1h-7.7a30.243,30.243,0,0,1-6.5-10.5C.209,108.258-.257,103.411.134,97.5a74.844,74.844,0,0,1,1.241-9.365c.023-.118.038-.194.044-.228l.1-.3a63.927,63.927,0,0,0,2.05-9.125,308.819,308.819,0,0,0,3.55-31.175,61.908,61.908,0,0,1,4.3-19.3,48.245,48.245,0,0,1,7.483-12.561,41.166,41.166,0,0,1,7.239-6.88,25.992,25.992,0,0,1,3.573-2.258A62.7,62.7,0,0,1,43.4,1.373,54.006,54.006,0,0,1,55.432,0c9.36,0,16.778,2.472,21.686,4.108,1.075.414,2.03.7,2.872.943l.04.012.489.145a41.027,41.027,0,0,1,14.9,7.363,25.4,25.4,0,0,1,8.3,11.337A97.1,97.1,0,0,1,106.681,34.7a100.864,100.864,0,0,1,1.838,15.813c.053,1.178.136,2.332.216,3.448.071.992.138,1.925.184,2.852,0,.515.1,3.526.2,5a10.2,10.2,0,0,1,2.5,7,11.884,11.884,0,0,1-1,4.7c.619,3.606,1.008,5.533,1.1,5.9.026.1.074.267.134.48,3.459,12.24,4.832,22.9,3.866,30.02a22.058,22.058,0,0,1-2.628,7.8,23.646,23.646,0,0,1-4.222,5.411,25.2,25.2,0,0,1-6.55,4.587c-9.259,4.932-24.633,7.018-35.9,7.9A9.036,9.036,0,0,1,65.448,135.652ZM73.518,31.809h0c.007.068.621,6.984,1.654,12.06-21.111,6.252-42.678,8.148-57.054,8.638v31.4a40.585,40.585,0,0,0,3.031,15.5,39.378,39.378,0,0,0,8.319,12.65,38.555,38.555,0,0,0,12.444,8.525,39.121,39.121,0,0,0,43.306-8.525,39.415,39.415,0,0,0,8.353-12.65,40.416,40.416,0,0,0,3.047-15.5v-7.5h4.4a6.046,6.046,0,0,0,5.075-2.325,8.929,8.929,0,0,0,1.625-5.175,8.42,8.42,0,0,0-1.763-5.412,6.09,6.09,0,0,0-4.837-2.187c-2.624,0-4.233-.1-4.3-.1C95.8,57.85,92.855,51.288,90,44.943c-.794-1.768-1.615-3.595-2.386-5.334-2.9,1.142-5.959,2.227-9.079,3.225l-.13-.26C77.063,39.892,73.911,33.612,73.518,31.809Zm32.9,46.4a13.216,13.216,0,0,1-3,.9,107.381,107.381,0,0,1,6.038,22.6,35.81,35.81,0,0,1-.037,11.8,14.728,14.728,0,0,0,1.3-4.5,52.446,52.446,0,0,0-.787-14.722c-.822-4.916-1.925-9.291-2.518-11.641a12.5,12.5,0,0,1-.4-1.737v-.1a13.239,13.239,0,0,1-.6-2.6Z" transform="translate(235.982 2.652)" fill="#002f2d"/>
      <path id="Tracé_198" data-name="Tracé 198" d="M224.248,228.622s-10.068,8.264-18.427,7.4c-.065.391.076,24.38.076,24.38l33.469.21a11.549,11.549,0,0,0,4.81-1.511C257.829,247.155,224.248,228.622,224.248,228.622Z" transform="translate(-2.9 -48.467)" fill="#3fae69"/>
      <path id="Tracé_199" data-name="Tracé 199" d="M215.2,230.636a9.211,9.211,0,0,1-4.055,1.466,27.662,27.662,0,0,1-5.348.3c.025,1.15-.308,3.821-.308,3.821a24.542,24.542,0,0,0,12.688-3.63C216.151,231.6,216.7,229.787,215.2,230.636Z" transform="translate(-2.9 -48.467)" fill="#fff"/>
      <path id="Tracé_200" data-name="Tracé 200" d="M502.675-934.4l-5.748-5.654,39.184-37.2,4.747,12.6Z" transform="translate(-352 1176.1)" fill="#faded4"/>
      <path id="Tracé_201" data-name="Tracé 201" d="M228.723,327.013l4.589,4.594,39.611-39.251c.2,0-2.51-2.938-4.029-2.731C267.724,290.269,228.723,327.013,228.723,327.013Z" transform="translate(-94 -100.9)" fill="#faded4"/>
      <path id="Tracé_202" data-name="Tracé 202" d="M196.608,236.25h-19.37s12.459,11.665,13.881,24c2.769-.071,5.375,0,5.375,0Z" transform="translate(-2.9 -48.467)" fill="#3fae69"/>
    </g>
  </g>
  <path id="Tracé_210" data-name="Tracé 210" d="M.023,5.812C.59,7.88,3.916,10.8,6.19,10.821S9.758,0,9.758,0-.544,3.745.023,5.812Z" transform="matrix(0.995, -0.105, 0.105, 0.995, 353.446, 81.519)" fill="none" stroke="#3fae69" stroke-width="2"/>
</svg>
