<svg id="login" xmlns="http://www.w3.org/2000/svg" width="440" height="352" viewBox="0 0 440 352">
  <g id="bg">
    <rect id="Rectangle_1" data-name="Rectangle 1" width="440" height="352" fill="rgba(255,255,255,0)"/>
    <path id="Tracé_1" data-name="Tracé 1" d="M25.342,214.093C34.207,227.134,77.011,253.3,77.011,253.3H251.184s126.134-64.7,59.774-131C267.816,79.166,220.706,10.2,130.116,8.693,48.39,7.272,26.608,47.148,13.184,91.873,2.715,126.649-1.928,179.149,25.342,214.093Z" transform="translate(52.033 52.344)" fill="#3fae69" opacity="0.084"/>
  </g>
  <g id="login-2" data-name="login" transform="translate(30.169 60.587)">
    <g id="Groupe_1709-2" transform="translate(0)">
      <path id="Union_8" d="M-252.6,357.5H-489.685A5.336,5.336,0,0,1-495,352.1c0-3,2.362-4.4,5.315-4.4h51.374V253.3h64.562l-39.367-43,6.5-6.5,37.3,37.7s7.48-21,22.538-21,18.207,8.8,18.207,8.8h61.413l-.2-8h37.005s-13.286-8.2-13.385-31.2c-.2-1.8,0-6.6,0-8.9,0-.4-6.988-.2-7.283-12-.2-7.8,6.988-10.9,6.988-10.9V129l-20.077,9.3V129s31.3-20.5,67.121-20.5c22.046,0,33.757,10.4,37.1,15.4,3.445,5,2.362,17.1,2.362,17.1v16.5s10.531,2.2,10.531,11.7c0,11.6-9.743,12.9-9.743,12.9v13.5c0,10.2-11.515,26.7-21.061,31.3a67.946,67.946,0,0,1-17.42,6s6.1,5.8,11.318,11.1c5.019,5.1,5.118,10.8,1.87,14-3.346,3.2-12.105,12.6-12.105,12.6l-.2,23.4h-8.956l.1,39.4,18.306-.1a26.82,26.82,0,0,1-2.953,14.1l70.544.3c2.953,0,5.315,1.4,5.315,4.4a5.336,5.336,0,0,1-5.315,5.4Zm29.329-9.8A28.222,28.222,0,0,1-225.63,337V301.8l-25.392,26.1-19.093-.2-.1,11.8,9.35.3a10.542,10.542,0,0,1,8.169-3.9c5.905,0,10.629,5.9,10.629,11.8Zm-182.1,0c0-8.314,4.854-27,17.256-27h15.74l40.942-40.4h-94.383v67.4Z" transform="translate(495 -108.5)" fill="#fff"/>
      <path id="Union_21" data-name="Union 21" d="M0,117.478c.1-.1,1.7-4.6,7.7-4.6H88.6v4.6Zm124.2-3.9,11.8-11.4.9.1,7.7,1.5a96.445,96.445,0,0,1-10.4,9.8,8.962,8.962,0,0,1-5.526,2.356A5.588,5.588,0,0,1,124.2,113.578Zm26.2-11.6c-22.4-.2-33-25.5-33.2-36.1V9.578c24.1-11.9,45.7-11.4,59.4-5.6s12,13.4,12.1,32.5c6.8,1.2,9,1,8.9,6.5s-1.1,7.5-8.3,7.1c0,10.3.5,6.2.5,19.3,0,13.067-17.808,32.6-39.236,32.6Z" transform="translate(142.944 16.322)" fill="#faded4"/>
      <path id="Soustraction_4" data-name="Soustraction 4" d="M28,84.4,0,56.1,56,0l3.1,2.3c-.036.03-3.571,3.083-3.476,6.2A4.378,4.378,0,0,0,57.6,11.9a5.683,5.683,0,0,0,3.443,1.233,7.312,7.312,0,0,0,4.665-1.966A12.457,12.457,0,0,0,67.6,9.2L75,15.4l7.3,14V60.2H60.1V41.3H54.2V60.83L28,84.4ZM24.8,25V8.2H41.2L24.8,25Z" transform="translate(212.549 119.5)" fill="#3fae69"/>
      <path id="Union_7-2" d="M-348.8,335.8l38.5-38.5h13.7v14.4l-38.2,38.2Zm-10.3-7.8,39.9-39.9h22v4.5h-15.5l-40.9,40.9Zm70.8-13.9V297.3h20.2l18.3,16.8Zm15.2-21.5h-15.2v-4.5h11.6l3.6,4.5Z" transform="translate(492.011 -108.5)" fill="#5eb6e4"/>
    </g>
    <path id="Union_4-2" d="M-211.249,336.8V295.4H-214.2v-6.9h8.753v3.9h.984v44.3h-6.786Z" transform="translate(490.208 -108.5)" fill="#faded4"/>
    <path id="Union_20" data-name="Union 20" d="M21.345,243.833a1.99,1.99,0,0,1-1.967-2,2.057,2.057,0,0,1,1.967-2H54.053V146.5h138.4l-.1,18.8v4.975h.036v4.1h-.036v26.6h.135v11.8l-.135-.205v27.265h38.585a6.832,6.832,0,0,1-.8-2.478l-14.928-.08h-17.9v-5.1H210.3v-19.3H197.51v-11.8h33.445l-17.608-17.6c-2.853,0-9.247.1-15.837.1v-4.2c4.623-.1,9.049-.1,11.706-.1l-4.82-4.9H197.51v-4.1h3.344l23.314-23.7,1.77-1.8v-18.5c-12.493,0-70.431.3-71.218.3,0-1.9-2.558-8.8-10.821-8.8-7.87,0-10.821,6.4-11.607,9.1h-4.623a16.612,16.612,0,0,1,16.526-13.2,15.45,15.45,0,0,1,14.361,8.8H225.84v-8.8h29.608c3.837,0,6.69,1,8.067,2.2a28.737,28.737,0,0,1,2.558,1.9l2.742-2.788A42.994,42.994,0,0,1,246.559,79.2V68.8c-4.23-1.7-6.591-4.8-6.591-9.8,0-4.3,2.656-7.4,6.591-9.2V24.5H249.8V53.1c-3.443,0-6.2,3.9-6.2,6.8v.3a6.068,6.068,0,0,0,6.2,5.9V77.3c0,21.1,17.41,39.3,38.265,39.3,20.952,0,38.659-18.1,38.659-39.3V66.7h3.049c4.426,0,6.3-3.6,6.3-7.3,0-4.2-2.361-7.4-6.3-7.4a9.2,9.2,0,0,1-2.853-.1v-26c0-11.4-12.394-22.4-38.462-22.4-24.887,0-61.48,20.7-61.48,20.7l-.3-3.6S260.133,0,288.168,0s41.511,10.6,41.413,25.3V49.1c5.9,0,10.034,3.9,10.034,10s-4.132,10.1-9.837,10.1V79.3c-.2,2.2-.3,2.7-.3,3.1a47.853,47.853,0,0,1-1.377,7.1,45.567,45.567,0,0,1-2.853,7.2s-.689,1.4-1.475,2.7c-8.067,13-20.953,20.5-35.707,20.5q-1.27,0-2.522-.079l1.279.453,14.755,15.1c3.148,3.2,3.049,7.2.787,9.5l-11.9,12.1v22.6h-8.852v46.7h-3.345v-46.7h-6.591c0,9-.393,44-.393,46.7,0,5.4,3.739,13.2,13.083,13.2s11.607-9,11.607-13.2h4.131a16.268,16.268,0,0,1-6.508,13.559H329.63a2,2,0,0,1,0,4Zm253.209-4a15.981,15.981,0,0,1-6.81-13.559c0-8.2.491-34.6.491-46.7l-32.756,33.3H215.216v19.3l16.345.088a6.636,6.636,0,0,1,5.221-2.549,6.745,6.745,0,0,1,6.689,6.8,6.857,6.857,0,0,1-.85,3.32Zm-87.213,0V206.112l-33.083,33.721Zm-99.755,0c-.137-4.781.424-26.159,21.392-26.159h12.788l40.036-40.7a6.9,6.9,0,0,1,5.41-2.6c.581,0,10.759,0,20.129-.06V165.3H59.07v74.533Zm7.719-.459,51.938.2-14.558-14.7c-9.247,0-18.788-.1-24.493-.1C101.208,224.774,95.207,229.774,95.306,239.374Zm78.2-54.3c-.885,1-37.38,37.3-37.38,37.3l15.346,15.6,35.868-36.76V183.724c-5.986.049-10.67.049-10.981.049q-.137-.013-.274-.013A3.282,3.282,0,0,0,173.507,185.074Zm-81.16,45.191c3.152-5.961,9.8-8.992,16.828-8.992h19.771l-3.738-3.8H108.487C99.428,217.474,94.662,223.621,92.347,230.266Zm71.914-54.692c-.885,1-37.085,38-37.085,38l6.3,6.3,37.085-37.7a6.9,6.9,0,0,1,5.411-2.6c.39,0,5.291-.063,11.374-.089v-5.116c-9.793-.022-19.893-.094-20.228-.094q-.138-.013-.276-.013A3.28,3.28,0,0,0,164.261,175.574Zm75.645-40.1-34.429,35,29.314,29.3,24.2-24.3v-17h3.049v17.8h25.576v-24.8c-.3-10.2-7.673-16.1-14.263-22.6-1.967,1.9-6.591,4.7-10.23,1-2.853-3-1.476-7.7.787-10-2.656-2.7-4.918-3.3-8.853-3.3-4.033,0-26.068.1-26.068.1v24.8l8.263-8.3Zm26.658-13.9c-1.377,1.5-3.542,4.3-1.377,6.4s4.623.9,6.3-.8l8.057-8.19a40.294,40.294,0,0,1-7.878-2.591ZM1.967,243.833a1.989,1.989,0,0,1-1.967-2,2.056,2.056,0,0,1,1.967-2H9.738a2,2,0,0,1,0,4Zm339.376-.085a1.978,1.978,0,1,1,0-3.956h27.722a1.984,1.984,0,0,1,1.978,1.978,1.923,1.923,0,0,1-1.978,1.977ZM117.6,139.6,79.826,100.2l2.852-2.6,35.314,35.9,53.119.1v6ZM273.807,88.4a15.8,15.8,0,0,1,20.952-8.2l-2.853,3.3a11.816,11.816,0,0,0-13.968,5.8,12.788,12.788,0,0,0-.59,10.4l-2.95,3A16.569,16.569,0,0,1,273.807,88.4Zm21.641-32.3a4.234,4.234,0,0,1,4.23-4.3,6.8,6.8,0,0,1,1.377.3,2.05,2.05,0,0,0-.59,1.5,2.245,2.245,0,0,0,2.263,2.3,2.588,2.588,0,0,0,1.181-.3v.5a4.231,4.231,0,1,1-8.46,0Zm-17.554,2.964a6.344,6.344,0,0,0-5.017-5.1,6.426,6.426,0,0,0-7.574,5.1h-3.148a9.489,9.489,0,0,1,18.887,0Z" transform="translate(5.8 2.267)" fill="#002f2d"/>
  </g>
  <g id="Groupe_73" data-name="Groupe 73" transform="translate(194.1 115.061)">
    <path id="Tracé_151" data-name="Tracé 151" d="M203.3,114.7a6.04,6.04,0,0,0-3,.7h0a6.765,6.765,0,0,0-3.1-.7,7.719,7.719,0,0,0-1.5.2H180.8v-3.1h-7.2v5.1H173v-5.1h-7.2v17.6H173v-5.6h.7v5.6h7.2v-1.1a5.955,5.955,0,0,0,3.8,1.2,7.773,7.773,0,0,0,1.6-.2h22.8v-8.8a6.089,6.089,0,0,0-1.5-4.3A6.386,6.386,0,0,0,203.3,114.7Z" transform="translate(-165.8 -111.6)" fill="#fff"/>
    <path id="Tracé_152" data-name="Tracé 152" d="M220.7,113a6.2,6.2,0,0,0-4.3-1.4,9.225,9.225,0,0,0-4.9,1.3l-2.1,1.2,2.9,6,1-.5-.1.1a6.438,6.438,0,0,0-.7,2.8v1.6a4.776,4.776,0,0,0-.4,1.8,4.333,4.333,0,0,0,1,2.8,3.868,3.868,0,0,0,2.8,1.2,3.631,3.631,0,0,0,2.8-1.2,3.763,3.763,0,0,0,1-2.7,3.677,3.677,0,0,0-.5-2v-1a1.381,1.381,0,0,1,.4-.3,8.941,8.941,0,0,0,1.7-1.6,5.854,5.854,0,0,0,1-1.7,6.537,6.537,0,0,0,.4-2.1A6.229,6.229,0,0,0,220.7,113Zm-6.1,12.6h0v.5c0-.1-.1-.2-.1-.3A.349.349,0,0,0,214.6,125.6Zm2.6.2h0v-.2h0a.139.139,0,0,0,0,.2Z" transform="translate(-165.8 -111.6)" fill="#fff"/>
  </g>
  <g id="Groupe_74" data-name="Groupe 74" transform="translate(196.6 117.461)">
    <path id="Tracé_153" data-name="Tracé 153" d="M178.3,126.9h-2.1v-5.6h-5.8v5.6h-2.1V114.4h2.1v5.1h5.8v-5.1h2.1Z" transform="translate(-168.3 -114)" fill="#002f2d"/>
    <path id="Tracé_154" data-name="Tracé 154" d="M188.1,126.9l-.3-1.3h-.1a4.263,4.263,0,0,1-1.2,1.1,4.223,4.223,0,0,1-4.4-.5,3.573,3.573,0,0,1-.9-2.6v-6.2h2.1v5.8a2.86,2.86,0,0,0,.5,1.7,1.678,1.678,0,0,0,1.4.6,2.268,2.268,0,0,0,1.9-.8,4.326,4.326,0,0,0,.6-2.6v-4.7h2.1v9.5Z" transform="translate(-168.3 -114)" fill="#002f2d"/>
    <path id="Tracé_155" data-name="Tracé 155" d="M200.5,126.9h-2.1v-5.8a2.861,2.861,0,0,0-.4-1.7,1.428,1.428,0,0,0-1.3-.5,1.879,1.879,0,0,0-1.7.8,4.326,4.326,0,0,0-.6,2.6V127h-2v-9.5H194l.3,1.3h.1a3.179,3.179,0,0,1,1.2-1.1,3.287,3.287,0,0,1,1.7-.4c1.5,0,2.5.5,2.9,1.5h.1a3.179,3.179,0,0,1,1.2-1.1,3.425,3.425,0,0,1,1.8-.4,3.042,3.042,0,0,1,2.5.9,4.138,4.138,0,0,1,.8,2.7v6.2h-2v-5.8a2.861,2.861,0,0,0-.4-1.7,1.428,1.428,0,0,0-1.3-.5,1.83,1.83,0,0,0-1.7.7,3.715,3.715,0,0,0-.6,2.3l-.1,4.8Z" transform="translate(-168.3 -114)" fill="#002f2d"/>
    <path id="Tracé_156" data-name="Tracé 156" d="M214.9,123.1v-.6a3.808,3.808,0,0,1,.3-1.6,3.559,3.559,0,0,1,1.2-1.3,5.138,5.138,0,0,0,1.3-1.3,2.016,2.016,0,0,0,.3-1.1,1.29,1.29,0,0,0-.5-1.1,1.955,1.955,0,0,0-1.4-.4,6.052,6.052,0,0,0-1.5.2,8.428,8.428,0,0,0-1.4.6l-.7-1.5a7.107,7.107,0,0,1,3.7-1,4.551,4.551,0,0,1,2.7.8,2.765,2.765,0,0,1,1,2.3,5.02,5.02,0,0,1-.2,1.2,2.664,2.664,0,0,1-.6,1c-.3.3-.7.7-1.3,1.2a5.626,5.626,0,0,0-1.1,1.1,2.016,2.016,0,0,0-.3,1.1v.4Zm-.3,2.7c0-.9.4-1.3,1.3-1.3a1.689,1.689,0,0,1,1,.3,1.493,1.493,0,0,1,.3,1,1.689,1.689,0,0,1-.3,1,1.333,1.333,0,0,1-1,.4,1.284,1.284,0,0,1-1-.4A1.327,1.327,0,0,1,214.6,125.8Z" transform="translate(-168.3 -114)" fill="#002f2d"/>
  </g>
</svg>
