<svg id="logout" xmlns="http://www.w3.org/2000/svg" width="440" height="352" viewBox="0 0 440 352">
  <g id="bg">
    <rect id="Rectangle_1" data-name="Rectangle 1" width="440" height="352" fill="rgba(255,255,255,0)"/>
    <path id="Tracé_1" data-name="Tracé 1" d="M25.342,214.093C34.207,227.134,77.011,253.3,77.011,253.3H251.184s126.134-64.7,59.774-131C267.816,79.166,220.706,10.2,130.116,8.693,48.39,7.272,26.608,47.148,13.184,91.873,2.715,126.649-1.928,179.149,25.342,214.093Z" transform="translate(52.033 52.344)" fill="#3fae69" opacity="0.084"/>
  </g>
  <g id="Groupe_71" data-name="Groupe 71" transform="translate(30 71.583)">
    <path id="Tracé_3005" d="M362.6,70.6l-3.639.3s18.589,38.6,18.589,64.8c0,27.5-8.655,40.5-20.359,40.5H331.033s-.492.4-.492,3.1a7.479,7.479,0,1,1-14.95.4V176H304.576c-21.638,0-40.522-18.7-40.522-40.7s18.884-40.7,40.522-40.7h11.212c0-3.1,3.147-7.4,6.885-7.4,3.049,0,6,1.5,6.295,4.2h-6.2v3.2h35.7V91.5H332.7c-1.869-4.1-4.918-6.9-9.442-6.9-5.016,0-8.163,2.6-9.934,6.9H302.805c-22.916,1-41.505,20.3-41.505,43.7,0,15.6,7.672,29.2,20.851,37.6a42.618,42.618,0,0,0,17.212,6.4c1.145.191.885.1,3.147.3h10.327c0,6,4.131,10.4,10.327,10.4s10.229-4.3,10.229-10.6h24.392c15.048,0,23.408-14.2,23.408-43.7C381.1,106.1,362.6,70.6,362.6,70.6Z" transform="translate(-9.514 -67.45)" fill="#fff"/>
    <path id="Tracé_3005_-_Contour" data-name="Tracé_3005 - Contour" d="M364.253,67.45l.909,1.746c.769,1.476,18.832,36.5,18.932,66.394,0,38.608-14.334,46.71-26.359,46.71h-21.71a12.585,12.585,0,0,1-12.91,10.6,12.778,12.778,0,0,1-12.985-10.4h-7.669l-1.931-.142a13.084,13.084,0,0,1-1.7-.2,45.48,45.48,0,0,1-18.253-6.789C266.4,166.336,258.3,151.7,258.3,135.2c0-24.682,19.886-45.631,44.329-46.7l8.807,0a12.709,12.709,0,0,1,11.777-6.9c4.7,0,8.626,2.433,11.223,6.9h26.938v9.1h-41.6V92a4.823,4.823,0,0,0-1.082,2.6v3H304.526c-20.015,0-37.571,17.617-37.571,37.7S284.512,173,304.526,173h13.966v6.2c.058,2.937,2.052,4.9,4.538,4.9a4.6,4.6,0,0,0,4.511-4.731c0-2.975.477-4.6,1.6-5.514l.808-.657h27.2c10.9,0,17.409-14.019,17.409-37.5,0-25.193-18.105-63.1-18.288-63.481l-1.9-3.953Z" transform="translate(-9.465 -67.45)" fill="#fff"/>
    <path id="Tracé_209" data-name="Tracé 209" d="M-.731,0H62.216s8.592,27.387,8.592,49.637A96.592,96.592,0,0,1,62.216,89H25.264s-3.8,12.056-10.3,12.056S-.731,89-.731,89s-43.676-.089-43.676-41.125S-.731,0-.731,0Z" transform="translate(298.743 21.057)" fill="#fff"/>
    <path id="Union_8" d="M-252.754,357.5H-489.689A5.334,5.334,0,0,1-495,352.1c0-3,2.361-4.4,5.311-4.4h51.341V253.3h64.52l-39.342-43,6.491-6.5,37.276,37.7s7.475-21,22.523-21,18.2,8.8,18.2,8.8h61.373l-.2-8h36.981s62.061,1,52.521,5.6a67.872,67.872,0,0,1-17.409,6s6.1,5.8,11.311,11.1c5.016,5.1,5.114,10.8,1.869,14-3.344,3.2-12.1,12.6-12.1,12.6l-.2,23.4h-8.95l.1,39.4,18.294-.1a26.834,26.834,0,0,1-2.951,14.1l70.5.3c2.951,0,5.311,1.4,5.311,4.4a5.334,5.334,0,0,1-5.311,5.4Zm29.309-9.8a28.238,28.238,0,0,1-2.36-10.7V301.8l-25.375,26.1-19.081-.2-.1,11.8,9.344.3a10.532,10.532,0,0,1,8.163-3.9c5.9,0,10.622,5.9,10.622,11.8Zm-181.98,0c0-8.314,4.851-27,17.245-27h15.729l40.915-40.4h-94.321v67.4Z" transform="translate(495 -119.496)" fill="#fff"/>
    <path id="Union_4-2" d="M-211.249,336.8V295.4H-214.2v-6.9h8.753v3.9h.984v44.3h-6.786Z" transform="translate(490.378 -119.496)" fill="#faded4"/>
    <path id="Tracé_4859-2" d="M-210.094,227-221.7,238.4s3.344,5.3,9.835,0a95.517,95.517,0,0,0,10.229-9.8l-7.573-1.5Z" transform="translate(490.501 -119.496)" fill="#faded4"/>
    <path id="Union_7-2" d="M-348.97,335.8l37.866-38.5h13.474v14.4L-335.2,349.9ZM-359.1,328l39.243-39.9h21.638v4.5h-15.245l-40.227,40.9Zm69.635-13.9V297.3H-269.6l18,16.8Zm14.95-21.5h-14.95v-4.5h11.409l3.541,4.5Z" transform="translate(492.763 -119.496)" fill="#5eb6e4"/>
    <path id="Tracé_4858" d="M268,135.9c-.2,23.6,13.671,40.7,31.473,40.7,7.081,3.2,9.54,0,19.671,0-.393,7.9,1.574,11.1,6.983,11.2s5.213-2.4,6.393-9.7c18.786-.1,26.26,1.8,31.965-13.3s6.2-38.8-5.508-65.2h-55.57C293.179,99.5,268.2,111.2,268,135.9Z" transform="translate(-9.624 -67.45)" fill="#faded4"/>
    <path id="Tracé_3001" d="M279.689,124.1A17.115,17.115,0,0,0,291.1,145.2a16.751,16.751,0,0,0,20.753-11.6,17.277,17.277,0,0,0-4.229-16.8c-.59-.5-1.18-1.1-1.77-1.5a16.524,16.524,0,0,1-1.377,3.3c.3.3.492.4.59.6a13.741,13.741,0,0,1,0,19.2,13.2,13.2,0,0,1-18.884,0,13.941,13.941,0,0,1-3.639-12.5C281.656,125.4,280.673,124.7,279.689,124.1Z" transform="translate(-9.806 -67.45)" fill="#002f2d"/>
    <path id="Tracé_3002" d="M333.5,152.6v3.5a10.461,10.461,0,0,0,0-20.7v3.5a7,7,0,0,1,0,13.7Z" transform="translate(-10.702 -67.45)" fill="#002f2d"/>
    <path id="Tracé_3003" d="M333.6,102v3.3a6.712,6.712,0,0,1,5.409,6.6,6.555,6.555,0,0,1-5.409,6.6v3.3a9.989,9.989,0,0,0,8.557-11.2A9.7,9.7,0,0,0,333.6,102Z" transform="translate(-10.704 -67.45)" fill="#002f2d"/>
    <path id="Tracé_3005-2" data-name="Tracé_3005" d="M362.6,70.6l-3.639.3s18.589,38.6,18.589,64.8c0,27.5-8.655,40.5-20.359,40.5H331.033s-.492.4-.492,3.1a7.479,7.479,0,1,1-14.95.4V176H304.576c-21.638,0-40.522-18.7-40.522-40.7s18.884-40.7,40.522-40.7h11.212c0-3.1,3.147-7.4,6.885-7.4,3.049,0,6,1.5,6.295,4.2h-6.2v3.2h35.7V91.5H332.7c-1.869-4.1-4.918-6.9-9.442-6.9-5.016,0-8.163,2.6-9.934,6.9H302.805c-22.916,1-41.505,20.3-41.505,43.7,0,15.6,7.672,29.2,20.851,37.6a42.618,42.618,0,0,0,17.212,6.4c1.145.191.885.1,3.147.3h10.327c0,6,4.131,10.4,10.327,10.4s10.229-4.3,10.229-10.6h24.392c15.048,0,23.408-14.2,23.408-43.7C381.1,106.1,362.6,70.6,362.6,70.6Z" transform="translate(-9.514 -67.45)" fill="#002f2d"/>
    <path id="Tracé_3006" d="M316.6,177" transform="translate(-10.424 -67.45)" fill="#002f2d"/>
    <path id="Tracé_115" data-name="Tracé 115" d="M190.893,81.6l11.7-9.7L194.041,70l.393-1.8,11.114,2.4-.393,1.8-11.7,9.6,9.245,2-.393,1.8-11.8-2.6Z" transform="translate(-8.349 -67.45)" fill="#002f2d"/>
    <path id="Tracé_116" data-name="Tracé 116" d="M190.893,81.6l11.7-9.7L194.041,70l.393-1.8,11.114,2.4-.393,1.8-11.7,9.6,9.245,2-.393,1.8-11.8-2.6Z" transform="translate(-8.349 -67.45)" fill="none" stroke="#fff" stroke-linecap="round" stroke-linejoin="round" stroke-width="4"/>
    <path id="Tracé_117" data-name="Tracé 117" d="M217.993,105.7l18.491-18.6-14.95-1.8.393-3.2L241.5,84.4l-.393,3.1L222.518,106l16.228,1.9-.393,3.2L217.6,108.6Z" transform="translate(-8.795 -67.45)" fill="#002f2d"/>
    <path id="Tracé_118" data-name="Tracé 118" d="M217.993,105.7l18.491-18.6-14.95-1.8.393-3.2L241.5,84.4l-.393,3.1L222.518,106l16.228,1.9-.393,3.2L217.6,108.6Z" transform="translate(-8.795 -67.45)" fill="none" stroke="#fff" stroke-linecap="round" stroke-linejoin="round" stroke-width="4"/>
    <path id="Tracé_119" data-name="Tracé 119" d="M155.07,82.6l2.262-6.6L153.6,77.3l-.3-.8,4.918-1.8.3.8-2.262,6.6,4.033-1.5.3.8-5.213,1.9Z" transform="translate(-7.736 -67.45)" fill="#002f2d"/>
    <path id="Tracé_120" data-name="Tracé 120" d="M155.07,82.6l2.262-6.6L153.6,77.3l-.3-.8,4.918-1.8.3.8-2.262,6.6,4.033-1.5.3.8-5.213,1.9Z" transform="translate(-7.736 -67.45)" fill="none" stroke="#fff" stroke-linecap="round" stroke-linejoin="round" stroke-miterlimit="3.998" stroke-width="3.998"/>
    <path id="Tracé_121" data-name="Tracé 121" d="M172.062,94.1l2.951-8.5-4.819,1.8-.393-1,6.393-2.3.393,1-2.951,8.5,5.311-1.9.393,1-6.688,2.4Z" transform="translate(-8.008 -67.45)" fill="#002f2d"/>
    <path id="Tracé_122" data-name="Tracé 122" d="M172.062,94.1l2.951-8.5-4.819,1.8-.393-1,6.393-2.3.393,1-2.951,8.5,5.311-1.9.393,1-6.688,2.4Z" transform="translate(-8.008 -67.45)" fill="none" stroke="#fff" stroke-linecap="round" stroke-linejoin="round" stroke-miterlimit="3.998" stroke-width="3.998"/>
    <path id="Tracé_123" data-name="Tracé 123" d="M190.893,81.6l11.7-9.7L194.041,70l.393-1.8,11.114,2.4-.393,1.8-11.7,9.6,9.245,2-.393,1.8-11.8-2.6Z" transform="translate(-8.349 -67.45)" fill="#002f2d"/>
    <path id="Union_33" data-name="Union 33" d="M7.7,112.878H88.6v4.6H0C.1,117.378,1.7,112.878,7.7,112.878Z" transform="translate(143.113 5.326)" fill="#faded4"/>
    <path id="Tracé_124" data-name="Tracé 124" d="M217.993,105.7l18.491-18.6-14.95-1.8.393-3.2L241.5,84.4l-.393,3.1L222.518,106l16.228,1.9-.393,3.2L217.6,108.6Z" transform="translate(-8.795 -67.45)" fill="#002f2d"/>
    <path id="Tracé_125" data-name="Tracé 125" d="M155.07,82.6l2.262-6.6L153.6,77.3l-.3-.8,4.918-1.8.3.8-2.262,6.6,4.033-1.5.3.8-5.213,1.9Z" transform="translate(-7.736 -67.45)" fill="#002f2d"/>
    <path id="Tracé_126" data-name="Tracé 126" d="M172.062,94.1l2.951-8.5-4.819,1.8-.393-1,6.393-2.3.393,1-2.951,8.5,5.311-1.9.393,1-6.688,2.4Z" transform="translate(-8.008 -67.45)" fill="#002f2d"/>
    <path id="Rectangle_392" d="M-467.533,350.6h308.241a1.99,1.99,0,0,1,1.967,2h0a1.99,1.99,0,0,1-1.967,2H-467.533a1.99,1.99,0,0,1-1.967-2h0A2.057,2.057,0,0,1-467.533,350.6Z" transform="translate(494.58 -119.496)" fill="#002f2d"/>
    <path id="Rectangle_393" d="M-487.233,350.6h7.77a1.99,1.99,0,0,1,1.967,2h0a1.99,1.99,0,0,1-1.967,2h-7.77a1.99,1.99,0,0,1-1.967-2h0A2.057,2.057,0,0,1-487.233,350.6Z" transform="translate(494.905 -119.496)" fill="#002f2d"/>
    <path id="Soustraction_13" data-name="Soustraction 13" d="M28,84.4,0,56.1,56,0l3.1,2.3c-.036.03-3.571,3.083-3.476,6.2A4.378,4.378,0,0,0,57.6,11.9a5.683,5.683,0,0,0,3.443,1.233,7.312,7.312,0,0,0,4.665-1.966A12.457,12.457,0,0,0,67.6,9.2L75,15.4l7.3,14V60.2H60.1V41.3H54.2V60.83L28,84.4ZM24.8,25V8.2H41.2L24.8,25Z" transform="translate(212.718 108.504)" fill="#3fae69"/>
    <path id="Rectangle_399_6_" d="M362.411,303.155H335.145a1.967,1.967,0,0,1-1.945-1.978h0a1.967,1.967,0,0,1,1.945-1.978h27.266a1.967,1.967,0,0,1,1.945,1.978h0A1.907,1.907,0,0,1,362.411,303.155Z" transform="translate(12.339 -68.136)" fill="#002f2d"/>
    <path id="Tracé_3074" d="M-389.9,226.1" transform="translate(584.001 -47.429)" fill="#002f2d"/>
    <path id="Tracé_3075" d="M-442.6,296.8" transform="translate(584.869 -47.429)" fill="#002f2d"/>
    <path id="Tracé_3076" d="M-451.1,217.2" transform="translate(585.009 -47.429)" fill="#002f2d"/>
    <path id="Tracé_3077" d="M-279.4,217.2" transform="translate(582.182 -47.429)" fill="#002f2d"/>
    <path id="Tracé_3078" d="M-347.5,169" transform="translate(583.303 -47.429)" fill="#002f2d"/>
    <path id="Tracé_3079" d="M-462.139,172.2l-35.309-35.9-2.852,2.6,37.768,39.4h53.5v-6Z" transform="translate(585.819 -47.429)" fill="#002f2d"/>
    <path id="Tracé_3081" d="M-326.875,37.5l-3.541,3.6a28.814,28.814,0,0,0-2.557-1.9C-334.35,38-337.2,37-341.038,37h-29.6v8.8h-67.274a15.447,15.447,0,0,0-14.36-8.8A16.61,16.61,0,0,0-468.8,50.2h4.623c.787-2.7,3.737-9.1,11.606-9.1,8.262,0,10.819,6.9,10.819,8.8.787,0,58.717-.3,71.208-.3V68.1l-1.77,1.8-23.31,23.7h-3.344v4.1h6.885l4.819,4.9c-2.656,0-7.081,0-11.7.1v4.2c6.59,0,12.983-.1,15.835-.1l17.605,17.6h-33.44v11.8h12.786v19.3h-12.983v5.1h17.9l18.589.1v-5.1l-18.589-.1V136.2H-361l32.752-33.3c0,12.1-.492,38.5-.492,46.7,0,10.7,8.458,16.6,16.523,16.6,7.967,0,15.835-6.1,15.835-16.6h-4.131c0,4.2-2.262,13.2-11.606,13.2S-325.2,155-325.2,149.6c0-2.7.393-37.7.393-46.7h6.59v46.7h3.344V102.9h8.852V80.3l11.9-12.1c2.262-2.3,2.361-6.3-.787-9.5l-14.753-15.1m-20.261,1.3,5.8-5.9a39.83,39.83,0,0,0,7.377,3.1l-8.262,8.4c-1.672,1.7-4.131,2.9-6.295.8s0-4.9,1.377-6.4Zm21.048,29.9V99.6h-25.572V81.8H-337.5v17l-24.2,24.3L-391,93.8l34.424-35-2.656-2.3-8.262,8.3V40s22.031-.1,26.064-.1c3.934,0,6.2.6,8.852,3.3-2.262,2.3-3.639,7-.787,10,3.639,3.7,8.262.9,10.229-1,6.59,6.5,13.966,12.4,14.261,22.6Z" transform="translate(602.155 67.945)" fill="#002f2d"/>
    <path id="Tracé_3082" d="M-388.116,185.2H-526.5v96.7h5.016V204H-393.23v77.9h5.016V204h0Z" transform="translate(586.25 -47.429)" fill="#002f2d"/>
    <path id="Tracé_3080" d="M-404.656,136.1V124.3h-4.819v-.1l-36.194,37.1-15.343-15.6s36.489-36.3,37.374-37.3a3.253,3.253,0,0,1,2.852-1.3c.393,0,7.77,0,15.933-.1v-4.2c-8.163,0-15.835.1-16.327.1a6.9,6.9,0,0,0-5.409,2.6l-37.079,37.7-6.295-6.3s36.194-37,37.079-38a3.253,3.253,0,0,1,2.852-1.3c.393,0,14.261.1,25.277.1V93.6c-10.327.1-24.49.1-25.179.1a6.9,6.9,0,0,0-5.409,2.6l-40.03,40.7h-12.786c-23.6,0-21.343,27.1-21.343,27.1l2.361-.5c-.59,3.3.393,2.9.393,2.9h60.389l.1.1,36.588-37.3v6.5h4.819Zm-101.993,27.1c.492-8.6,4.426-22.4,18-22.4h16.72l3.737,3.8h-19.769c-10.13,0-19.474,6.3-18.687,18.6Zm4.819-.5c-.1-9.6,5.9-14.6,12.884-14.6,5.7,0,15.245.1,24.49.1l14.556,14.7Z" transform="translate(602.826 67.945)" fill="#002f2d"/>
    <ellipse id="Ellipse_171" cx="6.688" cy="6.8" rx="6.688" ry="6.8" transform="translate(235.765 220.984)" fill="#002f2d"/>
    <path id="Tracé_3085" d="M-262.9,122.9" transform="translate(581.911 -47.429)" fill="#002f2d"/>
    <path id="Tracé_3087" d="M-248.4,105.3" transform="translate(581.672 -47.429)" fill="#002f2d"/>
  </g>
</svg>
