<svg id="logout-2" xmlns="http://www.w3.org/2000/svg" width="440" height="352" viewBox="0 0 440 352">
  <rect id="Rectangle_1" data-name="Rectangle 1" width="440" height="352" fill="rgba(255,255,255,0)"/>
  <path id="Tracé_220" data-name="Tracé 220" d="M25.342,214.093C34.207,227.134,77.011,253.3,77.011,253.3H251.184s126.134-64.7,59.774-131C267.816,79.166,220.706,10.2,130.116,8.693,48.39,7.272,26.608,47.148,13.184,91.873,2.715,126.649-1.928,179.149,25.342,214.093Z" transform="translate(52.033 52.344)" fill="#3fae69" opacity="0.084"/>
  <g id="Groupe_69" data-name="Groupe 69" transform="translate(31 75.333)">
    <g id="Groupe_70" data-name="Groupe 70" transform="translate(230.44 10.676)">
      <path id="Union_31" data-name="Union 31" d="M20.866,345.06a22.233,22.233,0,0,0,8.527-1.477c5.6-2.356,11.6-7.059,15.638-10.589,4.473-3.906-23.884-33.03-23.338-33.686,4.932-5.522,47.293,13.936,47.4,13.874,1.186-.791,11.694-6.641,11.8-6.7a41.432,41.432,0,0,0,9.263-7.175,39.348,39.348,0,0,0,5.124-6.776,51.243,51.243,0,0,0,4.514-9.85c.147-.49.272-1.012.4-1.566.137-.572.292-1.22.5-1.935a68.981,68.981,0,0,0,2.863-19,53.8,53.8,0,0,0-1.723-13.063,61.9,61.9,0,0,0-6.14-14.937,35.02,35.02,0,0,0-8.137-8.987,46.914,46.914,0,0,0-10.692-6.467,56.4,56.4,0,0,0-15.971-4.245A45.547,45.547,0,0,0,54.239,212c-8.348,0-17.011,2.181-25.746,6.483-1.322.61-2.58,1.24-3.691,1.8l-.009,0-7.7,18.855C11.6,239.726,7.719,253.8,2.867,256.32c-4.71,2.448-3.7-.054-7.289,3.943v36.93c-4.506,1.763.589-6.393-6.431,0-.1.094-18.121-28.819-18.225-28.723l4.607,26.127c-1.7,1.54-9.647-44.773-11.339-42.475a24.851,24.851,0,0,0-4.131,9.083c-2.2,9.1-.977,21.938,3.745,39.257a64.24,64.24,0,0,0,7.118.151c6.944,0,17.1-.114,20.047-.149l.173,0a12.6,12.6,0,0,0,6.054,5,1.087,1.087,0,0,0,.386.069c.836,0,1.8-.9,2.539-1.789a26.539,26.539,0,0,0,9.689,1.838,38.4,38.4,0,0,0,4.95.791,2.727,2.727,0,0,1,1.718,1.193c.234.29.419.519.613.519.49,0,3.246,1.793,4.6,3.2l12,12.4a3.97,3.97,0,0,1,.675,4.262,6.316,6.316,0,0,1-1.275,1.938l-12.5,13-2,2.1c.769.05,1.534.076,2.273.076m24.167-40.349c.014.545.033,1.172.059,1.872a6.389,6.389,0,0,1-.727,3.4c.138-1.458.232-3.168.393-5.141l.276-.134m-8.279-.97M20.866,349.06c-.821,0-1.674-.029-2.535-.085L9.8,348.416l7.907-8.305,12.556-13.058a2.433,2.433,0,0,0,.4-.621.815.815,0,0,0,.031-.088l-.011-.016L18.809,314.056A15.714,15.714,0,0,0,16,311.944a4.9,4.9,0,0,1-2.485-1.683c-1.425-.164-2.821-.394-4.166-.686A30.473,30.473,0,0,1,1.1,308.3a5.929,5.929,0,0,1-3.517,1.225,5.075,5.075,0,0,1-1.8-.327l-.021-.008a16.652,16.652,0,0,1-6.615-4.71c-4.173.047-12.326.128-18.225.128-2.366,0-4.183-.013-5.4-.039-.656-.014-1.149-.032-1.509-.054-.262-.016-.471-.036-.657-.063a4.567,4.567,0,0,1-.655-.141,4.03,4.03,0,0,1-2.76-2.817,140.385,140.385,0,0,1-4.588-23.368,54.1,54.1,0,0,1,.819-17.866,28.771,28.771,0,0,1,4.8-10.513,41.445,41.445,0,0,1,5.846-6.174l.076-.069.169-.154.136-.124a58.127,58.127,0,0,1,18.117-11.484,47.865,47.865,0,0,1,29.853-14.839l.082-.009,8.478-.553c.938-.467,1.963-.972,3.044-1.472C36.044,210.313,45.286,208,54.239,208a49.575,49.575,0,0,1,7.184.517,60.365,60.365,0,0,1,17.046,4.547,50.912,50.912,0,0,1,11.6,7.022,38.633,38.633,0,0,1,9.1,10.118l0,.006a65.9,65.9,0,0,1,6.532,15.906,57.808,57.808,0,0,1,1.851,14.035,72.476,72.476,0,0,1-3,20.061l-.019.068c-.177.62-.313,1.189-.445,1.74l-.006.027c-.139.581-.283,1.183-.462,1.783l-.022.074-.025.073A55.237,55.237,0,0,1,98.7,294.6a43.354,43.354,0,0,1-5.648,7.465,45.616,45.616,0,0,1-10.1,7.846l-.068.041-.067.037c-2.006,1.112-10.561,5.9-11.516,6.527l-.115.077-.118.067c-2.823,1.616-10.946,6.71-14.668,10.854a105.092,105.092,0,0,1-8.747,8.5c-4.264,3.724-10.626,8.7-16.718,11.263l-.012,0A26.165,26.165,0,0,1,20.866,349.06Z" transform="translate(45.004 -208)" fill="#fff"/>
    </g>
    <g id="Groupe_50" data-name="Groupe 50">
      <path id="Tracé_137" data-name="Tracé 137" d="M379.6,294.5H309.9a24.316,24.316,0,0,0,3-12.9H294.6l-.1-43.7,9-2.8.3-17V218l14.1-14.5s3.2-3.1.6-6.2l-8.5-8.8v-.1l-69.5-17.6H230.3l.2,7.9H169.1s-3.2-8.7-18.2-8.7c-15.1,0-22.5,20.9-22.5,20.9L91,153.8l-6.5,6.4,39.4,42.3H59.3v92H8a5.271,5.271,0,0,0-5.3,5.3A5.335,5.335,0,0,0,8,305.1H379.7a5.271,5.271,0,0,0,5.3-5.3A5.49,5.49,0,0,0,379.6,294.5ZM125.4,269s-1.1-.4-14.6-.4c-17.7,0-22.9,19.4-24.2,26H71.9V229.2h94.4Zm130.4,25.5a10.647,10.647,0,0,0-18.8-6.8l-9.4-.3.1-11.6,19.1.2,25.4-25.7v34.8a22.263,22.263,0,0,0,2.4,9.5Z" transform="translate(-2.7 -70.872)" fill="#fff"/>
      <path id="Tracé_4859_5_" d="M283.9,176l-11.6,11.2s3.3,5.2,9.8,0a103.276,103.276,0,0,0,10.2-9.6l-7.6-1.5Z" transform="translate(-2.7 -70.872)" fill="#f8cdc2"/>
      <path id="Union_5_5_" d="M271.3,176.5l3.6,4s-6.1,4.8-.9,8.7c5.1,3.8,9.4-1.8,9.4-1.8l7.4,6.2,7.2,13.8,1.4,21.2-28.5,9.3-26.7,24-27.9-28.5a51.683,51.683,0,0,0,20-18C241,208,248.3,197.1,271.3,176.5ZM241,186.7h13.6L241,200.5V186.7Z" transform="translate(-2.7 -70.872)" fill="#3fae6a"/>
      <path id="Tracé_138" data-name="Tracé 138" d="M197.5,246.4" transform="translate(-2.7 -70.872)" fill="#002f2d"/>
      <path id="Tracé_139" data-name="Tracé 139" d="M299.3,162.6" transform="translate(-2.7 -70.872)" fill="#002f2d"/>
      <path id="Tracé_140" data-name="Tracé 140" d="M136.4,237.5" transform="translate(-2.7 -70.872)" fill="#002f2d"/>
      <path id="Tracé_141" data-name="Tracé 141" d="M307.4,237.5" transform="translate(-2.7 -70.872)" fill="#002f2d"/>
      <path id="Tracé_142" data-name="Tracé 142" d="M239.6,189.5" transform="translate(-2.7 -70.872)" fill="#002f2d"/>
      <path id="Tracé_143" data-name="Tracé 143" d="M313.6,177.5" transform="translate(-2.7 -70.872)" fill="#002f2d"/>
      <path id="Union_4_5_" d="M282.5,285.2V240.8h-3v-5.4l8.8-2.6,1,4.8v47.5l-6.8.1Z" transform="translate(-2.7 -70.872)" fill="#faded4"/>
      <path id="Tracé_4860_5_" d="M157,185.4h79.6v4.5H149.4S151.1,185.4,157,185.4Z" transform="translate(-2.7 -70.872)" fill="#faded4"/>
      <rect id="Rectangle_396_5_" width="5.5" height="19.2" transform="translate(266.4 147.028)" fill="#fff"/>
      <path id="Rectangle_385_5_" d="M29.6,298.5H338.1a2.006,2.006,0,0,1,2,2h0a2.006,2.006,0,0,1-2,2H29.6a2.006,2.006,0,0,1-2-2h0A1.944,1.944,0,0,1,29.6,298.5Z" transform="translate(-2.7 -70.872)" fill="#002f2d"/>
      <path id="Rectangle_386_5_" d="M10.2,298.5H18a2.006,2.006,0,0,1,2,2h0a2.006,2.006,0,0,1-2,2H10.2a2.006,2.006,0,0,1-2-2h0A2,2,0,0,1,10.2,298.5Z" transform="translate(-2.7 -70.872)" fill="#002f2d"/>
      <path id="Rectangle_388_5_" d="M377,302.3H349.8a2.006,2.006,0,0,1-2-2h0a2.006,2.006,0,0,1,2-2H377a2.006,2.006,0,0,1,2,2h0A2.149,2.149,0,0,1,377,302.3Z" transform="translate(-2.7 -70.872)" fill="#002f2d"/>
      <path id="Tracé_144" data-name="Tracé 144" d="M61.3,205.5v96.4h5.1V224.2H196.3v5.3c-9.5.1-19.8.1-20.5.1-2.4,0-3.8.9-5.5,2.6L130,272.5H116.3c-24.2,0-23.3,26.7-23.3,26.8h69.6l-5.6-5.407L191.088,265.4H196.3v36.5h5.1V224.2h0V205.5ZM173,234.7a3.33,3.33,0,0,1,2.9-1.3c.4,0,10.5.1,20.5.1v5c-6.1,0-11.1.1-11.5.1-2.4,0-3.8.9-5.5,2.6l-37.6,37.6-6.4-6.2C135.3,272.4,172.1,235.7,173,234.7ZM98.7,287.6c3-9.1,9.8-11.3,17.7-11.3h16.8l3.8,3.8H115c-10.3,0-14.1,4.1-16.3,7.5Zm1.1,10.7c-1-9.6,7.1-14.7,14.2-14.7,5.8,0,17.3.1,26.7.1l15,14.8Zm54.278-7.09L144.4,281.1s36.9-36.2,37.9-37.2a3.33,3.33,0,0,1,2.9-1.3c.3,0,5,0,11.1-.1V260h-5.212Z" transform="translate(-2.7 -70.872)" fill="#002f2d"/>
      <path id="Tracé_145" data-name="Tracé 145" d="M197.5,246.1" transform="translate(-2.7 -70.872)" fill="#ea5b27"/>
      <path id="Tracé_146" data-name="Tracé 146" d="M136.4,237.3" transform="translate(-2.7 -70.872)" fill="#ea5b27"/>
      <path id="Tracé_147" data-name="Tracé 147" d="M307.4,237.3" transform="translate(-2.7 -70.872)" fill="#ea5b27"/>
      <path id="Tracé_148" data-name="Tracé 148" d="M238.9,189.6" transform="translate(-2.7 -70.872)" fill="#ea5b27"/>
      <path id="Tracé_149" data-name="Tracé 149" d="M126.1,192.7,90.3,156.8l-3,2.7,38.3,39.1h54.1v-5.9Z" transform="translate(-2.7 -70.872)" fill="#002f2d"/>
      <path id="Tracé_150" data-name="Tracé 150" d="M311.6,194.7l-15.1-15.1-17.5-6-3.5,3.5c-.4-.3-2.1-1.6-2.6-2a14.02,14.02,0,0,0-8.1-2.2c-14.4,0-29.2-.1-29.2-.1l-.1,9H166.7a15.548,15.548,0,0,0-14.5-8.9,16.718,16.718,0,0,0-16.7,13.2h4.6c.8-2.7,3.7-9,11.7-9,8.5,0,10.9,6.9,10.9,8.9.8,0,60.1-.3,72.7-.3v19c-.4.5-1,1.3-1,1.3-1,1.4-2,2.9-3,4.4-6.5,10.1-16.782,16.528-18.8,17.8s-3.921,1.4-6.6,1.4v4.1h7l4.8,4.8c-2.8,0-7.1.1-11.9.1v4.1c6.7,0,13.1-.1,16-.1l17.8,17.5h-34V272h13v19.3h-13v5.1h18.1l15.1.1a6.676,6.676,0,1,0,6.6-7.5,6.888,6.888,0,0,0-5.1,2.4l-16.5-.1V272h20.5l33.1-33.1c0,12.1-.5,38.4-.5,46.5,0,10.7,8.6,16.6,16.7,16.6s16-6.2,16-16.5h-4.2c0,4.1-2.3,13.1-11.7,13.1-9.5,0-13.3-7.8-13.3-13.1,0-2.7.4-40.3.4-49.3l6.6-1.9v51.3h3.4V233.8l9-2.7V216.5L312,204.4C314.6,201.8,314.8,197.9,311.6,194.7Zm-35.7-13.8,5.9-5.9a45.418,45.418,0,0,0,7.5,3.1l-8.5,8.5c-1.7,1.7-4.2,3-6.3.8C272.4,185.3,274.4,182.4,275.9,180.9Zm21.3,46.7-25.9,7.9V217.8h-3.1v16.9l-24.4,24.2L215,230.6a60.866,60.866,0,0,0,19.2-18.4c7.5-11.6,14-16.8,14.1-16.9l-2-2.5a64.115,64.115,0,0,0-8.2,8.5l.2-25.3h26.1c4,0,6.2.6,8.9,3.3-2.3,2.3-3.6,7-.7,9.9,3.6,3.6,8.5.9,10.3-1,6.5,6.5,14,12.4,14.3,22.5v16.9Z" transform="translate(-2.7 -70.872)" fill="#002f2d"/>
      <path id="Tracé_157" data-name="Tracé 157" d="M300.2,230.8" transform="translate(-2.7 -70.872)" fill="#fff"/>
      <path id="Tracé_198" data-name="Tracé 198" d="M224.248,228.622s-10.068,8.264-18.427,7.4c-.065.391.076,24.38.076,24.38l33.469.21a11.549,11.549,0,0,0,4.81-1.511C257.829,247.155,224.248,228.622,224.248,228.622Z" transform="translate(-2.9 -70.899)" fill="#3fae69"/>
      <path id="Tracé_199" data-name="Tracé 199" d="M215.2,230.636a9.211,9.211,0,0,1-4.055,1.466,27.662,27.662,0,0,1-5.348.3c.025,1.15-.308,3.821-.308,3.821a24.542,24.542,0,0,0,12.688-3.63C216.151,231.6,216.7,229.787,215.2,230.636Z" transform="translate(-2.9 -70.899)" fill="#fff"/>
      <path id="Tracé_200" data-name="Tracé 200" d="M502.675-934.4l-5.748-5.654,39.184-37.2,4.747,12.6Z" transform="translate(-352 1153.667)" fill="#faded4"/>
      <path id="Tracé_201" data-name="Tracé 201" d="M228.723,327.013l4.589,4.594,39.611-39.251c.2,0-2.51-2.938-4.029-2.731C267.724,290.269,228.723,327.013,228.723,327.013Z" transform="translate(-94 -123.333)" fill="#faded4"/>
      <path id="Tracé_202" data-name="Tracé 202" d="M196.608,236.25h-19.37s12.459,11.665,13.881,24c2.769-.071,5.375,0,5.375,0Z" transform="translate(-2.9 -70.899)" fill="#3fae69"/>
      <g id="Groupe_69-2" data-name="Groupe 69" transform="translate(234.443 14.676)">
        <path id="Union_30" data-name="Union 30" d="M.052,38.6c1.2,22.3,15.5,37.6,32.6,36.5,9.8.5,7.4,0,17.2-1,.3,9.6,3.3,11.1,8.5,10.9s4.8-3.5,5.4-10.5c14.5-6.7,15-9.3,21.3-12.3-1.189-3.466,9.056-18.328,9.056-18.328S70.392,15.538,67.852,0l-35.9,2.2C22.052,2.8-1.248,15.4.052,38.6Z" transform="translate(23.94 16.583)" fill="#faded4"/>
        <path id="Tracé_212" data-name="Tracé 212" d="M326.1,152.8a6.512,6.512,0,0,1-5,6.8l.2,3.3a9.9,9.9,0,0,0-1.2-19.6l.2,3.3A6.624,6.624,0,0,1,326.1,152.8Z" transform="translate(-243.308 -86.117)" fill="#002f2d"/>
        <path id="Tracé_213" data-name="Tracé 213" d="M327.3,120.5a9.773,9.773,0,0,0-9-9.1l.2,3.2a6.5,6.5,0,0,1,5.6,6,6.59,6.59,0,0,1-4.8,6.7l.2,3.2A9.505,9.505,0,0,0,327.3,120.5Z" transform="translate(-243.308 -86.117)" fill="#002f2d"/>
        <path id="Tracé_214" data-name="Tracé 214" d="M298.6,125.9a19.226,19.226,0,0,0-1.7-1.3,12.13,12.13,0,0,1-1.1,3.2c.2.2.5.3.7.5a12.893,12.893,0,1,1-17.1,19.3,13.132,13.132,0,0,1-4.2-11.7,14.592,14.592,0,0,1-3-1.6A16.12,16.12,0,0,0,300,148.6,16.039,16.039,0,0,0,298.6,125.9Z" transform="translate(-243.308 -86.117)" fill="#002f2d"/>
        <path id="Soustraction_10" data-name="Soustraction 10" d="M61.866,133.06c-.74,0-1.5-.026-2.273-.077l2-2.1,12.5-13a6.317,6.317,0,0,0,1.275-1.938,3.969,3.969,0,0,0-.675-4.262l-12-12.4c-1.354-1.407-4.11-3.2-4.6-3.2-.194,0-.379-.229-.613-.519a2.734,2.734,0,0,0-1.718-1.193A33.5,33.5,0,0,1,45.6,91.9a15.843,15.843,0,0,1-3.277-1.816l0,.007c-.22.352-2.2,3.441-3.741,3.441a1.071,1.071,0,0,1-.386-.07,12.6,12.6,0,0,1-6.054-5l-.173,0c-2.947.035-13.1.149-20.048.149A63.924,63.924,0,0,1,4.8,88.461C.082,71.143-1.143,58.3,1.059,49.2A24.852,24.852,0,0,1,5.19,40.121,37.662,37.662,0,0,1,10.5,34.538l.079-.072.311-.283a54.365,54.365,0,0,1,17.6-11v.1a43.888,43.888,0,0,1,28.1-14.4l9.2-.6.009,0c1.11-.555,2.368-1.185,3.691-1.8C78.228,2.181,86.89,0,95.239,0a45.578,45.578,0,0,1,6.654.483,56.391,56.391,0,0,1,15.97,4.246A46.914,46.914,0,0,1,128.555,11.2a35.062,35.062,0,0,1,8.137,8.987,61.9,61.9,0,0,1,6.139,14.938,53.823,53.823,0,0,1,1.724,13.062,69.014,69.014,0,0,1-2.863,19c-.2.715-.359,1.363-.5,1.935-.132.554-.257,1.076-.4,1.565a51.251,51.251,0,0,1-4.514,9.85,39.335,39.335,0,0,1-5.124,6.775,41.432,41.432,0,0,1-9.262,7.175c-.106.059-10.614,5.909-11.8,6.7-.107.061-10.769,6.177-15.7,11.7a100.85,100.85,0,0,1-8.362,8.112c-4.042,3.53-10.035,8.232-15.637,10.588A22.234,22.234,0,0,1,61.866,133.06Zm8.827-41.977h0c.008.1.2,2.543.3,4.4a6,6,0,0,0,2.414,4.693,8.21,8.21,0,0,0,4.9,1.423c.2,0,.394-.005.591-.016a8.491,8.491,0,0,0,5.287-2.076,6.1,6.1,0,0,0,1.913-4.925c-.1-2.669-.1-4.284-.1-4.3l2.8-.2v.4c.479-.271,11.844-6.658,17.9-11-1.452-3.1-2.84-6.377-4.127-9.739a96.991,96.991,0,0,1,8.627-7.461c-.038.016-5.422,2.177-9.775,4.367C94.133,46.4,91.075,25.417,89.792,11.382c-.506.034-1.079.067-1.743.105l-.074,0h-.008c-1.242.072-2.788.161-4.475.29l-13.3.8c-2.744.189-9.616.557-10.391.6h-.008l-1.2.1a40.267,40.267,0,0,0-15.25,3.953,39.323,39.323,0,0,0-12.1,9.072A39.016,39.016,0,0,0,33.72,81.036,39.85,39.85,0,0,0,60.833,91.556c.816,0,1.643-.025,2.459-.073l1.9-.1,5.5-.3Z" transform="translate(0)" fill="#002f2d"/>
      </g>
      <g id="logout" transform="translate(144.927)">
        <path id="Tracé_3006" d="M316.6,177" transform="translate(-153.3 -68.2)" fill="#002f2d"/>
        <g id="Groupe_33" data-name="Groupe 33" transform="translate(37.2)">
          <path id="Tracé_115" data-name="Tracé 115" d="M190.9,81.6l11.9-9.7L194.1,70l.4-1.8,11.3,2.4-.4,1.8L193.5,82l9.4,2-.4,1.8-12-2.6Z" transform="translate(-190.5 -68.2)" fill="#002f2d"/>
        </g>
        <g id="Groupe_34" data-name="Groupe 34" transform="translate(37.2)">
          <path id="Tracé_116" data-name="Tracé 116" d="M190.9,81.6l11.9-9.7L194.1,70l.4-1.8,11.3,2.4-.4,1.8L193.5,82l9.4,2-.4,1.8-12-2.6Z" transform="translate(-190.5 -68.2)" fill="none" stroke="#fff" stroke-linecap="round" stroke-linejoin="round" stroke-width="4"/>
        </g>
        <g id="Groupe_35" data-name="Groupe 35" transform="translate(64.3 13.9)">
          <path id="Tracé_117" data-name="Tracé 117" d="M218,105.7l18.8-18.6-15.2-1.8.4-3.2,19.9,2.3-.4,3.1L222.6,106l16.5,1.9-.4,3.2-21.1-2.5Z" transform="translate(-217.6 -82.1)" fill="#002f2d"/>
        </g>
        <g id="Groupe_36" data-name="Groupe 36" transform="translate(64.3 13.9)">
          <path id="Tracé_118" data-name="Tracé 118" d="M218,105.7l18.8-18.6-15.2-1.8.4-3.2,19.9,2.3-.4,3.1L222.6,106l16.5,1.9-.4,3.2-21.1-2.5Z" transform="translate(-217.6 -82.1)" fill="none" stroke="#fff" stroke-linecap="round" stroke-linejoin="round" stroke-width="4"/>
        </g>
        <g id="Groupe_37" data-name="Groupe 37" transform="translate(0 6.5)">
          <path id="Tracé_119" data-name="Tracé 119" d="M155.1,82.6l2.3-6.6-3.8,1.3-.3-.8,5-1.8.3.8-2.3,6.6,4.1-1.5.3.8-5.3,1.9Z" transform="translate(-153.3 -74.7)" fill="#002f2d"/>
        </g>
        <g id="Groupe_38" data-name="Groupe 38" transform="translate(0 6.5)">
          <path id="Tracé_120" data-name="Tracé 120" d="M155.1,82.6l2.3-6.6-3.8,1.3-.3-.8,5-1.8.3.8-2.3,6.6,4.1-1.5.3.8-5.3,1.9Z" transform="translate(-153.3 -74.7)" fill="none" stroke="#fff" stroke-linecap="round" stroke-linejoin="round" stroke-miterlimit="3.998" stroke-width="3.998"/>
        </g>
        <g id="Groupe_39" data-name="Groupe 39" transform="translate(16.5 15.9)">
          <path id="Tracé_121" data-name="Tracé 121" d="M172.1,94.1l3-8.5-4.9,1.8-.4-1,6.5-2.3.4,1-3,8.5,5.4-1.9.4,1-6.8,2.4Z" transform="translate(-169.8 -84.1)" fill="#002f2d"/>
        </g>
        <g id="Groupe_40" data-name="Groupe 40" transform="translate(16.5 15.9)">
          <path id="Tracé_122" data-name="Tracé 122" d="M172.1,94.1l3-8.5-4.9,1.8-.4-1,6.5-2.3.4,1-3,8.5,5.4-1.9.4,1-6.8,2.4Z" transform="translate(-169.8 -84.1)" fill="none" stroke="#fff" stroke-linecap="round" stroke-linejoin="round" stroke-miterlimit="3.998" stroke-width="3.998"/>
        </g>
        <g id="Groupe_41" data-name="Groupe 41" transform="translate(37.2)">
          <path id="Tracé_123" data-name="Tracé 123" d="M190.9,81.6l11.9-9.7L194.1,70l.4-1.8,11.3,2.4-.4,1.8L193.5,82l9.4,2-.4,1.8-12-2.6Z" transform="translate(-190.5 -68.2)" fill="#002f2d"/>
        </g>
        <g id="Groupe_42" data-name="Groupe 42" transform="translate(64.3 13.9)">
          <path id="Tracé_124" data-name="Tracé 124" d="M218,105.7l18.8-18.6-15.2-1.8.4-3.2,19.9,2.3-.4,3.1L222.6,106l16.5,1.9-.4,3.2-21.1-2.5Z" transform="translate(-217.6 -82.1)" fill="#002f2d"/>
        </g>
        <g id="Groupe_43" data-name="Groupe 43" transform="translate(0 6.5)">
          <path id="Tracé_125" data-name="Tracé 125" d="M155.1,82.6l2.3-6.6-3.8,1.3-.3-.8,5-1.8.3.8-2.3,6.6,4.1-1.5.3.8-5.3,1.9Z" transform="translate(-153.3 -74.7)" fill="#002f2d"/>
        </g>
        <g id="Groupe_44" data-name="Groupe 44" transform="translate(16.5 15.9)">
          <path id="Tracé_126" data-name="Tracé 126" d="M172.1,94.1l3-8.5-4.9,1.8-.4-1,6.5-2.3.4,1-3,8.5,5.4-1.9.4,1-6.8,2.4Z" transform="translate(-169.8 -84.1)" fill="#002f2d"/>
        </g>
      </g>
    </g>
    <path id="Tracé_217" data-name="Tracé 217" d="M.023,5.812C.59,7.88,3.916,10.8,6.19,10.821S9.758,0,9.758,0-.544,3.745.023,5.812Z" transform="translate(353.423 92.681) rotate(73)" fill="none" stroke="#3fae69" stroke-width="2"/>
  </g>
</svg>
