<?xml version="1.0" encoding="utf-8"?>
<!-- Generator: Adobe Illustrator 25.0.1, SVG Export Plug-In . SVG Version: 6.00 Build 0)  -->
<svg version="1.1" id="Calque_1" xmlns="http://www.w3.org/2000/svg" xmlns:xlink="http://www.w3.org/1999/xlink" x="0px" y="0px"
	 viewBox="0 0 21 15" style="enable-background:new 0 0 21 15;" xml:space="preserve">
<style type="text/css">
	.st0{fill-rule:evenodd;clip-rule:evenodd;fill:url(#FlagBackground_1_);}
	.st1{fill-rule:evenodd;clip-rule:evenodd;fill:url(#Rectangle-2_2_);}
	.st2{fill-rule:evenodd;clip-rule:evenodd;fill:url(#Rectangle-2_3_);}
	.st3{fill-rule:evenodd;clip-rule:evenodd;fill:url(#Rectangle-1512_1_);}
	.st4{fill-rule:evenodd;clip-rule:evenodd;fill:url(#Rectangle-1513_2_);}
	.st5{fill-rule:evenodd;clip-rule:evenodd;fill:url(#Rectangle-1513_3_);}
</style>
<desc>Created with sketchtool.</desc>
<g id="Symbols">
	<g id="BY">
		
			<linearGradient id="FlagBackground_1_" gradientUnits="userSpaceOnUse" x1="-272.8333" y1="401.3565" x2="-272.8333" y2="400.3565" gradientTransform="matrix(21 0 0 -15 5740 6020.3477)">
			<stop  offset="0" style="stop-color:#FFFFFF"/>
			<stop  offset="1" style="stop-color:#F0F0F0"/>
		</linearGradient>
		<rect id="FlagBackground" y="0" class="st0" width="21" height="15"/>
		
			<linearGradient id="Rectangle-2_2_" gradientUnits="userSpaceOnUse" x1="-272.8333" y1="387.5898" x2="-272.8333" y2="386.5898" gradientTransform="matrix(21 0 0 -10 5740 3875.8984)">
			<stop  offset="0" style="stop-color:#E54252"/>
			<stop  offset="1" style="stop-color:#C63442"/>
		</linearGradient>
		<rect id="Rectangle-2" y="0" class="st1" width="21" height="10"/>
		
			<linearGradient id="Rectangle-2_3_" gradientUnits="userSpaceOnUse" x1="-272.8333" y1="346.2898" x2="-272.8333" y2="345.2898" gradientTransform="matrix(21 0 0 -5 5740 1741.4492)">
			<stop  offset="0" style="stop-color:#5CBE6B"/>
			<stop  offset="1" style="stop-color:#4EA55B"/>
		</linearGradient>
		<rect id="Rectangle-2_1_" y="10" class="st2" width="21" height="5"/>
		
			<linearGradient id="Rectangle-1512_1_" gradientUnits="userSpaceOnUse" x1="-190.8333" y1="401.3565" x2="-190.8333" y2="400.3565" gradientTransform="matrix(3 0 0 -15 574 6020.3477)">
			<stop  offset="0" style="stop-color:#FFFFFF"/>
			<stop  offset="1" style="stop-color:#F0F0F0"/>
		</linearGradient>
		<path id="Rectangle-1512" class="st3" d="M3,12.8V15H0V0h3v2.2L2.5,3L3,3.8v1.5L2.5,6L3,6.8v1.5L2.5,9L3,9.8v1.5L2.5,12L3,12.8z"
			/>
		
			<linearGradient id="Rectangle-1513_2_" gradientUnits="userSpaceOnUse" x1="-143" y1="394.4732" x2="-143" y2="393.4732" gradientTransform="matrix(2 0 0 -12 285.5 4735.1782)">
			<stop  offset="0" style="stop-color:#E54252"/>
			<stop  offset="1" style="stop-color:#C63442"/>
		</linearGradient>
		<path id="Rectangle-1513" class="st4" d="M-1.5,3l1-1.5l1,1.5l-1,1.5L-1.5,3z M-1.5,6l1-1.5l1,1.5l-1,1.5L-1.5,6z M-1.5,9l1-1.5
			l1,1.5l-1,1.5L-1.5,9z M-1.5,12l1-1.5l1,1.5l-1,1.5L-1.5,12z"/>
		
			<linearGradient id="Rectangle-1513_3_" gradientUnits="userSpaceOnUse" x1="-143" y1="401.3565" x2="-143" y2="400.3565" gradientTransform="matrix(2 0 0 -15 287.5 6020.3477)">
			<stop  offset="0" style="stop-color:#E54252"/>
			<stop  offset="1" style="stop-color:#C63442"/>
		</linearGradient>
		<path id="Rectangle-1513_1_" class="st5" d="M0.5,1.5l1-1.5l1,1.5L1.5,3L0.5,1.5z M0.5,4.5l1-1.5l1,1.5L1.5,6L0.5,4.5z M0.5,7.5
			l1-1.5l1,1.5L1.5,9L0.5,7.5z M0.5,10.5l1-1.5l1,1.5l-1,1.5L0.5,10.5z M0.5,13.5l1-1.5l1,1.5l-1,1.5L0.5,13.5z"/>
	</g>
</g>
</svg>
