<svg id="f-10" xmlns="http://www.w3.org/2000/svg" width="52" height="52" viewBox="0 0 52 52">
  <rect id="Rectangle_441" data-name="Rectangle 441" width="52" height="52" fill="none"/>
  <g id="_011-woman-5" data-name="011-woman-5" transform="translate(9 6.406)">
    <path id="Tracé_3787" data-name="Tracé 3787" d="M103.474,340.569l-1.451-.175-.068.084a11.4,11.4,0,0,1-18.237,0l-.068-.084-1.444.175a6.079,6.079,0,0,0-5.319,6.034v9.073h31.908V346.6A6.079,6.079,0,0,0,103.474,340.569Z" transform="translate(-76.118 -310.082)" fill="#f288b7"/>
    <path id="Tracé_3788" data-name="Tracé 3788" d="M81.359,344.064a6.079,6.079,0,0,0-4.559,5.882v9.073h4.559Z" transform="translate(-76.04 -313.426)" fill="#ed7bb2"/>
    <g id="Groupe_1707" data-name="Groupe 1707" transform="translate(0.76 32.675)">
      <path id="Union_87" data-name="Union 87" d="M1080.24,889.836v-1.519h31.915v1.519Zm0-3.8v-1.52h31.915v1.52Zm0-3.8v-1.519h31.915v1.519Zm.44-3.8v-1.52H1111.4v1.52Z" transform="translate(-1080.24 -876.919)" fill="#db6ea2"/>
    </g>
    <path id="Tracé_3789" data-name="Tracé 3789" d="M350.627,85.333v4.559l-.76,4.559v3.04a6.079,6.079,0,0,0,6.079,6.079V91.412C355.946,88.578,353.666,85.333,350.627,85.333Z" transform="translate(-324.791 -77.734)" fill="#a15d30"/>
    <path id="Tracé_3790" data-name="Tracé 3790" d="M354.426,101.337a11.73,11.73,0,0,1-2.28-6.885V85.615a4.419,4.419,0,0,0-1.52-.281v4.559l-.76,4.559v3.04a6.079,6.079,0,0,0,6.079,6.079v-.091Z" transform="translate(-324.791 -77.735)" fill="#8f4f24"/>
    <path id="Tracé_3791" data-name="Tracé 3791" d="M171.139,286.919l.061-.084-4.05-.509a1.52,1.52,0,0,1-1.33-1.52V281.6h-7.6v3.214a1.52,1.52,0,0,1-1.33,1.52l-4.058.509.068.076a11.4,11.4,0,0,0,18.237,0Z" transform="translate(-145.302 -256.524)" fill="#fedac6"/>
    <path id="Tracé_3792" data-name="Tracé 3792" d="M220.933,275.726v-2.66h-7.6v2.66A6.9,6.9,0,0,0,220.933,275.726Z" transform="translate(-200.416 -248.75)" fill="#f5c4b0"/>
    <path id="Union_89" data-name="Union 89" d="M1081.417,922.512l-.418-6.079s4.559-4.559,5.319-6.839c0,0,6.839,6.079,11.4,6.839l-.418,6.079a7.949,7.949,0,0,1-15.882,0Zm16.3-1.52v-4.559h.76a2.28,2.28,0,0,1,0,4.559Z" transform="translate(-1072.641 -904.274)" fill="#fedac6"/>
    <path id="Tracé_3794" data-name="Tracé 3794" d="M162.133,114.768l.418,6.079a7.932,7.932,0,0,0,4.521,6.839c-2.113-4.658-2.591-11.2-2.675-15.046C163.212,113.841,162.133,114.768,162.133,114.768Z" transform="translate(-153.774 -102.61)" fill="#f5c4b0"/>
    <path id="Tracé_3795" data-name="Tracé 3795" d="M162.572,19.931l.061-.479a9.644,9.644,0,0,0-9.559-10.92h0a9.641,9.641,0,0,0-9.559,10.92l.061.479h1.52c1.52-1.565,4.635-4.726,5.319-6.839.1.35,7.059,6.839,11.4,6.839Z" transform="translate(-136.736 -7.773)" fill="#a15d30"/>
    <path id="Tracé_3796" data-name="Tracé 3796" d="M131.04,141.092h-.76a2.279,2.279,0,0,1-2.28-2.28h0a2.279,2.279,0,0,1,2.28-2.28h.76" transform="translate(-122.681 -124.375)" fill="#f5c4b0"/>
    <path id="Union_88" data-name="Union 88" d="M1092.4,914.153a2.279,2.279,0,0,1-2.28-2.28v-2.28h6.839v2.28a2.279,2.279,0,0,1-2.28,2.28Zm-9.119,0a2.279,2.279,0,0,1-2.28-2.28v-2.28h6.839v2.28a2.279,2.279,0,0,1-2.28,2.28Z" transform="translate(-1072.641 -897.435)" fill="#ebebeb"/>
    <path id="Tracé_3800" data-name="Tracé 3800" d="M148.332,22.528a9.628,9.628,0,0,0-4.825,9.673l.061.479h1.52c.813-.813,2.052-2.052,3.146-3.381A27.059,27.059,0,0,1,148.332,22.528Z" transform="translate(-136.728 -20.522)" fill="#8f4f24"/>
    <path id="Union_86" data-name="Union 86" d="M1112.915,955.186v-9.073a5.326,5.326,0,0,0-4.654-5.279l-1.02-.127a12.166,12.166,0,0,1-19.047,0l-1.02.127a5.329,5.329,0,0,0-4.654,5.279v9.073H1081v-9.073a6.851,6.851,0,0,1,5.984-6.787l5.5-.684a.759.759,0,0,0,.663-.76V934.9a8.691,8.691,0,0,1-4.134-7.039l-.054-.793h-.364a3.039,3.039,0,0,1-1.567-5.644l-.007-.06a10.4,10.4,0,0,1,8.934-11.684,10.666,10.666,0,0,1,1.379-.091h0a10.423,10.423,0,0,1,9.782,6.847c3.336.19,5.8,3.691,5.8,6.831v12.158a.76.76,0,0,1-.76.76,6.851,6.851,0,0,1-6.574-4.95,8.7,8.7,0,0,1-3.3,3.664v2.973a.761.761,0,0,0,.664.766l5.5.684a6.85,6.85,0,0,1,5.986,6.787v9.073Zm-16.7-11.506a10.639,10.639,0,0,0,9.212-3.2l-2.665-.331a2.279,2.279,0,0,1-2-2.28v-2.227a8.792,8.792,0,0,1-6.094,0v2.232a2.277,2.277,0,0,1-1.994,2.273l-2.669.332A10.558,10.558,0,0,0,1096.214,943.681Zm-5.678-15.9a7.189,7.189,0,0,0,14.364.019l.088-1.436a3.026,3.026,0,0,1-1.951.71h-2.28a3.043,3.043,0,0,1-3.039-3.039v-1.52h-.186l-1.163,4.068,1.59.53-.481,1.442-2.28-.76a.759.759,0,0,1-.513-.819,3.035,3.035,0,0,1-.767.1h-2.28a3.022,3.022,0,0,1-1.167-.233Zm16.3,1.572a5.327,5.327,0,0,0,4.559,5.265V923.271c0-2.224-1.629-4.775-3.839-5.243a10.53,10.53,0,0,1,.125,3.083,3.04,3.04,0,0,1-.846,5.96Zm0-3.8a1.52,1.52,0,0,0,0-3.039h-.092l-.186,3.039Zm-7.6-1.519a1.521,1.521,0,0,0,1.519,1.519h2.28a1.521,1.521,0,0,0,1.52-1.519v-1.52h-.963a1.52,1.52,0,1,1-2.633,0h-1.723Zm-7.6,1.519h2.28a1.521,1.521,0,0,0,1.519-1.519v-1.52h-.963a1.52,1.52,0,1,1-2.633,0h-1.668l.158,2.294A1.52,1.52,0,0,0,1091.639,925.551Zm-4.559-1.519a1.521,1.521,0,0,0,1.519,1.519h.26l-.024-.345a3.021,3.021,0,0,1-.236-1.174v-1.52A1.521,1.521,0,0,0,1087.079,924.032Zm9.081-12.84a8.883,8.883,0,0,0-7.651,9.8h.536c1.5-1.509,4.244-4.313,4.912-6.319a.736.736,0,0,1,.739-.52.762.762,0,0,1,.645.388c.56.691,6.442,5.981,10.25,6.422l.478.029h.1a8.878,8.878,0,0,0-8.827-9.878h0A9,9,0,0,0,1096.16,911.192Zm5.156,9.8a31.617,31.617,0,0,1-6.405-4.735,24.107,24.107,0,0,1-3.736,4.735h10.141Zm-4.541,9.878h-.578v-1.519h.58a6.456,6.456,0,0,0,2.879-.68l.68,1.359a7.986,7.986,0,0,1-3.559.841Z" transform="translate(-1081 -909.594)" fill="#012f2d"/>
  </g>
</svg>
