<svg id="f-11_1" xmlns="http://www.w3.org/2000/svg" width="52" height="52" viewBox="0 0 52 52">
  <g id="_012-woman-4" data-name="012-woman-4" transform="translate(9 6.406)">
    <path id="Tracé_3814" data-name="Tracé 3814" d="M104.678,346.011,99.4,345.35l-.334.76a6.915,6.915,0,0,1-12.705,0l-.334-.76-5.274.661a4.559,4.559,0,0,0-4,4.559v9.62h31.915V350.54A4.559,4.559,0,0,0,104.678,346.011Z" transform="translate(-76 -314.597)" fill="#dbdbdb"/>
    <path id="Tracé_3815" data-name="Tracé 3815" d="M76.76,362.9v9.179H79.8V358.406C77.52,359.166,76.76,360.686,76.76,362.9Z" transform="translate(-76 -326.49)" fill="#bfbfbf"/>
    <path id="Union_90" data-name="Union 90" d="M985,1498.512v-1.52h31.916v1.52Zm0-3.8v-1.52h31.916v1.52Zm0-3.8v-1.52h31.916v1.52Zm.76-3.8v-1.52h30.395v1.52Z" transform="translate(-984.24 -1452.918)" fill="#8c8c8c"/>
    <path id="Tracé_3816" data-name="Tracé 3816" d="M187.555,292.243a6.908,6.908,0,0,0,6.353-4.187l.334-.76-1.52-.19a1.52,1.52,0,0,1-1.33-1.52v-3.982h-7.637v3.974a1.52,1.52,0,0,1-1.33,1.52l-1.558.19.334.76A6.908,6.908,0,0,0,187.555,292.243Z" transform="translate(-170.837 -256.529)" fill="#c6845f"/>
    <path id="Tracé_3817" data-name="Tracé 3817" d="M220.893,285.815v-4.21h-7.6v4.21A7.05,7.05,0,0,0,220.893,285.815Z" transform="translate(-200.376 -256.529)" fill="#b56a4c"/>
    <path id="Union_93" data-name="Union 93" d="M985,1499.271v-3.8a9.879,9.879,0,0,1,17-6.85,3.049,3.049,0,0,1-.024-.378c0-1.888,1.275-2.651,3.164-2.651a3.42,3.42,0,0,1,3.419,3.42,3.833,3.833,0,0,1-3.419,3.419,2.054,2.054,0,0,1-.994-.4,9.859,9.859,0,0,1,.614,3.436v3.8Z" transform="translate(-978.161 -1484.833)" fill="#70432c"/>
    <path id="Union_94" data-name="Union 94" d="M991.315,1504.332l-1.52-.76a8.285,8.285,0,0,1-4.666-7.508l-.13-5.152,1.885-4.4a1.521,1.521,0,0,1,1.4-.92H998.5a1.519,1.519,0,0,1,1.361.844l1.862,3.715h.76a2.28,2.28,0,1,1,0,4.559h-.871l-.033,1.353a8.281,8.281,0,0,1-4.666,7.508l-1.52.76a4.559,4.559,0,0,1-4.073,0Z" transform="translate(-976.641 -1477.994)" fill="#c6845f"/>
    <path id="Tracé_3821" data-name="Tracé 3821" d="M334.279,15.44v-.16a3.366,3.366,0,0,0-1.52,2.819c0,.634,1.266.583,1.735,1.354.418.74.407,2.06,1.653,2.066a3.406,3.406,0,0,0,2.311-.89A5.32,5.32,0,0,1,334.279,15.44Z" transform="translate(-309.203 -13.919)" fill="#5c3724"/>
    <path id="Tracé_3822" data-name="Tracé 3822" d="M147.4,47.536a9.822,9.822,0,0,0-2.371,6.406v3.8h4A30.109,30.109,0,0,1,147.4,47.536Z" transform="translate(-138.188 -43.303)" fill="#5c3724"/>
    <path id="Union_96" data-name="Union 96" d="M992.849,1503.581a8.307,8.307,0,0,1-4.666-7.508l-.01-.36h-.894a2.28,2.28,0,0,1,0-4.559h.767l-.007-.24,1.854-4.392a1.517,1.517,0,0,1,1.428-.927h.16a40.259,40.259,0,0,0-.4,11.4,15.456,15.456,0,0,0,1.52,5.738l.524.988Z" transform="translate(-979.681 -1477.994)" fill="#b56a4c"/>
    <path id="Union_91" data-name="Union 91" d="M997.159,1490.153a2.279,2.279,0,0,1-2.28-2.279v-2.281h6.079a.76.76,0,0,1,.76.76v1.52a2.279,2.279,0,0,1-2.28,2.279Zm-9.879,0a2.279,2.279,0,0,1-2.28-2.279v-1.52a.761.761,0,0,1,.76-.76h6.079v2.281a2.279,2.279,0,0,1-2.28,2.279Z" transform="translate(-976.641 -1473.435)" fill="#ebebeb"/>
    <path id="Union_92" data-name="Union 92" d="M992.63,1492.133l2.281-5.32,1.4.6-2.281,5.319Zm-7.63-4.811,1.462-.417,1.519,5.319-1.461.417Zm4.531,5.109v-6.839h1.519v6.839Z" transform="translate(-973.572 -1484.833)" fill="#5c3724"/>
    <path id="Union_95" data-name="Union 95" d="M1016.923,1531.187v-9.613a3.8,3.8,0,0,0-3.33-3.805l-4.721-.588-.1.24a7.658,7.658,0,0,1-7.047,4.647h-.009a7.657,7.657,0,0,1-7.046-4.648l-.117-.274-4.7.584a3.8,3.8,0,0,0-3.332,3.8v9.657H985v-9.651a5.316,5.316,0,0,1,4.663-5.313l6.839-.85a.762.762,0,0,0,.664-.76v-3.11a9.094,9.094,0,0,1-4.438-7.672h-.13a3.039,3.039,0,0,1-1.52-5.671v-1.928a10.634,10.634,0,0,1,17.186-8.38,4.179,4.179,0,1,1,3.845,6.1,10.639,10.639,0,0,1,.246,2.282v1.168a3.039,3.039,0,0,1-1.52,5.671h-.129l-.015.611a9.083,9.083,0,0,1-4.415,7.806v3.157a.762.762,0,0,0,.665.766l6.837.851a5.318,5.318,0,0,1,4.664,5.319v9.607Zm-15.209-10.639h.007a6.139,6.139,0,0,0,5.579-3.563l-.546-.068a2.28,2.28,0,0,1-2-2.28v-2.364l-.671.336h0a5.339,5.339,0,0,1-4.749,0l-.648-.324v2.32a2.28,2.28,0,0,1-2,2.273l-.571.071A6.141,6.141,0,0,0,1001.714,1520.548Zm-7.465-16.9a7.569,7.569,0,0,0,4.237,6.843l1.528.763a3.81,3.81,0,0,0,3.393,0l1.435-.722c.023-.012.045-.021.068-.03l.017-.009a7.565,7.565,0,0,0,4.246-6.823l.023-.939a3.019,3.019,0,0,1-1.4.342h-2.28a3.042,3.042,0,0,1-3.039-3.039v-1.52h-1.52v1.52a3.021,3.021,0,0,1-.269,1.25l.806.807-.983.983.983.983-1.075,1.075-1.52-1.52a.758.758,0,0,1-.216-.635,3.034,3.034,0,0,1-.766.1h-2.28a3.022,3.022,0,0,1-1.414-.349Zm-3.169-2.854a1.522,1.522,0,0,0,1.52,1.52h.1l-.056-1.792a3.055,3.055,0,0,1-.039-.488v-.76A1.521,1.521,0,0,0,991.079,1500.791Zm19.665.76h.092a1.52,1.52,0,1,0,0-3.04v1.52a3.035,3.035,0,0,1-.071.653Zm-6.747-1.52a1.522,1.522,0,0,0,1.52,1.52h2.28a1.523,1.523,0,0,0,1.454-1.075l.048-1.965h-1.7a1.52,1.52,0,1,1-2.632,0H1004Zm-8.358,1.52h2.28a1.522,1.522,0,0,0,1.52-1.52v-1.52h-.964a1.52,1.52,0,1,1-2.632,0h-1.656l-.063.147.044,1.754A1.523,1.523,0,0,0,995.639,1501.552Zm-2.836-3.8a1.528,1.528,0,0,1,.143-.206l1.4-3.269a3.034,3.034,0,0,1,2.794-1.843h9.25a3.019,3.019,0,0,1,2.715,1.681l1.439,2.877h.289v-.76a9.118,9.118,0,1,0-18.237,0v1.52Zm16.044-.76-1.1-2.2a1.511,1.511,0,0,0-1.357-.841h-9.244a1.518,1.518,0,0,0-1.4.922l-.908,2.118h14.01Zm3.084-4.558a2.681,2.681,0,0,0,2.554-1.774,2.661,2.661,0,0,0-1.621-3.395,2.667,2.667,0,0,0-3.4,1.621l-.1-.034a10.662,10.662,0,0,1,2.282,3.582A2.229,2.229,0,0,0,1011.931,1492.434Zm-11.156,15.2h-.577v-1.52h.58a6.477,6.477,0,0,0,2.88-.68l.68,1.359a7.984,7.984,0,0,1-3.56.841Z" transform="translate(-985 -1485.594)" fill="#012f2d"/>
  </g>
  <rect id="Rectangle_442" data-name="Rectangle 442" width="52" height="52" fill="none"/>
</svg>
