<svg id="f-12_1" xmlns="http://www.w3.org/2000/svg" width="52" height="52" viewBox="0 0 52 52">
  <rect id="Rectangle_443" data-name="Rectangle 443" width="52" height="52" fill="none"/>
  <g id="_013-woman-3" data-name="013-woman-3" transform="translate(8 6.406)">
    <path id="Tracé_3839" data-name="Tracé 3839" d="M62.2,41.649a3.8,3.8,0,0,1-.312-6.793,3.8,3.8,0,0,1,2.28-6.535,2.99,2.99,0,0,1-.448-1.55,3.04,3.04,0,0,1,3.04-3.04V19.171A10.638,10.638,0,0,1,77.4,8.533h0A10.638,10.638,0,0,1,88.04,19.171v4.559a3.04,3.04,0,0,1,3.04,3.04,2.993,2.993,0,0,1-.441,1.52,3.8,3.8,0,0,1,2.28,6.535,3.8,3.8,0,0,1-.319,6.824Z" transform="translate(-59.145 -7.773)" fill="#70432c"/>
    <path id="Union_98" data-name="Union 98" d="M988.3,1453.793a11.931,11.931,0,0,0-1.482-9.234,3.8,3.8,0,0,1,3.443-4.125,2.993,2.993,0,0,1-.44-1.52,3.039,3.039,0,0,1,3.039-3.039v-4.559a10.638,10.638,0,0,1,3.45-7.826c-.054.965-.09,2.094-.08,3.34l6.8-5.237.464.6.47-.6,10.637,8.358-.939,1.2-10.173-7.993-7.215,5.553c.319,7.321,2.332,17.54,10.261,23.882.5.44,1.011.821,1.519,1.2Z" transform="translate(-985.238 -1419.918)" fill="#5c3724"/>
    <path id="Tracé_3841" data-name="Tracé 3841" d="M342.871,145.067h-1.52v4.559h1.52a2.28,2.28,0,1,0,0-4.559Z" transform="translate(-315.496 -132.149)" fill="#c6845f"/>
    <path id="Tracé_3843" data-name="Tracé 3843" d="M104.736,346.005l-5.274-.661-.334.76a6.915,6.915,0,0,1-12.705,0l-.334-.76-5.274.661a4.559,4.559,0,0,0-4,4.559v9.62h31.915v-9.651A4.56,4.56,0,0,0,104.736,346.005Z" transform="translate(-74.519 -314.591)" fill="#a15d30"/>
    <path id="Tracé_3844" data-name="Tracé 3844" d="M187.613,292.238a6.908,6.908,0,0,0,6.353-4.187l.334-.76-1.52-.19a1.52,1.52,0,0,1-1.33-1.52V281.6h-7.637v3.974a1.52,1.52,0,0,1-1.33,1.52l-1.558.19.334.76A6.907,6.907,0,0,0,187.613,292.238Z" transform="translate(-169.356 -256.524)" fill="#c6845f"/>
    <path id="Tracé_3845" data-name="Tracé 3845" d="M220.951,285.81V281.6h-7.6v4.21A7.05,7.05,0,0,0,220.951,285.81Z" transform="translate(-198.895 -256.524)" fill="#b56a4c"/>
    <path id="Tracé_3846" data-name="Tracé 3846" d="M76.818,362.9v9.179h3.04V358.4C77.578,359.16,76.818,360.68,76.818,362.9Z" transform="translate(-74.519 -326.485)" fill="#8f4f24"/>
    <path id="Tracé_3847" data-name="Tracé 3847" d="M178.87,75.106l-.418,6.079a7.948,7.948,0,0,1-7.941,7.6h0a7.948,7.948,0,0,1-7.941-7.6l-.418-6.079,8.359-6.839Z" transform="translate(-152.255 -62.188)" fill="#c6845f"/>
    <path id="Union_99" data-name="Union 99" d="M989.457,1430.18l-.1-1.519h-1.074a2.28,2.28,0,0,1,0-4.559h.76l3.039-2.508c.091,4.027.258,10.381.76,12.387a27.478,27.478,0,0,0,.927,2.91A7.932,7.932,0,0,1,989.457,1430.18Z" transform="translate(-979.142 -1411.183)" fill="#b56a4c"/>
    <path id="Union_97" data-name="Union 97" d="M1019.462,1467.186v-9.612a3.8,3.8,0,0,0-3.33-3.806l-4.721-.586-.1.239a7.658,7.658,0,0,1-7.047,4.647h-.008a7.657,7.657,0,0,1-7.047-4.647l-.118-.274-4.7.584a3.8,3.8,0,0,0-3.331,3.8v9.656h-1.52v-9.65a5.294,5.294,0,0,1,.328-1.88,4.579,4.579,0,0,1-1.307-1.492,7.739,7.739,0,0,0,.259-7.862,4.57,4.57,0,0,1,3.137-4.748,3.737,3.737,0,0,1,2.158-4.454,3.069,3.069,0,0,1-.016-.31,3.028,3.028,0,0,1,.76-2.009v-1.791a11.4,11.4,0,1,1,22.8,0v1.79a3.026,3.026,0,0,1,.76,2.009,3.068,3.068,0,0,1-.016.311,3.729,3.729,0,0,1,2.156,4.454,8.563,8.563,0,0,1,2.085,14.1,5.308,5.308,0,0,1,.341,1.919v9.607Zm-15.209-10.638h.007a6.142,6.142,0,0,0,5.578-3.562l-.545-.068a2.281,2.281,0,0,1-2-2.28v-2.231a8.79,8.79,0,0,1-6.071,0v2.2a2.277,2.277,0,0,1-2,2.274l-.57.071A6.139,6.139,0,0,0,1004.252,1456.548Zm4.564-5.9a.762.762,0,0,0,.664.766l6.837.85a5.311,5.311,0,0,1,3.576,2.056,3.038,3.038,0,0,0-.486-5,.76.76,0,0,1-.159-1.217,3.039,3.039,0,0,0-1.823-5.227.76.76,0,0,1-.581-1.154,2.233,2.233,0,0,0,.329-1.134,2.276,2.276,0,0,0-1.307-2.051,3.039,3.039,0,0,1-2.493,1.3H1013l-.049.806a8.677,8.677,0,0,1-4.139,7.031Zm-17.478-10.055a2.22,2.22,0,0,0,.329,1.123.76.76,0,0,1-.58,1.154,3.039,3.039,0,0,0-1.824,5.227.761.761,0,0,1-.159,1.218,3.038,3.038,0,0,0-1.21,4.124,3.044,3.044,0,0,0,.711.869,5.312,5.312,0,0,1,3.6-2.082l6.839-.851a.759.759,0,0,0,.664-.76v-2.94a8.692,8.692,0,0,1-4.148-7.048l-.049-.793h-.37a3.037,3.037,0,0,1-2.493-1.3A2.283,2.283,0,0,0,991.338,1440.589Zm5.736-.045a7.189,7.189,0,0,0,14.364.013l.351-5.741-7.532-6.162-7.533,6.163Zm16.3-2.234a1.52,1.52,0,1,0,0-3.039h-.091l-.186,3.039Zm-18.237,0h.277l-.186-3.039h-.091a1.52,1.52,0,1,0,0,3.039Zm18.237-4.559a3.04,3.04,0,0,1,.76.1v-.856a9.892,9.892,0,0,0-9.121-9.85v4.169l7.872,6.44Zm-19-.76v.856a3.033,3.033,0,0,1,.76-.1h.488l7.869-6.439v-4.17A9.892,9.892,0,0,0,994.379,1432.992Zm8.935,10.638h-.577v-1.519h.58a6.463,6.463,0,0,0,2.88-.68l.68,1.36a8,8,0,0,1-3.561.84Zm-.818-3.838a.76.76,0,0,1-.48-.961l1.519-4.559,1.442.481-1.28,3.839,1.559.519-.481,1.442Zm4.8-3.761a1.52,1.52,0,1,1,1.52,1.52A1.52,1.52,0,0,1,1007.294,1436.031Zm-9.119,0a1.52,1.52,0,1,1,1.52,1.52A1.52,1.52,0,0,1,998.176,1436.031Z" transform="translate(-986 -1421.594)" fill="#012f2d"/>
  </g>
</svg>
