<svg id="f-1_1" xmlns="http://www.w3.org/2000/svg" width="52" height="52" viewBox="0 0 52 52">
  <path id="Tracé_3573" data-name="Tracé 3573" d="M157.81,32.849V19.171A10.638,10.638,0,0,0,147.171,8.533h0a10.638,10.638,0,0,0-10.638,10.638V32.849Z" transform="translate(-121.454 -1.773)" fill="#fecb66"/>
  <g id="Groupe_1691" data-name="Groupe 1691" transform="translate(15.079 10.726)">
    <path id="Tracé_3574" data-name="Tracé 3574" d="M154.1,53.077a24.489,24.489,0,0,1-12.918,3.45,8.351,8.351,0,0,0-.38,2.462v2.34l1.9-.061,11.4-6.079Z" transform="translate(-140.42 -53.077)" fill="#f5ad76"/>
    <rect id="Rectangle_224" data-name="Rectangle 224" width="10.638" height="9.878" transform="translate(0 10.471)" fill="#f5ad76"/>
  </g>
  <path id="Tracé_3575" data-name="Tracé 3575" d="M103.4,336.449l-3.245-.4-1.429-.175-5.965,13.4-5.957-13.4-1.429.175-3.252.4a6.079,6.079,0,0,0-5.319,6.034v9.073h31.915v-9.073A6.079,6.079,0,0,0,103.4,336.449Z" transform="translate(-67.04 -299.962)" fill="#787d82"/>
  <g id="Groupe_1692" data-name="Groupe 1692" transform="translate(15.079 35.901)">
    <path id="Tracé_3576" data-name="Tracé 3576" d="M141.852,343.12l-.76,3.04,6.079,3.039-5.957-13.412-1.429.182-3.252,7.15Z" transform="translate(-136.533 -335.787)" fill="#868c91"/>
    <path id="Tracé_3577" data-name="Tracé 3577" d="M261.319,343.12h5.319l-3.252-7.15-1.429-.182L256,349.2l6.079-3.039Z" transform="translate(-245.362 -335.787)" fill="#868c91"/>
  </g>
  <path id="Tracé_3578" data-name="Tracé 3578" d="M224.907,416.439l3.04-6.839h-6.079Z" transform="translate(-199.189 -367.126)" fill="#ebebeb"/>
  <path id="Tracé_3579" data-name="Tracé 3579" d="M200.187,286.327a1.52,1.52,0,0,1-1.33-1.52V281.6h-7.6v3.214a1.52,1.52,0,0,1-1.33,1.52l-.828.106L192.018,293H198.1l2.918-6.565Z" transform="translate(-169.34 -250.524)" fill="#c6845f"/>
  <path id="Tracé_3580" data-name="Tracé 3580" d="M220.933,285.05V281.6h-7.6v3.45A7.05,7.05,0,0,0,220.933,285.05Z" transform="translate(-191.416 -250.524)" fill="#b56a4c"/>
  <path id="Tracé_3581" data-name="Tracé 3581" d="M76.8,355.125V364.3h3.04V349.867A6.079,6.079,0,0,0,76.8,355.125Z" transform="translate(-67.04 -312.712)" fill="#717478"/>
  <path id="Union_101" data-name="Union 101" d="M943.418,1504.158l-.418-6.839L954.4,1492l5.32,5.319-.419,6.839a7.948,7.948,0,0,1-7.593,7.593c-.118.005-.236.008-.353.008A7.951,7.951,0,0,1,943.418,1504.158Zm16.3-1.52v-4.559h.76a2.28,2.28,0,1,1,0,4.559Z" transform="translate(-925.641 -1479.161)" fill="#c6845f"/>
  <path id="Union_100" data-name="Union 100" d="M946.678,1501.126l-.638-7.044a31.044,31.044,0,0,0,3.8-2.082l.228,5.319c0,3.556.114,6.2,1.8,9.324l1.011,1.877A7.955,7.955,0,0,1,946.678,1501.126Zm-1.4-1.725a2.279,2.279,0,1,1,0-4.558h.76v4.558Z" transform="translate(-928.681 -1475.924)" fill="#b56a4c"/>
  <g id="Groupe_1693" data-name="Groupe 1693" transform="translate(18.119 17.398)">
    <ellipse id="Ellipse_216" data-name="Ellipse 216" cx="3.04" cy="3.04" rx="3.04" ry="3.04" fill="#ebebeb"/>
    <ellipse id="Ellipse_217" data-name="Ellipse 217" cx="3.04" cy="3.04" rx="3.04" ry="3.04" transform="translate(9.119)" fill="#ebebeb"/>
  </g>
  <path id="Union_69" data-name="Union 69" d="M1433.915,574.593V565.52a5.328,5.328,0,0,0-4.655-5.279l-1.838-.229,2.628,5.913a.76.76,0,0,1-.695,1.069h-4.345l.522,2.1a.759.759,0,0,1-.4.864l-5.659,2.829v1.81h-1.52v-1.81l-5.658-2.829a.76.76,0,0,1-.4-.864l.524-2.1h-4.346a.761.761,0,0,1-.694-1.069l2.629-5.914-1.84.229a5.331,5.331,0,0,0-4.655,5.28v9.073H1402V565.52a6.851,6.851,0,0,1,5.984-6.788l5.5-.684a.76.76,0,0,0,.664-.76V555.07q-.183-.113-.36-.234h-5.712a.759.759,0,0,1-.76-.76v-7.87a3.035,3.035,0,0,1,0-4.017V540.4a11.4,11.4,0,0,1,22.8,0v2.28H1428.6V540.4a9.894,9.894,0,0,0-6.08-9.119v4.272l4.925,5.629.393.024-.418,6.839a8.662,8.662,0,0,1-2.079,5.273h3.258v-7.6h1.519v8.358a.759.759,0,0,1-.76.76h-5.71q-.177.122-.361.234v2.213a.761.761,0,0,0,.664.766l5.5.684a6.851,6.851,0,0,1,5.986,6.788v9.073Zm-24.666-9.119h4.149a.759.759,0,0,1,.737.944l-.612,2.448,3.64,1.82-4.871-10.959-.518.064Zm11.023,5.212,3.639-1.82-.612-2.448a.761.761,0,0,1,.738-.944h4.15l-2.525-5.681-.519-.065Zm-1.554-.244,1.87-4.208h-3.741Zm2.545-5.728,2.306-5.19a2.279,2.279,0,0,1-1.8-2.248v-1.466a8.789,8.789,0,0,1-6.093,0v1.472a2.277,2.277,0,0,1-1.806,2.242l2.307,5.19Zm-9.728-16.764a7.189,7.189,0,0,0,14.364.013l.116-1.895a3.8,3.8,0,0,1-6.461-3.392h-1.048L1417.4,546l1.559.52-.481,1.442-2.28-.76a.756.756,0,0,1-.41-.328,3.8,3.8,0,0,1-4.367-.8Zm-2.7,5.366h3.26a8.684,8.684,0,0,1-2.082-5.286l-.048-.794h-.37a3.038,3.038,0,0,1-.76-.1ZM1421,543.438a2.28,2.28,0,1,0,2.28-2.28A2.282,2.282,0,0,0,1421,543.438Zm-9.119,0a2.28,2.28,0,1,0,2.28-2.28A2.282,2.282,0,0,0,1411.879,543.438Zm-3.8.76a1.522,1.522,0,0,0,1.52,1.52h.277l-.186-3.04h-.092A1.522,1.522,0,0,0,1408.079,544.2Zm.76-3.8v.857a3.036,3.036,0,0,1,.76-.1h.569L1421,535.383v-4.6a9.883,9.883,0,0,0-12.158,9.613Zm11.4.76v0a3.8,3.8,0,0,1,3.927-1.418l-2.581-2.951-5.919,3.157a3.821,3.821,0,0,1,1.532,1.209Zm-2.462,9.878h-.578v-1.52h.58a6.473,6.473,0,0,0,2.88-.68l.68,1.359a8,8,0,0,1-3.56.841Z" transform="translate(-1393 -523)" fill="#012f2d"/>
  <path id="Tracé_3587" data-name="Tracé 3587" d="M350.627,142.611h-.76v-1.52h.76a1.52,1.52,0,1,0,0-3.04h-.76v-1.52h.76a3.04,3.04,0,0,1,0,6.079Z" transform="translate(-315.791 -118.374)" fill="#012f2d"/>
  <rect id="Rectangle_432" data-name="Rectangle 432" width="52" height="52" fill="none"/>
</svg>
