<svg id="f-2" xmlns="http://www.w3.org/2000/svg" width="52" height="52" viewBox="0 0 52 52">
  <rect id="Rectangle_433" data-name="Rectangle 433" width="52" height="52" fill="none"/>
  <g id="_003-woman-13" data-name="003-woman-13" transform="translate(9 6.406)">
    <path id="Tracé_3599" data-name="Tracé 3599" d="M319.49,40.038V45.3a5.456,5.456,0,0,0,4.559,5.38h0V30.159A4.559,4.559,0,0,0,319.49,25.6h-3.8l3.8,7.6Z" transform="translate(-293.653 -23.32)" fill="#5c3724"/>
    <path id="Tracé_3600" data-name="Tracé 3600" d="M164.782,19.931v-1.52A9.878,9.878,0,0,0,154.9,8.533h0a9.878,9.878,0,0,0-9.878,9.878v3.8h19.757v-2.28Z" transform="translate(-138.186 -7.773)" fill="#70432c"/>
    <path id="Tracé_3601" data-name="Tracé 3601" d="M151.3,16.213a9.879,9.879,0,0,0-6.277,9.195v3.8h4.24A40,40,0,0,1,151.3,16.213Z" transform="translate(-138.185 -14.769)" fill="#5c3724"/>
    <rect id="Rectangle_229" data-name="Rectangle 229" width="3.04" height="6.079" transform="translate(3.8 39.514)" fill="#fedac6"/>
    <rect id="Rectangle_230" data-name="Rectangle 230" width="3.04" height="6.079" transform="translate(0.76 39.514)" fill="#f5c4b0"/>
    <rect id="Rectangle_231" data-name="Rectangle 231" width="6.079" height="6.079" transform="translate(26.596 39.514)" fill="#fedac6"/>
    <path id="Tracé_3602" data-name="Tracé 3602" d="M108.672,350.223a4.559,4.559,0,0,0-4-4.559L99.4,345l-.334.76a6.915,6.915,0,0,1-12.705,0l-.334-.76-5.274.661a4.559,4.559,0,0,0-4,4.559v3.572h6.079l-.16.319a12.857,12.857,0,0,0-1.36,5.76h22.8a12.856,12.856,0,0,0-1.36-5.76l-.16-.319h6.079v-3.572Z" transform="translate(-75.997 -314.281)" fill="#2e6aa3"/>
    <path id="Tracé_3603" data-name="Tracé 3603" d="M79.8,355.413a4.56,4.56,0,0,0-3.04,4.293v3.572H79.8Z" transform="translate(-75.998 -323.764)" fill="#245e8f"/>
    <path id="Tracé_3604" data-name="Tracé 3604" d="M187.552,292.238a6.908,6.908,0,0,0,6.353-4.187l.334-.76-1.52-.19a1.52,1.52,0,0,1-1.33-1.52V281.6h-7.637v3.974a1.52,1.52,0,0,1-1.33,1.52l-1.558.19.334.76A6.908,6.908,0,0,0,187.552,292.238Z" transform="translate(-170.834 -256.524)" fill="#fedac6"/>
    <path id="Tracé_3605" data-name="Tracé 3605" d="M220.89,285.81V281.6h-7.6v4.21A7.05,7.05,0,0,0,220.89,285.81Z" transform="translate(-200.373 -256.524)" fill="#f5c4b0"/>
    <path id="Tracé_3606" data-name="Tracé 3606" d="M128.712,462.592a12.427,12.427,0,0,0-.76,4.4h5.076A7.281,7.281,0,0,1,128.712,462.592Z" transform="translate(-122.633 -421.399)" fill="#245e8f"/>
    <ellipse id="Ellipse_218" data-name="Ellipse 218" cx="1.52" cy="1.52" rx="1.52" ry="1.52" transform="translate(19.757 12.918)" fill="#012f2d"/>
    <path id="SVGCleanerId_0" d="M224.63,156.165l-2.28-.76a.761.761,0,0,1-.439-1.061l2.28-4.559,1.359.68-1.888,3.776,1.448.483Z" transform="translate(-208.153 -136.447)" fill="#012f2d"/>
    <ellipse id="Ellipse_219" data-name="Ellipse 219" cx="1.52" cy="1.52" rx="1.52" ry="1.52" transform="translate(9.879 12.918)" fill="#012f2d"/>
    <path id="Tracé_3607" data-name="Tracé 3607" d="M178.807,89.892l-.144,5.912A8.282,8.282,0,0,1,174,103.312l-1.52.76,1.436-.722-1.436.722a4.561,4.561,0,0,1-4.073,0l-1.52-.76a8.283,8.283,0,0,1-4.666-7.508l-.129-5.152,1.885-4.4a1.52,1.52,0,0,1,1.4-.919h10.213a1.519,1.519,0,0,1,1.36.843Z" transform="translate(-153.73 -77.734)" fill="#fedac6"/>
    <path id="Tracé_3608" data-name="Tracé 3608" d="M127.957,138.813a2.279,2.279,0,0,0,2.28,2.28h1.52v-4.559h-1.52A2.28,2.28,0,0,0,127.957,138.813Z" transform="translate(-122.638 -124.375)" fill="#f5c4b0"/>
    <path id="Tracé_3609" data-name="Tracé 3609" d="M342.81,136.533h-1.52v4.559h1.52a2.28,2.28,0,1,0,0-4.559Z" transform="translate(-316.974 -124.375)" fill="#fedac6"/>
    <path id="Tracé_3610" data-name="Tracé 3610" d="M165.131,96.683a40.237,40.237,0,0,1,.4-11.353h-.16a1.519,1.519,0,0,0-1.429.927l-1.854,4.392.144,5.152a8.282,8.282,0,0,0,4.666,7.508l.274.144-.524-.988A15.5,15.5,0,0,1,165.131,96.683Z" transform="translate(-153.732 -77.731)" fill="#f5c4b0"/>
    <path id="Union_71" data-name="Union 71" d="M1112.923,1467.186v-5.319h-4.128a13.682,13.682,0,0,1,1.081,5.319h-1.519a12.161,12.161,0,0,0-1.281-5.42l-.159-.319a.753.753,0,0,1-.08-.339v-2.28h1.52v1.519h4.567v-2.773a3.8,3.8,0,0,0-3.331-3.806l-4.72-.586-.1.238a7.658,7.658,0,0,1-7.048,4.647h-.008a7.656,7.656,0,0,1-7.046-4.647l-.118-.274-4.7.584a3.8,3.8,0,0,0-3.331,3.8v2.817h4.559v-1.519h1.519v2.28a.76.76,0,0,1-.079.339l-.16.319a12.171,12.171,0,0,0-1.28,5.42h-1.52a13.712,13.712,0,0,1,1.081-5.319h-4.119v5.319H1081v-9.65a5.318,5.318,0,0,1,4.664-5.314l6.839-.851a.761.761,0,0,0,.664-.76V1447.5a9.091,9.091,0,0,1-4.438-7.846l-.014-.587h-.117a3.039,3.039,0,0,1-1.519-5.672v-1.167a10.635,10.635,0,0,1,16.114-9.119h3.643a5.325,5.325,0,0,1,5.319,5.319v20.517a.761.761,0,0,1-.76.76.734.734,0,0,1-.125-.011,6.2,6.2,0,0,1-5.194-6.129v-.583a9.108,9.108,0,0,1-3.8,4.5v3.157a.763.763,0,0,0,.665.766l6.837.85a5.321,5.321,0,0,1,4.664,5.32v9.607Zm-18.237-16.581a2.277,2.277,0,0,1-1.995,2.274l-.571.071a6.139,6.139,0,0,0,5.593,3.6h.007a6.142,6.142,0,0,0,5.578-3.561l-.546-.068a2.281,2.281,0,0,1-2-2.28v-2.364l-.671.336,0,0a5.349,5.349,0,0,1-4.747,0l-.648-.323Zm13.67-18.373v1.168a3.04,3.04,0,0,1-.76,5.575v4.594a4.68,4.68,0,0,0,3.04,4.394v-19.531a3.8,3.8,0,0,0-3.8-3.8h-1.68A10.61,10.61,0,0,1,1108.356,1432.232ZM1091.585,1431l-1.446,3.616.11,5.036a7.568,7.568,0,0,0,4.237,6.841l1.527.764a3.827,3.827,0,0,0,3.393,0l1.435-.722.067-.03.018-.009a7.564,7.564,0,0,0,4.246-6.823l.139-5.748-1.434-2.868,1.359-.68,1.31,2.619h.29v-.76a9.119,9.119,0,1,0-18.238,0v.76h.55l1.025-2.561Zm15.16,6.556h.092a1.52,1.52,0,1,0,0-3.039h-.018Zm-19.665-1.52a1.521,1.521,0,0,0,1.519,1.52h.083l-.083-3.039A1.521,1.521,0,0,0,1087.079,1436.031Zm9.119,7.6v-1.52h1.968a1.843,1.843,0,0,0,1.293-.537l1.075,1.074a3.368,3.368,0,0,1-2.368.984Zm-1-3.079a.759.759,0,0,1-.439-1.06l2.28-4.559,1.359.68-1.887,3.776,1.448.482-.481,1.442Zm5.559-4.52a1.52,1.52,0,1,1,1.519,1.519A1.52,1.52,0,0,1,1100.758,1436.032Zm-9.878,0a1.52,1.52,0,1,1,1.519,1.519A1.52,1.52,0,0,1,1090.879,1436.032Zm11.6-7.352a3.108,3.108,0,0,1,2.01-1l.144,1.513a1.6,1.6,0,0,0-1.031.516Zm-10.908.509.143-1.513a3.107,3.107,0,0,1,2.011,1.005l-1.124,1.022A1.591,1.591,0,0,0,1091.567,1429.189Zm6.91,0a5.893,5.893,0,0,1,1.743-3.577l1.075,1.074a4.464,4.464,0,0,0-1.3,2.5Zm-3.039,0a4.458,4.458,0,0,0-1.3-2.5l1.076-1.074a5.9,5.9,0,0,1,1.742,3.577Z" transform="translate(-1081 -1421.594)" fill="#012f2d"/>
    <path id="Tracé_3611" data-name="Tracé 3611" d="M324.27,257.52h-.046V256Z" transform="translate(-301.427 -233.203)" fill="#012f2d"/>
  </g>
</svg>
