<svg id="f-3" xmlns="http://www.w3.org/2000/svg" width="52" height="52" viewBox="0 0 52 52">
  <rect id="Rectangle_434" data-name="Rectangle 434" width="52" height="52" fill="none"/>
  <g id="_004-woman-12" data-name="004-woman-12" transform="translate(9 6.406)">
    <path id="Tracé_3625" data-name="Tracé 3625" d="M154.011,43.488H140.333a6.08,6.08,0,0,1-3.8-5.616v-18.7A10.638,10.638,0,0,1,147.172,8.533h0a10.638,10.638,0,0,1,10.638,10.638v18.7A6.079,6.079,0,0,1,154.011,43.488Z" transform="translate(-130.455 -7.773)" fill="#f5ad76"/>
    <rect id="Rectangle_236" data-name="Rectangle 236" width="3.04" height="6.079" transform="translate(3.8 39.514)" fill="#fedac6"/>
    <rect id="Rectangle_237" data-name="Rectangle 237" width="3.04" height="6.079" transform="translate(0.76 39.514)" fill="#f5c4b0"/>
    <rect id="Rectangle_238" data-name="Rectangle 238" width="6.079" height="6.079" transform="translate(26.596 39.514)" fill="#fedac6"/>
    <path id="Tracé_3626" data-name="Tracé 3626" d="M108.717,292.466a4.559,4.559,0,0,0-4-4.559l-5.274-.661-1.52-.19a1.52,1.52,0,0,1-1.33-1.52V281.6H88.96v3.974a1.52,1.52,0,0,1-1.33,1.52l-1.558.19-5.274.661a4.559,4.559,0,0,0-4,4.559v3.533h6.079l-.16.319a12.877,12.877,0,0,0-1.36,5.76h22.8a12.855,12.855,0,0,0-1.36-5.76l-.16-.319h6.079v-3.571Z" transform="translate(-76.041 -256.524)" fill="#3cacde"/>
    <path id="Tracé_3627" data-name="Tracé 3627" d="M220.934,285.81V281.6h-7.6v4.21A7.05,7.05,0,0,0,220.934,285.81Z" transform="translate(-200.417 -256.524)" fill="#fedac6"/>
    <path id="Tracé_3628" data-name="Tracé 3628" d="M128.755,462.592a12.428,12.428,0,0,0-.76,4.4h5.076A7.281,7.281,0,0,1,128.755,462.592Z" transform="translate(-122.676 -421.399)" fill="#329ac7"/>
    <path id="Tracé_3629" data-name="Tracé 3629" d="M220.934,283.88V281.6h-7.6v3.8C215.227,285.521,217.134,285.4,220.934,283.88Z" transform="translate(-200.417 -256.524)" fill="#f5c4b0"/>
    <path id="Tracé_3630" data-name="Tracé 3630" d="M79.841,355.413a4.56,4.56,0,0,0-3.04,4.293v3.572h3.04Z" transform="translate(-76.041 -323.764)" fill="#329ac7"/>
    <path id="Tracé_3631" data-name="Tracé 3631" d="M154.011,43.488h0V19.171a8.038,8.038,0,0,1-3.8-2.28,29.645,29.645,0,0,1-3.04-3.8,29.657,29.657,0,0,1-3.04,3.8,29.649,29.649,0,0,1-3.8,3.04V43.488h0a6.08,6.08,0,0,1-3.8-5.616v-18.7A10.638,10.638,0,0,1,147.172,8.533h0a10.638,10.638,0,0,1,10.638,10.638v18.7A6.079,6.079,0,0,1,154.011,43.488Z" transform="translate(-130.455 -7.773)" fill="#fecb66"/>
    <path id="Tracé_3632" data-name="Tracé 3632" d="M144.186,13.4A10.638,10.638,0,0,0,136.534,23.6V42.3a6.08,6.08,0,0,0,3.8,5.616V24.362a32.751,32.751,0,0,0,3.222-2.492A28.109,28.109,0,0,1,144.186,13.4Z" transform="translate(-130.455 -12.204)" fill="#f5ad76"/>
    <path id="Tracé_3633" data-name="Tracé 3633" d="M192.878,77.089a8.514,8.514,0,0,1-3.29,2.9l-1.52.76,1.436-.722-1.436.722a4.561,4.561,0,0,1-4.073,0l-1.52-.76A15.418,15.418,0,0,1,179.2,77.21V66.572a29.655,29.655,0,0,0,3.8-3.04,29.65,29.65,0,0,0,3.04-3.8,29.657,29.657,0,0,0,3.039,3.8,8.038,8.038,0,0,0,3.8,2.28V77.089Z" transform="translate(-169.322 -54.414)" fill="#fedac6"/>
    <g id="Groupe_1698" data-name="Groupe 1698" transform="translate(9.879 9.825)">
      <path id="Tracé_3634" data-name="Tracé 3634" d="M182.241,110.336a32.613,32.613,0,0,1-3.04,2.333v10.638a15.4,15.4,0,0,0,3.29,2.781l1.125.57a26.863,26.863,0,0,1-1.375-7.91Z" transform="translate(-179.201 -110.336)" fill="#f5c4b0"/>
      <path id="Tracé_3635" data-name="Tracé 3635" d="M332.8,254.635h0v0Z" transform="translate(-319.123 -241.785)" fill="#f5c4b0"/>
    </g>
    <path id="Union_72" data-name="Union 72" d="M1114.434,1403.186h0Zm-1.518,0v-5.319h-4.121a13.68,13.68,0,0,1,1.081,5.319h-1.519a12.161,12.161,0,0,0-1.281-5.42l-.159-.319a.753.753,0,0,1-.08-.339v-2.28h1.52v1.519h4.559v-2.781a3.8,3.8,0,0,0-3.331-3.805l-.748-.145a6.81,6.81,0,0,1-4,4.4.76.76,0,0,1-1.045-.7v-4.265l-1.04-.125a2.284,2.284,0,0,1-1.677-1.093,7.124,7.124,0,0,1-6.725,0,2.274,2.274,0,0,1-1.67,1.086l-1.045.13v4.268a.761.761,0,0,1-1.045.7,6.812,6.812,0,0,1-4-4.409l-.708.122a3.81,3.81,0,0,0-3.366,3.8v2.817h4.559v-1.519h1.519v2.28a.76.76,0,0,1-.079.339l-.16.319a12.171,12.171,0,0,0-1.28,5.42h-1.52a13.708,13.708,0,0,1,1.081-5.319h-4.12v5.319H1081v-9.651a5.318,5.318,0,0,1,4.664-5.313l.669-.116q-.013-.2-.014-.412v-18.7a11.4,11.4,0,0,1,22.8,0v18.7q0,.215-.015.427l.722.141a5.3,5.3,0,0,1,4.611,5.311v9.615Zm-14.568-40.7a29.12,29.12,0,0,0,2.962,3.7,7.261,7.261,0,0,0,3.443,2.066.762.762,0,0,1,.563.735v23.048a5.292,5.292,0,0,0,2.28-4.35v-18.7a9.878,9.878,0,0,0-19.757,0v18.7a5.3,5.3,0,0,0,2.28,4.347v-22.288a.764.764,0,0,1,.335-.631,21.236,21.236,0,0,0,6.633-6.633.762.762,0,0,1,1.262,0Zm3.929,24.156a.762.762,0,0,0,.665.766l.855.1v-5.181a9.288,9.288,0,0,1-1.52,1.151Zm-10.638.865.856-.106a.759.759,0,0,0,.664-.76v-3.213h.01a16.16,16.16,0,0,1-1.53-1.206Zm9.118-1.259v-1.973l-.67.335,0,0a5.357,5.357,0,0,1-4.748,0l-.655-.327v1.967A5.585,5.585,0,0,0,1100.757,1386.25Zm-6.228-3.74,1.486.742a3.821,3.821,0,0,0,3.393,0l1.436-.721c.022-.012.045-.021.067-.03l.017-.009a7.751,7.751,0,0,0,2.87-2.458v-10.479a8.794,8.794,0,0,1-3.6-2.325,30.842,30.842,0,0,1-2.484-2.993,21.811,21.811,0,0,1-6.079,5.915v1.879a1.52,1.52,0,1,1,1.519,1.52,1.52,1.52,0,0,1-1.519-1.52v8.066A14.7,14.7,0,0,0,1094.529,1382.51Zm2.246-2.88h-.578v-1.519h.58a6.465,6.465,0,0,0,2.88-.68l.679,1.359a7.982,7.982,0,0,1-3.559.841Zm-.875-4.022a.758.758,0,0,1,0-1.074l1.52-1.52,1.075,1.075-.983.983.983.982-1.075,1.075Zm4.856-3.577a1.52,1.52,0,1,1,1.52,1.52A1.521,1.521,0,0,1,1100.757,1372.031Z" transform="translate(-1081 -1357.594)" fill="#012f2d"/>
    <path id="Tracé_3642" data-name="Tracé 3642" d="M324.314,257.52h-.046V256Z" transform="translate(-301.471 -233.203)" fill="#012f2d"/>
  </g>
</svg>
