<svg id="f-4_1" xmlns="http://www.w3.org/2000/svg" width="52" height="52" viewBox="0 0 52 52">
  <rect id="Rectangle_435" data-name="Rectangle 435" width="52" height="52" fill="none"/>
  <g id="_005-woman-11" data-name="005-woman-11" transform="translate(9 6.406)">
    <path id="Tracé_3648" data-name="Tracé 3648" d="M154.728,41.208H138.771l-.76-2.28c-1.52-4.559-1.52-19.757-1.52-19.757A10.638,10.638,0,0,1,147.129,8.533h0a10.638,10.638,0,0,1,10.638,10.638S157.768,36.649,154.728,41.208Z" transform="translate(-130.412 -7.773)" fill="#8f4f24"/>
    <path id="Tracé_3649" data-name="Tracé 3649" d="M104.675,346.005l-5.274-.661-.334.76a6.915,6.915,0,0,1-12.705,0l-.334-.76-5.274.661a4.559,4.559,0,0,0-4,4.559v9.62h31.915v-9.651A4.559,4.559,0,0,0,104.675,346.005Z" transform="translate(-75.997 -314.591)" fill="#787d82"/>
    <path id="Tracé_3650" data-name="Tracé 3650" d="M187.552,292.238a6.908,6.908,0,0,0,6.353-4.187l.334-.76-1.52-.19a1.52,1.52,0,0,1-1.33-1.52V281.6h-7.637v3.974a1.52,1.52,0,0,1-1.33,1.52l-1.558.19.334.76A6.908,6.908,0,0,0,187.552,292.238Z" transform="translate(-170.834 -256.524)" fill="#c6845f"/>
    <path id="Tracé_3651" data-name="Tracé 3651" d="M220.89,285.81V281.6h-7.6v4.21A7.05,7.05,0,0,0,220.89,285.81Z" transform="translate(-200.373 -256.524)" fill="#b56a4c"/>
    <g id="Groupe_1699" data-name="Groupe 1699" transform="translate(10.023 6.801)">
      <path id="Tracé_3652" data-name="Tracé 3652" d="M342.81,145.067h-1.52v4.559h1.52a2.28,2.28,0,1,0,0-4.559Z" transform="translate(-326.997 -138.95)" fill="#c6845f"/>
      <path id="Tracé_3653" data-name="Tracé 3653" d="M181.4,80.975c.76-5.319,6.079-4.559,6.079-4.559H192.5a1.52,1.52,0,0,1,1.429.988l1.907,5.091-.418,6.079a7.948,7.948,0,0,1-7.941,7.6h0a8.208,8.208,0,0,1-6.695-3.465S180.947,84.106,181.4,80.975Z" transform="translate(-180.78 -76.379)" fill="#c6845f"/>
    </g>
    <path id="Tracé_3654" data-name="Tracé 3654" d="M166.117,85.356l-.228-8.556c-3.04.76-3.8,2.28-3.8,2.28l.638,10.084a7.955,7.955,0,0,0,6.2,7.394l-1.011-1.877C166.231,91.557,166.117,88.913,166.117,85.356Z" transform="translate(-153.731 -69.961)" fill="#b56a4c"/>
    <path id="Tracé_3655" data-name="Tracé 3655" d="M136.491,20.691c0,11.4,4.559,15.2,4.559,15.2-.76-2.28-.76-11.4,0-16.717s6.079-4.559,6.079-4.559h5.023a1.52,1.52,0,0,1,1.429.988l1.907,5.091a3.755,3.755,0,0,1,2.28.76v-2.28A10.638,10.638,0,0,0,147.129,8.533h0a10.638,10.638,0,0,0-10.638,10.638v2.28" transform="translate(-130.412 -7.773)" fill="#a15d30"/>
    <path id="Tracé_3656" data-name="Tracé 3656" d="M136.491,87.889v1.52c0,11.4,4.559,15.2,4.559,15.2-.517-1.52-.95-3.8-.76-8.359-2.576-2.948-2.926-9.727-3.04-12.28A10.487,10.487,0,0,0,136.491,87.889Z" transform="translate(-130.412 -76.491)" fill="#8f4f24"/>
    <path id="Tracé_3657" data-name="Tracé 3657" d="M76.757,362.9v9.179H79.8V358.4C77.517,359.16,76.757,360.68,76.757,362.9Z" transform="translate(-75.997 -326.485)" fill="#717478"/>
    <path id="Union_73" data-name="Union 73" d="M1112.923,1339.187v-9.612a3.8,3.8,0,0,0-3.331-3.806l-4.72-.587-.1.24a7.658,7.658,0,0,1-7.048,4.647h-.008a7.656,7.656,0,0,1-7.046-4.648l-.118-.274-4.7.585a3.8,3.8,0,0,0-3.331,3.8v9.656H1081v-9.651a5.317,5.317,0,0,1,4.664-5.313l1.93-.24c-1.259-5.213-1.275-16.213-1.275-16.711h0v-2.28a11.4,11.4,0,1,1,22.8,0v1.791a3.036,3.036,0,0,1,0,4.022c-.027,1.968-.236,9.177-1.809,13.147l2.477.308a5.32,5.32,0,0,1,4.664,5.319v9.608Zm-15.209-10.638h.007a6.141,6.141,0,0,0,5.578-3.563l-.546-.068a2.28,2.28,0,0,1-2-2.28v-2.231a8.736,8.736,0,0,1-3.039.542,8.953,8.953,0,0,1-3.031-.53v2.187a2.277,2.277,0,0,1-1.995,2.273l-.571.071A6.141,6.141,0,0,0,1097.714,1328.549Zm-8.6-4.755,3.39-.422a.761.761,0,0,0,.664-.76v-2.907a9,9,0,0,1-1.2-.843,12.718,12.718,0,0,0,.387,2.608.759.759,0,0,1-1.206.823,12.027,12.027,0,0,1-2.894-4.5A39.475,39.475,0,0,0,1089.112,1323.794Zm13.164-1.15a.762.762,0,0,0,.665.766l2.8.348c1.4-3.06,1.746-9.224,1.831-12.016a3.034,3.034,0,0,1-.733.089h-.369l-.049.805a8.676,8.676,0,0,1-4.141,7.032Zm-4.558-3.214a7.176,7.176,0,0,0,7.182-6.872l.369-6.035-1.812-4.836a.762.762,0,0,0-.712-.494h-5.028a.7.7,0,0,1-.107-.007,4.431,4.431,0,0,0-5.22,3.915c-.08.561-.151,1.154-.213,1.771a1.52,1.52,0,1,1-.177,2.142c-.169,2.554-.21,5.276-.143,7.557A7.464,7.464,0,0,0,1097.718,1319.43Zm-9.879-12.918c0,6.241,1.41,10.131,2.615,12.314a76.579,76.579,0,0,1,.433-13.942,5.9,5.9,0,0,1,6.883-5.211h4.971a2.285,2.285,0,0,1,2.14,1.481l1.722,4.6h.234a3.039,3.039,0,0,1,.76.1v-.856a9.878,9.878,0,0,0-19.757,0Zm19,3.8a1.52,1.52,0,1,0,0-3.039h-.091l-.186,3.039Zm-10.061,5.319h-.577v-1.519h.58a6.465,6.465,0,0,0,2.88-.68l.679,1.359a7.983,7.983,0,0,1-3.559.841Zm-.817-3.838a.761.761,0,0,1-.481-.961l1.52-4.559,1.442.481-1.28,3.839,1.558.519-.48,1.442Zm4.8-3.761a1.52,1.52,0,1,1,1.52,1.52A1.52,1.52,0,0,1,1100.757,1308.031Z" transform="translate(-1081 -1293.594)" fill="#012f2d"/>
  </g>
</svg>
