<svg id="f-5" xmlns="http://www.w3.org/2000/svg" width="52" height="52" viewBox="0 0 52 52">
  <rect id="Rectangle_436" data-name="Rectangle 436" width="52" height="52" fill="none"/>
  <g id="_006-woman-10" data-name="006-woman-10" transform="translate(9 6.406)">
    <path id="Tracé_3669" data-name="Tracé 3669" d="M151.283,38.928c1.52-4.559,1.52-17.477,1.52-17.477,0-9.119-3.04-12.918-10.638-12.918h0c-4.043,0-8.305,1.246-9.878,6.079-1.52,4.559-2.28,15.958,1.52,24.316a9.309,9.309,0,0,0,8.359,4.559A11.4,11.4,0,0,0,151.283,38.928Z" transform="translate(-125.447 -7.773)" fill="#a15d30"/>
    <path id="Tracé_3670" data-name="Tracé 3670" d="M136.845,19.712a8.1,8.1,0,0,0-4.559,5.084c-1.52,4.559-2.28,15.958,1.52,24.316a9.308,9.308,0,0,0,8.146,4.559C137.256,45.2,136.845,26.49,136.845,19.712Z" transform="translate(-125.447 -17.957)" fill="#8f4f24"/>
    <rect id="Rectangle_241" data-name="Rectangle 241" width="3.04" height="6.079" transform="translate(3.8 39.514)" fill="#fedac6"/>
    <rect id="Rectangle_242" data-name="Rectangle 242" width="3.04" height="6.079" transform="translate(0.76 39.514)" fill="#f5c4b0"/>
    <rect id="Rectangle_243" data-name="Rectangle 243" width="6.079" height="6.079" transform="translate(26.596 39.514)" fill="#fedac6"/>
    <path id="Tracé_3671" data-name="Tracé 3671" d="M108.672,350.223a4.559,4.559,0,0,0-4-4.559L99.4,345l-.334.76a6.915,6.915,0,0,1-12.705,0l-.334-.76-5.274.661a4.559,4.559,0,0,0-4,4.559v3.572h6.079l-.16.319a12.857,12.857,0,0,0-1.36,5.76h22.8a12.856,12.856,0,0,0-1.36-5.76l-.16-.319h6.079v-3.572Z" transform="translate(-75.997 -314.281)" fill="#f288b7"/>
    <path id="Tracé_3672" data-name="Tracé 3672" d="M79.8,355.413a4.56,4.56,0,0,0-3.04,4.293v3.572H79.8Z" transform="translate(-75.998 -323.764)" fill="#ed7bb2"/>
    <path id="Tracé_3673" data-name="Tracé 3673" d="M187.552,292.238a6.908,6.908,0,0,0,6.353-4.187l.334-.76-1.52-.19a1.52,1.52,0,0,1-1.33-1.52V281.6h-7.637v3.974a1.52,1.52,0,0,1-1.33,1.52l-1.558.19.334.76A6.908,6.908,0,0,0,187.552,292.238Z" transform="translate(-170.834 -256.524)" fill="#fedac6"/>
    <path id="Tracé_3674" data-name="Tracé 3674" d="M220.89,285.81V281.6h-7.6v4.21A7.05,7.05,0,0,0,220.89,285.81Z" transform="translate(-200.373 -256.524)" fill="#f5c4b0"/>
    <g id="Groupe_1700" data-name="Groupe 1700" transform="translate(8.359 6.839)">
      <path id="Tracé_3675" data-name="Tracé 3675" d="M342.81,145.067h-1.52v4.559h1.52a2.28,2.28,0,1,0,0-4.559Z" transform="translate(-325.333 -138.988)" fill="#fedac6"/>
      <path id="Tracé_3676" data-name="Tracé 3676" d="M178.808,82.879C168.93,80.6,165.131,76.8,165.131,76.8l-3.04,6.839.418,5.319a7.948,7.948,0,0,0,7.941,7.6h0a7.948,7.948,0,0,0,7.941-7.6Z" transform="translate(-162.091 -76.8)" fill="#fedac6"/>
    </g>
    <path id="Tracé_3677" data-name="Tracé 3677" d="M165.131,76.8l-3.04,6.839.418,5.319A6.882,6.882,0,0,0,168.17,95.8a15.165,15.165,0,0,1-2.28-4.559C164.979,88.958,165.131,76.8,165.131,76.8Z" transform="translate(-153.732 -69.961)" fill="#f5c4b0"/>
    <path id="Tracé_3678" data-name="Tracé 3678" d="M128.952,465.579a9.162,9.162,0,0,0-1,4.134h5.076A6.557,6.557,0,0,1,128.952,465.579Z" transform="translate(-122.638 -424.12)" fill="#ed7bb2"/>
    <path id="Union_74" data-name="Union 74" d="M1112.93,1275.187v-5.319H1108.8a13.705,13.705,0,0,1,1.081,5.319h-1.52a12.152,12.152,0,0,0-1.281-5.421l-.159-.319a.771.771,0,0,1-.08-.34v-2.28h1.52v1.52h4.567v-2.774a3.8,3.8,0,0,0-3.33-3.805l-4.72-.587-.1.24a7.658,7.658,0,0,1-7.048,4.647h-.008a7.657,7.657,0,0,1-7.047-4.648l-.118-.274-4.7.585a3.8,3.8,0,0,0-3.332,3.8v2.818h4.559v-1.52h1.52v2.28a.768.768,0,0,1-.08.34l-.159.319a12.175,12.175,0,0,0-1.281,5.421h-1.519a13.712,13.712,0,0,1,1.081-5.319h-4.12v5.319h-1.52v-9.651a5.316,5.316,0,0,1,4.663-5.313l2.515-.313c-3.433-8.666-2.437-19.586-1.06-23.718,1.4-4.316,5.071-6.6,10.6-6.6,7.851,0,11.278,3.95,11.394,13.185a3.034,3.034,0,0,1,0,4.026,70.07,70.07,0,0,1-1.3,13.211l1.966.245a5.319,5.319,0,0,1,4.664,5.319v9.608Zm-15.209-10.638h.007a6.142,6.142,0,0,0,5.579-3.563l-.546-.068a2.28,2.28,0,0,1-2-2.28v-2.231a8.793,8.793,0,0,1-6.07,0v2.2a2.277,2.277,0,0,1-2,2.273l-.571.071A6.142,6.142,0,0,0,1097.721,1264.549Zm4.563-5.9a.762.762,0,0,0,.665.766l3.353.417a65.016,65.016,0,0,0,1.279-12.086,3.04,3.04,0,0,1-.737.09h-.364l-.056.811a8.671,8.671,0,0,1-4.14,7.027Zm-13.715-21.975c-1.337,4.009-2.293,14.7,1.177,23.047l2.764-.344a.76.76,0,0,0,.664-.76v-2.94a8.69,8.69,0,0,1-4.149-7.048l-.417-5.293a.77.77,0,0,1,.063-.368l3.04-6.839a.76.76,0,0,1,1.231-.229c.036.035,3.791,3.663,13.23,5.856h.67a3.036,3.036,0,0,1,.734.09c-.3-7.693-3.145-10.728-9.852-10.728C1092.849,1231.114,1089.77,1232.982,1088.569,1236.668Zm1.57,6.735.4,5.127a7.188,7.188,0,0,0,14.364.027l.375-5.456c-7.141-1.737-11.03-4.233-12.593-5.436Zm16.7,2.908a1.52,1.52,0,1,0,0-3.04h-.05l-.209,3.04Zm-10.06,5.319h-.578v-1.52h.58a6.461,6.461,0,0,0,2.88-.68l.68,1.359a7.991,7.991,0,0,1-3.56.841Zm-1.578-3.078a.76.76,0,0,1-.391-1.142l1.52-2.28,1.265.842-.968,1.453,1.336.445-.481,1.442Zm5.559-4.521a1.52,1.52,0,1,1,1.519,1.52A1.52,1.52,0,0,1,1100.765,1244.031Zm-9.119,0a1.52,1.52,0,1,1,1.52,1.52A1.52,1.52,0,0,1,1091.646,1244.031Z" transform="translate(-1081.008 -1229.594)" fill="#012f2d"/>
  </g>
</svg>
