<svg id="f-6_1" xmlns="http://www.w3.org/2000/svg" width="52" height="52" viewBox="0 0 52 52">
  <rect id="Rectangle_437" data-name="Rectangle 437" width="52" height="52" fill="none"/>
  <g id="_007-woman-9" data-name="007-woman-9" transform="translate(9.382 6.406)">
    <path id="Tracé_3690" data-name="Tracé 3690" d="M111.923,24.491V29.05c0,2.28-3.039,6.079-2.28,10.638h0a45.838,45.838,0,0,0,25.836,0h0c.76-4.559-1.147-8.359-1.52-10.638a86.9,86.9,0,0,1-.76-11.4c0-5.038-3.321-9.119-8.359-9.119h-4.559a8.359,8.359,0,0,0-8.359,8.359S111.923,24.491,111.923,24.491Z" transform="translate(-105.844 -7.773)" fill="#fecb66"/>
    <path id="Tracé_3691" data-name="Tracé 3691" d="M119.985,8.533a8.359,8.359,0,0,0-8.062,8.359V29.05c0,2.28-3.04,6.079-2.28,10.638a45.84,45.84,0,0,0,11.968,1.847C115.722,22.211,116.482,13.852,119.985,8.533Z" transform="translate(-105.843 -7.773)" fill="#f5ad76"/>
    <g id="Groupe_1701" data-name="Groupe 1701" transform="translate(0.76 25.076)">
      <path id="Union_76" data-name="Union 76" d="M1107.974,1161.034a9.116,9.116,0,0,0-1.824-5.471l-.455-.608.691-8.275,1.391.175a4.559,4.559,0,0,1,4,4.529v9.651Zm-28.116,0v-9.62a4.56,4.56,0,0,1,4-4.559l1.391-.175.692,8.275-.456.608a9.12,9.12,0,0,0-1.823,5.471Zm9.377-11.4-.258-3.419,1.71-.205a1.52,1.52,0,0,0,1.329-1.52v-3.974h7.622v3.967a1.52,1.52,0,0,0,1.329,1.52l1.688.212-.258,3.419a6.6,6.6,0,0,1-13.161,0Z" transform="translate(-1079.858 -1140.517)" fill="#c6845f"/>
    </g>
    <path id="Tracé_3695" data-name="Tracé 3695" d="M141.461,354.339l.691-8.275-3.731-.464-.258,3.42a6.6,6.6,0,0,1-13.161,0l-.258-3.42-3.754.464.714,8.275-.456.608a9.118,9.118,0,0,0-1.824,5.471H143.74a9.118,9.118,0,0,0-1.824-5.471Z" transform="translate(-114.865 -314.825)" fill="#e56b2e"/>
    <g id="Groupe_1702" data-name="Groupe 1702" transform="translate(0.76 12.918)">
      <path id="Tracé_3696" data-name="Tracé 3696" d="M76.757,362.329v9.651h2.28V358.4A4.561,4.561,0,0,0,76.757,362.329Z" transform="translate(-76.757 -339.403)" fill="#b56a4c"/>
      <path id="Tracé_3697" data-name="Tracé 3697" d="M220.89,285.05V281.6h-7.6v3.45A7.05,7.05,0,0,0,220.89,285.05Z" transform="translate(-201.133 -269.442)" fill="#b56a4c"/>
      <path id="Tracé_3698" data-name="Tracé 3698" d="M130.237,145.067a2.28,2.28,0,1,0,0,4.559h1.52v-4.559Z" transform="translate(-123.398 -145.067)" fill="#b56a4c"/>
    </g>
    <path id="Tracé_3699" data-name="Tracé 3699" d="M176.573,93.517a8.514,8.514,0,0,1-2.652,2.059l-1.436.722a4.561,4.561,0,0,1-4.073,0l-1.52-.76a8.533,8.533,0,0,1-4.65-6.5l-.152-6.155v-3.8l.76-.76a5.114,5.114,0,0,1,3.617-1.52h5.775c3.526,0,3.526,0,4.286,2.28h0s-.76,9.878-.76,11.4A7.53,7.53,0,0,0,176.573,93.517Z" transform="translate(-153.731 -69.961)" fill="#c6845f"/>
    <path id="Tracé_3700" data-name="Tracé 3700" d="M165.131,81.377a13.676,13.676,0,0,1,.517-3.723,5.106,5.106,0,0,0-2.8,1.444l-.76.76v3.8l.16,6.155a8.556,8.556,0,0,0,3.48,5.79C164.72,90.618,165.131,84.751,165.131,81.377Z" transform="translate(-153.732 -70.739)" fill="#b56a4c"/>
    <path id="Tracé_3701" data-name="Tracé 3701" d="M120.419,465.579a9.162,9.162,0,0,0-1,4.134H124.5A6.557,6.557,0,0,1,120.419,465.579Z" transform="translate(-114.865 -424.12)" fill="#d65b25"/>
    <path id="Union_75" data-name="Union 75" d="M1112.54,1211.187v-9.613a3.8,3.8,0,0,0-3.33-3.805l-.493-.061-.718,7.18.278.371a9.944,9.944,0,0,1,1.975,5.928h-1.519a8.415,8.415,0,0,0-1.671-5.016l-.457-.608a.765.765,0,0,1-.148-.532l.751-7.512-2.314-.288-.223,2.621a7.361,7.361,0,0,1-14.675,0l-.226-2.653-2.313.288.755,7.549a.759.759,0,0,1-.148.531l-.456.608a8.411,8.411,0,0,0-1.671,5.016h-1.52a9.939,9.939,0,0,1,1.976-5.927l.278-.371-.722-7.217-.479.06a3.8,3.8,0,0,0-3.332,3.8v9.657h-1.52v-9.651a5.315,5.315,0,0,1,2.944-4.795,15.629,15.629,0,0,1,1.518-7.011,9.452,9.452,0,0,0,.858-2.86V1182.8a3.035,3.035,0,0,1,0-4.017v-3.311c0-5.724,3.835-9.878,9.119-9.878h4.559c5.283,0,9.118,4.154,9.118,9.878a86.861,86.861,0,0,0,.753,11.3,19.678,19.678,0,0,0,.54,2.082,20.149,20.149,0,0,1,1.091,7.928,5.32,5.32,0,0,1,2.943,4.8v9.608Zm-21.028-11.463a5.841,5.841,0,0,0,11.646,0l.229-2.684-1.015-.126a2.28,2.28,0,0,1-2-2.28v-2.359l-.659.331a5.356,5.356,0,0,1-4.756,0l-.656-.328v2.323a2.277,2.277,0,0,1-2,2.273l-1.028.128Zm10.382-5.08a.762.762,0,0,0,.665.766l6.837.85c.08.01.16.022.239.035a19.179,19.179,0,0,0-1.067-7.015,20.553,20.553,0,0,1-.586-2.288,88.47,88.47,0,0,1-.769-11.52c0-4.845-3.2-8.359-7.6-8.359h-4.559c-4.4,0-7.6,3.514-7.6,8.358v2.376a3.033,3.033,0,0,1,.76-.1h0v-3.039h1.519v3.8l.151,6.095a7.767,7.767,0,0,0,4.231,5.886l1.521.76a3.826,3.826,0,0,0,3.394,0l1.435-.721a7.7,7.7,0,0,0,1.874-1.307,28.721,28.721,0,0,1-.106-7.712,1.52,1.52,0,1,1,.293-2.861,17.237,17.237,0,0,0,.147-4.514,1.587,1.587,0,0,0-.791-1.112,3.954,3.954,0,0,0-2.75.113l-.563-1.412a5.418,5.418,0,0,1,4-.056,3.093,3.093,0,0,1,1.575,2.1,19.177,19.177,0,0,1-.165,5.562c-.351,3.273-.771,7.181-.01,10.265l.061.053-.037.043a8.528,8.528,0,0,0,.833,2.122l-1.318.755a9.414,9.414,0,0,1-.75-1.7,9.115,9.115,0,0,1-.87.609Zm-14.437-7.773a10.148,10.148,0,0,1-.967,3.422,15.156,15.156,0,0,0-1.431,5.963q.11-.018.222-.032l6.839-.851a.76.76,0,0,0,.664-.76v-3.122a9.281,9.281,0,0,1-4.408-6.722.63.63,0,0,1-.005-.083l-.021-.855h-.133a3.039,3.039,0,0,1-.76-.1Zm-.76-6.079a1.522,1.522,0,0,0,1.52,1.52h.1l-.075-3.04h-.02A1.522,1.522,0,0,0,1086.7,1180.791Zm9.7,6.839h-.578v-1.52h.58a6.474,6.474,0,0,0,2.88-.679l.68,1.359a8,8,0,0,1-3.56.841Zm-1.578-3.078a.76.76,0,0,1-.439-1.061l2.28-4.559,1.359.68-1.887,3.776,1.448.482-.481,1.442Zm-4.319-4.521a1.52,1.52,0,1,1,1.519,1.519A1.52,1.52,0,0,1,1090.5,1180.031Zm-.76-7.6v-1.52a5.893,5.893,0,0,1,3.577,1.742l-1.073,1.075A4.462,4.462,0,0,0,1089.737,1172.433Zm3.593-1.548.412-1.463a6.012,6.012,0,0,1,3.478,2.609l-1.288.8A4.5,4.5,0,0,0,1093.33,1170.885Z" transform="translate(-1080.618 -1165.594)" fill="#012f2d"/>
    <path id="Tracé_3709" data-name="Tracé 3709" d="M324.27,257.52h-.046V256Z" transform="translate(-301.427 -233.203)" fill="#012f2d"/>
  </g>
</svg>
