<svg id="f-7" xmlns="http://www.w3.org/2000/svg" width="52" height="52" viewBox="0 0 52 52">
  <rect id="Rectangle_438" data-name="Rectangle 438" width="52" height="52" fill="none"/>
  <g id="_008-woman-8" data-name="008-woman-8" transform="translate(9.772 6.406)">
    <path id="Tracé_3717" data-name="Tracé 3717" d="M154.965,39.688V21.451c0-8.359-3.04-12.918-10.638-12.918h0a10.206,10.206,0,0,0-9.878,6.079c-1.748,3.4-.76,22.8-.76,25.076Z" transform="translate(-127.609 -7.773)" fill="#70432c"/>
    <path id="Tracé_3718" data-name="Tracé 3718" d="M143.894,8.533a10.246,10.246,0,0,0-9.445,6.079c-1.748,3.4-.76,22.8-.76,25.076h7.6c-.76-7.6-2.28-12.918-2.28-16.717C139.008,14.065,141.964,10.053,143.894,8.533Z" transform="translate(-127.609 -7.773)" fill="#5c3724"/>
    <path id="Tracé_3724" data-name="Tracé 3724" d="M191.169,286.327a1.52,1.52,0,0,1-1.33-1.52V281.6h-7.6v3.214a1.52,1.52,0,0,1-1.33,1.52l-1.71.205v7.979a16.818,16.818,0,0,0,13.678,0v-7.979Z" transform="translate(-169.323 -256.524)" fill="#fedac6"/>
    <path id="Tracé_3727" data-name="Tracé 3727" d="M220.933,292.793v-2.66h-7.6v2.66A6.9,6.9,0,0,0,220.933,292.793Z" transform="translate(-200.416 -264.297)" fill="#f5c4b0"/>
    <path id="Tracé_3719" data-name="Tracé 3719" d="M178.851,59.559c-3.04-3.039-4.559-8.359-4.559-8.359s-3.04,3.8-12.158,8.359v.76l.418,5.319a7.948,7.948,0,0,0,7.941,7.6h0a7.948,7.948,0,0,0,7.941-7.6Z" transform="translate(-153.775 -46.641)" fill="#fedac6"/>
    <path id="Tracé_3730" data-name="Tracé 3730" d="M350.627,145.067h-.76v4.559h.76a2.28,2.28,0,1,0,0-4.559Z" transform="translate(-324.791 -132.149)" fill="#fedac6"/>
    <path id="Tracé_3720" data-name="Tracé 3720" d="M162.133,137.165l.418,6.079a7.932,7.932,0,0,0,4.521,6.839,34.9,34.9,0,0,1-2.66-13.549A4.219,4.219,0,0,1,162.133,137.165Z" transform="translate(-153.774 -124.376)" fill="#f5c4b0"/>
    <path id="Union_79" data-name="Union 79" d="M1102.265,1087.156v-15.578l3.8.472a6.079,6.079,0,0,1,5.319,6.034v9.073Zm-22.8,0v-9.073a6.079,6.079,0,0,1,5.319-6.034l3.8-.472v15.578Z" transform="translate(-1078.708 -1041.563)" fill="#787d82"/>
    <path id="Tracé_3723" data-name="Tracé 3723" d="M179.2,426.667v7.6h13.678v-7.6A16.818,16.818,0,0,1,179.2,426.667Z" transform="translate(-169.322 -388.673)" fill="#dbdbdb"/>
    <path id="Union_80" data-name="Union 80" d="M1091.626,1106.153a2.28,2.28,0,0,1-2.28-2.28v-2.28h6.079a.76.76,0,0,1,.76.76v1.52a2.279,2.279,0,0,1-2.28,2.28Zm-9.118,0a2.28,2.28,0,0,1-2.28-2.28v-1.52a.76.76,0,0,1,.76-.76h6.078v2.28a2.279,2.279,0,0,1-2.279,2.28Z" transform="translate(-1071.87 -1088.675)" fill="#ebebeb"/>
    <path id="Tracé_3728" data-name="Tracé 3728" d="M79.84,351.061a6.079,6.079,0,0,0-3.04,5.258v9.073h3.04Z" transform="translate(-76.04 -319.799)" fill="#717478"/>
    <path id="Tracé_3729" data-name="Tracé 3729" d="M182.24,427.678a16.4,16.4,0,0,1-3.04-1.011v7.6h3.04Z" transform="translate(-169.322 -388.673)" fill="#bfbfbf"/>
    <path id="Union_77" data-name="Union 77" d="M1112.144,1147.187v-9.073a5.328,5.328,0,0,0-4.655-5.279l-2.944-.366v14.718h-1.52v-6.471a17.589,17.589,0,0,1-12.158,0v6.471h-1.52v-14.719l-2.944.366a5.329,5.329,0,0,0-4.655,5.279v9.074h-1.519v-9.074a6.853,6.853,0,0,1,5.288-6.662c-.01-.31-.021-.661-.034-1.047-.315-9.548-.453-19.666.908-22.318a10.98,10.98,0,0,1,10.555-6.492c7.532,0,11.262,4.314,11.394,13.185a3.035,3.035,0,0,1,0,4.021v12.644a6.852,6.852,0,0,1,5.319,6.67v9.073Zm-9.119-8.1v-6.807l-1.036-.129a2.279,2.279,0,0,1-2-2.28V1128.4a8.789,8.789,0,0,1-6.093,0v1.472a2.277,2.277,0,0,1-2,2.273l-1.038.129v6.808A16.078,16.078,0,0,0,1103.025,1139.086Zm-15.28-30.309c-1.365,2.661-.913,16.4-.743,21.576.01.314.02.606.028.871l4.686-.583a.76.76,0,0,0,.664-.76v-2.22a8.691,8.691,0,0,1-4.134-7.039l-.264-2.874a3.03,3.03,0,0,1-.155-.959v-1.519a1.522,1.522,0,0,1,1.31-1.506c8.635-4.341,10.936-7.971,10.959-8.008a.761.761,0,0,1,1.379.185c.015.05,1.431,4.913,4.151,7.808h.438a3.04,3.04,0,0,1,.729.088c-.339-7.4-3.417-10.727-9.847-10.727A9.573,9.573,0,0,0,1087.745,1108.778Zm13.768,21.1a.76.76,0,0,0,.664.766l4.648.578v-11.486a3.035,3.035,0,0,1-.76.1h-.37l-.049.806a8.675,8.675,0,0,1-4.132,7.027Zm-11.751-9.355a7.189,7.189,0,0,0,14.366.036l.088-1.436a3.026,3.026,0,0,1-1.95.709h-2.28a3.042,3.042,0,0,1-3.039-3.039v-1.52h-.187l-1.162,4.069,1.589.529-.481,1.443-2.28-.76a.759.759,0,0,1-.513-.819,3.035,3.035,0,0,1-.766.1h-2.28a3.023,3.023,0,0,1-1.191-.243Zm16.3-2.209a1.52,1.52,0,0,0,0-3.04h-.091l-.186,3.04Zm-7.6-1.52a1.522,1.522,0,0,0,1.52,1.52h2.28a1.522,1.522,0,0,0,1.52-1.52v-1.519h-.964a1.52,1.52,0,1,1-2.633,0h-1.723Zm-7.6,1.52h2.28a1.522,1.522,0,0,0,1.52-1.52v-1.519h-.964a1.52,1.52,0,1,1-2.633,0h-1.723v.719l.13,1.414A1.523,1.523,0,0,0,1090.867,1118.311Zm12.773-4.559a23.786,23.786,0,0,1-3.172-6.031,32.211,32.211,0,0,1-8.071,6.031h11.243ZM1096,1123.63h-.578v-1.52h.58a6.474,6.474,0,0,0,2.88-.679l.68,1.359a8,8,0,0,1-3.56.841Z" transform="translate(-1080.228 -1101.594)" fill="#012f2d"/>
  </g>
</svg>
