<svg id="f-8_1" xmlns="http://www.w3.org/2000/svg" width="52" height="52" viewBox="0 0 52 52">
  <rect id="Rectangle_439" data-name="Rectangle 439" width="52" height="52" fill="none"/>
  <g id="_009-woman-7" data-name="009-woman-7" transform="translate(9.161 6.406)">
    <path id="Tracé_3742" data-name="Tracé 3742" d="M153.386,8.533c-4.043,0-6.839.76-9.119,5.319-1.52,3.04-.76,12.918-.76,12.918v15.2h19.719V19.931C163.036,13.214,160.947,8.533,153.386,8.533Z" transform="translate(-136.63 -7.773)" fill="#fecb66"/>
    <path id="Tracé_3743" data-name="Tracé 3743" d="M153.876,8.533c-3.389.175-5.866,1.216-7.9,5.319-1.52,3.04-.76,12.918-.76,12.918v15.2h8.822C151.452,27.986,153.1,13.928,153.876,8.533Z" transform="translate(-138.184 -7.773)" fill="#f5ad76"/>
    <path id="Union_82" data-name="Union 82" d="M1108.2,1058.11a12.865,12.865,0,0,0-1.361-5.76l-.159-.319v-8.359l2.082.258a4.559,4.559,0,0,1,4,4.529v9.651Zm-27.356,0v-9.62a4.56,4.56,0,0,1,4-4.559l2.083-.258v8.359l-.16.319a12.864,12.864,0,0,0-1.36,5.76Zm15.958-9.878a6.907,6.907,0,0,1-6.352-4.195l-.335-.76,1.558-.19a1.519,1.519,0,0,0,1.329-1.52v-3.974h7.637v3.982a1.521,1.521,0,0,0,1.329,1.52l1.52.19-.335.76a6.907,6.907,0,0,1-6.348,4.187Z" transform="translate(-1080.079 -1012.517)" fill="#c6845f"/>
    <path id="Tracé_3745" data-name="Tracé 3745" d="M220.89,285.05V281.6h-7.6v3.45A7.05,7.05,0,0,0,220.89,285.05Z" transform="translate(-200.373 -256.524)" fill="#b56a4c"/>
    <path id="Tracé_3747" data-name="Tracé 3747" d="M149.234,354.1v-8.359l-3.192-.4-.334.76a6.915,6.915,0,0,1-12.705,0l-.334-.76-3.192.4V354.1l-.16.319a12.858,12.858,0,0,0-1.36,5.76h22.8a12.856,12.856,0,0,0-1.36-5.76Z" transform="translate(-122.638 -314.591)" fill="#74a32e"/>
    <path id="Tracé_3749" data-name="Tracé 3749" d="M76.757,363.438v9.65h2.28V359.509A4.561,4.561,0,0,0,76.757,363.438Z" transform="translate(-75.997 -327.495)" fill="#b56a4c"/>
    <path id="Tracé_3750" data-name="Tracé 3750" d="M161.318,20.692a22.979,22.979,0,0,1-4.559-6.839,34.722,34.722,0,0,1-13.678,12.918s-.76-9.878.76-12.918c2.28-4.559,5.114-5.319,9.119-5.319h0c7.6,0,9.65,4.681,9.878,11.4v1.52" transform="translate(-136.242 -7.774)" fill="#fecb66"/>
    <path id="Tracé_3751" data-name="Tracé 3751" d="M143.236,81.184c6.695-3.351,11.4-8.359,13.678-12.918-5.874,5.319-9.119,8.359-13.853,8.822C143.1,79.383,143.236,81.184,143.236,81.184Z" transform="translate(-136.397 -62.187)" fill="#f5ad76"/>
    <path id="Union_83" data-name="Union 83" d="M1080.849,1050.519v-.957s-.053-.068.084-.152a35.028,35.028,0,0,0,11.679-11.816,23,23,0,0,0,4.559,6.839h.76a2.279,2.279,0,1,1,0,4.558h-1.073l-.1,1.52a7.949,7.949,0,0,1-7.941,7.6h-.024A7.949,7.949,0,0,1,1080.849,1050.519Z" transform="translate(-1072.095 -1031.514)" fill="#c6845f"/>
    <path id="Tracé_3753" data-name="Tracé 3753" d="M162.091,180.721l.038,1.52c.137,3.039,2.713,5.585,5.319,6.839-1.52-3.039-3.04-6.079-2.28-9.878A11.41,11.41,0,0,1,162.091,180.721Z" transform="translate(-153.732 -163.243)" fill="#b56a4c"/>
    <path id="Tracé_3755" data-name="Tracé 3755" d="M128.809,460.8a13.007,13.007,0,0,0-.851,4.559h5.053A6.457,6.457,0,0,1,128.809,460.8Z" transform="translate(-122.639 -419.766)" fill="#688e26"/>
    <path id="Union_81" data-name="Union 81" d="M1112.762,1083.187v-9.613a3.8,3.8,0,0,0-3.331-3.805l-1.236-.154v7.313l.078.158a13.676,13.676,0,0,1,1.441,6.1H1108.2a12.164,12.164,0,0,0-1.281-5.421l-.159-.319a.759.759,0,0,1-.08-.34v-7.681l-1.964-.244-.1.24a7.659,7.659,0,0,1-7.048,4.647h-.008a7.657,7.657,0,0,1-7.046-4.648l-.118-.274-1.95.243v7.718a.767.767,0,0,1-.079.34l-.16.319a12.172,12.172,0,0,0-1.28,5.421h-1.52a13.694,13.694,0,0,1,1.441-6.1l.079-.158v-7.35l-1.228.153a3.8,3.8,0,0,0-3.331,3.8v9.657h-1.521v-9.651a5.318,5.318,0,0,1,4.664-5.314l1.416-.176v-11.422c-.05-.667-.733-10.147.841-13.292,2.4-4.8,5.409-5.739,9.8-5.739,9.065,0,10.446,6.484,10.638,12.132v.433a3.039,3.039,0,0,1,0,5.264v12.661l1.423.177a5.32,5.32,0,0,1,4.664,5.319v9.607Zm-15.209-10.639h.006a6.14,6.14,0,0,0,5.579-3.562l-.546-.068a2.281,2.281,0,0,1-2-2.28v-2.231a8.791,8.791,0,0,1-6.07,0v2.2a2.277,2.277,0,0,1-1.994,2.273l-.571.071A6.14,6.14,0,0,0,1097.553,1072.548Zm4.563-5.9a.762.762,0,0,0,.665.766l3.894.484v-12.064h-.37l-.049.806a8.674,8.674,0,0,1-4.14,7.032Zm-13.678,1.214,3.9-.486a.761.761,0,0,0,.664-.76v-2.939a8.688,8.688,0,0,1-4.139-6.861c-.143.08-.286.158-.43.236Zm1.937-11.286a7.189,7.189,0,0,0,14.364-.014l.355-5.808a23.659,23.659,0,0,1-3.832-5.49,35.458,35.458,0,0,1-10.9,10.672Zm-1.256-12.559c-1.028,2.054-.936,8.08-.759,11.34a33.96,33.96,0,0,0,12.345-12.071.751.751,0,0,1,.7-.368.763.763,0,0,1,.649.457,22.138,22.138,0,0,0,4.187,6.38h.434c-.257-7.548-2.9-10.638-9.119-10.638C1093.584,1039.113,1091.189,1039.871,1089.118,1044.013Zm17.557,10.3a1.52,1.52,0,0,0,0-3.04h-.092l-.186,3.04Zm-10.061,5.319h-.577v-1.52h.58a6.477,6.477,0,0,0,2.88-.679l.68,1.359a8,8,0,0,1-3.56.841Zm-1.578-3.078a.76.76,0,0,1-.366-1.177l2.28-3.039,1.215.912-1.646,2.2,1.28.427-.482,1.442Zm5.559-4.521a1.52,1.52,0,1,1,1.52,1.519A1.52,1.52,0,0,1,1100.6,1052.032Z" transform="translate(-1080.839 -1037.594)" fill="#012f2d"/>
  </g>
</svg>
