<svg id="f-9_1" xmlns="http://www.w3.org/2000/svg" width="52" height="52" viewBox="0 0 52 52">
  <rect id="Rectangle_440" data-name="Rectangle 440" width="52" height="52" fill="none"/>
  <g id="_010-woman-6" data-name="010-woman-6" transform="translate(9 6.406)">
    <path id="Tracé_3766" data-name="Tracé 3766" d="M121.027,40.448c1.33-3.108.988-7.736-1.087-10.4h0a9.306,9.306,0,0,1-1.953-5.555V19.171A10.638,10.638,0,0,0,107.349,8.533h0A10.638,10.638,0,0,0,96.711,19.171v5.585a8.1,8.1,0,0,1-1.7,4.962l-.486.623c-1.915,2.462-2.242,7.318-.851,10.106h27.356Z" transform="translate(-90.632 -7.773)" fill="#fecb66"/>
    <path id="Tracé_3767" data-name="Tracé 3767" d="M100.51,30.573a16.418,16.418,0,0,1,1.679-7.021,10.637,10.637,0,0,0-5.479,9.3v5.585a8.1,8.1,0,0,1-1.7,4.962l-.486.623c-1.915,2.462-2.242,7.318-.851,10.106h12.918l-3.8-10.638a52.375,52.375,0,0,1-2.28-11.451Z" transform="translate(-90.632 -21.455)" fill="#f5ad76"/>
    <path id="Tracé_3768" data-name="Tracé 3768" d="M108.794,294.343V285.27a6.079,6.079,0,0,0-5.319-6.033l-5.5-.684a1.52,1.52,0,0,1-1.33-1.52v-3.967H89.037v3.974a1.52,1.52,0,0,1-1.33,1.52l-5.5.684a6.079,6.079,0,0,0-5.319,6.034v9.065Z" transform="translate(-76.119 -248.75)" fill="#c6845f"/>
    <path id="Union_85" data-name="Union 85" d="M1103.8,989.171V973.594l3.8.471a6.079,6.079,0,0,1,5.319,6.034v9.073Zm-22.8,0V980.1a6.079,6.079,0,0,1,5.319-6.034l3.8-.471v15.577Z" transform="translate(-1080.24 -943.578)" fill="#3cacde"/>
    <path id="Tracé_3771" data-name="Tracé 3771" d="M79.84,351.061a6.079,6.079,0,0,0-3.04,5.258v9.073h3.04Z" transform="translate(-76.04 -319.799)" fill="#329ac7"/>
    <path id="Tracé_3772" data-name="Tracé 3772" d="M191.966,335.787l-5.927,10.372-5.927-10.372-.912.114v15.578h13.678V335.9Z" transform="translate(-169.322 -305.885)" fill="#ebebeb"/>
    <path id="Tracé_3773" data-name="Tracé 3773" d="M182.239,339.32l-2.128-3.533-.912.114v15.578h3.04Z" transform="translate(-169.322 -305.885)" fill="#dbdbdb"/>
    <path id="Tracé_3774" data-name="Tracé 3774" d="M220.933,276.107v-3.039h-7.6v3.039A6.9,6.9,0,0,0,220.933,276.107Z" transform="translate(-200.416 -248.751)" fill="#b56a4c"/>
    <g id="Groupe_1706" data-name="Groupe 1706" transform="translate(8.359 6.079)">
      <path id="Tracé_3775" data-name="Tracé 3775" d="M342.853,145.067h-1.52v4.559h1.52a2.28,2.28,0,1,0,0-4.559Z" transform="translate(-325.375 -138.228)" fill="#c6845f"/>
      <path id="Tracé_3776" data-name="Tracé 3776" d="M178.851,75.107l-.312,5.266a8.131,8.131,0,0,1-8.116,7.652h0a8.138,8.138,0,0,1-8.108-7.508l-.182-2.371s7.6-4.559,11.4-9.878C173.531,68.268,175.811,72.827,178.851,75.107Z" transform="translate(-162.133 -68.268)" fill="#c6845f"/>
    </g>
    <path id="Tracé_3777" data-name="Tracé 3777" d="M164.975,157.952c-1.664,1.185-2.842,1.892-2.842,1.892l.182,2.371a8.1,8.1,0,0,0,4.6,6.7A23.217,23.217,0,0,1,164.975,157.952Z" transform="translate(-153.774 -143.887)" fill="#b56a4c"/>
    <path id="Union_84" data-name="Union 84" d="M1112.915,1019.187v-9.074a5.327,5.327,0,0,0-4.654-5.279l-2.945-.366v14.719H1103.8v-14.428l-5.42,9.485a.759.759,0,0,1-1.319,0l-5.419-9.483v14.426h-1.52v-14.719l-2.945.366a5.329,5.329,0,0,0-4.654,5.279v9.074H1081v-9.074a6.833,6.833,0,0,1,2.088-4.915,10.265,10.265,0,0,1,1.18-9.471l.509-.655a7.381,7.381,0,0,0,1.542-4.5v-5.585a11.4,11.4,0,0,1,22.8,0v1.792a3.034,3.034,0,0,1,.021,3.992,8.6,8.6,0,0,0,1.771,4.624,10.058,10.058,0,0,1,1.44,9.8,6.832,6.832,0,0,1,2.086,4.914v9.074Zm-15.2-6.852,4.715-8.25a2.279,2.279,0,0,1-1.668-2.214v-2.246a8.824,8.824,0,0,1-6.094.043v2.208a2.277,2.277,0,0,1-1.669,2.208Zm4.567-10.459a.761.761,0,0,0,.664.766l5.5.684a6.8,6.8,0,0,1,2.633.9,8.536,8.536,0,0,0-1.373-7.9,10.131,10.131,0,0,1-1.994-4.63,3.03,3.03,0,0,1-.879.13h-.314a8.889,8.889,0,0,1-4.239,7.052Zm-14.445-16.885v5.585a8.911,8.911,0,0,1-1.862,5.428l-.487.625a8.718,8.718,0,0,0-1.131,7.6,6.8,6.8,0,0,1,2.625-.9l5.5-.684a.759.759,0,0,0,.663-.76v-2.931a8.93,8.93,0,0,1-4.368-6.97l-.182-2.371a.759.759,0,0,1,.366-.709c.074-.045,7.51-4.544,11.171-9.669a.759.759,0,0,1,1.3.1,22.617,22.617,0,0,0,4.9,6.42h.5a3.036,3.036,0,0,1,.76.1v-.857a9.878,9.878,0,0,0-19.757,0Zm2.313,4.964.147,1.908a7.371,7.371,0,0,0,14.707-.13l.288-4.868a22.106,22.106,0,0,1-4.641-5.8,37.984,37.984,0,0,1-6.336,5.981,1.52,1.52,0,1,1-2.453,1.781C1091.12,989.338,1090.522,989.723,1090.152,989.955Zm16.684.356a1.52,1.52,0,0,0,0-3.04h-.044l-.18,3.04Zm-10.061,5.319h-.578v-1.52h.58a6.468,6.468,0,0,0,2.879-.68l.68,1.359a8,8,0,0,1-3.559.841Zm-.578-3.04a.759.759,0,0,1-.68-1.1l1.519-3.04,1.36.68-.97,1.94h1.05v1.519Zm4.559-4.558a1.52,1.52,0,1,1,1.52,1.519A1.52,1.52,0,0,1,1100.757,988.032Z" transform="translate(-1081 -973.594)" fill="#012f2d"/>
  </g>
</svg>
