<svg id="h-10_1" xmlns="http://www.w3.org/2000/svg" width="52" height="52.247" viewBox="0 0 52 52.247">
  <g id="_023-man-3" data-name="023-man-3" transform="translate(9 6)">
    <path id="Union_41" data-name="Union 41" d="M1337.811,925.416V910l6.213.824a6.167,6.167,0,0,1,5.349,6.113v8.479Zm-20.812,0v-8.479a6.167,6.167,0,0,1,5.35-6.113l6.213-.824v15.416Z" transform="translate(-1316.229 -879.169)" fill="#2e6aa3"/>
    <path id="Tracé_4102" data-name="Tracé 4102" d="M76.8,363.734v8.479h3.083V358.4A6.166,6.166,0,0,0,76.8,363.734Z" transform="translate(-76.029 -326.027)" fill="#245e8f"/>
    <path id="Tracé_4104" data-name="Tracé 4104" d="M204.8,381.781v11.762h9.249V381.781A7.007,7.007,0,0,1,204.8,381.781Z" transform="translate(-192.468 -347.296)" fill="#ebebeb"/>
    <path id="Tracé_4105" data-name="Tracé 4105" d="M214.049,298.667H204.8v7.507a7.007,7.007,0,0,0,9.249,0Z" transform="translate(-192.468 -271.69)" fill="#c6845f"/>
    <path id="Tracé_4106" data-name="Tracé 4106" d="M207.883,383.579a6.993,6.993,0,0,1-3.083-1.542v11.739h3.083Z" transform="translate(-192.468 -347.529)" fill="#dbdbdb"/>
    <path id="Tracé_4107" data-name="Tracé 4107" d="M214.049,302.936v-4.27H204.8v4.27A8.231,8.231,0,0,0,214.049,302.936Z" transform="translate(-192.468 -271.689)" fill="#b56a4c"/>
    <path id="Union_42" data-name="Union 42" d="M1340.123,913.854V910h6.166v3.854Zm-23.124,0V910h3.083v3.854Z" transform="translate(-1313.146 -867.607)" fill="#c6845f"/>
    <rect id="Rectangle_354" data-name="Rectangle 354" width="3.083" height="3.854" transform="translate(0.771 42.393)" fill="#b56a4c"/>
    <path id="Tracé_4108" data-name="Tracé 4108" d="M342.875,145.067h-1.542v4.625h1.542a2.312,2.312,0,0,0,0-4.625Z" transform="translate(-316.668 -131.964)" fill="#c6845f"/>
    <path id="Tracé_4109" data-name="Tracé 4109" d="M130.312,145.067a2.312,2.312,0,1,0,0,4.625h1.542v-4.625Z" transform="translate(-122.605 -131.964)" fill="#b56a4c"/>
    <path id="Tracé_4110" data-name="Tracé 4110" d="M177.549,93.867a3.268,3.268,0,0,1-4.622,0l0,0h0a3.268,3.268,0,0,1-4.622,0l0,0h0a3.268,3.268,0,0,1-4.622,0l0,0-1.542,4.625.663,9.249a4.626,4.626,0,0,0,1.133,2.721l2.829,3.245a5.1,5.1,0,0,0,3.854,1.742h0a5.1,5.1,0,0,0,3.854-1.742l2.844-3.253a4.62,4.62,0,0,0,1.118-2.713l.663-9.249Z" transform="translate(-153.654 -85.388)" fill="#c6845f"/>
    <path id="Tracé_4111" data-name="Tracé 4111" d="M166.758,106.007V94.723a3.245,3.245,0,0,1-3.083-.856l-1.542,4.625.663,9.249a4.626,4.626,0,0,0,1.133,2.721l2.829,3.245a5.1,5.1,0,0,0,3.669,1.742l-2.5-4.71A10.108,10.108,0,0,1,166.758,106.007Z" transform="translate(-153.654 -85.388)" fill="#b56a4c"/>
    <path id="Tracé_4112" data-name="Tracé 4112" d="M144.519,19.325a2.313,2.313,0,0,0-1.542-2.166,2.312,2.312,0,0,0-1.542-4h-.146a2.231,2.231,0,0,0,.146-.771,2.312,2.312,0,0,0-3.176-2.143,2.3,2.3,0,0,0-4.147-.671,2.312,2.312,0,0,0-3.854,0,2.3,2.3,0,0,0-4.147.671,2.313,2.313,0,0,0-3.176,2.143,2.232,2.232,0,0,0,.146.771h-.146a2.312,2.312,0,0,0-1.542,4,2.312,2.312,0,0,0,0,4.332,2.313,2.313,0,0,1,1.542-.624h.771l1.542-4.625a3.268,3.268,0,0,0,4.622,0l0,0a3.268,3.268,0,0,0,4.622,0l0,0a3.268,3.268,0,0,0,4.622,0l0,0,1.542,4.625h.771a2.313,2.313,0,0,1,1.542.624A2.313,2.313,0,0,0,144.519,19.325Z" transform="translate(-115.23 -7.763)" fill="#a15d30"/>
    <path id="Tracé_4113" data-name="Tracé 4113" d="M128.333,8.533a2.313,2.313,0,0,0-2.22,1.711,2.312,2.312,0,0,0-3.176,2.143,2.231,2.231,0,0,0,.146.771h-.146a2.312,2.312,0,0,0-1.542,4,2.312,2.312,0,0,0,0,4.332,2.313,2.313,0,0,1,1.542-.624h.771l1.542-4.625a3.253,3.253,0,0,0,3.021.871A15.818,15.818,0,0,1,130.129,9.4,2.312,2.312,0,0,0,128.333,8.533Z" transform="translate(-115.23 -7.762)" fill="#8f4f24"/>
    <path id="Union_40" data-name="Union 40" d="M1349.373,956.247v-3.083h-4.624v3.083h-1.542v-6.167h1.542v1.542h4.624v-3.854a5.411,5.411,0,0,0-4.681-5.348l-2.57-.341,1.815,5.444a.772.772,0,0,1-.73,1.015h-3.854v7.708h-1.542V945.976a7.784,7.784,0,0,1-7.708,0v10.271h-1.542v-7.708h-3.854a.771.771,0,0,1-.732-1.014l1.815-5.446-2.57.341a5.414,5.414,0,0,0-4.68,5.349v3.854h4.625v-1.542h1.542v6.167h-1.542v-3.083h-4.625v3.083H1317v-8.479a6.961,6.961,0,0,1,6.018-6.876l5.544-.736v-2.408h.021l-1.889-2.168a5.425,5.425,0,0,1-1.321-3.173l-.28-3.908h-.385a44.714,44.714,0,0,0-3.65-5.877,4.851,4.851,0,0,0,.607-4.863,3.088,3.088,0,0,1,2.277-3.029c0-.032,0-.065,0-.1a3.086,3.086,0,0,1,3.494-3.063,3.065,3.065,0,0,1,4.6-.89c.071-.056.144-.11.22-.16a7.47,7.47,0,0,0,5.557-.52,3.1,3.1,0,0,1,2.676,1.57,3.206,3.206,0,0,1,.406-.026h0a3.087,3.087,0,0,1,3.083,3.08c0,.037,0,.073,0,.11a15.192,15.192,0,0,0,2.883,5.783,5,5,0,0,0-.568,4.9,3.086,3.086,0,0,1-3.083,3.083h-.385l-.28,3.91a5.423,5.423,0,0,1-1.3,3.163l-1.9,2.176h.016v2.408l5.542.736a6.959,6.959,0,0,1,6.019,6.876v8.479ZM1342.137,947l-1.714-5.144-1.07-.142V947Zm-16.36,0h2.786v-5.286l-1.07.142Zm8.181-1.541a6.233,6.233,0,0,0,3.854-1.333V939.4a5.87,5.87,0,0,1-3.837,1.426h-.041a5.857,5.857,0,0,1-3.829-1.427v4.72A6.238,6.238,0,0,0,1333.958,945.456Zm-7.7-22.256.652,9.1a3.878,3.878,0,0,0,.945,2.268l2.83,3.246a4.315,4.315,0,0,0,3.254,1.479h.031a4.325,4.325,0,0,0,3.261-1.478l2.844-3.253A3.864,3.864,0,0,0,1341,932.3l.653-9.1-1.159-3.476a76.587,76.587,0,0,0-8.852-.245,4.048,4.048,0,0,1-4.228.245Zm-3.092,2.216a1.543,1.543,0,0,0,1.541,1.542h.274l-.221-3.083h-.053A1.543,1.543,0,0,0,1323.167,925.416Zm20.04,1.541a1.541,1.541,0,1,0,0-3.083h-.053l-.221,3.083Zm-19.569-10.321a1.53,1.53,0,0,0-.433,1.1,1.549,1.549,0,0,0,.488,1.1.771.771,0,0,1-.264,1.287,1.542,1.542,0,0,0-.38,2.7,3.065,3.065,0,0,1,1.658-.485h.215l1.366-4.1a.772.772,0,0,1,1.276-.3,2.5,2.5,0,0,0,3.534,0,.772.772,0,0,1,1.091,0,2.5,2.5,0,0,0,3.534,0,.768.768,0,0,1,1.093,0h0a2.5,2.5,0,0,0,3.532,0,.771.771,0,0,1,1.276.3l1.366,4.1h.215a3.066,3.066,0,0,1,1.658.485,1.542,1.542,0,0,0-.38-2.7.77.77,0,0,1-.264-1.287,1.542,1.542,0,0,0-1.028-2.667h-.133a.771.771,0,0,1-.719-1.047,1.439,1.439,0,0,0,.1-.5,1.542,1.542,0,0,0-1.542-1.531h0a1.511,1.511,0,0,0-.574.112.772.772,0,0,1-1.032-.516,1.528,1.528,0,0,0-2.759-.446.773.773,0,0,1-.643.346h0a.773.773,0,0,1-.643-.345,1.543,1.543,0,0,0-2.137-.433,1.56,1.56,0,0,0-.433.433.771.771,0,0,1-.642.345h0a.769.769,0,0,1-.642-.346,1.529,1.529,0,0,0-2.759.446.772.772,0,0,1-1.032.516,1.54,1.54,0,0,0-2.117,1.427,1.448,1.448,0,0,0,.1.495.77.77,0,0,1-.72,1.046h-.146A1.526,1.526,0,0,0,1323.638,916.636Zm1.84,34.6a1.156,1.156,0,1,1,1.156,1.156A1.158,1.158,0,0,1,1325.479,951.237Zm.77,0a.386.386,0,1,0,.386-.385A.386.386,0,0,0,1326.249,951.237Zm6.167-18.113v-1.542h.13a4.469,4.469,0,0,0,3.178-1.317l1.09,1.091a6,6,0,0,1-4.268,1.768Zm0-3.083a.769.769,0,0,1-.762-.88l.77-5.4,1.526.219-.645,4.515h1.424v1.542Zm4.624-4.624a1.542,1.542,0,1,1,1.542,1.542A1.542,1.542,0,0,1,1337.04,925.416Zm-9.249,0a1.542,1.542,0,1,1,1.542,1.542A1.542,1.542,0,0,1,1327.791,925.416Z" transform="translate(-1317 -910)" fill="#012f2d"/>
  </g>
  <rect id="Rectangle_422" data-name="Rectangle 422" width="52" height="52" fill="none"/>
</svg>
