<svg id="h-11_1" xmlns="http://www.w3.org/2000/svg" width="52" height="52.247" viewBox="0 0 52 52.247">
  <rect id="Rectangle_423" data-name="Rectangle 423" width="52" height="52" fill="none"/>
  <g id="_024-man-2" data-name="024-man-2" transform="translate(9 6)">
    <path id="Tracé_4126" data-name="Tracé 4126" d="M156.569,23.179l1.542-5.4v-.771A2.312,2.312,0,0,0,155.8,14.7h0a2.436,2.436,0,0,0-3.083-3.083h0l-.162-.486A2.683,2.683,0,0,0,150.018,9.3h0a2.669,2.669,0,0,0-2.7,1.542,2.4,2.4,0,0,0-2.7-2.312h0a2.7,2.7,0,0,0-2.7,2.7v.385h0a2.436,2.436,0,0,0-3.083,3.083h0a2.312,2.312,0,0,0-2.312,2.312v.771l1.542,6.166h.771l1.542-8.479a31.768,31.768,0,0,0,6.937.771,31.774,31.774,0,0,0,6.937-.771l1.542,7.708h.771Z" transform="translate(-130.363 -7.763)" fill="#70432c"/>
    <path id="Tracé_4127" data-name="Tracé 4127" d="M138.841,44.516a2.312,2.312,0,0,0-2.312,2.312V47.6l1.542,6.166h.771l1.542-8.479a28,28,0,0,0,2.767.493,15.062,15.062,0,0,1-1.226-4.347,2.443,2.443,0,0,0-3.083,3.083Z" transform="translate(-130.363 -37.579)" fill="#5c3724"/>
    <path id="Tracé_4128" data-name="Tracé 4128" d="M187.375,292.391a7.007,7.007,0,0,0,6.444-4.247l.37-.856-.848-.116A1.541,1.541,0,0,1,192,285.631V281.6H182.75v4.047a1.541,1.541,0,0,1-1.341,1.542l-.848.116.37.856A7.008,7.008,0,0,0,187.375,292.391Z" transform="translate(-170.418 -256.164)" fill="#c6845f"/>
    <path id="Tracé_4129" data-name="Tracé 4129" d="M103.82,345.108l-4.023-.532-.37.856a7.014,7.014,0,0,1-12.887,0l-.37-.856-4.023.532A6.166,6.166,0,0,0,76.8,351.22V359.7h32.373V351.22A6.167,6.167,0,0,0,103.82,345.108Z" transform="translate(-76.025 -313.452)" fill="#de4c3c"/>
    <path id="Tracé_4130" data-name="Tracé 4130" d="M214.045,285.87V281.6H204.8v4.27A10.05,10.05,0,0,0,214.045,285.87Z" transform="translate(-192.463 -256.164)" fill="#b56a4c"/>
    <path id="Tracé_4131" data-name="Tracé 4131" d="M76.8,364.417V372.9h3.083V359.083A6.166,6.166,0,0,0,76.8,364.417Z" transform="translate(-76.025 -326.648)" fill="#c94536"/>
    <rect id="Rectangle_362" data-name="Rectangle 362" width="3.083" height="3.854" transform="translate(3.854 42.393)" fill="#c6845f"/>
    <rect id="Rectangle_363" data-name="Rectangle 363" width="3.083" height="3.854" transform="translate(0.771 42.393)" fill="#b56a4c"/>
    <g id="Groupe_1742" data-name="Groupe 1742" transform="translate(24.665 13.103)">
      <rect id="Rectangle_364" data-name="Rectangle 364" width="6.166" height="3.854" transform="translate(2.312 29.29)" fill="#c6845f"/>
      <path id="Tracé_4132" data-name="Tracé 4132" d="M342.1,145.067h-.771v4.625h.771a2.312,2.312,0,1,0,0-4.625Z" transform="translate(-341.329 -145.067)" fill="#c6845f"/>
    </g>
    <path id="Tracé_4133" data-name="Tracé 4133" d="M136.529,155.912a2.312,2.312,0,0,0,2.312,2.312h.771V153.6h-.771A2.312,2.312,0,0,0,136.529,155.912Z" transform="translate(-130.363 -139.726)" fill="#b56a4c"/>
    <path id="Tracé_4134" data-name="Tracé 4134" d="M179.087,91.5l-.671,7.222a3.856,3.856,0,0,1-.925,2.2l-3.877,4.447a2.311,2.311,0,0,1-1.742.771h-2.528a2.311,2.311,0,0,1-1.742-.771l-3.854-4.432a3.856,3.856,0,0,1-.925-2.2L162.13,91.5l1.542-6.166h0a63.255,63.255,0,0,0,13.874,0h0Z" transform="translate(-153.651 -77.625)" fill="#c6845f"/>
    <path id="Tracé_4135" data-name="Tracé 4135" d="M165.482,85.51c-.609-.054-1.21-.108-1.811-.177L162.129,91.5l.671,7.222a3.856,3.856,0,0,0,.925,2.2l2.027,2.312A76.58,76.58,0,0,1,165.482,85.51Z" transform="translate(-153.65 -77.625)" fill="#b56a4c"/>
    <path id="Union_45" data-name="Union 45" d="M895.373,1532.247v-3.083h-4.625v3.083h-1.542v-6.167h1.542v1.542h4.625v-3.854a5.417,5.417,0,0,0-4.681-5.333l-3.45-.458-.132.307a7.77,7.77,0,0,1-7.149,4.713h-.009a7.767,7.767,0,0,1-7.148-4.713l-.138-.322-3.445.458a5.413,5.413,0,0,0-4.68,5.349v3.854h4.624v-1.542h1.542v6.167h-1.542v-3.083h-4.624v3.083H863v-8.479a6.96,6.96,0,0,1,6.018-6.876l4.871-.648a.771.771,0,0,0,.672-.77v-3.267h.028l-2.074-2.385a4.6,4.6,0,0,1-1.111-2.647l-.184-1.916a3.082,3.082,0,0,1-2.133-5.018l-.682-4.093a.671.671,0,0,1-.011-.127v-.771a3.089,3.089,0,0,1,2.19-2.951,3.211,3.211,0,0,1,3.243-3.343A3.475,3.475,0,0,1,877.26,1486a3.261,3.261,0,0,1,2.978,1.476,4.053,4.053,0,0,1,2.417-.706,3.454,3.454,0,0,1,3.21,2.2,3.247,3.247,0,0,1,1.279.155,3.209,3.209,0,0,1,2.187,3.176,3.087,3.087,0,0,1,2.188,2.95v.771a.767.767,0,0,1-.015.15l-.664,3.317a3.081,3.081,0,0,1-2.058,4.992l-.25,2.688a4.593,4.593,0,0,1-1.109,2.637l-2.095,2.4h.024v3.275a.773.773,0,0,0,.671.778l4.873.647a6.962,6.962,0,0,1,6.018,6.859v8.481Zm-15.42-10.791h.007a6.233,6.233,0,0,0,5.7-3.7,2.314,2.314,0,0,1-1.845-2.284v-1.528l-.266.306a3.087,3.087,0,0,1-2.306,1.036h-2.57a3.079,3.079,0,0,1-2.292-1.027l-.274-.315v1.519a2.314,2.314,0,0,1-1.851,2.279A6.228,6.228,0,0,0,879.953,1521.456Zm-1.265-7.708h2.547a1.55,1.55,0,0,0,.9-.284l-.6-1.784,1.462-.487.324.971,2.938-3.37a3.053,3.053,0,0,0,.738-1.761l.659-7.1-1.347-5.389a64.283,64.283,0,0,1-12.7,0l-1.348,5.388.681,7.105a3.079,3.079,0,0,0,.741,1.774l2.911,3.348.322-.967,1.463.488-.6,1.783A1.609,1.609,0,0,0,878.688,1513.749Zm-8.751-11.562a1.544,1.544,0,0,0,1.132,1.487l-.275-2.868A1.543,1.543,0,0,0,869.937,1502.186Zm18.994.689a1.541,1.541,0,0,0,.26-2.8Zm-16.722-11.24a1.686,1.686,0,0,0,0,1.057.771.771,0,0,1-.731,1.015,1.543,1.543,0,0,0-1.542,1.542v.706l.551,3.31a3.048,3.048,0,0,1,.373-.1l1.411-5.645a.77.77,0,0,1,.833-.579,62.631,62.631,0,0,0,13.705,0,.775.775,0,0,1,.832.579l1.21,4.84a3.052,3.052,0,0,1,.612.148l.513-2.565v-.695a1.544,1.544,0,0,0-1.542-1.542.771.771,0,0,1-.731-1.015,1.664,1.664,0,0,0-1.049-2.108,1.672,1.672,0,0,0-1.057,0,.77.77,0,0,1-.977-.487l-.162-.486a1.911,1.911,0,0,0-1.806-1.3c-.376,0-1.634.075-1.969,1.027a.771.771,0,0,1-1.5-.256c-.008-.356-.17-1.542-1.927-1.542a1.93,1.93,0,0,0-1.927,1.927v.385a.771.771,0,0,1-1.015.732,1.662,1.662,0,0,0-2.108,1.049Zm6.977,22.113v-1.542h1.542v1.542Zm-1.542-4.624V1507.8l-2.125.532-.374-1.5,3.083-.771.374,1.5-.1.024h2.9l-.094-.023.373-1.5,3.083.77-.373,1.5-2.124-.531v1.326Zm.77-3.083a.771.771,0,0,1-.758-.91l1.025-5.588,1.516.278-.859,4.678h1.388v1.542Zm3.854-5.4a1.542,1.542,0,1,1,1.542,1.542A1.542,1.542,0,0,1,882.269,1500.645Zm-8.478,0a1.542,1.542,0,1,1,1.542,1.542A1.542,1.542,0,0,1,873.791,1500.645Z" transform="translate(-863 -1486)" fill="#012f2d"/>
  </g>
</svg>
