<svg id="h-12" xmlns="http://www.w3.org/2000/svg" width="52" height="52.247" viewBox="0 0 52 52.247">
  <g id="_025-man-1" data-name="025-man-1" transform="translate(9 6)">
    <path id="Tracé_4144" data-name="Tracé 4144" d="M188,317.22a7.007,7.007,0,0,0,6.444-4.247l.347-.771-1.58-.185a1.542,1.542,0,0,1-1.357-1.542V307.2h-7.708v3.253a1.542,1.542,0,0,1-1.357,1.542l-1.542.185.347.771A7.006,7.006,0,0,0,188,317.22Z" transform="translate(-171.043 -279.452)" fill="#fedac6"/>
    <path id="Tracé_4145" data-name="Tracé 4145" d="M103.824,362.718l-4.047-.478-.347.771a7.014,7.014,0,0,1-12.887,0l-.347-.771-4.047.478A6.166,6.166,0,0,0,76.8,368.83v6.937h32.373V368.83A6.166,6.166,0,0,0,103.824,362.718Z" transform="translate(-76.029 -329.52)" fill="#215280"/>
    <path id="Tracé_4146" data-name="Tracé 4146" d="M76.8,381.483v6.937h3.083V376.149A6.167,6.167,0,0,0,76.8,381.483Z" transform="translate(-76.029 -342.173)" fill="#1c496e"/>
    <rect id="Rectangle_375" data-name="Rectangle 375" width="6.166" height="3.854" transform="translate(0.771 42.393)" fill="#fedac6"/>
    <g id="Groupe_1743" data-name="Groupe 1743" transform="translate(0.771 27.748)">
      <rect id="Rectangle_376" data-name="Rectangle 376" width="3.083" height="3.854" transform="translate(0 14.645)" fill="#f5c4b0"/>
      <path id="Tracé_4147" data-name="Tracé 4147" d="M221.042,310.7v-3.5h-7.708v3.5C216.224,312.2,218.151,312.2,221.042,310.7Z" transform="translate(-201.001 -307.2)" fill="#f5c4b0"/>
    </g>
    <g id="Groupe_1744" data-name="Groupe 1744" transform="translate(6.166 8.479)">
      <rect id="Rectangle_377" data-name="Rectangle 377" width="6.166" height="3.854" transform="translate(20.811 33.914)" fill="#fedac6"/>
      <path id="Tracé_4148" data-name="Tracé 4148" d="M342.1,153.6h-.771v4.625h.771a2.312,2.312,0,0,0,0-4.625Z" transform="translate(-322.835 -148.205)" fill="#fedac6"/>
      <path id="Tracé_4149" data-name="Tracé 4149" d="M136.533,155.912a2.312,2.312,0,0,0,2.312,2.312h.771V153.6h-.771A2.312,2.312,0,0,0,136.533,155.912Z" transform="translate(-136.533 -148.205)" fill="#fedac6"/>
      <path id="Tracé_4150" data-name="Tracé 4150" d="M179.09,98.492l-2.628-3.939a1.541,1.541,0,0,0-1.279-.686h-9.142a1.541,1.541,0,0,0-1.279.686l-2.628,3.939.671,9.249a4.624,4.624,0,0,0,1.141,2.759l2.813,3.206a5.1,5.1,0,0,0,3.854,1.742h0a5.1,5.1,0,0,0,3.854-1.742l2.837-3.245a4.661,4.661,0,0,0,1.118-2.721Z" transform="translate(-159.821 -93.867)" fill="#fedac6"/>
    </g>
    <path id="Tracé_4151" data-name="Tracé 4151" d="M164.723,102.4l-2.59,3.854.671,9.249a4.624,4.624,0,0,0,1.141,2.759l2.813,3.206a5.268,5.268,0,0,0,.91.771C164.283,115.257,164.314,107.063,164.723,102.4Z" transform="translate(-153.654 -93.151)" fill="#f5c4b0"/>
    <path id="Tracé_4152" data-name="Tracé 4152" d="M176.832,10.9l-.825-.825v2.312l-.409-.54a8.927,8.927,0,0,0-4.987-3.314,8.927,8.927,0,0,0-4.987,3.314l-.409.54V10.075a7.708,7.708,0,0,0-3.083,6.166v4.625l2.628-3.939a1.541,1.541,0,0,1,1.279-.686h9.141a1.541,1.541,0,0,1,1.279.686l2.628,3.939V16.349A7.7,7.7,0,0,0,176.832,10.9Z" transform="translate(-153.654 -7.762)" fill="#a15d30"/>
    <path id="Tracé_4153" data-name="Tracé 4153" d="M166.836,23.808l1.11-2.389a8.814,8.814,0,0,0-2.312,2.15l-.416.54V21.8a7.708,7.708,0,0,0-3.083,6.166v4.625l2.628-3.939a1.542,1.542,0,0,1,1.226-.686v-.285A9.323,9.323,0,0,1,166.836,23.808Z" transform="translate(-153.655 -19.484)" fill="#8f4f24"/>
    <path id="Tracé_4154" data-name="Tracé 4154" d="M176.559,175.065a1.54,1.54,0,0,1-1.164.532h-6.3a1.542,1.542,0,0,1-1.172-.54l-4-4.9.509,6.937a4.624,4.624,0,0,0,1.141,2.759l2.813,3.253a5.1,5.1,0,0,0,7.708,0l2.837-3.245a4.661,4.661,0,0,0,1.118-2.721l.509-6.937Z" transform="translate(-155.285 -154.786)" fill="#a15d30"/>
    <path id="Tracé_4155" data-name="Tracé 4155" d="M167.617,176.159v-1.488l-3.692-4.517.509,6.937a4.624,4.624,0,0,0,1.141,2.759l2.813,3.253a5.1,5.1,0,0,0,2.775,1.626l-2.312-3.854A9.245,9.245,0,0,1,167.617,176.159Z" transform="translate(-155.285 -154.786)" fill="#8f4f24"/>
    <path id="Union_46" data-name="Union 46" d="M947.372,1468.247v-3.083h-4.624v3.083h-1.542v-4.624h6.166v-2.312a5.41,5.41,0,0,0-4.694-5.348l-3.453-.407-.116.27a7.771,7.771,0,0,1-7.15,4.713h-.008a7.766,7.766,0,0,1-7.148-4.714l-.117-.271-3.478.41a5.409,5.409,0,0,0-4.668,5.347v2.312h6.166v4.624h-1.542v-3.083h-4.624v3.083H915v-6.936a6.959,6.959,0,0,1,6.018-6.876l5.638-.665a.768.768,0,0,0,.676-.77v-2.392l-2.62-2.986a5.424,5.424,0,0,1-1.332-3.219l-.2-3.146a3.083,3.083,0,0,1-.378-6.078l-.1-1.568,0-3.13a8.521,8.521,0,0,1,3.391-6.783.77.77,0,0,1,1.233.616v.193a9.73,9.73,0,0,1,4.439-2.481.746.746,0,0,1,.373,0,9.728,9.728,0,0,1,4.439,2.482v-.193a.77.77,0,0,1,1.315-.545l.825.824a8.426,8.426,0,0,1,2.484,5.995v2.974c0,.016,0,.032,0,.048l-.1,1.568a3.084,3.084,0,0,1-.378,6.079l-.2,3.144a5.476,5.476,0,0,1-1.3,3.177l-2.65,3.031v2.594a.7.7,0,0,0,.638.565l5.648.665a6.957,6.957,0,0,1,6.045,6.878v6.937ZM931.954,1459h.006a6.232,6.232,0,0,0,5.667-3.63l-.565-.067a2.245,2.245,0,0,1-2.018-2.026v-1.309a5.863,5.863,0,0,1-3.067.865h-.042a5.85,5.85,0,0,1-3.06-.865v1.027a2.309,2.309,0,0,1-2.035,2.307l-.552.065A6.229,6.229,0,0,0,931.954,1459Zm-7.035-14.693a3.872,3.872,0,0,0,.95,2.3l2.813,3.208a4.328,4.328,0,0,0,3.257,1.479h.031a4.325,4.325,0,0,0,3.07-1.274v-.067h.065q.064-.067.125-.137l2.837-3.245A3.915,3.915,0,0,0,939,1444.3l.269-4.322-2.407,2.8a2.311,2.311,0,0,1-1.747.8h-2.383v.008h-2.312a.779.779,0,0,1-.111-.008h-1.492a2.312,2.312,0,0,1-1.758-.809l-2.409-2.828Zm10.192-2.272a.769.769,0,0,0,.581-.266l3.732-4.337.14-2.247-2.4-3.592a.77.77,0,0,0-.64-.343h-9.14a.768.768,0,0,0-.638.343l-2.4,3.592.136,2.188,3.741,4.391a.767.767,0,0,0,.585.269h.923l.685-5.484,1.529.191-.661,5.293Zm-13.172-3.847a1.544,1.544,0,0,0,1.149,1.491l-.182-2.922A1.544,1.544,0,0,0,921.938,1438.187Zm18.89,1.491a1.542,1.542,0,0,0,.182-2.922Zm-16.578-9.2v2.081l1.216-1.822a2.309,2.309,0,0,1,1.919-1.03h9.144a2.309,2.309,0,0,1,1.921,1.03l1.216,1.822v-1.973a6.885,6.885,0,0,0-1.542-4.36v.4a.771.771,0,0,1-1.385.466l-.409-.54a4.695,4.695,0,0,0-8.742,0l-.41.544a.771.771,0,0,1-1.386-.466v-.5A6.969,6.969,0,0,0,924.25,1430.479Zm7.521,16.187h-1.355v-1.542h1.361a6.552,6.552,0,0,0,2.92-.69l.689,1.379a8.106,8.106,0,0,1-3.608.853Zm2.5-9.25a1.542,1.542,0,1,1,1.542,1.542A1.541,1.541,0,0,1,934.269,1437.415Zm-8.478,0a1.541,1.541,0,1,1,1.541,1.542A1.54,1.54,0,0,1,925.791,1437.415Z" transform="translate(-915 -1422)" fill="#012f2d"/>
  </g>
  <rect id="Rectangle_424" data-name="Rectangle 424" width="52" height="52" fill="none"/>
</svg>
