<svg id="h-13_1" xmlns="http://www.w3.org/2000/svg" width="52" height="52.247" viewBox="0 0 52 52.247">
  <g id="_026-man" data-name="026-man" transform="translate(9 6)">
    <path id="Tracé_4166" data-name="Tracé 4166" d="M187.375,292.391a7.007,7.007,0,0,0,6.444-4.247l.37-.856-.848-.116A1.541,1.541,0,0,1,192,285.631V281.6H182.75v4.047a1.541,1.541,0,0,1-1.341,1.542l-.848.116.37.856A7.008,7.008,0,0,0,187.375,292.391Z" transform="translate(-170.418 -256.164)" fill="#c6845f"/>
    <path id="Tracé_4167" data-name="Tracé 4167" d="M103.82,345.108l-4.023-.532-.37.856a7.014,7.014,0,0,1-12.887,0l-.37-.856-4.023.532A6.166,6.166,0,0,0,76.8,351.22V359.7h32.373V351.22A6.167,6.167,0,0,0,103.82,345.108Z" transform="translate(-76.025 -313.452)" fill="#787d82"/>
    <path id="Tracé_4168" data-name="Tracé 4168" d="M214.045,285.454V281.6H204.8v3.854A9.828,9.828,0,0,0,214.045,285.454Z" transform="translate(-192.463 -256.164)" fill="#b56a4c"/>
    <path id="Tracé_4169" data-name="Tracé 4169" d="M76.8,364.417V372.9h3.083V359.083A6.166,6.166,0,0,0,76.8,364.417Z" transform="translate(-76.025 -326.648)" fill="#717478"/>
    <rect id="Rectangle_382" data-name="Rectangle 382" width="3.083" height="3.854" transform="translate(3.854 42.393)" fill="#c6845f"/>
    <rect id="Rectangle_383" data-name="Rectangle 383" width="3.083" height="3.854" transform="translate(0.771 42.393)" fill="#b56a4c"/>
    <g id="Groupe_1745" data-name="Groupe 1745" transform="translate(25.436 10.791)">
      <rect id="Rectangle_384" data-name="Rectangle 384" width="6.166" height="3.854" transform="translate(1.542 31.602)" fill="#c6845f"/>
      <path id="Tracé_4170" data-name="Tracé 4170" d="M350.634,119.467h-.771v4.625h.771a2.312,2.312,0,1,0,0-4.625Z" transform="translate(-349.863 -119.467)" fill="#c6845f"/>
    </g>
    <path id="Tracé_4171" data-name="Tracé 4171" d="M128,121.779a2.312,2.312,0,0,0,2.312,2.312h.771v-4.625h-.771A2.312,2.312,0,0,0,128,121.779Z" transform="translate(-122.6 -108.676)" fill="#b56a4c"/>
    <path id="Tracé_4172" data-name="Tracé 4172" d="M163.34,15.232l.547-1.3a28.219,28.219,0,0,0,9.249,0,7.817,7.817,0,0,0,2.721,3.777l1.133.964v-.116a8.185,8.185,0,0,0-7.97-10.02H168a8.186,8.186,0,0,0-7.97,10.02v.771l1.542-1.542A7.769,7.769,0,0,0,163.34,15.232Z" transform="translate(-151.554 -7.763)" fill="#a15d30"/>
    <g id="Groupe_1746" data-name="Groupe 1746" transform="translate(8.479 6.166)">
      <path id="SVGCleanerId_0" d="M177.953,72.044a7.818,7.818,0,0,1-2.721-3.777,28.219,28.219,0,0,1-9.249,0l-.547,1.3a7.769,7.769,0,0,1-1.765,2.551l-1.542,1.542v7.993a6.166,6.166,0,0,0,2.1,4.625l2.312,2.027a6.166,6.166,0,0,0,8.109,0l2.312-2.027a6.166,6.166,0,0,0,2.1-4.625V73.007Z" transform="translate(-162.129 -68.267)" fill="#f5c4b0"/>
    </g>
    <path id="Tracé_4173" data-name="Tracé 4173" d="M163.063,23.464V22.74a11.915,11.915,0,0,1,1.071-4.948l.324-.725a8.178,8.178,0,0,0-4.478,9.249v.771l1.542-1.542A7.721,7.721,0,0,0,163.063,23.464Z" transform="translate(-151.501 -15.525)" fill="#8f4f24"/>
    <path id="SVGCleanerId_1" d="M165.212,98.376V87.893a7.724,7.724,0,0,1-1.542,2.081l-1.542,1.542v7.993a6.166,6.166,0,0,0,2.1,4.625l2.312,2.027a6.349,6.349,0,0,0,1.272.856l-1.7-4.062A12.039,12.039,0,0,1,165.212,98.376Z" transform="translate(-153.65 -79.954)" fill="#f5c4b0"/>
    <path id="Tracé_4174" data-name="Tracé 4174" d="M206.282,68.267a28.219,28.219,0,0,1-9.249,0l-.547,1.3c-.062.162-.146.316-.224.47V80.522a12.036,12.036,0,0,0,.917,4.625l1.7,4.062a6.167,6.167,0,0,0,6.837-.9l2.312-2.027a6.166,6.166,0,0,0,2.1-4.625V73.007L209,72.044A7.817,7.817,0,0,1,206.282,68.267Z" transform="translate(-184.7 -62.101)" fill="#f5c4b0"/>
    <g id="Groupe_1749" data-name="Groupe 1749" transform="translate(8.479 6.166)">
      <g id="Groupe_1747" data-name="Groupe 1747">
        <path id="SVGCleanerId_0_1_" d="M177.953,72.044a7.818,7.818,0,0,1-2.721-3.777,28.219,28.219,0,0,1-9.249,0l-.547,1.3a7.769,7.769,0,0,1-1.765,2.551l-1.542,1.542v7.993a6.166,6.166,0,0,0,2.1,4.625l2.312,2.027a6.166,6.166,0,0,0,8.109,0l2.312-2.027a6.166,6.166,0,0,0,2.1-4.625V73.007Z" transform="translate(-162.129 -68.267)" fill="#c6845f"/>
      </g>
      <g id="Groupe_1748" data-name="Groupe 1748">
        <path id="SVGCleanerId_0_2_" d="M177.953,72.044a7.818,7.818,0,0,1-2.721-3.777,28.219,28.219,0,0,1-9.249,0l-.547,1.3a7.769,7.769,0,0,1-1.765,2.551l-1.542,1.542v7.993a6.166,6.166,0,0,0,2.1,4.625l2.312,2.027a6.166,6.166,0,0,0,8.109,0l2.312-2.027a6.166,6.166,0,0,0,2.1-4.625V73.007Z" transform="translate(-162.129 -68.267)" fill="#c6845f"/>
      </g>
    </g>
    <g id="Groupe_1750" data-name="Groupe 1750" transform="translate(8.479 7.939)">
      <path id="SVGCleanerId_1_1_" d="M165.212,98.376V87.893a7.724,7.724,0,0,1-1.542,2.081l-1.542,1.542v7.993a6.166,6.166,0,0,0,2.1,4.625l2.312,2.027a6.349,6.349,0,0,0,1.272.856l-1.7-4.062A12.039,12.039,0,0,1,165.212,98.376Z" transform="translate(-162.129 -87.893)" fill="#b56a4c"/>
    </g>
    <path id="Tracé_4175" data-name="Tracé 4175" d="M210.962,204.8h-3.083a3.083,3.083,0,0,0-3.083,3.083v4.147l.57.493a6.166,6.166,0,0,0,8.109,0l.57-.493v-4.147a3.083,3.083,0,0,0-3.083-3.083Z" transform="translate(-192.463 -186.301)" fill="#a15d30"/>
    <path id="Union_49" data-name="Union 49" d="M895.373,1404.247v-3.082h-4.625v3.082h-1.542v-6.166h1.542v1.542h4.625v-3.854a5.416,5.416,0,0,0-4.681-5.333l-3.45-.458-.132.307a7.77,7.77,0,0,1-7.149,4.713h-.009a7.766,7.766,0,0,1-7.148-4.714l-.138-.321-3.445.458a5.412,5.412,0,0,0-4.68,5.349v3.854h4.624v-1.542h1.542v6.166h-1.542v-3.082h-4.624v3.082H863v-8.478a6.961,6.961,0,0,1,6.018-6.877l4.871-.647a.772.772,0,0,0,.672-.77v-3.411l-1.488-1.3a6.942,6.942,0,0,1-2.367-5.2v-3.37a3.083,3.083,0,0,1-.144-6.163A8.958,8.958,0,0,1,879.448,1358h1.018a8.953,8.953,0,0,1,8.878,10.023,3.083,3.083,0,0,1-.138,6.164H889.2v3.368a6.944,6.944,0,0,1-2.368,5.206l-1.478,1.3v3.427a.772.772,0,0,0,.671.778l4.873.648a6.961,6.961,0,0,1,6.018,6.859v8.48Zm-15.42-10.791h.007a6.232,6.232,0,0,0,5.7-3.7,2.314,2.314,0,0,1-1.845-2.285v-2.142a6.869,6.869,0,0,1-7.708.006v2.128a2.314,2.314,0,0,1-1.85,2.279A6.227,6.227,0,0,0,879.953,1393.456Zm-3.551-9.829a5.4,5.4,0,0,0,2.784,1.293v-3.026h1.542v3.025a5.4,5.4,0,0,0,2.773-1.29l.31-.271v-3.775a2.316,2.316,0,0,0-2.312-2.313h-3.083a2.316,2.316,0,0,0-2.312,2.313v3.782Zm-4.153-6.072a5.394,5.394,0,0,0,1.841,4.046l.471.413v-2.43a3.86,3.86,0,0,1,3.151-3.79l-.312-.1a.771.771,0,0,1-.464-1.035l2.312-5.4,1.417.608-1.982,4.625,1.517.506-.244.732H881.5a3.858,3.858,0,0,1,3.854,3.854v2.423l.463-.406a5.4,5.4,0,0,0,1.842-4.046v-8.381l-.817-.611a8.549,8.549,0,0,1-2.759-3.537,28.9,28.9,0,0,1-8.284-.005l-.331.747a8.468,8.468,0,0,1-1.908,2.806l-1.309,1.309Zm16.957-4.91a1.542,1.542,0,1,0,0-3.083H889.2v3.083Zm-20.04-1.542a1.543,1.543,0,0,0,1.541,1.542v-3.083A1.543,1.543,0,0,0,869.166,1371.1Zm2.875-4.14a7.341,7.341,0,0,0,.055.891l.379-.379a6.971,6.971,0,0,0,1.575-2.318l.578-1.3a.771.771,0,0,1,.831-.447,27.39,27.39,0,0,0,9,0,.769.769,0,0,1,.858.516,7,7,0,0,0,2.453,3.4l.087.065a7.413,7.413,0,0,0-7.388-7.85h-1.016A7.422,7.422,0,0,0,872.042,1366.963Zm6.189,13.389h-.586v-1.542h.588a6.555,6.555,0,0,0,2.921-.689l.69,1.379a8.112,8.112,0,0,1-3.612.852Zm4.038-9.249a1.542,1.542,0,1,1,1.542,1.542A1.542,1.542,0,0,1,882.269,1371.1Zm-8.478,0a1.542,1.542,0,1,1,1.542,1.542A1.542,1.542,0,0,1,873.791,1371.1Z" transform="translate(-863 -1358)" fill="#012f2d"/>
  </g>
  <rect id="Rectangle_425" data-name="Rectangle 425" width="52" height="52" fill="none"/>
</svg>
