<svg id="h-14_1" xmlns="http://www.w3.org/2000/svg" width="52" height="52.247" viewBox="0 0 52 52.247">
  <g id="_027-boy-6" data-name="027-boy-6" transform="translate(9 6)">
    <path id="Tracé_4186" data-name="Tracé 4186" d="M341.976,153.369h-.77v4.618h.77a2.309,2.309,0,0,0,0-4.618Z" transform="translate(-316.578 -139.516)" fill="#c6845f"/>
    <path id="Tracé_4187" data-name="Tracé 4187" d="M136.715,155.679a2.309,2.309,0,0,0,2.309,2.309h.77V153.37h-.77A2.309,2.309,0,0,0,136.715,155.679Z" transform="translate(-130.558 -139.517)" fill="#b56a4c"/>
    <path id="Tracé_4188" data-name="Tracé 4188" d="M163.154,21.605l.908-4.672a3.256,3.256,0,0,0-2.672-3.75,3.318,3.318,0,0,0-.545-.045h0a3.38,3.38,0,0,0-3.2-2.309h-9.112l-1.539-2.309-.77.77a5.441,5.441,0,0,0,0,7.695l0,0h13.853Z" transform="translate(-137.756 -7.752)" fill="#fecb66"/>
    <path id="Tracé_4189" data-name="Tracé 4189" d="M104.055,342.185l-5.58-.77-5.241,3.025-5.241-2.994-5.58.77a6.157,6.157,0,0,0-5.341,6.072v8.466H109.4v-8.466A6.158,6.158,0,0,0,104.055,342.185Z" transform="translate(-76.302 -310.577)" fill="#dbdbdb"/>
    <path id="Tracé_4190" data-name="Tracé 4190" d="M208.459,286.648l-.623-.085v-5.387H198.6v5.387l-.623.085,5.241,2.994Z" transform="translate(-186.287 -255.779)" fill="#c6845f"/>
    <g id="Groupe_1751" data-name="Groupe 1751" transform="translate(10.775 30.785)">
      <path id="Tracé_4191" data-name="Tracé 4191" d="M189.377,346.975l4.618-3.078-4.618-3.078h-1.539Z" transform="translate(-187.838 -340.818)" fill="#eaeaea"/>
      <path id="Tracé_4192" data-name="Tracé 4192" d="M256,343.9l4.618,3.078,1.539-6.157h-1.539Z" transform="translate(-249.844 -340.818)" fill="#eaeaea"/>
    </g>
    <path id="Tracé_4193" data-name="Tracé 4193" d="M230.44,387.214l.77-8.466-.77-2.309,2.309-1.539,2.309,1.539-.77,2.309.77,8.466" transform="translate(-215.817 -341.037)" fill="#2e6aa3"/>
    <path id="Tracé_4194" data-name="Tracé 4194" d="M214.114,285.44v-4.264h-9.235v4.264A10.035,10.035,0,0,0,214.114,285.44Z" transform="translate(-192.565 -255.779)" fill="#b56a4c"/>
    <path id="Tracé_4195" data-name="Tracé 4195" d="M77.072,363.867v8.466H80.15V358.541A6.155,6.155,0,0,0,77.072,363.867Z" transform="translate(-76.302 -326.156)" fill="#bfbfbf"/>
    <path id="Tracé_4196" data-name="Tracé 4196" d="M179.208,106.864v4.387a12.781,12.781,0,0,1-1.609,6.2h0a7.843,7.843,0,0,1-6.857,4.033h0a7.843,7.843,0,0,1-6.857-4.033h0a12.78,12.78,0,0,1-1.608-6.2v-9h13.853Z" transform="translate(-153.81 -93.011)" fill="#c6845f"/>
    <path id="Tracé_4197" data-name="Tracé 4197" d="M165.355,102.247h-3.079v9a12.781,12.781,0,0,0,1.609,6.2,7.785,7.785,0,0,0,3.356,3.186C164.585,113.022,165.355,102.247,165.355,102.247Z" transform="translate(-153.81 -93.012)" fill="#b56a4c"/>
    <path id="Tracé_4198" data-name="Tracé 4198" d="M144.827,45.331a5.425,5.425,0,0,0,1.431,5.141h12.314C149.829,50.472,146.258,47.394,144.827,45.331Z" transform="translate(-137.792 -41.237)" fill="#f5ad76"/>
    <path id="Union_51" data-name="Union 51" d="M880.767,1332.481h-1.672l-.705,7.766-1.533-.14.754-8.305-.4-1.2-1.471.98a.767.767,0,0,1-.427.129.782.782,0,0,1-.278-.051.772.772,0,0,1-.469-.531l-1.323-5.293-4.032.535a5.4,5.4,0,0,0-4.673,5.34v8.466H863v-8.465a6.95,6.95,0,0,1,6.009-6.866l5.535-.734v-2.756a8.6,8.6,0,0,1-2.144-2.538,13.582,13.582,0,0,1-1.674-5.665,3.079,3.079,0,0,1-.031-5.97v-3.64a6.218,6.218,0,0,1,.226-8.546l.77-.77a.769.769,0,0,1,1.184.116l1.311,1.966h8.7a4.147,4.147,0,0,1,3.733,2.343l.141.021a4.025,4.025,0,0,1,3.3,4.637l-.659,3.944a3.079,3.079,0,0,1-.272,5.9,13.588,13.588,0,0,1-1.674,5.665,8.6,8.6,0,0,1-2.141,2.536v2.759l5.534.734a6.949,6.949,0,0,1,6.009,6.866v8.464h-1.539v-8.465a5.4,5.4,0,0,0-4.674-5.34l-4.032-.535-1.324,5.292a.768.768,0,0,1-.469.531.745.745,0,0,1-.276.052.774.774,0,0,1-.427-.13l-1.471-.981-.4,1.2.755,8.3-1.533.14Zm.149-1.539.409-1.225-1.393-.928-1.393.929.408,1.225Zm-5.12-1.246,2.674-1.782-3.64-2.08Zm8.271,0,.965-3.86-3.638,2.079Zm-4.135-2.718,3.847-2.2v-2.44a8.6,8.6,0,0,1-3.847.908h0a8.6,8.6,0,0,1-3.845-.907v2.439Zm-7.7-14.738a12.042,12.042,0,0,0,1.512,5.829,7.074,7.074,0,0,0,6.182,3.637h0a7.078,7.078,0,0,0,6.184-3.637,12.047,12.047,0,0,0,1.511-5.83v-4.154L884.906,1304H872.235Zm16.931-.744a1.539,1.539,0,0,0,0-2.667Zm-19.239-1.334a1.541,1.541,0,0,0,.769,1.333v-2.665A1.54,1.54,0,0,0,869.927,1310.161Zm15.392-7.7a.771.771,0,0,1,.64.343l2.1,3.153.485-2.907a2.485,2.485,0,0,0-2.04-2.864,2.1,2.1,0,0,0-.416-.033h0a.769.769,0,0,1-.73-.526,2.607,2.607,0,0,0-2.472-1.784h-9.111a.771.771,0,0,1-.641-.343l-1.019-1.527-.106.105a4.673,4.673,0,0,0-.211,6.382Zm3.852,37.711v-6.157h1.539v6.157Zm-20.011,0v-6.157h1.54v6.157Zm9.232-22.318v-1.54h.9a4.465,4.465,0,0,0,3.173-1.314l1.088,1.089a6,6,0,0,1-4.261,1.765Zm2.309-3.079h0Zm-2.309,0a.769.769,0,0,1-.739-.981l1.539-5.387,1.48.423-1.26,4.406H880.7v1.539Zm4.622-5.387a1.539,1.539,0,1,1,1.539,1.54A1.539,1.539,0,0,1,883.013,1309.392Zm-9.236,0a1.539,1.539,0,1,1,1.539,1.54A1.54,1.54,0,0,1,873.778,1309.392Z" transform="translate(-863 -1294)" fill="#012f2d"/>
  </g>
  <rect id="Rectangle_426" data-name="Rectangle 426" width="52" height="52" fill="none"/>
</svg>
