<svg id="h-15" xmlns="http://www.w3.org/2000/svg" width="52" height="52.247" viewBox="0 0 52 52.247">
  <g id="_028-boy-5" data-name="028-boy-5" transform="translate(9 6)">
    <path id="Tracé_4212" data-name="Tracé 4212" d="M103.825,311.108l-.817-.054v-1.542A2.312,2.312,0,0,0,100.7,307.2H85.28a2.312,2.312,0,0,0-2.312,2.312v1.542l-.817.092A6.166,6.166,0,0,0,76.8,317.22V325.7h32.373V317.22A6.167,6.167,0,0,0,103.825,311.108Z" transform="translate(-76.03 -279.452)" fill="#e56b2e"/>
    <path id="Tracé_4213" data-name="Tracé 4213" d="M201.662,375.528a7.007,7.007,0,0,1-5.4-2.536v12.556h10.791V372.992A7.007,7.007,0,0,1,201.662,375.528Z" transform="translate(-184.705 -339.301)" fill="#ebebeb"/>
    <path id="Tracé_4214" data-name="Tracé 4214" d="M206.872,271.632a1.542,1.542,0,0,1-1.357-1.542v-5.557h-7.708V270.1a1.542,1.542,0,0,1-1.357,1.542h-.185v2.675a7.006,7.006,0,0,0,10.791,0v-2.659Z" transform="translate(-184.704 -240.639)" fill="#fedac6"/>
    <path id="Tracé_4215" data-name="Tracé 4215" d="M199.35,375.135a6.929,6.929,0,0,1-3.083-2.143v12.556h3.083Z" transform="translate(-184.705 -339.301)" fill="#dbdbdb"/>
    <path id="Tracé_4216" data-name="Tracé 4216" d="M76.8,364.494v8.479h3.083v-13.8A6.165,6.165,0,0,0,76.8,364.494Z" transform="translate(-76.029 -326.726)" fill="#d65b25"/>
    <path id="Tracé_4217" data-name="Tracé 4217" d="M341.333,149.692h1.542a2.312,2.312,0,0,0,2.312-2.312h0a2.312,2.312,0,0,0-2.312-2.312H342.1" transform="translate(-316.668 -131.964)" fill="#fedac6"/>
    <path id="Tracé_4218" data-name="Tracé 4218" d="M131.854,149.692h-1.542A2.312,2.312,0,0,1,128,147.379h0a2.312,2.312,0,0,1,2.312-2.312h.771" transform="translate(-122.605 -131.964)" fill="#f5c4b0"/>
    <path id="Tracé_4219" data-name="Tracé 4219" d="M148.04,16.241H132.625A4.624,4.624,0,0,1,128,11.616h3.083A2.312,2.312,0,0,1,128.771,9.3V8.533h11.562A7.708,7.708,0,0,1,148.04,16.241Z" transform="translate(-122.605 -7.762)" fill="#fecb66"/>
    <path id="Tracé_4220" data-name="Tracé 4220" d="M162.133,93.867v7.708l.185,2.4a8.333,8.333,0,0,0,9.014,7.59q.375-.032.745-.1a8.479,8.479,0,0,0,6.852-7.808l.162-2.089V93.867Z" transform="translate(-153.654 -85.388)" fill="#fedac6"/>
    <path id="Tracé_4221" data-name="Tracé 4221" d="M165.217,94.852V85.333h-3.083v8.479l.185,2.4a8.27,8.27,0,0,0,5.588,7.153l-1.434-3.183A11.947,11.947,0,0,1,165.217,94.852Z" transform="translate(-153.655 -77.625)" fill="#f5c4b0"/>
    <path id="Tracé_4222" data-name="Tracé 4222" d="M165.217,85.333a6.119,6.119,0,0,1-3.083,5.4v-5.4Z" transform="translate(-153.655 -77.625)" fill="#f5ad76"/>
    <path id="Tracé_4223" data-name="Tracé 4223" d="M318.817,98.492s-3.083-1.542-3.083-4.625h3.083Z" transform="translate(-293.381 -85.388)" fill="#fecb66"/>
    <path id="Tracé_4224" data-name="Tracé 4224" d="M221.042,283.912V281.6h-7.708v2.312C216.224,285.454,218.151,285.454,221.042,283.912Z" transform="translate(-200.231 -256.164)" fill="#f5c4b0"/>
    <path id="Tracé_4225" data-name="Tracé 4225" d="M128,42.667a5,5,0,0,0,4.625,4.625H147.27A107.06,107.06,0,0,1,128,42.667Z" transform="translate(-122.605 -38.813)" fill="#f5ad76"/>
    <path id="Tracé_4226" data-name="Tracé 4226" d="M149.782,310.568a1.653,1.653,0,0,1,.555-.578,1.634,1.634,0,0,0,.771-1.387v-1.4H147.9a2.968,2.968,0,0,0-2.467,4.625l.94,1.4A5.605,5.605,0,0,1,149.782,310.568Z" transform="translate(-138.004 -279.452)" fill="#d65b25"/>
    <path id="Union_52" data-name="Union 52" d="M947.372,1276.247v-8.479a5.41,5.41,0,0,0-4.681-5.347l-.334-.021a3.765,3.765,0,0,1-.231.4l-4,5.975v7.472h-1.541v-10.772a7.786,7.786,0,0,1-9.25,0v10.772h-1.541v-7.472l-4-5.973a3.764,3.764,0,0,1-.233-.4l-.385.026a5.4,5.4,0,0,0-4.63,5.342v8.479H915v-8.479a6.96,6.96,0,0,1,6.018-6.876l.149-.01q0-.09,0-.182a3.732,3.732,0,0,1,3.73-3.722h2.436v-1.268a9.081,9.081,0,0,1-4.33-6.239q-.072-.405-.107-.815l-.012-.157h-.175a3.083,3.083,0,1,1,0-6.166h0v-3.6a5.4,5.4,0,0,1-3.083-4.875.772.772,0,0,1,.771-.771h.413a3.065,3.065,0,0,1-.413-1.541v-.771a.77.77,0,0,1,.77-.77h11.561a8.488,8.488,0,0,1,8.479,8.478v3.854a3.083,3.083,0,0,1,0,6.167h-.175a9.239,9.239,0,0,1-4.449,7.185v1.293h2.435a3.735,3.735,0,0,1,3.731,3.731q0,.086,0,.172l.1.007a6.969,6.969,0,0,1,6.068,6.88v8.479Zm-10.79-16.788a.769.769,0,0,0,.639.77h.131a.77.77,0,0,1,.77.771v5l2.721-4.061a2.212,2.212,0,0,0-1.826-3.425h-2.435Zm-13.874,1.249a2.177,2.177,0,0,0,.365,1.237l2.719,4.058v-5a.77.77,0,0,1,.77-.77h.131a.77.77,0,0,0,.639-.766v-.946H924.9A2.191,2.191,0,0,0,922.708,1260.708Zm9.249,4.747a6.217,6.217,0,0,0,4.625-2.052v-1.753a2.31,2.31,0,0,1-1.542-2.2v-3.026a9.275,9.275,0,0,1-1.472.413,9.178,9.178,0,0,1-1.6.143,9.055,9.055,0,0,1-3.091-.544v3.021a2.308,2.308,0,0,1-1.542,2.192v1.753A6.219,6.219,0,0,0,931.957,1265.456Zm-7.708-19.269.183,2.345c.018.22.049.446.087.669a7.571,7.571,0,0,0,8.767,6.124,7.7,7.7,0,0,0,6.217-7.1l.163-2.1v-2.58a6.434,6.434,0,0,1-3.028-4.3h-9.361a6.434,6.434,0,0,1-3.027,4.3Zm16.957.77a1.542,1.542,0,0,0,0-3.083v2.313l-.059.77Zm-20.04-1.542a1.543,1.543,0,0,0,1.542,1.542h.056l-.055-.711v-2.372h0A1.543,1.543,0,0,0,921.166,1245.416Zm18.5-3.8v-2.362h-1.46A4.558,4.558,0,0,0,939.666,1241.612Zm-15.416,0a4.557,4.557,0,0,0,1.459-2.361h-.689a5.418,5.418,0,0,1-.77-.055Zm.77-3.9h14.6a6.946,6.946,0,0,0-6.894-6.166h-10.79a1.543,1.543,0,0,0,1.541,1.541.771.771,0,1,1,0,1.542h-2.234A3.86,3.86,0,0,0,925.02,1237.708Zm13.874,36.227v-4.625a.771.771,0,0,1,1.542,0v4.625a.771.771,0,0,1-1.542,0Zm-15.416,0v-4.625a.771.771,0,0,1,1.542,0v4.625a.771.771,0,0,1-1.542,0Zm6.937-22.352v-1.542h.131a4.472,4.472,0,0,0,3.178-1.317l1.09,1.091a6,6,0,0,1-4.268,1.768Zm0-3.083a.77.77,0,0,1-.716-1.057l1.541-3.854,1.432.572-1.119,2.8h1.174v1.542Zm4.625-3.854a1.541,1.541,0,1,1,1.541,1.542A1.541,1.541,0,0,1,935.041,1244.645Zm-9.249,0a1.541,1.541,0,1,1,1.541,1.542A1.541,1.541,0,0,1,925.791,1244.645Z" transform="translate(-915 -1230)" fill="#012f2d"/>
  </g>
  <rect id="Rectangle_427" data-name="Rectangle 427" width="52" height="52" fill="none"/>
</svg>
