<svg id="h-16" xmlns="http://www.w3.org/2000/svg" width="52" height="52.247" viewBox="0 0 52 52.247">
  <g id="_029-boy-4" data-name="029-boy-4" transform="translate(9.188 6)">
    <path id="Tracé_4244" data-name="Tracé 4244" d="M103.819,361.011l-4.871-.647h0a7.607,7.607,0,0,1-11.932,0h0l-4.871.647a6.166,6.166,0,0,0-5.349,6.112v6.937h32.373v-6.937A6.166,6.166,0,0,0,103.819,361.011Z" transform="translate(-76.024 -327.813)" fill="#74a32e"/>
    <path id="Tracé_4245" data-name="Tracé 4245" d="M201.88,304.24h0a1.541,1.541,0,0,1-1.341-1.542v-4.031h-9.249v4.047a1.541,1.541,0,0,1-1.341,1.542h0a7.606,7.606,0,0,0,11.932-.015Z" transform="translate(-178.957 -271.69)" fill="#fedac6"/>
    <path id="Tracé_4246" data-name="Tracé 4246" d="M214.045,302.074v-3.407H204.8v3.407C208.265,303.7,210.577,303.7,214.045,302.074Z" transform="translate(-192.463 -271.69)" fill="#f5c4b0"/>
    <g id="Groupe_1752" data-name="Groupe 1752" transform="translate(6.166 6.937)">
      <path id="Tracé_4247" data-name="Tracé 4247" d="M342.1,153.6h-.771v4.625h.771a2.312,2.312,0,0,0,0-4.625Z" transform="translate(-322.83 -146.663)" fill="#fedac6"/>
      <path id="Tracé_4248" data-name="Tracé 4248" d="M138.841,153.6a2.312,2.312,0,0,0,0,4.625h.771V153.6Z" transform="translate(-136.529 -146.663)" fill="#fedac6"/>
      <path id="Tracé_4249" data-name="Tracé 4249" d="M179.084,82.2v8.479a4.623,4.623,0,0,1-1.141,3.083l-3.33,3.769a3.082,3.082,0,0,1-2.312,1.048h-3.376a3.082,3.082,0,0,1-2.312-1.048l-3.345-3.769a4.623,4.623,0,0,1-1.141-3.083V80.654a62.783,62.783,0,0,0,6.937-1.542,51.3,51.3,0,0,0,5.4-2.312,30.6,30.6,0,0,0,2.312,3.083Z" transform="translate(-159.815 -76.8)" fill="#fedac6"/>
    </g>
    <path id="Tracé_4250" data-name="Tracé 4250" d="M76.8,381.483v6.937h3.083V376.149A6.166,6.166,0,0,0,76.8,381.483Z" transform="translate(-76.025 -342.173)" fill="#688e26"/>
    <path id="Tracé_4251" data-name="Tracé 4251" d="M145.723,11.617c0-1.464-1.125-3.083-6.166-3.083-9.249,0-11.562,9.249-11.562,9.249,7.037,1.172,13.18-1.665,15.716-3.083.586,1.349,2.027,4.833,4.324,5.4l.455-4.571A3.646,3.646,0,0,0,145.723,11.617Z" transform="translate(-122.6 -7.763)" fill="#a15d30"/>
    <path id="Tracé_4252" data-name="Tracé 4252" d="M165.513,120.182l-.3-9.249-3.083.771v9.434a6.166,6.166,0,0,0,2.1,4.625s3.137,3.438,3.592,3.669l-1.7-4.833A10.939,10.939,0,0,1,165.513,120.182Z" transform="translate(-153.65 -100.913)" fill="#f5c4b0"/>
    <path id="Tracé_4253" data-name="Tracé 4253" d="M129.484,73.387A14.1,14.1,0,0,0,128,76.778c6.613,1.1,12.633-1.6,15.416-3.083C136.475,75.237,132.621,74.466,129.484,73.387Z" transform="translate(-122.6 -66.758)" fill="#8f4f24"/>
    <path id="Union_54" data-name="Union 54" d="M948.727,1212.247h-1.542v-6.937a5.415,5.415,0,0,0-4.681-5.333l-4.461-.594a8.385,8.385,0,0,1-12.559-.014l-4.451.591a5.413,5.413,0,0,0-4.68,5.349v6.937h-1.542v-6.937a6.96,6.96,0,0,1,6.018-6.876l4.872-.647a.773.773,0,0,0,.672-.771v-3.947l-2.506-2.867a5.4,5.4,0,0,1-1.332-3.6v-1.429a3.083,3.083,0,0,1,0-5.979v-2.156a20.919,20.919,0,0,1-2.454-.261.771.771,0,0,1-.621-.948c.024-.1,2.57-9.832,12.309-9.832,5.113,0,6.624,1.667,6.89,3.274a4.439,4.439,0,0,1,2.811,4.564l-.452,4.543v.048a3.084,3.084,0,0,1,0,5.972v2.248a5.379,5.379,0,0,1-1.332,3.59l-2.521,2.854v3.931a.774.774,0,0,0,.671.778l4.872.647a6.965,6.965,0,0,1,6.019,6.859v6.939Zm-12.715-13.055q.228-.181.441-.381a2.313,2.313,0,0,1-.828-1.793v-2.361a3.859,3.859,0,0,1-2.157.665H930.09a3.86,3.86,0,0,1-2.174-.674v2.362a2.3,2.3,0,0,1-.84,1.8A6.85,6.85,0,0,0,936.012,1199.192Zm-11.934-12.581a3.86,3.86,0,0,0,.95,2.577l3.329,3.806a2.31,2.31,0,0,0,1.733.786h3.375a2.315,2.315,0,0,0,1.733-.787l3.33-3.771a3.841,3.841,0,0,0,.948-2.566v-7.774c-1.947-.849-3.224-3.32-3.924-4.871a27.085,27.085,0,0,1-11.475,3.049Zm-2.328-4.424a1.542,1.542,0,0,0,.787,1.343v-2.687A1.542,1.542,0,0,0,921.749,1182.187Zm19.269.564a1.541,1.541,0,0,0,0-2.67Zm-4.848-10.544a.77.77,0,0,1,.461.423l.059.137c.435,1,1.476,3.407,2.9,4.415l.348-3.5a2.887,2.887,0,0,0-2.182-3.083.771.771,0,0,1-.589-.749c0-1.911-2.935-2.313-5.4-2.313-7.038,0-9.766,5.671-10.553,7.844a24.674,24.674,0,0,0,14.332-3.12.765.765,0,0,1,.622-.059Zm4.849,40.04v-6.166h1.542v6.166Zm-20.04,0v-6.166h1.542v6.166Zm10.606-23.894h-2.128v-1.542h2.13a6.56,6.56,0,0,0,2.92-.689l.69,1.379a8.111,8.111,0,0,1-3.611.852Zm-1.356-3.053a.772.772,0,0,1-.766-.866l.771-6.167,1.529.192-.662,5.3h1.44v1.541Zm3.854-5.4a1.542,1.542,0,1,1,1.542,1.542A1.541,1.541,0,0,1,934.082,1179.9Zm-8.479,0a1.542,1.542,0,1,1,1.542,1.542A1.541,1.541,0,0,1,925.6,1179.9Z" transform="translate(-914.813 -1166)" fill="#012f2d"/>
  </g>
  <rect id="Rectangle_428" data-name="Rectangle 428" width="52" height="52" fill="none"/>
</svg>
