<svg id="h-17_1" xmlns="http://www.w3.org/2000/svg" width="52" height="52.247" viewBox="0 0 52 52.247">
  <g id="_030-boy-3" data-name="030-boy-3" transform="translate(9 6)">
    <path id="Tracé_4263" data-name="Tracé 4263" d="M103.824,325.091l-6.213-.825L92.986,331.2l-4.625-6.937-6.213.825A6.166,6.166,0,0,0,76.8,331.2v10.02h32.373V331.2A6.167,6.167,0,0,0,103.824,325.091Z" transform="translate(-76.029 -294.976)" fill="#2e6aa3"/>
    <path id="Tracé_4264" data-name="Tracé 4264" d="M214.049,262.166V256H204.8v6.166l4.625,6.937Z" transform="translate(-192.468 -232.877)" fill="#c6845f"/>
    <path id="Tracé_4265" data-name="Tracé 4265" d="M76.8,346.667v10.082h3.083V341.333A6.166,6.166,0,0,0,76.8,346.667Z" transform="translate(-76.029 -310.502)" fill="#245e8f"/>
    <rect id="Rectangle_395" data-name="Rectangle 395" width="3.083" height="5.395" transform="translate(3.854 40.852)" fill="#c6845f"/>
    <rect id="Rectangle_396" data-name="Rectangle 396" width="3.083" height="5.395" transform="translate(0.771 40.852)" fill="#b56a4c"/>
    <rect id="Rectangle_397" data-name="Rectangle 397" width="6.166" height="5.395" transform="translate(26.977 40.852)" fill="#c6845f"/>
    <path id="Tracé_4266" data-name="Tracé 4266" d="M214.049,260.948V256H204.8v4.948C208.269,262.575,210.581,262.575,214.049,260.948Z" transform="translate(-192.468 -232.877)" fill="#b56a4c"/>
    <path id="Tracé_4267" data-name="Tracé 4267" d="M342.1,128h-.771v4.625h.771a2.312,2.312,0,1,0,0-4.625Z" transform="translate(-316.669 -116.438)" fill="#c6845f"/>
    <path id="Tracé_4268" data-name="Tracé 4268" d="M136.533,138.845a2.312,2.312,0,0,0,2.312,2.312h.771v-4.625h-.771A2.312,2.312,0,0,0,136.533,138.845Z" transform="translate(-130.367 -124.201)" fill="#c6845f"/>
    <path id="Tracé_4269" data-name="Tracé 4269" d="M176.87,59.733H164.307l-2.174,7.292.64,6.868a3.856,3.856,0,0,0,.925,2.2l3.854,4.432a2.311,2.311,0,0,0,1.742.771h2.528a2.311,2.311,0,0,0,1.742-.771l3.854-4.432a3.856,3.856,0,0,0,.925-2.2l.748-7.222.185-.547Z" transform="translate(-153.654 -54.338)" fill="#c6845f"/>
    <g id="Groupe_1753" data-name="Groupe 1753" transform="translate(6.937 0.771)">
      <path id="Union_60" data-name="Union 60" d="M857.6,1112.791l-1.164-3.484a2.627,2.627,0,0,1,2.489-3.452h.848l-2.174,7.291Zm14.737-6.936h.894a2.626,2.626,0,0,1,2.489,3.452l-.978,2.937Zm-11.654,0a4.625,4.625,0,0,1-4.625-4.625h11.561a4.625,4.625,0,0,1,4.625,4.625Z" transform="translate(-856.063 -1101.229)" fill="#fecb66"/>
    </g>
    <g id="Groupe_1754" data-name="Groupe 1754" transform="translate(8.788 0.154)">
      <path id="Tracé_4273" data-name="Tracé 4273" d="M253.678,7.138a7.593,7.593,0,0,0-2.8-4.2l.925-1.233a9.147,9.147,0,0,1,3.368,5.052Z" transform="translate(-243.173 -1.707)" fill="#f5b776"/>
      <path id="Tracé_4274" data-name="Tracé 4274" d="M211.02,7.138a7.594,7.594,0,0,0-2.8-4.2l.924-1.234a9.143,9.143,0,0,1,3.368,5.052Z" transform="translate(-204.368 -1.707)" fill="#f5b776"/>
      <path id="Tracé_4275" data-name="Tracé 4275" d="M168.353,7.138a7.593,7.593,0,0,0-2.8-4.2l.924-1.234a9.143,9.143,0,0,1,3.368,5.052Z" transform="translate(-165.555 -1.707)" fill="#f5b776"/>
    </g>
    <path id="Tracé_4276" data-name="Tracé 4276" d="M166.288,72.066l-.3-12.333h-1.542l-2.312,6.937.771,6.351a6.166,6.166,0,0,0,2.1,4.625s3.137,3.438,3.592,3.669l-1.7-4.833A10.939,10.939,0,0,1,166.288,72.066Z" transform="translate(-153.654 -54.338)" fill="#b56a4c"/>
    <path id="Union_59" data-name="Union 59" d="M895.373,1148.247v-4.625h-4.625v4.625h-1.542v-7.708h1.542v1.542h4.625v-3.854a5.411,5.411,0,0,0-4.681-5.348l-3.978-.529-1.374,7.555a.772.772,0,0,1-.365.526.783.783,0,0,1-.393.107.759.759,0,0,1-.244-.041l-3.61-1.2v5.1h-1.542v-5.1l-3.61,1.2a.74.74,0,0,1-.244.041.773.773,0,0,1-.759-.634l-1.374-7.556-3.978.529a5.412,5.412,0,0,0-4.68,5.348v3.855h4.624v-1.542h1.542v7.708h-1.542v-4.625h-4.624v4.625H863v-10.021a6.96,6.96,0,0,1,6.018-6.876l5.543-.736v-3.949h.028l-2.074-2.385a4.6,4.6,0,0,1-1.112-2.647l-.184-1.916a3.083,3.083,0,0,1-.755-5.984l-.882-2.639a3.4,3.4,0,0,1,1.648-4.08,5.389,5.389,0,0,1-2.065-4.243.772.772,0,0,1,.771-.771H881.5a5.4,5.4,0,0,1,5.341,4.625h.271a3.4,3.4,0,0,1,3.22,4.466l-.655,1.96a3.083,3.083,0,0,1-.894,5.887l-.25,2.689a4.589,4.589,0,0,1-1.109,2.636l-2.094,2.4h.023v3.949l5.543.736a6.96,6.96,0,0,1,6.018,6.877v10.02Zm-11.39-9.491,1.2-6.609-.229-.03-3.8,5.7Zm-8.05,0,2.824-.941-3.8-5.7-.226.03Zm4.025-1.919,3.854-5.781v-2.648l-.266.306a3.091,3.091,0,0,1-2.3,1.035h-2.57a3.08,3.08,0,0,1-2.292-1.028l-.274-.315v2.651Zm-7.018-15.34a3.071,3.071,0,0,0,.742,1.773l3.852,4.431a1.508,1.508,0,0,0,1.155.506h2.547a1.544,1.544,0,0,0,1.156-.514l3.87-4.44a3.053,3.053,0,0,0,.738-1.761l.668-7.192v-.6l-2.077-5.538H874.347l-2.086,6.255Zm-3-4.852a1.543,1.543,0,0,0,1.131,1.485l-.275-2.867A1.543,1.543,0,0,0,869.937,1116.645Zm18.993.689a1.542,1.542,0,0,0,.26-2.8Zm-16.7-9.074a1.859,1.859,0,0,0-1.181,2.346l.432,1.292,1.244-3.73A1.871,1.871,0,0,0,872.227,1108.26Zm16.3,3.359.339-1.015a1.856,1.856,0,0,0-1.632-2.433Zm-3.256-4.995a3.861,3.861,0,0,0-3.776-3.083H870.786a3.859,3.859,0,0,0,3.776,3.083Zm-9.172,35.842a1.156,1.156,0,1,1,1.156,1.156A1.158,1.158,0,0,1,876.1,1142.466Zm.77,0a.386.386,0,1,0,.386-.385A.386.386,0,0,0,876.874,1142.466Zm.771-18.885v-1.542h3.538a1.867,1.867,0,0,0,1.312-.544l1.091,1.089a3.372,3.372,0,0,1-2.4,1Zm.77-3.083a.771.771,0,0,1-.758-.911l1.025-5.588,1.516.278-.859,4.679h1.387v1.542Zm3.854-5.4a1.542,1.542,0,1,1,1.542,1.542A1.542,1.542,0,0,1,882.269,1115.1Zm-8.478,0a1.542,1.542,0,1,1,1.542,1.542A1.542,1.542,0,0,1,873.791,1115.1Z" transform="translate(-863 -1102)" fill="#012f2d"/>
  </g>
  <rect id="Rectangle_429" data-name="Rectangle 429" width="52" height="52" fill="none"/>
</svg>
