<svg id="h-18_1" xmlns="http://www.w3.org/2000/svg" width="52" height="52.096" viewBox="0 0 52 52.096">
  <g id="_031-boy-2" data-name="031-boy-2" transform="translate(9 5.849)">
    <path id="Tracé_4289" data-name="Tracé 4289" d="M349.867,149.692h.771a2.312,2.312,0,0,0,2.312-2.312h0a2.312,2.312,0,0,0-2.312-2.312h-.771" transform="translate(-324.431 -131.964)" fill="#c6845f"/>
    <path id="Tracé_4290" data-name="Tracé 4290" d="M131.083,149.692h-.771A2.312,2.312,0,0,1,128,147.379h0a2.312,2.312,0,0,1,2.312-2.312h.771" transform="translate(-122.605 -131.964)" fill="#b56a4c"/>
    <path id="Tracé_4291" data-name="Tracé 4291" d="M162.133,87.645v6.166l.185,2.4a8.333,8.333,0,0,0,9.014,7.59q.375-.032.745-.1a8.479,8.479,0,0,0,6.852-7.808l.162-2.089V87.645l-3.854-2.312Z" transform="translate(-153.654 -77.625)" fill="#c6845f"/>
    <path id="Tracé_4292" data-name="Tracé 4292" d="M165.987,112.442v-9.018l-3.854.678v6.166l.185,2.4a8.293,8.293,0,0,0,7.207,7.538l-1.542-2A9.363,9.363,0,0,1,165.987,112.442Z" transform="translate(-153.654 -94.082)" fill="#b56a4c"/>
    <path id="Tracé_4293" data-name="Tracé 4293" d="M144.186,10.075h0a2.784,2.784,0,0,0-2.5-1.542H128a3.083,3.083,0,0,0,3.083,3.083H128a3.083,3.083,0,0,0,3.083,3.083H128a3.083,3.083,0,0,0,3.083,3.083h3.083c3.7,0,7.608-1.4,10.02-2.312a8.375,8.375,0,0,0,3.854,2.312V13.928A3.854,3.854,0,0,0,144.186,10.075Z" transform="translate(-122.605 -7.762)" fill="#a15d30"/>
    <path id="Tracé_4294" data-name="Tracé 4294" d="M128.427,80.64a3.083,3.083,0,0,0,3.045,2.736h3.083c2.574,0,7.816-1.6,10.02-2.312C139.041,81.195,131.017,81.172,128.427,80.64Z" transform="translate(-122.993 -73.356)" fill="#8f4f24"/>
    <g id="Groupe_1755" data-name="Groupe 1755" transform="translate(8.479 13.103)">
      <path id="Tracé_4295" data-name="Tracé 4295" d="M165.6,150.462h0a3.461,3.461,0,0,1-3.469-3.453v-1.942h6.937v1.927a3.461,3.461,0,0,1-3.453,3.469Z" transform="translate(-162.133 -145.067)" fill="#ebebeb"/>
      <path id="Tracé_4296" data-name="Tracé 4296" d="M276.536,150.462h0a3.461,3.461,0,0,1-3.469-3.453v-1.942H280v1.927a3.461,3.461,0,0,1-3.453,3.469Z" transform="translate(-263.047 -145.067)" fill="#ebebeb"/>
    </g>
    <path id="Tracé_4297" data-name="Tracé 4297" d="M188,292.391a7.007,7.007,0,0,0,6.444-4.247l.347-.771-1.58-.185a1.542,1.542,0,0,1-1.357-1.542V281.6h-7.708v4.023a1.542,1.542,0,0,1-1.357,1.542l-1.542.185.347.771A7.007,7.007,0,0,0,188,292.391Z" transform="translate(-171.043 -256.164)" fill="#c6845f"/>
    <path id="Tracé_4298" data-name="Tracé 4298" d="M103.825,345.651l-4.047-.478-.347.771a7.014,7.014,0,0,1-12.887,0l-.347-.771-4.047.478a6.166,6.166,0,0,0-5.349,6.112v8.479h32.373v-8.479A6.167,6.167,0,0,0,103.825,345.651Z" transform="translate(-76.03 -313.995)" fill="#3cacde"/>
    <path id="Tracé_4299" data-name="Tracé 4299" d="M76.8,364.417V372.9h3.083V359.083A6.166,6.166,0,0,0,76.8,364.417Z" transform="translate(-76.029 -326.648)" fill="#329ac7"/>
    <rect id="Rectangle_404" data-name="Rectangle 404" width="6.166" height="3.854" transform="translate(0.771 42.393)" fill="#c6845f"/>
    <g id="Groupe_1756" data-name="Groupe 1756" transform="translate(0.771 25.436)">
      <rect id="Rectangle_405" data-name="Rectangle 405" width="3.083" height="3.854" transform="translate(0 16.957)" fill="#b56a4c"/>
      <path id="Tracé_4300" data-name="Tracé 4300" d="M221.042,283.912V281.6h-7.708v2.312C216.224,285.454,218.151,285.454,221.042,283.912Z" transform="translate(-201.001 -281.6)" fill="#b56a4c"/>
    </g>
    <rect id="Rectangle_406" data-name="Rectangle 406" width="6.166" height="3.854" transform="translate(26.977 42.393)" fill="#c6845f"/>
    <path id="Union_62" data-name="Union 62" d="M896.914,1084.4h-1.541v-3.083h-4.625v3.083h-1.542v-6.166h1.542v1.541h4.625v-3.854a5.415,5.415,0,0,0-4.681-5.341l-3.469-.409-.114.266a7.769,7.769,0,0,1-7.148,4.713h-.009a7.765,7.765,0,0,1-7.147-4.714l-.117-.272-3.479.409a5.41,5.41,0,0,0-4.668,5.347v3.854h4.624v-1.541h1.542v6.166h-1.542v-3.083h-4.624v3.083H863v-8.479a6.961,6.961,0,0,1,6.018-6.876l5.638-.664a.771.771,0,0,0,.676-.771v-3.738a9.2,9.2,0,0,1-1.23-.875,9.04,9.04,0,0,1-3.207-6.186l-.012-.158h-.176a3.083,3.083,0,0,1,0-6.167h0v-1.618a3.861,3.861,0,0,1-3.084-3.777.772.772,0,0,1,.771-.771h0a3.838,3.838,0,0,1-.773-2.312.772.772,0,0,1,.771-.771h0a3.838,3.838,0,0,1-.773-2.312.771.771,0,0,1,.771-.77h13.7a3.528,3.528,0,0,1,2.943,1.563,4.631,4.631,0,0,1,4.17,4.6v6.166a3.083,3.083,0,1,1,0,6.167h-.175a9.236,9.236,0,0,1-4.449,7.185v3.775a.771.771,0,0,0,.678.777l5.625.662a6.966,6.966,0,0,1,6.03,6.87v8.479Zm-16.961-10.791h.007a6.23,6.23,0,0,0,5.663-3.626l-.547-.064a2.311,2.311,0,0,1-2.037-2.313v-3.026a9.272,9.272,0,0,1-1.472.413c-.282.05-.553.086-.825.11s-.529.034-.793.034a9.038,9.038,0,0,1-3.075-.536v3.005a2.311,2.311,0,0,1-2.035,2.307l-.552.065A6.226,6.226,0,0,0,879.953,1073.606Zm-7.521-16.924a7.574,7.574,0,0,0,8.178,6.88c.228-.02.453-.05.677-.089a7.7,7.7,0,0,0,6.2-6.88,4.2,4.2,0,0,1-2.5.825h-.025a4.236,4.236,0,0,1-4.231-4.222v-1.174h-.863l-.577,4.625h1.439v1.542h-2.312a.772.772,0,0,1-.765-.867l.122-.979a4.2,4.2,0,0,1-2.809,1.075h-.024a4.2,4.2,0,0,1-2.514-.827Zm9.838-3.5a2.7,2.7,0,0,0,2.689,2.7h.024a2.689,2.689,0,0,0,2.682-2.7v-1.158h-1.748a1.542,1.542,0,1,1-2.67,0h-.977Zm-10.021,0a2.7,2.7,0,0,0,2.69,2.7h.023a2.692,2.692,0,0,0,2.682-2.7v-1.157h-.977a1.542,1.542,0,1,1-2.67,0h-1.748Zm16.957,1.927a1.542,1.542,0,1,0,0-3.083v2.312l-.059.771Zm-20.04-1.542a1.543,1.543,0,0,0,1.542,1.542h.057l-.055-.712v-1.071q0-.064,0-.127v-1.174A1.543,1.543,0,0,0,869.166,1053.566Zm18.5-3.083v-1.744a9.137,9.137,0,0,1-3.277-1.985,29.2,29.2,0,0,1-9.827,2.189h-2.312v1.541h15.416Zm-16.187-3.082h3.083c3.748,0,7.8-1.529,9.749-2.264a.77.77,0,0,1,.831.192,7.6,7.6,0,0,0,2.524,1.758v-2.769a3.087,3.087,0,0,0-3.083-3.083.77.77,0,0,1-.69-.427,2.045,2.045,0,0,0-1.8-1.115H869.3a2.316,2.316,0,0,0,2.181,1.542.771.771,0,0,1,0,1.542H869.3a2.316,2.316,0,0,0,2.181,1.542.771.771,0,0,1,0,1.542H869.3A2.316,2.316,0,0,0,871.479,1047.4Zm6.936,13.873v-1.542h.131a4.472,4.472,0,0,0,3.178-1.316l1.09,1.091a6,6,0,0,1-4.268,1.767Zm2.312-3.082h0Z" transform="translate(-863 -1038.151)" fill="#012f2d"/>
  </g>
  <rect id="Rectangle_430" data-name="Rectangle 430" width="52" height="52" fill="none"/>
</svg>
