<svg id="h-19" xmlns="http://www.w3.org/2000/svg" width="52" height="52.096" viewBox="0 0 52 52.096">
  <g id="_032-boy-1" data-name="032-boy-1" transform="translate(8 5.849)">
    <path id="Tracé_4312" data-name="Tracé 4312" d="M185.013,310.5a7.249,7.249,0,0,0,6.666-4.393l.383-.885-.877-.12a1.594,1.594,0,0,1-1.387-1.595v-3.373h-9.568v3.421a1.594,1.594,0,0,1-1.387,1.595l-.877.12.383.885A7.248,7.248,0,0,0,185.013,310.5Z" transform="translate(-167.471 -273.028)" fill="#fedac6"/>
    <path id="Tracé_4313" data-name="Tracé 4313" d="M211.735,304.125a1.468,1.468,0,0,1-.1-.526v-3.461h-9.568v3.421a1.467,1.467,0,0,1-.1.526A10.8,10.8,0,0,0,211.735,304.125Z" transform="translate(-189.313 -273.028)" fill="#f5c4b0"/>
    <path id="Tracé_4314" data-name="Tracé 4314" d="M99.956,357.553l-5.542-.742-.383.885a7.256,7.256,0,0,1-13.332,0l-.383-.885-5.542.742a4.785,4.785,0,0,0-4.154,4.736v8.54H104.11v-8.54A4.785,4.785,0,0,0,99.956,357.553Z" transform="translate(-69.824 -324.582)" fill="#e56b2e"/>
    <path id="Tracé_4315" data-name="Tracé 4315" d="M73.81,367.669a4.784,4.784,0,0,0-3.189,4.5v8.54H73.81Z" transform="translate(-69.824 -334.459)" fill="#d65b25"/>
    <path id="Tracé_4316" data-name="Tracé 4316" d="M345.072,150.069h-.8v4.784h.8a2.392,2.392,0,1,0,0-4.784Z" transform="translate(-318.76 -136.514)" fill="#fedac6"/>
    <path id="Tracé_4317" data-name="Tracé 4317" d="M132.414,152.461a2.392,2.392,0,0,0,2.392,2.392h.8v-4.784h-.8A2.392,2.392,0,0,0,132.414,152.461Z" transform="translate(-126.035 -136.514)" fill="#f5c4b0"/>
    <path id="Tracé_4318" data-name="Tracé 4318" d="M172.45,78.645h-8.723a7.29,7.29,0,0,1-1.021-.08,7.507,7.507,0,0,1-3.811,4.067v10.2a4.782,4.782,0,0,0,1.18,3.189l3.445,3.939a3.188,3.188,0,0,0,2.392,1.084h3.476a3.188,3.188,0,0,0,2.392-1.084l3.445-3.939a4.783,4.783,0,0,0,1.18-3.189v-10.2C173.447,81.834,172.45,78.645,172.45,78.645Z" transform="translate(-150.124 -71.469)" fill="#fedac6"/>
    <path id="Tracé_4319" data-name="Tracé 4319" d="M162.085,93.131a8.04,8.04,0,0,1-3.189,2.751v10.2a4.782,4.782,0,0,0,1.18,3.189l2.009,2.249V93.131Z" transform="translate(-150.124 -84.719)" fill="#f5c4b0"/>
    <path id="Tracé_4320" data-name="Tracé 4320" d="M152.348,15.206h0a6.379,6.379,0,0,0-6.379-6.379H132.414a7.28,7.28,0,0,0,7.224,6.379Z" transform="translate(-126.035 -8.03)" fill="#fecb66"/>
    <g id="Groupe_1757" data-name="Groupe 1757" transform="translate(6.379 0.797)">
      <path id="Union_64" data-name="Union 64" d="M925.568,979.732h-8.723a7.317,7.317,0,0,1-1.023-.072,7.512,7.512,0,0,1-3.809,4.059v-3.987a6.578,6.578,0,0,1,.2-1.595h.086a7.267,7.267,0,0,1-2.677-4.784h.717c1.675,1.595,6.26,5.16,16.027,6.379h3.19v3.987A6.339,6.339,0,0,1,925.568,979.732Z" transform="translate(-909.621 -973.353)" fill="#f5ad76"/>
    </g>
    <path id="Union_63" data-name="Union 63" d="M949.489,1020.4v-8.54a3.993,3.993,0,0,0-3.495-3.961l-4.918-.664-.136.315a8.038,8.038,0,0,1-7.4,4.875h-.009a8.033,8.033,0,0,1-7.393-4.876l-.135-.315-4.91.663a3.994,3.994,0,0,0-3.5,3.961v8.541H916v-8.54a5.589,5.589,0,0,1,4.892-5.543l6.371-.86a.8.8,0,0,0,.7-.8v-2.445l-2.61-2.984a5.584,5.584,0,0,1-1.377-3.721v-2.319a3.19,3.19,0,0,1,0-6.177v-5.683a7.374,7.374,0,0,1,.13-1.37,8.057,8.057,0,0,1-2.515-4.91.8.8,0,0,1,.79-.9h13.556a7.184,7.184,0,0,1,7.176,7.177.8.8,0,0,1-.033.229V987a3.19,3.19,0,0,1,0,6.193v2.317a5.57,5.57,0,0,1-1.376,3.713l-2.577,2.947v2.477a.8.8,0,0,0,.693.8l6.382.861a5.589,5.589,0,0,1,4.885,5.543v8.539Zm-15.952-9.569h.007a6.446,6.446,0,0,0,5.893-3.823,2.392,2.392,0,0,1-1.909-2.364v-.829a3.976,3.976,0,0,1-2.264.709h-3.477a3.981,3.981,0,0,1-2.233-.685v.813a2.39,2.39,0,0,1-1.909,2.356A6.444,6.444,0,0,0,933.538,1010.829Zm-7.969-15.317a4,4,0,0,0,.984,2.666l3.443,3.938a2.391,2.391,0,0,0,1.793.812h3.475a2.394,2.394,0,0,0,1.794-.814l3.443-3.937a3.98,3.98,0,0,0,.982-2.658v-9.639a7.056,7.056,0,0,1-3.7-3.755H929.6q-.245,0-.486-.015a8.247,8.247,0,0,1-3.549,3.694Zm17.509-4.014a1.594,1.594,0,0,0,0-2.8Zm-19.9-1.4a1.6,1.6,0,0,0,.8,1.381v-2.761A1.6,1.6,0,0,0,923.176,990.1Zm18.306-5.988v-1.986h-1.906A5.486,5.486,0,0,0,941.482,984.11Zm-15.914-2.782v2.586a6.454,6.454,0,0,0,1.9-2.075,8.051,8.051,0,0,1-1.9-.793Q925.568,981.186,925.568,981.328Zm4.035-.8h11.857a5.591,5.591,0,0,0-5.525-4.784H923.346A6.5,6.5,0,0,0,929.6,980.529Zm4,16.745h-2.45v-1.595h2.456a4.727,4.727,0,0,0,3.363-1.365l1.12,1.136a6.29,6.29,0,0,1-4.446,1.824Zm-1.652-3.157a.8.8,0,0,1-.792-.9l.8-6.379,1.582.2-.685,5.483h1.49v1.595Zm3.987-5.582a1.595,1.595,0,1,1,1.595,1.595A1.595,1.595,0,0,1,935.934,988.535Zm-8.771,0a1.595,1.595,0,1,1,1.595,1.595A1.6,1.6,0,0,1,927.163,988.535Z" transform="translate(-916 -974.151)" fill="#012f2d"/>
  </g>
  <rect id="Rectangle_431" data-name="Rectangle 431" width="52" height="52" fill="none"/>
</svg>
