<svg id="h-19_1" xmlns="http://www.w3.org/2000/svg" width="52" height="52.096" viewBox="0 0 52 52.096">
  <g id="_032-boy-1" data-name="032-boy-1" transform="translate(8 5.849)">
    <path id="Tracé_4312" data-name="Tracé 4312" d="M185.013,310.5a7.249,7.249,0,0,0,6.666-4.393l.383-.885-.877-.12a1.594,1.594,0,0,1-1.387-1.595v-3.373h-9.568v3.421a1.594,1.594,0,0,1-1.387,1.595l-.877.12.383.885A7.248,7.248,0,0,0,185.013,310.5Z" transform="translate(-167.471 -273.028)" fill="#c6845f"/>
    <path id="Tracé_4313" data-name="Tracé 4313" d="M211.735,304.125a1.468,1.468,0,0,1-.1-.526v-3.461h-9.568v3.421a1.467,1.467,0,0,1-.1.526A10.8,10.8,0,0,0,211.735,304.125Z" transform="translate(-189.313 -273.028)" fill="#b56a4c"/>
    <path id="Tracé_4314" data-name="Tracé 4314" d="M99.956,357.553l-5.542-.742-.383.885a7.256,7.256,0,0,1-13.332,0l-.383-.885-5.542.742a4.785,4.785,0,0,0-4.154,4.736v8.54H104.11v-8.54A4.785,4.785,0,0,0,99.956,357.553Z" transform="translate(-69.824 -324.582)" fill="#e56b2e"/>
    <path id="Tracé_4315" data-name="Tracé 4315" d="M73.81,367.669a4.784,4.784,0,0,0-3.189,4.5v8.54H73.81Z" transform="translate(-69.824 -334.459)" fill="#d65b25"/>
    <path id="Tracé_4316" data-name="Tracé 4316" d="M345.072,150.069h-.8v4.784h.8a2.392,2.392,0,1,0,0-4.784Z" transform="translate(-318.76 -136.514)" fill="#c6845f"/>
    <path id="Tracé_4317" data-name="Tracé 4317" d="M132.414,152.461a2.392,2.392,0,0,0,2.392,2.392h.8v-4.784h-.8A2.392,2.392,0,0,0,132.414,152.461Z" transform="translate(-126.035 -136.514)" fill="#b56a4c"/>
    <path id="Tracé_4318" data-name="Tracé 4318" d="M172.45,78.645h-8.723a7.29,7.29,0,0,1-1.021-.08,7.507,7.507,0,0,1-3.811,4.067v10.2a4.782,4.782,0,0,0,1.18,3.189l3.445,3.939a3.188,3.188,0,0,0,2.392,1.084h3.476a3.188,3.188,0,0,0,2.392-1.084l3.445-3.939a4.783,4.783,0,0,0,1.18-3.189v-10.2C173.447,81.834,172.45,78.645,172.45,78.645Z" transform="translate(-150.124 -71.469)" fill="#c6845f"/>
    <path id="Tracé_4319" data-name="Tracé 4319" d="M162.085,93.131a8.04,8.04,0,0,1-3.189,2.751v10.2a4.782,4.782,0,0,0,1.18,3.189l2.009,2.249V93.131Z" transform="translate(-150.124 -84.719)" fill="#b56a4c"/>
    <path id="Tracé_4320" data-name="Tracé 4320" d="M152.348,15.206h0a6.379,6.379,0,0,0-6.379-6.379H132.414a7.28,7.28,0,0,0,7.224,6.379Z" transform="translate(-126.035 -8.03)" fill="#fecb66"/>
    <g id="Groupe_1757" data-name="Groupe 1757" transform="translate(6.379 0.797)">
      <path id="Union_65" data-name="Union 65" d="M873.568,979.732h-8.723a7.331,7.331,0,0,1-1.023-.072,7.512,7.512,0,0,1-3.809,4.059v-3.987a6.534,6.534,0,0,1,.2-1.595h.085a7.266,7.266,0,0,1-2.677-4.784h.718c1.674,1.595,6.259,5.159,16.026,6.379h3.19v3.987A6.339,6.339,0,0,1,873.568,979.732Z" transform="translate(-857.621 -973.353)" fill="#f5ad76"/>
    </g>
    <path id="Union_66" data-name="Union 66" d="M897.489,1020.4v-8.54a3.993,3.993,0,0,0-3.495-3.961l-4.917-.664-.135.315a8.039,8.039,0,0,1-7.4,4.875h-.008a8.035,8.035,0,0,1-7.394-4.876l-.135-.315-4.91.663a3.994,3.994,0,0,0-3.5,3.961v8.541H864v-8.54a5.59,5.59,0,0,1,4.892-5.543l6.371-.86a.8.8,0,0,0,.7-.8v-2.446l-2.609-2.983a5.576,5.576,0,0,1-1.377-3.721v-2.319a3.19,3.19,0,0,1,0-6.177v-5.683a7.3,7.3,0,0,1,.13-1.369,8.056,8.056,0,0,1-2.516-4.911.8.8,0,0,1,.791-.9h13.555a7.185,7.185,0,0,1,7.177,7.177.8.8,0,0,1-.034.232V987a3.19,3.19,0,0,1,0,6.193v2.317a5.571,5.571,0,0,1-1.376,3.713l-2.577,2.947v2.477a.8.8,0,0,0,.693.8l6.383.861a5.587,5.587,0,0,1,4.884,5.543v8.539Zm-15.951-9.569h.007a6.445,6.445,0,0,0,5.892-3.823,2.392,2.392,0,0,1-1.909-2.364v-.829a3.975,3.975,0,0,1-2.263.709h-3.478a3.98,3.98,0,0,1-2.233-.686v.814a2.39,2.39,0,0,1-1.908,2.356A6.442,6.442,0,0,0,881.538,1010.829Zm-7.969-15.317a3.994,3.994,0,0,0,.983,2.666l3.443,3.938a2.392,2.392,0,0,0,1.793.812h3.476a2.392,2.392,0,0,0,1.793-.814l3.443-3.937a3.98,3.98,0,0,0,.982-2.658v-9.639a7.053,7.053,0,0,1-3.7-3.755H877.6q-.244,0-.486-.015a8.249,8.249,0,0,1-3.548,3.693Zm17.508-4.014a1.595,1.595,0,0,0,0-2.8Zm-19.9-1.4a1.6,1.6,0,0,0,.8,1.381v-2.762A1.6,1.6,0,0,0,871.177,990.1Zm18.305-5.988v-1.986h-1.906A5.486,5.486,0,0,0,889.482,984.11Zm-15.913-2.782v2.585a6.454,6.454,0,0,0,1.9-2.075,8.054,8.054,0,0,1-1.9-.793Q873.569,981.186,873.569,981.328Zm4.034-.8h11.857a5.591,5.591,0,0,0-5.525-4.784H871.346A6.5,6.5,0,0,0,877.6,980.529Zm4,16.745H879.15v-1.595h2.456a4.727,4.727,0,0,0,3.363-1.365l1.12,1.136a6.289,6.289,0,0,1-4.445,1.824Zm-1.653-3.157a.8.8,0,0,1-.792-.9l.8-6.379,1.582.2-.685,5.483h1.49v1.595Zm3.987-5.582a1.595,1.595,0,1,1,1.595,1.595A1.595,1.595,0,0,1,883.934,988.535Zm-8.771,0a1.595,1.595,0,1,1,1.595,1.595A1.6,1.6,0,0,1,875.163,988.535Z" transform="translate(-864 -974.151)" fill="#012f2d"/>
  </g>
  <rect id="Rectangle_431" data-name="Rectangle 431" width="52" height="52" fill="none"/>
</svg>
