<svg id="h-1_1" xmlns="http://www.w3.org/2000/svg" width="52" height="52" viewBox="0 0 52 52">
  <rect id="Rectangle_412" data-name="Rectangle 412" width="52" height="52" fill="none"/>
  <g id="_001-man-13" data-name="001-man-13" transform="translate(9 6)">
    <path id="Tracé_3550" data-name="Tracé 3550" d="M145.986,13.423l-.224-.108a6.793,6.793,0,0,0-6.437-4.637H126.443l1.546,4.637a4.219,4.219,0,0,0-2.187,4.876l1.414,4.4h1.546V18.724a29.9,29.9,0,0,0,6.955-.773l6.955-2.318,3.091,5.409v1.546h1.546l.912-4.567A4.22,4.22,0,0,0,145.986,13.423Z" transform="translate(-120.261 -7.905)" fill="#a15d30"/>
    <path id="Tracé_3551" data-name="Tracé 3551" d="M128.115,60.746a4.212,4.212,0,0,0-2.171,4.876l1.4,4.4h1.546V66.155s1.816,0,3.74-.185A12.182,12.182,0,0,1,128.115,60.746Z" transform="translate(-120.387 -55.337)" fill="#8f4f24"/>
    <path id="Tracé_3552" data-name="Tracé 3552" d="M102.194,359.813l-5.371-.719-.371.858a7.032,7.032,0,0,1-12.921,0l-.371-.858-5.371.719a4.637,4.637,0,0,0-4.026,4.59v8.307H106.22V364.4A4.637,4.637,0,0,0,102.194,359.813Z" transform="translate(-72.991 -327.117)" fill="#fecb66"/>
    <path id="Tracé_3553" data-name="Tracé 3553" d="M186.117,313.773a7.025,7.025,0,0,0,6.46-4.258l.371-.858-.85-.116A1.545,1.545,0,0,1,190.754,307v-3.269h-9.273v3.315a1.545,1.545,0,0,1-1.345,1.546l-.85.116.371.858A7.024,7.024,0,0,0,186.117,313.773Z" transform="translate(-169.117 -276.68)" fill="#c6845f"/>
    <path id="Tracé_3554" data-name="Tracé 3554" d="M212.35,307.524a1.421,1.421,0,0,1-.093-.51V303.73h-9.273v3.315a1.421,1.421,0,0,1-.093.51A10.463,10.463,0,0,0,212.35,307.524Z" transform="translate(-190.62 -276.683)" fill="#b56a4c"/>
    <path id="Tracé_3555" data-name="Tracé 3555" d="M76.854,369.768a4.636,4.636,0,0,0-3.091,4.358v8.307h3.091Z" transform="translate(-72.99 -336.84)" fill="#f5ad76"/>
    <path id="Tracé_3556" data-name="Tracé 3556" d="M343.553,156.2h-.773v4.637h.773a2.318,2.318,0,0,0,0-4.637Z" transform="translate(-318.052 -142.293)" fill="#fedac6"/>
    <path id="Tracé_3557" data-name="Tracé 3557" d="M134.508,158.521a2.318,2.318,0,0,0,2.318,2.318h.773V156.2h-.773A2.318,2.318,0,0,0,134.508,158.521Z" transform="translate(-128.326 -142.293)" fill="#f5c4b0"/>
    <path id="Tracé_3558" data-name="Tracé 3558" d="M177.7,100.527a4.635,4.635,0,0,1-1.144,3.091l-3.338,3.779a3.09,3.09,0,0,1-2.318,1.051h-3.385A3.09,3.09,0,0,1,165.2,107.4l-3.338-3.817a4.635,4.635,0,0,1-1.144-3.091V89.871a29.9,29.9,0,0,0,6.955-.773l6.955-2.318,3.091,5.409Z" transform="translate(-152.199 -79.052)" fill="#c6845f"/>
    <path id="Tracé_3559" data-name="Tracé 3559" d="M163.631,120.016c-1.661.131-3.091.131-3.091.131V130.8a4.635,4.635,0,0,0,1.144,3.091l1.947,2.179V120.016Z" transform="translate(-152.04 -109.329)" fill="#b56a4c"/>
    <g id="Groupe_1690" data-name="Groupe 1690" transform="translate(8.5 13.137)">
      <path id="Tracé_3560" data-name="Tracé 3560" d="M160.542,147.525H167.5v2.318a2.318,2.318,0,0,1-2.318,2.318H162.86a2.318,2.318,0,0,1-2.318-2.318v-2.318Z" transform="translate(-160.542 -147.525)" fill="#ebebeb"/>
      <path id="Tracé_3561" data-name="Tracé 3561" d="M273.356,147.525h6.955v2.318a2.318,2.318,0,0,1-2.318,2.318h-2.318a2.318,2.318,0,0,1-2.318-2.318v-2.318Z" transform="translate(-263.31 -147.525)" fill="#ebebeb"/>
    </g>
    <path id="Union_3" data-name="Union 3" d="M1349.456,1531.593v-8.276a3.869,3.869,0,0,0-3.387-3.839l-4.766-.644-.131.305a7.791,7.791,0,0,1-7.168,4.726H1334a7.786,7.786,0,0,1-7.166-4.727l-.131-.3-4.759.643a3.87,3.87,0,0,0-3.4,3.839v8.277H1317v-8.276a5.418,5.418,0,0,1,4.742-5.372l6.174-.833a.774.774,0,0,0,.676-.773v-2.427l-2.513-2.874a5.4,5.4,0,0,1-1.335-3.606v-2.205a3.09,3.09,0,0,1-1.7-4.867l-1.228-3.838a5,5,0,0,1,1.984-5.459l-1.349-4.044a.775.775,0,0,1,.734-1.018h12.89a7.551,7.551,0,0,1,7.055,4.862,4.982,4.982,0,0,1,2.59,5.406l-.8,4.028a3.089,3.089,0,0,1-1.634,4.924l0,2.252a5.4,5.4,0,0,1-1.336,3.6l-2.529,2.864v2.393a.775.775,0,0,0,.672.78l6.186.834a5.416,5.416,0,0,1,4.734,5.372v8.276ZM1334,1522.32H1334a6.248,6.248,0,0,0,5.711-3.706,2.319,2.319,0,0,1-1.85-2.29v-.821a3.867,3.867,0,0,1-2.162.665h-3.387a3.866,3.866,0,0,1-2.179-.676v.838a2.317,2.317,0,0,1-1.85,2.283A6.245,6.245,0,0,0,1334,1522.32Zm-7.709-14.884a3.872,3.872,0,0,0,.953,2.584l3.337,3.816a2.32,2.32,0,0,0,1.738.787h3.384a2.32,2.32,0,0,0,1.738-.789l3.339-3.78a3.85,3.85,0,0,0,.949-2.573v-.008l0-2.154h0v-1.188a3.073,3.073,0,0,1-1.545.415h-2.318a3.094,3.094,0,0,1-3.091-3.091v-1.546h-.936l-1.164,4.637h2.1v1.546h-3.091a.773.773,0,0,1-.75-.961l.187-.745a3.078,3.078,0,0,1-.983.16h-2.318a3.075,3.075,0,0,1-1.53-.406Zm-2.334-5.208a1.548,1.548,0,0,0,.789,1.348v-1.795a3.09,3.09,0,0,1-.017-.326v-.566A1.546,1.546,0,0,0,1323.955,1502.228Zm19.327,1.334a1.545,1.545,0,0,0,.005-2.664Zm-6.963-2.106a1.547,1.547,0,0,0,1.545,1.545h2.318a1.547,1.547,0,0,0,1.545-1.545v-1.546h-5.409Zm-8.5,1.545h2.318a1.547,1.547,0,0,0,1.545-1.545v-1.546h-5.394v1.764A1.547,1.547,0,0,0,1327.819,1503Zm-2.358-11.836a.772.772,0,0,1-.389.936,3.437,3.437,0,0,0-1.777,3.98l1.05,3.281a3.061,3.061,0,0,1,.383-.126v-.1a.77.77,0,0,1,.017-.162v-2.156a.773.773,0,0,1,.772-.773,29.356,29.356,0,0,0,6.711-.733l6.954-2.318a.775.775,0,0,1,.916.35l3.091,5.409a.769.769,0,0,1,.1.385v.1q.123.032.241.075l.669-3.35a3.434,3.434,0,0,0-1.835-3.754l-.22-.114a.77.77,0,0,1-.376-.442,6.01,6.01,0,0,0-5.7-4.108h-11.817Zm15.724,7.2-2.117-3.7-6.353,2.118a26.592,26.592,0,0,1-6.426.8v.784h14.9Zm-22.64,33.229h0Z" transform="translate(-1317 -1486)" fill="#012f2d"/>
    <path id="Tracé_3568" data-name="Tracé 3568" d="M231.328,237.446h-1.362V235.9h1.36a6.669,6.669,0,0,0,2.933-.692l.687,1.385A8.237,8.237,0,0,1,231.328,237.446Z" transform="translate(-215.284 -214.263)" fill="#012f2d"/>
  </g>
</svg>
