<svg id="h-20" xmlns="http://www.w3.org/2000/svg" width="52" height="52" viewBox="0 0 52 52">
  <g id="_014-man-12" data-name="014-man-12" transform="translate(9 6)">
    <path id="Tracé_3861" data-name="Tracé 3861" d="M103.442,340.28,99.02,339.7a1.917,1.917,0,0,1-.942-.38l-5.319,6.231-5.319-6.261a2.051,2.051,0,0,1-.965.41l-4.423.585a6.079,6.079,0,0,0-5.251,6.026v8.359h31.915v-8.359A6.079,6.079,0,0,0,103.442,340.28Z" transform="translate(-76.041 -309.072)" fill="#215280"/>
    <path id="Tracé_3862" data-name="Tracé 3862" d="M206.905,286.767a1.962,1.962,0,0,1-.76-1.565v-3.6h-9.119v3.6a1.984,1.984,0,0,1-.76,1.52L201.586,293Z" transform="translate(-184.869 -256.524)" fill="#fedac6"/>
    <path id="Tracé_3863" data-name="Tracé 3863" d="M213.919,285.81V281.6H204.8v4.21A9.908,9.908,0,0,0,213.919,285.81Z" transform="translate(-192.642 -256.524)" fill="#f5c4b0"/>
    <path id="Tracé_3864" data-name="Tracé 3864" d="M79.84,359.083a6.079,6.079,0,0,0-3.04,5.258V372.7h3.04Z" transform="translate(-76.04 -327.107)" fill="#1c496e"/>
    <rect id="Rectangle_270" data-name="Rectangle 270" width="3.04" height="3.799" transform="translate(3.799 41.794)" fill="#fedac6"/>
    <rect id="Rectangle_271" data-name="Rectangle 271" width="3.04" height="3.799" transform="translate(0.76 41.794)" fill="#f5c4b0"/>
    <g id="Groupe_1713" data-name="Groupe 1713" transform="translate(8.359 6.079)">
      <rect id="Rectangle_272" data-name="Rectangle 272" width="6.079" height="3.799" transform="translate(18.237 35.715)" fill="#fedac6"/>
      <path id="Tracé_3865" data-name="Tracé 3865" d="M162.894,84.673a8.359,8.359,0,0,1-.76-3.488V71.307h0a3.04,3.04,0,0,1,3.04-3.04h1.52l.258.38a4.264,4.264,0,0,0,3.541,1.9h0a4.264,4.264,0,0,0,3.541-1.9l.258-.38h1.52a3.04,3.04,0,0,1,3.04,3.04h0v9.878a8.359,8.359,0,0,1-8.359,8.359h0A8.36,8.36,0,0,1,163.654,86" transform="translate(-162.134 -68.267)" fill="#fedac6"/>
    </g>
    <path id="Tracé_3866" data-name="Tracé 3866" d="M165.174,78.639V68.267a3.04,3.04,0,0,0-3.04,3.04v9.878a8.359,8.359,0,0,0,.76,3.488l.76,1.322a8.359,8.359,0,0,0,5.555,3.442l-1.945-3.252A14.654,14.654,0,0,1,165.174,78.639Z" transform="translate(-153.775 -62.188)" fill="#f5c4b0"/>
    <path id="Tracé_3867" data-name="Tracé 3867" d="M135.22,20.691v-3.8a3.04,3.04,0,0,1,3.04-3.04h1.52l.258.38a4.248,4.248,0,0,0,7.082,0l.258-.38h1.52a3.04,3.04,0,0,1,3.04,3.04v3.8h.76a2.281,2.281,0,0,1,1.52.6l.312-3.412a6.079,6.079,0,0,0-4.111-6.307,7.6,7.6,0,0,0-6.079-3.04h-1.52a7.6,7.6,0,0,0-6.079,3.04,6.079,6.079,0,0,0-4.126,6.307l.327,3.412a2.281,2.281,0,0,1,1.52-.6Z" transform="translate(-126.862 -7.773)" fill="#dbdbdb"/>
    <path id="Tracé_3868" data-name="Tracé 3868" d="M350.627,145.067h-.76v4.559h.76a2.28,2.28,0,1,0,0-4.559Z" transform="translate(-324.791 -132.149)" fill="#fedac6"/>
    <path id="Tracé_3869" data-name="Tracé 3869" d="M128,147.347a2.28,2.28,0,0,0,2.28,2.28h.76v-4.559h-.76A2.279,2.279,0,0,0,128,147.347Z" transform="translate(-122.681 -132.149)" fill="#f5c4b0"/>
    <g id="Groupe_1714" data-name="Groupe 1714" transform="translate(9.119 19.757)">
      <path id="Tracé_3870" data-name="Tracé 3870" d="M170.667,225.665h3.04a3.8,3.8,0,0,0,3.8-3.8h-3.04A3.8,3.8,0,0,0,170.667,225.665Z" transform="translate(-170.667 -221.866)" fill="#dbdbdb"/>
      <path id="Tracé_3871" data-name="Tracé 3871" d="M254.306,225.665h-3.04a3.8,3.8,0,0,1-3.8-3.8h3.04A3.8,3.8,0,0,1,254.306,225.665Z" transform="translate(-240.628 -221.866)" fill="#dbdbdb"/>
    </g>
    <g id="Groupe_1715" data-name="Groupe 1715" transform="translate(5.728 2.28)">
      <path id="Tracé_3872" data-name="Tracé 3872" d="M136.741,27.12a6.079,6.079,0,0,0-4.126,6.307l.327,3.412a2.281,2.281,0,0,1,1.52-.6h.76v-3.8a3.04,3.04,0,0,1,3.04-3.04V25.6A7.5,7.5,0,0,0,136.741,27.12Z" transform="translate(-132.59 -25.6)" fill="#bfbfbf"/>
      <path id="Tracé_3873" data-name="Tracé 3873" d="M174.55,239.694h-3.564a3.75,3.75,0,0,0-.319,1.52h3.04a3.8,3.8,0,0,0,3.5-2.28A4.794,4.794,0,0,1,174.55,239.694Z" transform="translate(-167.276 -219.937)" fill="#bfbfbf"/>
      <path id="Tracé_3874" data-name="Tracé 3874" d="M253.532,239.694H257.1a3.749,3.749,0,0,1,.319,1.52h-3.039a3.8,3.8,0,0,1-3.5-2.28A4.794,4.794,0,0,0,253.532,239.694Z" transform="translate(-240.346 -219.937)" fill="#bfbfbf"/>
    </g>
    <path id="Union_67" data-name="Union 67" d="M946.915,955.593v-3.039h-4.559v3.039h-1.52v-6.079h1.52v1.52h4.559v-3.8a5.335,5.335,0,0,0-4.615-5.272l-2.69-.357-2.638,5.937a.761.761,0,0,1-.7.452.732.732,0,0,1-.124-.011l-3.675-.612v8.222h-1.52v-8.222l-3.674.612a.75.75,0,0,1-.125.011.759.759,0,0,1-.694-.452l-2.639-5.936-2.692.356a5.335,5.335,0,0,0-4.614,5.272v3.8h4.559v-1.52h1.52v6.079h-1.52v-3.039H916.52v3.039H915v-8.358a6.863,6.863,0,0,1,5.933-6.78l4.424-.585a1.212,1.212,0,0,0,1.042-1.193V936.4a9.1,9.1,0,0,1-2.09-2.088h-.191a.759.759,0,0,1-.76-.76,4.579,4.579,0,0,1,.064-.766A9.174,9.174,0,0,1,922.6,929v-.76a3.039,3.039,0,0,1-2.323-5l-.28-3.064a6.817,6.817,0,0,1,4.418-7.018A8.4,8.4,0,0,1,930.957,910h1.52a8.4,8.4,0,0,1,6.543,3.157,6.814,6.814,0,0,1,4.418,7.017l-.28,3.064a3.038,3.038,0,0,1-2.323,5V929a9.114,9.114,0,0,1-3.8,7.4v2.279a1.211,1.211,0,0,0,1.044,1.192l4.419.585a6.862,6.862,0,0,1,5.934,6.78v4.522c0,.012,0,.024,0,.037v3.8Zm-11.093-9.205,2.218-4.99-.159-.021a2.715,2.715,0,0,1-.57-.142l-4.124,4.714Zm-8.208,0,2.635-.439-4.124-4.713a2.7,2.7,0,0,1-.565.141l-.163.022Zm4.1-1.067,4.365-4.99a2.715,2.715,0,0,1-.565-1.651v-1.393a9.064,9.064,0,0,1-3.8.83h0a9.111,9.111,0,0,1-3.8-.829v1.392a2.718,2.718,0,0,1-.567,1.653Zm0-8.725h0a7.577,7.577,0,0,0,5.422-2.28h-2.381a4.557,4.557,0,0,0-7.6,0h-.87A7.609,7.609,0,0,0,931.715,936.6Zm3.042-3.8h2.182a3.043,3.043,0,0,0-2.943-2.28h-2.183A3.047,3.047,0,0,0,934.757,932.8Zm-9.783,0h2.184a3.046,3.046,0,0,0,2.943-2.28h-2.183A3.047,3.047,0,0,0,924.974,932.8ZM934,929a4.567,4.567,0,0,1,4.444,3.538,7.554,7.554,0,0,0,.875-3.538v-9.878a2.283,2.283,0,0,0-2.28-2.28h-1.118l-.032.047a5.01,5.01,0,0,1-8.343-.005l-.027-.041H926.4a2.283,2.283,0,0,0-2.28,2.28V929a7.615,7.615,0,0,0,.206,1.756A4.554,4.554,0,0,1,927.918,929h.993l2.095-5.586,1.423.534L930.534,929H934Zm6.839-2.28a1.52,1.52,0,1,0,0-3.039Zm-19.757-1.52a1.521,1.521,0,0,0,1.52,1.52v-3.039A1.521,1.521,0,0,0,921.079,925.2Zm4.407-10.942a.76.76,0,0,1-.366.265,5.3,5.3,0,0,0-3.61,5.519l.206,2.25a3.03,3.03,0,0,1,.883-.131v-3.039a3.8,3.8,0,0,1,3.8-3.8h1.52a.761.761,0,0,1,.628.333l.258.38a3.491,3.491,0,0,0,5.822.005l.262-.385a.761.761,0,0,1,.628-.333h1.52a3.8,3.8,0,0,1,3.8,3.8v3.039a3.033,3.033,0,0,1,.883.131l.206-2.251a5.3,5.3,0,0,0-3.61-5.518.759.759,0,0,1-.366-.265,6.874,6.874,0,0,0-5.471-2.735h-1.52A6.873,6.873,0,0,0,925.486,914.255Zm2.432,35.639a1.14,1.14,0,1,1,1.139,1.139A1.141,1.141,0,0,1,927.918,949.894Zm.76,0a.38.38,0,1,0,.38-.38A.38.38,0,0,0,928.678,949.894ZM934,925.2a1.52,1.52,0,1,1,1.52,1.52A1.52,1.52,0,0,1,934,925.2Zm-8.358,0a1.52,1.52,0,1,1,1.52,1.52A1.52,1.52,0,0,1,925.638,925.2Zm0-3.039v-1.519H937.8v1.519Z" transform="translate(-915 -910)" fill="#012f2d"/>
  </g>
  <rect id="Rectangle_413" data-name="Rectangle 413" width="52" height="52" fill="none"/>
</svg>
