<svg id="h-2_1" xmlns="http://www.w3.org/2000/svg" width="52" height="52" viewBox="0 0 52 52">
  <g id="_015-man-11" data-name="015-man-11" transform="translate(9 6)">
    <path id="Tracé_3890" data-name="Tracé 3890" d="M128.6,37.117c5.311-1.692,8.346-6.829,8.346-6.829a5.114,5.114,0,0,1-2.276-4.249V19.151a10.622,10.622,0,0,0-8.4-10.387h0a10.709,10.709,0,0,0-4.446,0h0a10.622,10.622,0,0,0-8.4,10.387V26.04a5.114,5.114,0,0,1-2.276,4.249s2.276,6.07,8.346,6.829Z" transform="translate(-107.357 -7.771)" fill="#dbdbdb"/>
    <path id="Tracé_3891" data-name="Tracé 3891" d="M122.366,10.212a2.569,2.569,0,0,0-.539.083,10.622,10.622,0,0,0-8.4,10.387v6.889a5.114,5.114,0,0,1-2.276,4.249s2.276,6.07,8.346,6.829h3.331A62.717,62.717,0,0,1,122.366,10.212Z" transform="translate(-107.358 -9.303)" fill="#bfbfbf"/>
    <path id="Tracé_3892" data-name="Tracé 3892" d="M103.67,342.159l-5.5-.759L93,344.382l-5.167-2.951-5.5.759a6.07,6.07,0,0,0-5.266,5.986v8.346h31.867v-8.346A6.07,6.07,0,0,0,103.67,342.159Z" transform="translate(-76.31 -310.999)" fill="#dbdbdb"/>
    <path id="Tracé_3893" data-name="Tracé 3893" d="M208.308,286.556l-.615-.083v-5.311h-9.1v5.311l-.615.083,5.167,2.951Z" transform="translate(-186.449 -256.124)" fill="#c6845f"/>
    <g id="Groupe_1716" data-name="Groupe 1716" transform="translate(10.622 30.348)">
      <path id="Tracé_3894" data-name="Tracé 3894" d="M189.352,346.874l4.552-3.035-4.552-3.035h-1.517Z" transform="translate(-187.835 -340.804)" fill="#eaeaea"/>
      <path id="Tracé_3895" data-name="Tracé 3895" d="M256,343.839l4.552,3.035,1.517-6.07H260.55Z" transform="translate(-249.928 -340.804)" fill="#eaeaea"/>
    </g>
    <path id="Tracé_3896" data-name="Tracé 3896" d="M230.437,387.025l.759-8.346-.759-2.276,2.276-1.518,2.276,1.518-.759,2.276.759,8.346" transform="translate(-216.021 -341.502)" fill="#2e6aa3"/>
    <path id="Tracé_3897" data-name="Tracé 3897" d="M77.069,363.776v8.346H80.1v-13.6A6.072,6.072,0,0,0,77.069,363.776Z" transform="translate(-76.31 -326.6)" fill="#bfbfbf"/>
    <path id="Tracé_3898" data-name="Tracé 3898" d="M204.875,281.161V284.2l.668.668a5.494,5.494,0,0,0,3.885,1.608h0a5.494,5.494,0,0,0,3.885-1.608l.668-.668v-3.035Z" transform="translate(-192.735 -256.124)" fill="#b56a4c"/>
    <g id="Groupe_1717" data-name="Groupe 1717" transform="translate(6.07 7.041)">
      <path id="Tracé_3899" data-name="Tracé 3899" d="M179.12,81.34V92.077A4.551,4.551,0,0,1,178,95.112l-3.278,3.71a3.034,3.034,0,0,1-2.276,1.032H169.12a3.034,3.034,0,0,1-2.276-1.032l-3.278-3.748a4.551,4.551,0,0,1-1.123-3.035V81.34a2.276,2.276,0,0,1,2.277-2.275,2.234,2.234,0,0,1,.409.037l1.32.235a24.182,24.182,0,0,0,8.68,0l1.32-.235a2.274,2.274,0,0,1,2.671,2.238Z" transform="translate(-160.152 -79.065)" fill="#c6845f"/>
      <path id="Tracé_3900" data-name="Tracé 3900" d="M341.961,142.108H341.2v4.552h.759a2.276,2.276,0,0,0,0-4.552Z" transform="translate(-322.992 -136.494)" fill="#c6845f"/>
      <path id="Tracé_3901" data-name="Tracé 3901" d="M136.712,144.384a2.276,2.276,0,0,0,2.276,2.276h.759v-4.552h-.759A2.277,2.277,0,0,0,136.712,144.384Z" transform="translate(-136.712 -136.494)" fill="#c6845f"/>
    </g>
    <path id="Tracé_3902" data-name="Tracé 3902" d="M206.977,205.545H196.355v-.759a3.035,3.035,0,0,1,3.035-3.035h4.552a3.035,3.035,0,0,1,3.035,3.035Z" transform="translate(-184.974 -183.785)" fill="#dbdbdb"/>
    <path id="Tracé_3903" data-name="Tracé 3903" d="M165.307,79.159l-.349-.061a2.276,2.276,0,0,0-2.649,1.829,2.243,2.243,0,0,0-.037.409V92.072a4.551,4.551,0,0,0,1.123,3.035l1.912,2.14V79.159Z" transform="translate(-153.926 -72.02)" fill="#b56a4c"/>
    <path id="Union_11" data-name="Union 11" d="M1334.517,1459.936h-1.65l-.7,7.656-1.512-.138.744-8.187-.394-1.183-1.45.967a.759.759,0,0,1-1.156-.448l-1.3-5.219-3.976.528a5.328,5.328,0,0,0-4.606,5.264v8.347H1317v-8.347a6.85,6.85,0,0,1,5.925-6.769l4.612-.612c-5.322-1.49-7.361-6.767-7.453-7.011a.761.761,0,0,1,.289-.9,4.348,4.348,0,0,0,1.939-3.618v-2.578h0v-4.309a11.38,11.38,0,0,1,22.761,0v3.478c0,.024,0,.049,0,.073s0,.049,0,.073v.686h0v2.58a4.345,4.345,0,0,0,1.939,3.617.762.762,0,0,1,.233,1.018,17.947,17.947,0,0,1-7.849,6.832l5.063.671a6.852,6.852,0,0,1,5.925,6.77v8.345h-1.517v-8.346a5.328,5.328,0,0,0-4.608-5.265l-3.975-.527-1.305,5.217a.757.757,0,0,1-1.155.448l-1.45-.967-.4,1.184.744,8.187-1.51.137Zm-2.2-2.724.4,1.207h1.943l.4-1.207-1.373-.915Zm-2.7-.021,2.636-1.758-3.588-2.05Zm5.519-1.758,2.635,1.757.952-3.806Zm-5.235-3.092,3.793,2.169,3.794-2.169v-2.407a3.8,3.8,0,0,1-2.123.654h-3.325a3.8,3.8,0,0,1-2.139-.663Zm-3.359-2.55a8.443,8.443,0,0,0,1.841.653v-2.073l-.426-.487A7.893,7.893,0,0,1,1326.54,1449.792Zm12.464-1.4v1.859a12.48,12.48,0,0,0,1.535-.786,7.885,7.885,0,0,1-1.1-1.567Zm-12.439-18.152a1.505,1.505,0,0,0-.445,1.073v10.7a3.792,3.792,0,0,0,.935,2.536l2.838,3.245h.005v.006l.434.5a2.278,2.278,0,0,0,1.706.773h3.323a2.279,2.279,0,0,0,1.706-.775l.418-.474v-.026h.023l2.837-3.211a3.785,3.785,0,0,0,.932-2.525v-10.744a1.59,1.59,0,0,0-.023-.262,1.52,1.52,0,0,0-1.756-1.229l-1.318.236a24.907,24.907,0,0,1-8.951,0l-1.317-.236a1.524,1.524,0,0,0-.276-.024A1.506,1.506,0,0,0,1326.565,1430.244Zm-2.774,17.491a10.218,10.218,0,0,0,1.4,1.24,6.348,6.348,0,0,0,1.676-2.335l-.954-1.09c-.041-.048-.082-.1-.121-.145A8.427,8.427,0,0,1,1323.791,1447.735Zm17.7-2.15-.957,1.083a6.362,6.362,0,0,0,1.281,1.94,16.711,16.711,0,0,0,1.407-1.2,8.447,8.447,0,0,1-1.606-1.975C1341.572,1445.486,1341.529,1445.536,1341.487,1445.585Zm-17.659-5.315a5.861,5.861,0,0,1-2.1,4.491,12.418,12.418,0,0,0,1.091,1.8,6.949,6.949,0,0,0,2.074-2.767,5.339,5.339,0,0,1-.294-1.79v-2.135a3,3,0,0,1-.775-.316Zm18.969-.4v2.181a5.248,5.248,0,0,1-.293,1.785,6.928,6.928,0,0,0,1.769,2.484,18.089,18.089,0,0,0,1.3-1.63,5.855,5.855,0,0,1-2.012-4.42v-.712A3.011,3.011,0,0,1,1342.8,1439.87Zm-18.968-2.939a1.517,1.517,0,0,0,.774,1.322v-2.645A1.518,1.518,0,0,0,1323.829,1436.931Zm18.968,1.313a1.518,1.518,0,0,0,.758-1.262v-.1a1.519,1.519,0,0,0-.758-1.262Zm-.046-7.451a3.015,3.015,0,0,1,.046.522v2.677a3.055,3.055,0,0,1,.758.311v-.922a9.863,9.863,0,1,0-19.726,0v.922a3.024,3.024,0,0,1,.774-.315v-2.672a3.033,3.033,0,0,1,3.035-3.033h0a3.006,3.006,0,0,1,.546.049l1.316.235c.134.024.267.047.4.069v-2.327h1.517v2.526q.759.074,1.517.1v-3.385h1.517v3.386q.76-.024,1.517-.1v-2.529h1.518v2.33l.421-.073,1.324-.236a2.987,2.987,0,0,1,.534-.048A3.036,3.036,0,0,1,1342.751,1430.793Zm.049,36.731v-6.07h1.517v6.07Zm-19.727,0v-6.07h1.517v6.07Zm9.105-19.971v-1.517h3.035v1.517Zm-3.8-3.035a.759.759,0,0,1-.759-.759V1443a3.8,3.8,0,0,1,3.794-3.793h.089l.675-5.405,1.5.188-.652,5.217h2.935a3.8,3.8,0,0,1,3.794,3.793v.759a.758.758,0,0,1-.759.759Zm.759-1.517h9.1a2.279,2.279,0,0,0-2.276-2.276h-4.552A2.278,2.278,0,0,0,1329.141,1443Zm6.833-7.588a1.517,1.517,0,1,1,1.517,1.517A1.518,1.518,0,0,1,1335.974,1435.413Zm-8.347,0a1.517,1.517,0,1,1,1.517,1.517A1.517,1.517,0,0,1,1327.627,1435.413Z" transform="translate(-1317.001 -1421.999)" fill="#012f2d"/>
  </g>
  <rect id="Rectangle_414" data-name="Rectangle 414" width="52" height="52" fill="none"/>
</svg>
