<svg id="h-3" xmlns="http://www.w3.org/2000/svg" width="52" height="52" viewBox="0 0 52 52">
  <g id="_016-man-10" data-name="016-man-10" transform="translate(9 6)">
    <path id="Tracé_3923" data-name="Tracé 3923" d="M127.616,41.134a10.731,10.731,0,0,0-1.638-5.711l-.587-.943a10.731,10.731,0,0,1-1.638-5.711V18.724A10.046,10.046,0,0,0,113.707,8.678h0a10.046,10.046,0,0,0-10.046,10.046V28.77a10.731,10.731,0,0,1-1.638,5.711l-.587.943A10.731,10.731,0,0,0,99.8,41.134h0s3.091,5.409,13.91,5.409S127.616,41.134,127.616,41.134Z" transform="translate(-96.706 -7.905)" fill="#70432c"/>
    <path id="Tracé_3924" data-name="Tracé 3924" d="M105.454,57.188a10.044,10.044,0,0,0-1.793,5.726V72.96a10.731,10.731,0,0,1-1.638,5.711l-.587.943A10.731,10.731,0,0,0,99.8,85.324s3.091,5.409,13.91,5.409V63.687C107.718,63.687,105.855,60.38,105.454,57.188Z" transform="translate(-96.706 -52.095)" fill="#5c3724"/>
    <path id="Tracé_3925" data-name="Tracé 3925" d="M102.194,359.813l-5.371-.719-.371.858a7.032,7.032,0,0,1-12.921,0l-.371-.858-5.371.719a4.637,4.637,0,0,0-4.026,4.59v8.307H106.22V364.4A4.637,4.637,0,0,0,102.194,359.813Z" transform="translate(-72.991 -327.117)" fill="#787d82"/>
    <path id="Tracé_3926" data-name="Tracé 3926" d="M186.117,313.773a7.025,7.025,0,0,0,6.46-4.258l.371-.858-.85-.116A1.545,1.545,0,0,1,190.754,307v-3.269h-9.273v3.315a1.545,1.545,0,0,1-1.345,1.546l-.85.116.371.858A7.024,7.024,0,0,0,186.117,313.773Z" transform="translate(-169.117 -276.68)" fill="#fedac6"/>
    <path id="Tracé_3927" data-name="Tracé 3927" d="M212.35,307.524a1.421,1.421,0,0,1-.093-.51V303.73h-9.273v3.315a1.421,1.421,0,0,1-.093.51A10.463,10.463,0,0,0,212.35,307.524Z" transform="translate(-190.62 -276.683)" fill="#f5c4b0"/>
    <g id="Groupe_1718" data-name="Groupe 1718" transform="translate(6.182 13.91)">
      <path id="Tracé_3928" data-name="Tracé 3928" d="M343.553,156.2h-.773v4.637h.773a2.318,2.318,0,0,0,0-4.637Z" transform="translate(-324.234 -156.203)" fill="#fedac6"/>
      <path id="Tracé_3929" data-name="Tracé 3929" d="M134.508,158.521a2.318,2.318,0,0,0,2.318,2.318h.773V156.2h-.773A2.318,2.318,0,0,0,134.508,158.521Z" transform="translate(-134.508 -156.203)" fill="#fedac6"/>
    </g>
    <path id="SVGCleanerId_0" d="M233.057,145.7h-2.318a.773.773,0,0,1-.768-.858l.773-6.955,1.535.171-.677,6.1h1.455Z" transform="translate(-215.283 -125.613)" fill="#012f2d"/>
    <path id="Tracé_3930" data-name="Tracé 3930" d="M184.676,57.477v8.168a12.359,12.359,0,0,1-1.762,6.36l-1.283,2.141a5.463,5.463,0,0,1-4.683,2.651h0a5.463,5.463,0,0,1-4.683-2.651l-1.283-2.141a12.359,12.359,0,0,1-1.762-6.36v-7.4s6.955-1.546,7.728-6.182A7.905,7.905,0,0,0,184.676,57.477Z" transform="translate(-159.948 -47.431)" fill="#fedac6"/>
    <g id="Groupe_1719" data-name="Groupe 1719" transform="translate(9.273 12.364)">
      <path id="Tracé_3931" data-name="Tracé 3931" d="M169.22,138.847H175.4v2.318a3.091,3.091,0,0,1-3.091,3.091h0a3.091,3.091,0,0,1-3.091-3.091v-2.318Z" transform="translate(-169.22 -138.847)" fill="#ebebeb"/>
      <path id="Tracé_3932" data-name="Tracé 3932" d="M273.356,138.847h6.182v2.318a3.091,3.091,0,0,1-3.091,3.091h0a3.091,3.091,0,0,1-3.091-3.091v-2.318Z" transform="translate(-264.083 -138.847)" fill="#ebebeb"/>
    </g>
    <path id="Tracé_3933" data-name="Tracé 3933" d="M189.544,226.245a3.093,3.093,0,0,0-1.855-.618h-5.672a3.093,3.093,0,0,0-1.855.618l-2.264,1.7a12.347,12.347,0,0,0,1.02,2.141l1.283,2.141a5.464,5.464,0,0,0,9.366,0l1.283-2.141a12.388,12.388,0,0,0,.958-2.141Z" transform="translate(-167.853 -205.535)" fill="#70432c"/>
    <path id="Tracé_3934" data-name="Tracé 3934" d="M76.854,369.768a4.636,4.636,0,0,0-3.091,4.358v8.307h3.091Z" transform="translate(-72.99 -336.841)" fill="#717478"/>
    <path id="Tracé_3935" data-name="Tracé 3935" d="M181.485,226.235a3.01,3.01,0,0,0-1.321.564l-2.264,1.7a12.349,12.349,0,0,0,1.02,2.141l1.283,2.141a5.419,5.419,0,0,0,1.546,1.638A14.355,14.355,0,0,1,181.485,226.235Z" transform="translate(-167.853 -206.089)" fill="#5c3724"/>
    <path id="Tracé_3936" data-name="Tracé 3936" d="M66.631,322.276H65.085v-8.307a5.424,5.424,0,0,1,4.742-5.341L76,307.794a.774.774,0,0,0,.675-.773V303.73h1.546v3.284a2.317,2.317,0,0,1-2.018,2.311l-6.179.835a3.877,3.877,0,0,0-3.4,3.814v8.3Z" transform="translate(-65.085 -276.683)" fill="#012f2d"/>
    <path id="Tracé_3937" data-name="Tracé 3937" d="M312.525,322.275H310.98v-8.307a3.874,3.874,0,0,0-3.387-3.808l-6.191-.835a2.319,2.319,0,0,1-2.014-2.318v-3.277h1.546v3.284a.774.774,0,0,0,.672.78l6.185.835a5.422,5.422,0,0,1,4.734,5.336v8.312Z" transform="translate(-278.524 -276.682)" fill="#012f2d"/>
    <path id="Tracé_3938" data-name="Tracé 3938" d="M343.553,153.707h-.773v-1.546h.773a1.546,1.546,0,0,0,0-3.091h-.773v-1.546h.773a3.091,3.091,0,0,1,0,6.182Z" transform="translate(-318.052 -134.388)" fill="#012f2d"/>
    <path id="Tracé_3939" data-name="Tracé 3939" d="M129.694,153.707h-.773a3.091,3.091,0,1,1,0-6.182h.773v1.546h-.773a1.546,1.546,0,1,0,0,3.091h.773Z" transform="translate(-120.421 -134.388)" fill="#012f2d"/>
    <path id="Tracé_3940" data-name="Tracé 3940" d="M177.592,358.864h-.008a7.786,7.786,0,0,1-7.166-4.726l-.495-1.151,1.42-.61.495,1.151a6.245,6.245,0,0,0,5.746,3.79h.007a6.248,6.248,0,0,0,5.748-3.79l.495-1.151,1.42.61-.495,1.151A7.79,7.79,0,0,1,177.592,358.864Z" transform="translate(-160.587 -320.999)" fill="#012f2d"/>
    <g id="Groupe_1720" data-name="Groupe 1720" transform="translate(14.682 12.279)">
      <path id="SVGCleanerId_0_1_" d="M233.057,145.7h-2.318a.773.773,0,0,1-.768-.858l.773-6.955,1.535.171-.677,6.1h1.455Z" transform="translate(-229.966 -137.892)" fill="#012f2d"/>
    </g>
    <path id="Tracé_3941" data-name="Tracé 3941" d="M169.042,69.661a6.266,6.266,0,0,1-5.345-3.025l-1.284-2.141a13.145,13.145,0,0,1-1.872-6.757v-7.4a.774.774,0,0,1,.6-.754c.064-.015,6.456-1.491,7.133-5.555a.773.773,0,0,1,1.5-.117,7.1,7.1,0,0,0,6.972,4.881.737.737,0,0,1,.561.218.771.771,0,0,1,.234.554v8.168a13.135,13.135,0,0,1-1.872,6.758l-1.283,2.141A6.264,6.264,0,0,1,169.042,69.661Zm-6.955-18.723v6.8a11.6,11.6,0,0,0,1.651,5.962l1.284,2.141a4.689,4.689,0,0,0,8.04,0l1.283-2.141A11.6,11.6,0,0,0,176,57.737V50.329a8.607,8.607,0,0,1-6.864-4.137C167.488,49.141,163.6,50.506,162.088,50.938Z" transform="translate(-152.042 -39.523)" fill="#012f2d"/>
    <path id="Tracé_3942" data-name="Tracé 3942" d="M164.406,137.124a3.868,3.868,0,0,1-3.864-3.864v-2.318a.773.773,0,0,1,.773-.773H167.5a.773.773,0,0,1,.773.773v2.318A3.868,3.868,0,0,1,164.406,137.124Zm-2.318-5.409v1.546a2.318,2.318,0,0,0,4.637,0v-1.546Z" transform="translate(-152.042 -118.578)" fill="#012f2d"/>
    <path id="Tracé_3943" data-name="Tracé 3943" d="M268.542,137.124a3.868,3.868,0,0,1-3.864-3.864v-2.318a.773.773,0,0,1,.773-.773h6.182a.773.773,0,0,1,.773.773v2.318A3.868,3.868,0,0,1,268.542,137.124Zm-2.318-5.409v1.546a2.318,2.318,0,0,0,4.637,0v-1.546Z" transform="translate(-246.904 -118.578)" fill="#012f2d"/>
    <rect id="Rectangle_284" data-name="Rectangle 284" width="3.091" height="1.546" transform="translate(15.455 11.591)" fill="#012f2d"/>
    <path id="Tracé_3944" data-name="Tracé 3944" d="M156.145,14.682H154.6V10.819a9.273,9.273,0,1,0-18.546,0v3.864h-1.546V10.819a10.819,10.819,0,0,1,21.637,0Z" transform="translate(-128.326)" fill="#012f2d"/>
    <path id="Tracé_3945" data-name="Tracé 3945" d="M91.119,215.048a11.492,11.492,0,0,1,1.756-6.122l.586-.941a9.943,9.943,0,0,0,1.522-5.3v-3.092h1.546v3.091a11.492,11.492,0,0,1-1.757,6.121l-.586.941a9.943,9.943,0,0,0-1.522,5.3Z" transform="translate(-88.801 -181.819)" fill="#012f2d"/>
    <path id="Tracé_3946" data-name="Tracé 3946" d="M365.544,215.049l-1.546,0a9.943,9.943,0,0,0-1.521-5.3l-.588-.946a11.492,11.492,0,0,1-1.755-6.12v-3.09h1.546v3.091a9.943,9.943,0,0,0,1.521,5.3l.588.946A11.49,11.49,0,0,1,365.544,215.049Z" transform="translate(-333.861 -181.819)" fill="#012f2d"/>
    <path id="Tracé_3947" data-name="Tracé 3947" d="M173.62,220.657l-.928-1.236,2.264-1.7a3.891,3.891,0,0,1,2.318-.773h5.672a3.886,3.886,0,0,1,2.318.773l2.265,1.7-.928,1.236-2.264-1.7a2.331,2.331,0,0,0-1.391-.464h-5.672a2.332,2.332,0,0,0-1.391.464Z" transform="translate(-163.11 -197.629)" fill="#012f2d"/>
    <rect id="Rectangle_285" data-name="Rectangle 285" width="4.637" height="1.546" transform="translate(14.682 22.41)" fill="#012f2d"/>
  </g>
  <rect id="Rectangle_415" data-name="Rectangle 415" width="52" height="52" fill="none"/>
</svg>
