<svg id="h-3_1" xmlns="http://www.w3.org/2000/svg" width="52" height="52" viewBox="0 0 52 52">
  <g id="_016-man-10" data-name="016-man-10" transform="translate(9 6)">
    <path id="Tracé_3923" data-name="Tracé 3923" d="M127.616,41.134a10.731,10.731,0,0,0-1.638-5.711l-.587-.943a10.731,10.731,0,0,1-1.638-5.711V18.724A10.046,10.046,0,0,0,113.707,8.678h0a10.046,10.046,0,0,0-10.046,10.046V28.77a10.731,10.731,0,0,1-1.638,5.711l-.587.943A10.731,10.731,0,0,0,99.8,41.134h0s3.091,5.409,13.91,5.409S127.616,41.134,127.616,41.134Z" transform="translate(-96.706 -7.905)" fill="#70432c"/>
    <path id="Tracé_3924" data-name="Tracé 3924" d="M105.454,57.188a10.044,10.044,0,0,0-1.793,5.726V72.96a10.731,10.731,0,0,1-1.638,5.711l-.587.943A10.731,10.731,0,0,0,99.8,85.324s3.091,5.409,13.91,5.409V63.687C107.718,63.687,105.855,60.38,105.454,57.188Z" transform="translate(-96.706 -52.095)" fill="#5c3724"/>
    <path id="Tracé_3925" data-name="Tracé 3925" d="M102.194,359.813l-5.371-.719-.371.858a7.032,7.032,0,0,1-12.921,0l-.371-.858-5.371.719a4.637,4.637,0,0,0-4.026,4.59v8.307H106.22V364.4A4.637,4.637,0,0,0,102.194,359.813Z" transform="translate(-72.991 -327.117)" fill="#787d82"/>
    <path id="Tracé_3926" data-name="Tracé 3926" d="M186.117,313.773a7.025,7.025,0,0,0,6.46-4.258l.371-.858-.85-.116A1.545,1.545,0,0,1,190.754,307v-3.269h-9.273v3.315a1.545,1.545,0,0,1-1.345,1.546l-.85.116.371.858A7.024,7.024,0,0,0,186.117,313.773Z" transform="translate(-169.117 -276.68)" fill="#c6845f"/>
    <path id="Tracé_3927" data-name="Tracé 3927" d="M212.35,307.524a1.421,1.421,0,0,1-.093-.51V303.73h-9.273v3.315a1.421,1.421,0,0,1-.093.51A10.463,10.463,0,0,0,212.35,307.524Z" transform="translate(-190.62 -276.683)" fill="#b56a4c"/>
    <g id="Groupe_1718" data-name="Groupe 1718" transform="translate(6.182 13.91)">
      <path id="Tracé_3928" data-name="Tracé 3928" d="M343.553,156.2h-.773v4.637h.773a2.318,2.318,0,0,0,0-4.637Z" transform="translate(-324.234 -156.203)" fill="#c6845f"/>
      <path id="Tracé_3929" data-name="Tracé 3929" d="M134.508,158.521a2.318,2.318,0,0,0,2.318,2.318h.773V156.2h-.773A2.318,2.318,0,0,0,134.508,158.521Z" transform="translate(-134.508 -156.203)" fill="#c6845f"/>
    </g>
    <path id="SVGCleanerId_0" d="M233.057,145.7h-2.318a.773.773,0,0,1-.768-.858l.773-6.955,1.535.171-.677,6.1h1.455Z" transform="translate(-215.283 -125.613)" fill="#012f2d"/>
    <path id="Tracé_3930" data-name="Tracé 3930" d="M184.676,57.477v8.168a12.359,12.359,0,0,1-1.762,6.36l-1.283,2.141a5.463,5.463,0,0,1-4.683,2.651h0a5.463,5.463,0,0,1-4.683-2.651l-1.283-2.141a12.359,12.359,0,0,1-1.762-6.36v-7.4s6.955-1.546,7.728-6.182A7.905,7.905,0,0,0,184.676,57.477Z" transform="translate(-159.948 -47.431)" fill="#c6845f"/>
    <g id="Groupe_1719" data-name="Groupe 1719" transform="translate(9.273 12.364)">
      <path id="Tracé_3931" data-name="Tracé 3931" d="M169.22,138.847H175.4v2.318a3.091,3.091,0,0,1-3.091,3.091h0a3.091,3.091,0,0,1-3.091-3.091v-2.318Z" transform="translate(-169.22 -138.847)" fill="#ebebeb"/>
      <path id="Tracé_3932" data-name="Tracé 3932" d="M273.356,138.847h6.182v2.318a3.091,3.091,0,0,1-3.091,3.091h0a3.091,3.091,0,0,1-3.091-3.091v-2.318Z" transform="translate(-264.083 -138.847)" fill="#ebebeb"/>
    </g>
    <path id="Tracé_3933" data-name="Tracé 3933" d="M189.544,226.245a3.093,3.093,0,0,0-1.855-.618h-5.672a3.093,3.093,0,0,0-1.855.618l-2.264,1.7a12.347,12.347,0,0,0,1.02,2.141l1.283,2.141a5.464,5.464,0,0,0,9.366,0l1.283-2.141a12.388,12.388,0,0,0,.958-2.141Z" transform="translate(-167.853 -205.535)" fill="#70432c"/>
    <path id="Tracé_3934" data-name="Tracé 3934" d="M76.854,369.768a4.636,4.636,0,0,0-3.091,4.358v8.307h3.091Z" transform="translate(-72.99 -336.841)" fill="#717478"/>
    <path id="Tracé_3935" data-name="Tracé 3935" d="M181.485,226.235a3.01,3.01,0,0,0-1.321.564l-2.264,1.7a12.349,12.349,0,0,0,1.02,2.141l1.283,2.141a5.419,5.419,0,0,0,1.546,1.638A14.355,14.355,0,0,1,181.485,226.235Z" transform="translate(-167.853 -206.089)" fill="#5c3724"/>
    <path id="Union_13" data-name="Union 13" d="M1349.456,1403.593v-8.307a3.874,3.874,0,0,0-3.387-3.809l-4.766-.643-.131.306a7.79,7.79,0,0,1-7.168,4.725H1334a7.785,7.785,0,0,1-7.166-4.726l-.131-.305-4.758.643a3.876,3.876,0,0,0-3.4,3.813v8.3H1317v-8.307a5.425,5.425,0,0,1,2.324-4.412,11.492,11.492,0,0,1,1.751-5.767l.586-.94a9.945,9.945,0,0,0,1.521-5.3v-2.594a3.086,3.086,0,0,1,0-4.086v-3.366a10.819,10.819,0,1,1,21.638,0v3.366a3.085,3.085,0,0,1,0,4.086v2.594a9.937,9.937,0,0,0,1.521,5.3l.588.946a11.481,11.481,0,0,1,1.75,5.762,5.424,5.424,0,0,1,2.324,4.409v8.312Zm-19.318-15.262a2.317,2.317,0,0,1-1.85,2.283,6.244,6.244,0,0,0,5.71,3.705H1334a6.247,6.247,0,0,0,5.711-3.7,2.32,2.32,0,0,1-1.85-2.291v-1.533a6.217,6.217,0,0,1-7.727,0Zm-5.409-9.466a11.5,11.5,0,0,1-1.757,6.121l-.586.941a9.947,9.947,0,0,0-1.46,4.184,5.409,5.409,0,0,1,.816-.167l6.174-.834a.773.773,0,0,0,.676-.772v-3.291h.024l-1.244-2.075a13.146,13.146,0,0,1-1.824-5.652h-.048a3.086,3.086,0,0,1-.772-.1Zm15.9,4.107-1.243,2.075h.024v3.284a.774.774,0,0,0,.672.779l6.186.835a5.361,5.361,0,0,1,.809.164,9.942,9.942,0,0,0-1.459-4.181l-.588-.946a11.486,11.486,0,0,1-1.755-6.119v-1.642a3.088,3.088,0,0,1-.773.1h-.047A13.126,13.126,0,0,1,1340.628,1382.972Zm-10.854-3.642-1.824,1.369a11.592,11.592,0,0,0,.747,1.477l1.283,2.142a4.689,4.689,0,0,0,8.041,0l1.283-2.14a11.689,11.689,0,0,0,.749-1.478l-1.824-1.37a2.327,2.327,0,0,0-1.391-.464h-5.672A2.325,2.325,0,0,0,1329.774,1379.329Zm3.544-2.783h1.455v.772h2.063a3.884,3.884,0,0,1,2.318.773l1.42,1.067a11.6,11.6,0,0,0,.381-2.944v-.443a3.862,3.862,0,0,1-6.182-3.089v-1.546h-.854Zm-6.273-.333a11.559,11.559,0,0,0,.382,2.944l1.419-1.066a3.89,3.89,0,0,1,2.318-.773h.518c0-.028,0-.057,0-.085l.179-1.609a3.857,3.857,0,0,1-4.82.147Zm15.456-.44a1.545,1.545,0,0,0,0-3.091Zm-18.546-1.545a1.547,1.547,0,0,0,1.545,1.545v-3.091A1.547,1.547,0,0,0,1323.955,1374.228Zm12.364-1.545a2.318,2.318,0,0,0,4.637,0v-1.546h-4.637Zm-9.274,0a2.318,2.318,0,0,0,4.637,0v-1.546h-4.637Zm15.222-5.191a.775.775,0,0,1,.234.554v3.091a3.081,3.081,0,0,1,.773.1v-2.416a9.273,9.273,0,1,0-18.546,0v2.415a3.126,3.126,0,0,1,.772-.1v-2.317a.773.773,0,0,1,.6-.754c.064-.015,6.456-1.491,7.133-5.555a.773.773,0,0,1,1.5-.117,7.1,7.1,0,0,0,6.971,4.881l.049,0A.753.753,0,0,1,1342.267,1367.492Zm-15.222,1.923v.176h13.91v-.785a8.607,8.607,0,0,1-6.864-4.137C1332.446,1367.618,1328.557,1368.984,1327.046,1369.415Zm-8.5,34.178h0Zm13.137-21.638v-1.545h4.637v1.545Z" transform="translate(-1317 -1358)" fill="#012f2d"/>
  </g>
  <rect id="Rectangle_415" data-name="Rectangle 415" width="52" height="52" fill="none"/>
</svg>
