<svg id="h-4" xmlns="http://www.w3.org/2000/svg" width="52" height="52.247" viewBox="0 0 52 52.247">
  <g id="_017-man-9" data-name="017-man-9" transform="translate(9 6)">
    <path id="Tracé_3948" data-name="Tracé 3948" d="M187.409,292.5a7,7,0,0,0,6.44-4.245l.37-.855-.847-.116a1.54,1.54,0,0,1-1.34-1.541V281.71h-9.245v4.044a1.54,1.54,0,0,1-1.34,1.541l-.847.116.37.855A7,7,0,0,0,187.409,292.5Z" transform="translate(-170.461 -256.264)" fill="#fedac6"/>
    <path id="Tracé_3949" data-name="Tracé 3949" d="M103.9,345.184l-4.021-.532-.37.855a7.01,7.01,0,0,1-12.881,0l-.37-.855-4.021.532a6.163,6.163,0,0,0-5.346,6.109v8.474h32.356v-8.474A6.164,6.164,0,0,0,103.9,345.184Z" transform="translate(-76.119 -313.521)" fill="#2e6aa3"/>
    <path id="Tracé_3950" data-name="Tracé 3950" d="M214.065,290.167v-3.852h-9.244v3.852A10.044,10.044,0,0,0,214.065,290.167Z" transform="translate(-192.495 -260.453)" fill="#f5c4b0"/>
    <path id="Tracé_3951" data-name="Tracé 3951" d="M76.889,364.482v8.474H79.97V359.151A6.163,6.163,0,0,0,76.889,364.482Z" transform="translate(-76.119 -326.71)" fill="#245e8f"/>
    <rect id="Rectangle_286" data-name="Rectangle 286" width="3.081" height="3.852" transform="translate(3.855 42.393)" fill="#fedac6"/>
    <rect id="Rectangle_287" data-name="Rectangle 287" width="3.081" height="3.852" transform="translate(0.773 42.393)" fill="#f5c4b0"/>
    <g id="Groupe_1721" data-name="Groupe 1721" transform="translate(8.489 6.186)">
      <rect id="Rectangle_288" data-name="Rectangle 288" width="6.163" height="3.852" transform="translate(18.477 36.207)" fill="#fedac6"/>
      <path id="Tracé_3952" data-name="Tracé 3952" d="M179.279,82.965a4.62,4.62,0,0,1-1.14,3.081l-3.328,3.767a3.08,3.08,0,0,1-2.311,1.048h-3.374a3.08,3.08,0,0,1-2.311-1.048l-3.328-3.806a4.621,4.621,0,0,1-1.14-3.081V76.194l13.851-7.7,3.081,6.163Z" transform="translate(-162.346 -68.49)" fill="#fedac6"/>
      <path id="Tracé_3953" data-name="Tracé 3953" d="M342.051,145.249h-.77v4.622h.77a2.311,2.311,0,1,0,0-4.622Z" transform="translate(-325.118 -138.316)" fill="#fedac6"/>
    </g>
    <g id="Groupe_1722" data-name="Groupe 1722" transform="translate(6.163 9.268)">
      <path id="Tracé_3954" data-name="Tracé 3954" d="M136.591,156.089A2.311,2.311,0,0,0,138.9,158.4h.77v-4.622h-.77A2.311,2.311,0,0,0,136.591,156.089Z" transform="translate(-136.591 -149.156)" fill="#f5c4b0"/>
      <path id="Tracé_3955" data-name="Tracé 3955" d="M165.559,112.621l-.3-10.015h-2.781l-.3,10.97a6.163,6.163,0,0,0,2.1,4.622s3.135,3.436,3.59,3.667l-1.695-4.83A10.931,10.931,0,0,1,165.559,112.621Z" transform="translate(-159.866 -102.606)" fill="#f5c4b0"/>
    </g>
    <path id="Tracé_3956" data-name="Tracé 3956" d="M162.675,21.58,163.022,17a5.054,5.054,0,0,0-4.2-5.439h0A8.652,8.652,0,0,0,149.3,8.946l-1.132.4a8.652,8.652,0,0,0-5.739,8.875l.216,4.129h1.541l13.867-8.474,3.081,7.7Z" transform="translate(-135.712 -7.69)" fill="#a15d30"/>
    <path id="Tracé_3957" data-name="Tracé 3957" d="M149.664,13.053l-.362.108-1.132.4a8.652,8.652,0,0,0-5.739,8.875l.216,4.1h1.541l3.59-2.2C147.6,18.607,148.608,15.11,149.664,13.053Z" transform="translate(-135.712 -11.874)" fill="#8f4f24"/>
    <path id="Union_14" data-name="Union 14" d="M1402.9,1340.247h-1.541v-3.083h-4.62v3.082h-1.54v-6.163h1.54v1.541h4.62v-3.85a5.412,5.412,0,0,0-4.678-5.33l-3.45-.459-.132.307a7.764,7.764,0,0,1-7.146,4.712h0a7.763,7.763,0,0,1-7.146-4.712l-.138-.321-3.443.458a5.41,5.41,0,0,0-4.678,5.345v3.851h4.625v-1.541h1.541v6.163h-1.541v-3.082h-4.625v3.083H1369v-8.474a6.957,6.957,0,0,1,6.016-6.873l4.868-.647a.771.771,0,0,0,.672-.77v-2.4l-2.506-2.865a5.391,5.391,0,0,1-1.33-3.6v-1.428a3.08,3.08,0,0,1-1.583-4.995l-.189-3.622a9.419,9.419,0,0,1,6.252-9.642l1.132-.4a9.469,9.469,0,0,1,10.189,2.64,5.853,5.853,0,0,1,4.557,6.214l-.308,4.054a3.08,3.08,0,0,1-1.578,4.977v2.245a5.38,5.38,0,0,1-1.331,3.59l-2.52,2.854v2.387a.774.774,0,0,0,.671.778l4.868.647a6.961,6.961,0,0,1,6.017,6.856v8.475Zm-16.948-10.786a6.227,6.227,0,0,0,5.694-3.694,2.314,2.314,0,0,1-1.842-2.283v-.819a3.857,3.857,0,0,1-2.156.664h-3.376a3.857,3.857,0,0,1-2.172-.674v.819a2.311,2.311,0,0,1-1.851,2.278,6.225,6.225,0,0,0,5.7,3.709h0Zm1.695-7.673h-.922v-2.311h1.541v2.226a2.316,2.316,0,0,0,1.113-.7l.273-.309-.579-1.741,1.461-.487.3.893,1.877-2.125a3.836,3.836,0,0,0,.947-2.565v-8.137l-2.64-5.279-9.3,5.175a1.54,1.54,0,1,1-1.847,1.027l-1.6.89v6.28a3.845,3.845,0,0,0,.949,2.573l1.767,2.021.428-.856,1.378.688-.71,1.421.465.531a2.3,2.3,0,0,0,1.1.7v-2.224h1.541v2.312Zm-11.71-11.587a1.541,1.541,0,0,0,.786,1.343v-2.687A1.542,1.542,0,0,0,1375.934,1310.2Zm19.259.564a1.54,1.54,0,0,0,0-2.668Zm-12.347-14.782-1.131.4a7.886,7.886,0,0,0-5.228,8.085l.145,2.769a3.064,3.064,0,0,1,.651-.111l13.684-7.612a.77.77,0,0,1,1.064.328l3.082,6.163a.775.775,0,0,1,.081.344v.1l.106.03.244-3.219a4.306,4.306,0,0,0-3.558-4.621.772.772,0,0,1-.465-.266,7.917,7.917,0,0,0-6.073-2.83A7.824,7.824,0,0,0,1382.846,1295.983Zm.795,20.411v-1.541h4.622v1.541Zm.767-3.081a.77.77,0,0,1-.764-.866l.77-6.163,1.528.192-.661,5.3h1.438v1.541Zm3.856-5.393a1.541,1.541,0,1,1,1.541,1.541A1.54,1.54,0,0,1,1388.263,1307.921Z" transform="translate(-1369 -1294)" fill="#012f2d"/>
  </g>
  <rect id="Rectangle_416" data-name="Rectangle 416" width="52" height="52" fill="none"/>
</svg>
