<svg id="h-4_1" xmlns="http://www.w3.org/2000/svg" width="52" height="52.246" viewBox="0 0 52 52.246">
  <g id="_017-man-9" data-name="017-man-9" transform="translate(9 6)">
    <path id="Tracé_3948" data-name="Tracé 3948" d="M187.409,292.5a7,7,0,0,0,6.44-4.245l.37-.855-.847-.116a1.54,1.54,0,0,1-1.34-1.541V281.71h-9.245v4.044a1.54,1.54,0,0,1-1.34,1.541l-.847.116.37.855A7,7,0,0,0,187.409,292.5Z" transform="translate(-170.461 -256.264)" fill="#c6845f"/>
    <path id="Tracé_3949" data-name="Tracé 3949" d="M103.9,345.184l-4.021-.532-.37.855a7.01,7.01,0,0,1-12.881,0l-.37-.855-4.021.532a6.163,6.163,0,0,0-5.346,6.109v8.474h32.356v-8.474A6.164,6.164,0,0,0,103.9,345.184Z" transform="translate(-76.119 -313.521)" fill="#2e6aa3"/>
    <path id="Tracé_3950" data-name="Tracé 3950" d="M214.065,290.167v-3.852h-9.244v3.852A10.044,10.044,0,0,0,214.065,290.167Z" transform="translate(-192.495 -260.453)" fill="#b56a4c"/>
    <path id="Tracé_3951" data-name="Tracé 3951" d="M76.889,364.482v8.474H79.97V359.151A6.163,6.163,0,0,0,76.889,364.482Z" transform="translate(-76.119 -326.71)" fill="#245e8f"/>
    <path id="Union_1" data-name="Union 1" d="M-224.888-130.941v-3.852h6.162v3.852Zm-23.112,0v-3.852h3.082v3.852Zm11.415-17.688a3.079,3.079,0,0,1-2.311-1.048l-3.328-3.805a4.622,4.622,0,0,1-1.14-3.082V-163.3l13.851-7.7,3.082,6.163v.77a2.31,2.31,0,0,1,2.311,2.311,2.311,2.311,0,0,1-2.311,2.311v2.92a4.622,4.622,0,0,1-1.14,3.082l-3.327,3.767a3.078,3.078,0,0,1-2.311,1.048Z" transform="translate(251.855 177.186)" fill="#c6845f"/>
    <rect id="Rectangle_287" data-name="Rectangle 287" width="3.081" height="3.852" transform="translate(0.773 42.393)" fill="#b56a4c"/>
    <g id="Groupe_1722" data-name="Groupe 1722" transform="translate(6.163 9.268)">
      <path id="Tracé_3954" data-name="Tracé 3954" d="M136.591,156.089A2.311,2.311,0,0,0,138.9,158.4h.77v-4.622h-.77A2.311,2.311,0,0,0,136.591,156.089Z" transform="translate(-136.591 -149.156)" fill="#b56a4c"/>
      <path id="Tracé_3955" data-name="Tracé 3955" d="M165.559,112.621l-.3-10.015h-2.781l-.3,10.97a6.163,6.163,0,0,0,2.1,4.622s3.135,3.436,3.59,3.667l-1.695-4.83A10.931,10.931,0,0,1,165.559,112.621Z" transform="translate(-159.866 -102.606)" fill="#b56a4c"/>
    </g>
    <path id="Tracé_3956" data-name="Tracé 3956" d="M162.675,21.58,163.022,17a5.054,5.054,0,0,0-4.2-5.439h0A8.652,8.652,0,0,0,149.3,8.946l-1.132.4a8.652,8.652,0,0,0-5.739,8.875l.216,4.129h1.541l13.867-8.474,3.081,7.7Z" transform="translate(-135.712 -7.69)" fill="#a15d30"/>
    <path id="Tracé_3957" data-name="Tracé 3957" d="M149.664,13.053l-.362.108-1.132.4a8.652,8.652,0,0,0-5.739,8.875l.216,4.1h1.541l3.59-2.2C147.6,18.607,148.608,15.11,149.664,13.053Z" transform="translate(-135.712 -11.874)" fill="#8f4f24"/>
    <path id="Union_16" data-name="Union 16" d="M1350.9,1340.247h-1.541v-3.083h-4.619v3.082H1343.2v-6.163h1.541v1.541h4.619v-3.85a5.412,5.412,0,0,0-4.678-5.33l-3.45-.458-.132.306a7.764,7.764,0,0,1-7.146,4.712h0a7.763,7.763,0,0,1-7.146-4.712l-.138-.32-3.443.457a5.41,5.41,0,0,0-4.678,5.345v3.851h4.626v-1.541h1.541v6.163h-1.541v-3.082h-4.626v3.083H1317v-8.474a6.957,6.957,0,0,1,6.016-6.873l4.869-.647a.771.771,0,0,0,.672-.77v-2.4l-2.5-2.865a5.386,5.386,0,0,1-1.331-3.6v-1.428a3.079,3.079,0,0,1-1.582-4.994l-.19-3.623a9.42,9.42,0,0,1,6.252-9.642l1.133-.4a9.468,9.468,0,0,1,10.188,2.64,5.852,5.852,0,0,1,4.557,6.214l-.307,4.054a3.08,3.08,0,0,1-1.579,4.977v2.245a5.379,5.379,0,0,1-1.331,3.591l-2.52,2.854v2.386a.774.774,0,0,0,.671.778l4.869.647a6.96,6.96,0,0,1,6.016,6.856v8.475Zm-16.948-10.786a6.227,6.227,0,0,0,5.694-3.694,2.316,2.316,0,0,1-1.842-2.283v-.818a3.858,3.858,0,0,1-2.156.663h-3.376a3.857,3.857,0,0,1-2.173-.674v.819a2.311,2.311,0,0,1-1.85,2.279,6.225,6.225,0,0,0,5.7,3.708h0Zm1.695-7.673h-.922v-2.311h1.541v2.226a2.313,2.313,0,0,0,1.113-.7l.273-.309-.58-1.74,1.461-.487.3.893,1.878-2.125a3.845,3.845,0,0,0,.947-2.565v-8.136l-2.641-5.28-9.3,5.175a1.54,1.54,0,1,1-1.847,1.027l-1.6.89v6.28a3.853,3.853,0,0,0,.95,2.574l1.766,2.02.428-.856,1.378.688-.709,1.421.465.531a2.3,2.3,0,0,0,1.1.7v-2.224h1.541v2.312Zm-11.71-11.587a1.541,1.541,0,0,0,.787,1.343v-2.687A1.542,1.542,0,0,0,1323.933,1310.2Zm19.259.564a1.54,1.54,0,0,0,0-2.668Zm-12.346-14.782-1.132.4a7.886,7.886,0,0,0-5.228,8.085l.145,2.769a3.069,3.069,0,0,1,.651-.112l13.685-7.611a.77.77,0,0,1,1.064.328l3.082,6.163a.775.775,0,0,1,.08.345v.1l.106.029.244-3.219a4.305,4.305,0,0,0-3.558-4.621.772.772,0,0,1-.465-.266,7.917,7.917,0,0,0-6.073-2.83A7.821,7.821,0,0,0,1330.846,1295.983Zm.794,20.411v-1.541h4.622v1.541Zm3.078-3.081h0Zm-2.31,0a.77.77,0,0,1-.765-.866l.77-6.163,1.528.192-.661,5.3h1.438v1.541Zm3.855-5.393a1.541,1.541,0,1,1,1.541,1.541A1.54,1.54,0,0,1,1336.262,1307.921Z" transform="translate(-1317 -1294)" fill="#012f2d"/>
  </g>
  <rect id="Rectangle_416" data-name="Rectangle 416" width="52" height="52" fill="none"/>
</svg>
