<svg id="h-5" xmlns="http://www.w3.org/2000/svg" width="52" height="52.247" viewBox="0 0 52 52.247">
  <g id="_018-man-8" data-name="018-man-8" transform="translate(9 6)">
    <path id="Tracé_3966" data-name="Tracé 3966" d="M103.819,361.011l-4.871-.647h0a7.607,7.607,0,0,1-11.932,0h0l-4.871.647a6.166,6.166,0,0,0-5.349,6.112v6.937h32.373v-6.937A6.166,6.166,0,0,0,103.819,361.011Z" transform="translate(-76.024 -327.813)" fill="#e56b2e"/>
    <path id="Tracé_3967" data-name="Tracé 3967" d="M201.88,304.24h0a1.541,1.541,0,0,1-1.341-1.542v-4.031h-9.249v4.047a1.541,1.541,0,0,1-1.341,1.542h0a7.606,7.606,0,0,0,11.932-.015Z" transform="translate(-178.957 -271.69)" fill="#fedac6"/>
    <path id="Tracé_3968" data-name="Tracé 3968" d="M214.045,302.844v-4.178H204.8v4.178C208.265,304.47,210.577,304.47,214.045,302.844Z" transform="translate(-192.463 -271.689)" fill="#f5c4b0"/>
    <g id="Groupe_1723" data-name="Groupe 1723" transform="translate(6.166 10.791)">
      <path id="Tracé_3969" data-name="Tracé 3969" d="M342.1,153.6h-.771v4.625h.771a2.312,2.312,0,0,0,0-4.625Z" transform="translate(-322.83 -150.517)" fill="#fedac6"/>
      <path id="Tracé_3970" data-name="Tracé 3970" d="M138.841,153.6a2.312,2.312,0,0,0,0,4.625h.771V153.6Z" transform="translate(-136.529 -150.517)" fill="#fedac6"/>
      <path id="Tracé_3971" data-name="Tracé 3971" d="M178.314,119.467l.771,3.083v8.286a4.623,4.623,0,0,1-1.141,3.083l-3.33,3.761a3.083,3.083,0,0,1-2.312,1.056h-3.376a3.083,3.083,0,0,1-2.312-1.056l-3.345-3.8a4.623,4.623,0,0,1-1.141-3.083V122.55l.771-3.083Z" transform="translate(-159.815 -119.467)" fill="#fedac6"/>
    </g>
    <path id="Tracé_3972" data-name="Tracé 3972" d="M162.184,129.487l.771-10.02H159.1l-.3,10.976a6.166,6.166,0,0,0,2.1,4.625s3.137,3.438,3.592,3.669l-1.688-4.833A10.8,10.8,0,0,1,162.184,129.487Z" transform="translate(-150.622 -108.676)" fill="#f5c4b0"/>
    <g id="Groupe_1724" data-name="Groupe 1724" transform="translate(8.479 13.874)">
      <path id="Tracé_3973" data-name="Tracé 3973" d="M162.129,153.6h6.937v3.083A2.312,2.312,0,0,1,166.754,159h-2.312a2.312,2.312,0,0,1-2.312-2.312V153.6Z" transform="translate(-162.129 -153.6)" fill="#ebebeb"/>
      <path id="Tracé_3974" data-name="Tracé 3974" d="M277.687,159h-2.312a2.312,2.312,0,0,1-2.312-2.312V153.6H280v3.083A2.312,2.312,0,0,1,277.687,159Z" transform="translate(-263.042 -153.6)" fill="#ebebeb"/>
    </g>
    <path id="Tracé_3975" data-name="Tracé 3975" d="M157.34,22.407l.771-4.625h0a9.25,9.25,0,0,0-9.249-9.249h-3.083a9.25,9.25,0,0,0-9.249,9.249v.771l.771,3.854,1.66-1.076.652-2.778h15.416l1.025,3.524Z" transform="translate(-130.363 -7.762)" fill="#fecb66"/>
    <path id="Tracé_3976" data-name="Tracé 3976" d="M143.666,11.349a9.249,9.249,0,0,0-7.137,9v.771l.771,3.854,1.688-.376.624-3.478h1.542C140.236,16.768,141.154,14.178,143.666,11.349Z" transform="translate(-130.363 -10.324)" fill="#f5ad76"/>
    <path id="Tracé_3977" data-name="Tracé 3977" d="M76.8,381.483v6.937h3.083V376.149A6.166,6.166,0,0,0,76.8,381.483Z" transform="translate(-76.025 -342.173)" fill="#d65b25"/>
    <path id="Union_18" data-name="Union 18" d="M1402.915,1276.247h-1.542v-6.937a5.415,5.415,0,0,0-4.681-5.332l-4.461-.594a8.386,8.386,0,0,1-12.559-.014l-4.45.592a5.412,5.412,0,0,0-4.68,5.348v6.937H1369v-6.937a6.961,6.961,0,0,1,6.018-6.876l4.872-.647a.772.772,0,0,0,.671-.771v-2.438l-2.52-2.863a5.388,5.388,0,0,1-1.333-3.6v-2.942a3.081,3.081,0,0,1-1.634-4.914l-.664-3.317a.7.7,0,0,1-.015-.15v-.771a10.032,10.032,0,0,1,10.021-10.02h3.083a10.031,10.031,0,0,1,10.021,10.02.857.857,0,0,1-.011.127l-.683,4.093a3.081,3.081,0,0,1-1.62,4.932v2.988a5.382,5.382,0,0,1-1.331,3.589l-2.522,2.85v2.425a.773.773,0,0,0,.67.778l4.873.647a6.964,6.964,0,0,1,6.019,6.859v6.939Zm-12.715-13.055q.228-.181.441-.381a2.313,2.313,0,0,1-.829-1.794v-.854a3.864,3.864,0,0,1-2.156.668h-3.379a3.861,3.861,0,0,1-2.173-.68v.857a2.3,2.3,0,0,1-.839,1.795A6.851,6.851,0,0,0,1390.2,1263.191Zm-11.95-19.222v8.152a3.863,3.863,0,0,0,.95,2.577l3.343,3.8a2.321,2.321,0,0,0,1.737.795h3.374a2.318,2.318,0,0,0,1.732-.792l3.332-3.766a3.84,3.84,0,0,0,.948-2.565v-8.2l-.6-2.407h-14.212Zm-2.312,2.218a1.543,1.543,0,0,0,.771,1.335v-2.67A1.542,1.542,0,0,0,1375.937,1246.187Zm19.269,1.334a1.541,1.541,0,0,0,0-2.67Zm-19.269-7.5v.695l.513,2.565a3.048,3.048,0,0,1,.412-.115l.64-2.562a.77.77,0,0,1,.747-.583h.437a4.472,4.472,0,0,0,1.105-2.952v-.13h1.542v.13a6.019,6.019,0,0,1-.769,2.952h1.976a4.472,4.472,0,0,0,1.105-2.952v-.13h1.542v.13a6.021,6.021,0,0,1-.769,2.952h1.976a4.472,4.472,0,0,0,1.1-2.952v-.13h1.542v.13a6.009,6.009,0,0,1-.769,2.952h1.977a4.467,4.467,0,0,0,1.1-2.952v-.13h1.542v.13a6.013,6.013,0,0,1-.768,2.952h1.539a.77.77,0,0,1,.747.583l.641,2.562a3.063,3.063,0,0,1,.372.1l.552-3.308a8.489,8.489,0,0,0-8.479-8.416h-3.083A8.488,8.488,0,0,0,1375.937,1240.02Zm19.27,36.227v-6.166h1.542v6.166Zm-20.041,0v-6.166h1.542v6.166Z" transform="translate(-1369 -1230)" fill="#012f2d"/>
    <path id="Tracé_3980" data-name="Tracé 3980" d="M233.475,159.575h-2.312a.771.771,0,0,1-.765-.866l.771-6.166,1.529.191-.661,5.3h1.439v1.542Z" transform="translate(-215.747 -138.763)" fill="#012f2d"/>
    <path id="Tracé_3981" data-name="Tracé 3981" d="M158.991,152h-2.312a3.086,3.086,0,0,1-3.083-3.083v-3.083a.771.771,0,0,1,.771-.771H161.3a.771.771,0,0,1,.771.771v3.083A3.086,3.086,0,0,1,158.991,152Zm-3.854-5.4v2.312a1.543,1.543,0,0,0,1.542,1.542h2.312a1.543,1.543,0,0,0,1.542-1.542v-2.312Z" transform="translate(-145.888 -131.964)" fill="#012f2d"/>
    <path id="Tracé_3982" data-name="Tracé 3982" d="M269.924,152h-2.312a3.086,3.086,0,0,1-3.083-3.083v-3.083a.771.771,0,0,1,.771-.771h6.937a.771.771,0,0,1,.771.771v3.083A3.086,3.086,0,0,1,269.924,152Zm-3.854-5.4v2.312a1.543,1.543,0,0,0,1.542,1.542h2.312a1.543,1.543,0,0,0,1.542-1.542v-2.312Z" transform="translate(-246.801 -131.964)" fill="#012f2d"/>
    <rect id="Rectangle_298" data-name="Rectangle 298" width="3.854" height="1.542" transform="translate(14.645 13.103)" fill="#012f2d"/>
    <rect id="Rectangle_299" data-name="Rectangle 299" width="4.625" height="1.542" transform="translate(14.645 22.353)" fill="#012f2d"/>
  </g>
  <rect id="Rectangle_417" data-name="Rectangle 417" width="52" height="52" fill="none"/>
</svg>
