<svg id="h-6_1" xmlns="http://www.w3.org/2000/svg" width="52" height="52" viewBox="0 0 52 52">
  <g id="_019-man-7" data-name="019-man-7" transform="translate(9 5.455)">
    <path id="Tracé_3992" data-name="Tracé 3992" d="M188,292.394a7.007,7.007,0,0,0,6.444-4.247l.347-.771-1.58-.185a1.542,1.542,0,0,1-1.357-1.542V281.6h-7.708v4.023a1.542,1.542,0,0,1-1.357,1.542l-1.542.185.347.771A7.007,7.007,0,0,0,188,292.394Z" transform="translate(-171.045 -256.167)" fill="#c6845f"/>
    <path id="Tracé_3993" data-name="Tracé 3993" d="M103.827,345.655l-4.047-.478-.347.771a7.014,7.014,0,0,1-12.887,0l-.347-.771-4.047.478a6.166,6.166,0,0,0-5.349,6.112v8.479h32.373v-8.479A6.167,6.167,0,0,0,103.827,345.655Z" transform="translate(-76.032 -313.999)" fill="#de4c3c"/>
    <path id="Tracé_3994" data-name="Tracé 3994" d="M76.8,364.42V372.9h3.083V359.086A6.164,6.164,0,0,0,76.8,364.42Z" transform="translate(-76.031 -326.651)" fill="#c94536"/>
    <rect id="Rectangle_302" data-name="Rectangle 302" width="6.166" height="3.854" transform="translate(0.771 42.393)" fill="#c6845f"/>
    <g id="Groupe_1725" data-name="Groupe 1725" transform="translate(0.771 25.436)">
      <rect id="Rectangle_303" data-name="Rectangle 303" width="3.083" height="3.854" transform="translate(0 16.957)" fill="#b56a4c"/>
      <path id="Tracé_3995" data-name="Tracé 3995" d="M221.044,284.687V281.6h-7.708v3.083C216.226,286.229,218.153,286.229,221.044,284.687Z" transform="translate(-201.003 -281.604)" fill="#b56a4c"/>
    </g>
    <g id="Groupe_1726" data-name="Groupe 1726" transform="translate(8.479 7.708)">
      <rect id="Rectangle_304" data-name="Rectangle 304" width="6.166" height="3.854" transform="translate(18.499 34.685)" fill="#c6845f"/>
      <path id="Tracé_3996" data-name="Tracé 3996" d="M179.092,93.816a12.331,12.331,0,0,1-3.083,8.116l-.316.362a6.79,6.79,0,0,1-5.079,2.312h0a6.79,6.79,0,0,1-5.11-2.312l-.285-.37a12.334,12.334,0,0,1-3.083-8.109V85.337h16.957Z" transform="translate(-162.135 -85.337)" fill="#c6845f"/>
    </g>
    <path id="Tracé_3997" data-name="Tracé 3997" d="M165.611,85.337h-3.476v8.479a12.331,12.331,0,0,0,3.083,8.116l.316.362a6.469,6.469,0,0,0,.987.917C164.5,96.467,165.11,89.014,165.611,85.337Z" transform="translate(-153.656 -77.629)" fill="#b56a4c"/>
    <path id="Tracé_3998" data-name="Tracé 3998" d="M342.877,145.07h-1.542v4.625h1.542a2.312,2.312,0,1,0,0-4.625Z" transform="translate(-316.67 -131.966)" fill="#c6845f"/>
    <path id="Tracé_3999" data-name="Tracé 3999" d="M128,147.382a2.312,2.312,0,0,0,2.312,2.312h1.542V145.07h-1.542A2.312,2.312,0,0,0,128,147.382Z" transform="translate(-122.606 -131.966)" fill="#b56a4c"/>
    <path id="Tracé_4000" data-name="Tracé 4000" d="M151.247,10.079h-8.617a2.789,2.789,0,0,1-2.5-1.542l-1.765.886a3.2,3.2,0,0,0,.547,5.927V20.87s2.035-2.9,3.854-5.4h10.02l3.083,4.625V14.7A4.624,4.624,0,0,0,151.247,10.079Z" transform="translate(-130.435 -7.766)" fill="#5c5e6f"/>
    <path id="Tracé_4001" data-name="Tracé 4001" d="M144.26,27.749a9.079,9.079,0,0,1-6.636-4.023,3.184,3.184,0,0,0,1.241,5.442v5.519s2.035-2.9,3.854-5.4h10.02l3.083,4.625V29.052C153.07,28.767,148.329,28.258,144.26,27.749Z" transform="translate(-130.386 -21.583)" fill="#525463"/>
    <path id="Union_20" data-name="Union 20" d="M1349.373,1212.792v-3.083h-4.624v3.083h-1.542v-6.166h1.542v1.542h4.624v-3.855a5.414,5.414,0,0,0-4.681-5.341l-3.468-.409-.114.266a7.771,7.771,0,0,1-7.149,4.713h-.009a7.765,7.765,0,0,1-7.147-4.714l-.117-.271-3.478.41a5.408,5.408,0,0,0-4.669,5.347v3.854h4.625v-1.542h1.542v6.166h-1.542v-3.083h-4.625v3.083H1317v-8.478a6.962,6.962,0,0,1,6.018-6.877l5.638-.664a.77.77,0,0,0,.676-.77v-3.251h.044a7.545,7.545,0,0,1-1.107-1.033l-.317-.409a12.993,12.993,0,0,1-3.03-6.266h-.213a3.083,3.083,0,0,1,0-6.167v-4.212a3.969,3.969,0,0,1-.12-7.154l1.762-.885a.77.77,0,0,1,1.035.344,2.009,2.009,0,0,0,1.806,1.116h8.619a5.4,5.4,0,0,1,5.4,5.4v5.4a3.083,3.083,0,1,1,0,6.167h-.213a13.086,13.086,0,0,1-3.063,6.313l-.313.36a7.575,7.575,0,0,1-1.036.977V1196a.771.771,0,0,0,.679.777l5.624.662a6.963,6.963,0,0,1,6.03,6.87v8.479ZM1333.953,1202h.007a6.229,6.229,0,0,0,5.664-3.626l-.547-.064a2.312,2.312,0,0,1-2.038-2.313v-2.374a7.565,7.565,0,0,1-3.08.669h-.006a7.566,7.566,0,0,1-3.08-.655V1196a2.311,2.311,0,0,1-2.035,2.307l-.552.065A6.227,6.227,0,0,0,1333.953,1202Zm-7.7-19.269a11.552,11.552,0,0,0,2.89,7.6l.318.41a6,6,0,0,0,4.495,2.011h0a6.022,6.022,0,0,0,4.5-2.049l.315-.362a11.559,11.559,0,0,0,2.893-7.611v-3.617l-2.724-4.088h-9.216l-3.475,4.868Zm16.957.77a1.542,1.542,0,1,0,0-3.083v2.312q0,.387-.025.771Zm-20.04-1.542a1.543,1.543,0,0,0,1.542,1.542h.025q-.024-.382-.025-.768v-2.316A1.543,1.543,0,0,0,1323.167,1181.961Zm3.083-4.722,1.581-2.215h-1.466l-.115,0Zm-.973-8.348a2.423,2.423,0,0,0,1.088,4.591h12.988a.77.77,0,0,1,.641.343l1.671,2.507v-2.85a3.858,3.858,0,0,0-3.854-3.854h-8.62a3.539,3.539,0,0,1-2.765-1.315Zm7.139,20.007v-1.542h.13a4.473,4.473,0,0,0,3.179-1.317l1.089,1.091a6,6,0,0,1-4.268,1.768Zm0-3.083a.772.772,0,0,1-.732-1.015l1.542-4.624,1.462.488-1.2,3.61h1.243v1.542Zm4.624-4.624a1.542,1.542,0,1,1,1.542,1.542A1.542,1.542,0,0,1,1337.04,1181.191Zm-9.249,0a1.542,1.542,0,1,1,1.542,1.542A1.542,1.542,0,0,1,1327.791,1181.191Z" transform="translate(-1317 -1166.545)" fill="#012f2d"/>
  </g>
  <rect id="Rectangle_418" data-name="Rectangle 418" width="52" height="52" fill="none"/>
</svg>
