<svg id="h-7" xmlns="http://www.w3.org/2000/svg" width="52" height="52.247" viewBox="0 0 52 52.247">
  <g id="_020-man-6" data-name="020-man-6" transform="translate(8.205 6)">
    <path id="Tracé_4011" data-name="Tracé 4011" d="M172.1,64.358c-2.312-.771-3.854-4.625-3.854-4.625-3.206,3.738-10.475,3.777-14.645,3.445V75.919a7.341,7.341,0,0,0,1.372,4.27l.285.4a7.353,7.353,0,0,0,5.974,3.083h3.522a7.33,7.33,0,0,0,6.374-3.7h0a7.29,7.29,0,0,0,.971-3.692V64.358Z" transform="translate(-144.351 -54.338)" fill="#fedac6"/>
    <path id="Tracé_4012" data-name="Tracé 4012" d="M156.683,107.482V98c-1.125,0-2.181-.046-3.083-.123v12.741a7.341,7.341,0,0,0,1.372,4.27l.285.4a7.369,7.369,0,0,0,4.509,2.875l-.308-.532A20.144,20.144,0,0,1,156.683,107.482Z" transform="translate(-144.351 -89.037)" fill="#f5c4b0"/>
    <path id="Tracé_4013" data-name="Tracé 4013" d="M109.173,317.167v-7.708a6.166,6.166,0,0,0-5.349-6.112l-4.486-.594a2,2,0,0,1-1.727-1.973v-2.112H88.362v2.112a2,2,0,0,1-1.727,1.973l-4.486.594a6.166,6.166,0,0,0-5.349,6.112v7.708Z" transform="translate(-74.488 -271.69)" fill="#fedac6"/>
    <path id="Tracé_4014" data-name="Tracé 4014" d="M208.107,302.243a1.97,1.97,0,0,1-.655-1.464v-2.112H198.2v2.112a1.97,1.97,0,0,1-.655,1.464A11.563,11.563,0,0,0,208.107,302.243Z" transform="translate(-184.328 -271.69)" fill="#f5c4b0"/>
    <g id="Groupe_1727" data-name="Groupe 1727" transform="translate(6.166 0.771)">
      <path id="Tracé_4015" data-name="Tracé 4015" d="M141.049,17.782V14.7a3.854,3.854,0,0,0-3.854-3.854h0a7.9,7.9,0,0,0-5.58-2.312h-2.127c-4.571,0-8.479,3.854-10.02,7.708,0,0,13.1,2.312,17.728-3.083,0,0,1.541,3.854,3.854,4.625" transform="translate(-119.467 -8.533)" fill="#a15d30"/>
      <path id="Tracé_4016" data-name="Tracé 4016" d="M169.416,164.351a1.387,1.387,0,0,1-2.351.077,3.852,3.852,0,0,0-3.176-1.7h-2.081a3.852,3.852,0,0,0-3.176,1.7,1.388,1.388,0,0,1-2.351-.077L153.6,159.4v7.184a7.341,7.341,0,0,0,1.372,4.27l.285.4a7.353,7.353,0,0,0,5.974,3.083h3.522a7.353,7.353,0,0,0,7.346-7.361V159.4Z" transform="translate(-150.517 -145.776)" fill="#a15d30"/>
    </g>
    <path id="Tracé_4017" data-name="Tracé 4017" d="M350.638,110.933h-.771v4.625h.771a2.312,2.312,0,0,0,0-4.625Z" transform="translate(-322.89 -100.913)" fill="#fedac6"/>
    <path id="Tracé_4018" data-name="Tracé 4018" d="M128,113.245a2.312,2.312,0,0,0,2.312,2.312h.771v-4.625h-.771A2.312,2.312,0,0,0,128,113.245Z" transform="translate(-121.063 -100.913)" fill="#f5c4b0"/>
    <path id="Tracé_4019" data-name="Tracé 4019" d="M103.825,342.158l-4.486-.594a2.04,2.04,0,0,1-.725-.231l-5.627,7.708-5.627-7.708a2.023,2.023,0,0,1-.725.254l-4.486.594A6.167,6.167,0,0,0,76.8,348.27v8.479h32.373V348.27A6.167,6.167,0,0,0,103.825,342.158Z" transform="translate(-74.489 -310.502)" fill="#2e6aa3"/>
    <path id="Tracé_4020" data-name="Tracé 4020" d="M221.867,384l3.083,3.854L228.033,384Z" transform="translate(-206.451 -349.315)" fill="#ebebeb"/>
    <g id="Groupe_1728" data-name="Groupe 1728" transform="translate(0.771 43.164)">
      <rect id="Rectangle_310" data-name="Rectangle 310" width="7.708" height="3.083" fill="#2e6aa3"/>
      <rect id="Rectangle_311" data-name="Rectangle 311" width="7.708" height="3.083" transform="translate(27.748)" fill="#2e6aa3"/>
    </g>
    <g id="Groupe_1729" data-name="Groupe 1729" transform="translate(6.166 1.179)">
      <path id="Tracé_4021" data-name="Tracé 4021" d="M126.913,13.056a12.958,12.958,0,0,0-7.446,7.3,39.9,39.9,0,0,0,6.166.493V18.814A13.176,13.176,0,0,1,126.913,13.056Z" transform="translate(-119.467 -13.056)" fill="#8f4f24"/>
      <path id="Tracé_4022" data-name="Tracé 4022" d="M156.729,164.814a1.542,1.542,0,0,1-.447-.462L153.6,159.4v7.184a7.341,7.341,0,0,0,1.372,4.27l.285.4a7.369,7.369,0,0,0,4.509,2.875l-.308-.532A20.178,20.178,0,0,1,156.729,164.814Z" transform="translate(-150.517 -146.184)" fill="#8f4f24"/>
    </g>
    <g id="Groupe_1730" data-name="Groupe 1730" transform="translate(2.312 31.602)">
      <path id="Union_23" data-name="Union 23" d="M1397.542,1085.043v-2.312h-2.312v2.312h-1.542v-2.312h-2.312v2.312h-1.542v-2.312h-2.312v2.312h-1.542v-2.312h-4.625v2.312h-1.541v-2.312H1377.5v2.312h-1.542v-2.312h-2.312v2.312h-1.542v-2.312h-2.312v2.312h-1.542v-6.166h-.77v-1.542h.77v-4.625h1.542v.77h2.312V1070.4h1.542v3.083h2.312V1070.4h1.542v3.083h2.313v-.77h1.541v4.625h2.313v1.542h-2.313v2.312h4.625v-2.312h-2.312v-1.542h2.312v-4.625h1.542v.77h2.312V1070.4h1.542v3.083h2.312V1070.4h1.542v3.083h2.312v-.77h1.542v4.625h.771v1.542h-.771v6.166Zm0-3.854v-2.312h-2.312v2.312Zm-3.854,0v-2.312h-2.312v2.312Zm-3.854,0v-2.312h-2.312v2.312Zm-10.02,0v-2.312H1377.5v2.312Zm-3.855,0v-2.312h-2.312v2.312Zm-3.854,0v-2.312h-2.312v2.312Zm25.436-3.854v-2.313h-2.312v2.313Zm-3.854,0v-2.313h-2.312v2.313Zm-3.854,0v-2.313h-2.312v2.313Zm-10.02,0v-2.313H1377.5v2.313Zm-3.855,0v-2.313h-2.312v2.313Zm-3.854,0v-2.313h-2.312v2.313Z" transform="translate(-1367.482 -1070.398)" fill="#215280"/>
    </g>
    <path id="Union_22" data-name="Union 22" d="M1405.251,1148.247v-2.312h-6.167v2.312h-1.542v-6.166h1.542v2.312h4.625v-4.625a5.41,5.41,0,0,0-4.681-5.347l-2.474-.328-1.337,7.355a.769.769,0,0,1-.456.572.756.756,0,0,1-.3.062.777.777,0,0,1-.428-.13l-3.944-2.63-1.023,1.462v7.464h-1.542v-7.466l-1.022-1.46-3.946,2.631a.773.773,0,0,1-.729.068.772.772,0,0,1-.457-.571l-1.337-7.355-2.473.328a5.41,5.41,0,0,0-4.68,5.347v4.625h4.624v-2.312h1.542v6.166H1377.5v-2.312h-6.166v2.312h-1.542v-3.083a.771.771,0,0,1,.77-.77h.771v-4.625a6.961,6.961,0,0,1,6.018-6.876l4.487-.594a1.23,1.23,0,0,0,1.055-1.133,8.126,8.126,0,0,1-2.823-2.464l-.285-.4a8.062,8.062,0,0,1-1.515-4.718v-6.263a3.083,3.083,0,0,1-.464-5.811c-1.124-.122-1.859-.248-1.982-.27a.772.772,0,0,1-.581-1.046c1.627-4.071,5.838-8.193,10.735-8.193h2.128a8.611,8.611,0,0,1,5.9,2.324,4.632,4.632,0,0,1,4.3,4.613v2.312h0v.1a3.083,3.083,0,0,1,0,5.97v6.626a8.123,8.123,0,0,1-4.6,7.361,1.231,1.231,0,0,0,1.04.992l4.482.594a6.961,6.961,0,0,1,6.019,6.876v4.625h.771a.77.77,0,0,1,.77.77v3.083Zm-23.2-14.421-.485.064,1.114,6.129,2.94-1.96-3.049-4.356A2.752,2.752,0,0,1,1382.047,1133.826Zm8.924,4.233,2.938,1.959,1.115-6.128-.481-.064a2.724,2.724,0,0,1-.524-.124Zm-2.678,1.136,1.218-1.739h-2.435Zm-4.465-6.38,2.169,3.1h4.593l2.171-3.1a2.773,2.773,0,0,1-.506-.973,8.068,8.068,0,0,1-2.051.265h-3.529a8.11,8.11,0,0,1-2.32-.343A2.779,2.779,0,0,1,1383.828,1132.815Zm-4.013-9.233a6.528,6.528,0,0,0,1.228,3.821l.286.4a6.6,6.6,0,0,0,5.348,2.759h3.526a6.582,6.582,0,0,0,6.57-6.615v-4.371l-1.211,2.147a2.166,2.166,0,0,1-1.873,1.086h-.053a2.124,2.124,0,0,1-1.77-.964,3.073,3.073,0,0,0-2.536-1.348h-2.077a3.031,3.031,0,0,0-2.568,1.356,2.133,2.133,0,0,1-1.784.955h-.005a2.178,2.178,0,0,1-1.838-1.079l-1.243-2.179Zm9.518-4.624a4.624,4.624,0,0,1,3.815,2.036.6.6,0,0,0,.522.277.627.627,0,0,0,.554-.309l2.549-4.52v-.568h0v-3.083h0v-.262a9.032,9.032,0,0,1-3.315-3.813c-3.461,2.988-9.6,3.206-13.642,2.961v4.767l2.58,4.522a.618.618,0,0,0,.518.305h0a.594.594,0,0,0,.488-.271,4.624,4.624,0,0,1,3.437-2.025l.689-5.508,1.529.191-.662,5.3Zm-11.831-4.625a1.542,1.542,0,0,0,.771,1.335V1113A1.543,1.543,0,0,0,1377.5,1114.332Zm20.813,1.334a1.541,1.541,0,0,0,0-2.668Zm-4.5-9.032a.77.77,0,0,1,.589.473,10.642,10.642,0,0,0,2.368,3.564v-1.735a3.086,3.086,0,0,0-3.083-3.082.77.77,0,0,1-.544-.225,7.084,7.084,0,0,0-5.036-2.088h-2.127c-3.858,0-7.251,3.05-8.9,6.322,3.07.394,12.443,1.2,16.02-2.969a.771.771,0,0,1,.585-.269A.75.75,0,0,1,1393.815,1106.635Zm-9.375,36.6a1.156,1.156,0,1,1,1.156,1.156A1.157,1.157,0,0,1,1384.439,1143.237Zm.77,0a.386.386,0,1,0,.386-.385A.387.387,0,0,0,1385.21,1143.237Zm.527-19.695.488-1.463a6.57,6.57,0,0,0,4.137,0l.488,1.463a8.117,8.117,0,0,1-5.113,0Zm5.639-9.21a1.542,1.542,0,1,1,1.542,1.542A1.542,1.542,0,0,1,1391.377,1114.332Zm-9.249,0a1.542,1.542,0,1,1,1.542,1.542A1.542,1.542,0,0,1,1382.127,1114.332Z" transform="translate(-1369.795 -1102)" fill="#012f2d"/>
  </g>
  <rect id="Rectangle_419" data-name="Rectangle 419" width="52" height="52" fill="none"/>
</svg>
