<svg id="h-8_1" xmlns="http://www.w3.org/2000/svg" width="52" height="52" viewBox="0 0 52 52">
  <rect id="Rectangle_420" data-name="Rectangle 420" width="52" height="52" fill="none"/>
  <g id="_021-man-5" data-name="021-man-5" transform="translate(9 5)">
    <path id="Tracé_4038" data-name="Tracé 4038" d="M172.1,82.961V93.753a7.183,7.183,0,0,1-.617,2.921h0a9.35,9.35,0,0,1-8.533,5.557h0a9.342,9.342,0,0,1-8.163-4.8l-.285-.509a7.147,7.147,0,0,1-.9-3.484V82.961l5.4-6.166H166.7Z" transform="translate(-145.891 -69.858)" fill="#c6845f"/>
    <path id="Tracé_4039" data-name="Tracé 4039" d="M156.127,113.062l-2.528,2.891v10.475a7.147,7.147,0,0,0,.9,3.484l.285.509a9.194,9.194,0,0,0,2.459,2.837C156.682,128.285,155.141,122.119,156.127,113.062Z" transform="translate(-145.891 -102.85)" fill="#b56a4c"/>
    <path id="Tracé_4040" data-name="Tracé 4040" d="M350.641,145.063h-.771v4.625h.771a2.312,2.312,0,0,0,0-4.625Z" transform="translate(-324.434 -131.96)" fill="#c6845f"/>
    <path id="Tracé_4041" data-name="Tracé 4041" d="M128,147.374a2.312,2.312,0,0,0,2.312,2.312h.771v-4.625h-.771A2.313,2.313,0,0,0,128,147.374Z" transform="translate(-122.603 -131.959)" fill="#b56a4c"/>
    <path id="Tracé_4042" data-name="Tracé 4042" d="M188.466,355.833a7.007,7.007,0,0,0,6.444-4.247l.262-.609-1.773-.208a3.146,3.146,0,0,1-1.85-.9h-6.166a3.145,3.145,0,0,1-1.85.9l-1.773.208.262.609A7.005,7.005,0,0,0,188.466,355.833Z" transform="translate(-171.508 -318.265)" fill="#c6845f"/>
    <path id="Tracé_4043" data-name="Tracé 4043" d="M103.824,362.641l-4.131-.486-.262.609a7.014,7.014,0,0,1-12.888,0l-.262-.609-4.131.486a6.167,6.167,0,0,0-5.349,6.112v6.937h32.373v-6.937A6.168,6.168,0,0,0,103.824,362.641Z" transform="translate(-76.029 -329.443)" fill="#215280"/>
    <g id="Groupe_1731" data-name="Groupe 1731" transform="translate(7.742 0.77)">
      <path id="Tracé_4044" data-name="Tracé 4044" d="M169.481,14.693H157.148a3.183,3.183,0,0,1-1.426-.339h0a3.183,3.183,0,0,1-.848-5.056l.732-.771.771,1.542h9.766c2.4,0,4.756,2.351,3.985,4.625Z" transform="translate(-153.976 -8.527)" fill="#70432c"/>
      <path id="Tracé_4045" data-name="Tracé 4045" d="M301.751,76.794a3.662,3.662,0,0,1,2.513,3.785l-.2,2.382-5.4-6.166Z" transform="translate(-285.599 -70.628)" fill="#70432c"/>
    </g>
    <path id="Tracé_4046" data-name="Tracé 4046" d="M156.876,76.795l-5.4,6.166-.2-2.382a4.205,4.205,0,0,1,2.513-3.785Z" transform="translate(-143.772 -69.858)" fill="#5c3724"/>
    <path id="Tracé_4047" data-name="Tracé 4047" d="M169.17,207.03a.771.771,0,0,1-1.372-.139l-.547-1.426a1.541,1.541,0,0,0-1.457-.994h-5.581a1.541,1.541,0,0,0-1.441.994l-.547,1.426a.771.771,0,0,1-1.372.139L153.77,201.9v5.342a7.147,7.147,0,0,0,.9,3.484l.285.509a9.342,9.342,0,0,0,16.7-.771h0a7.171,7.171,0,0,0,.6-2.906v-5.318Z" transform="translate(-146.047 -183.66)" fill="#70432c"/>
    <g id="Groupe_1732" data-name="Groupe 1732" transform="translate(7.706 2.127)">
      <path id="Tracé_4048" data-name="Tracé 4048" d="M153.6,201.9v5.342a7.147,7.147,0,0,0,.9,3.484l.285.509a9.25,9.25,0,0,0,2.544,2.914,36.022,36.022,0,0,1-.879-7.523Z" transform="translate(-153.597 -185.786)" fill="#5c3724"/>
      <path id="Tracé_4049" data-name="Tracé 4049" d="M154.016,23.546a3.191,3.191,0,0,0,2.744,4.81h8.379C158.2,27.585,154.826,25.273,154.016,23.546Z" transform="translate(-153.575 -23.546)" fill="#5c3724"/>
    </g>
    <rect id="Rectangle_330" data-name="Rectangle 330" width="3.083" height="3.854" transform="translate(3.854 42.393)" fill="#c6845f"/>
    <rect id="Rectangle_331" data-name="Rectangle 331" width="3.083" height="3.854" transform="translate(0.771 42.393)" fill="#b56a4c"/>
    <rect id="Rectangle_332" data-name="Rectangle 332" width="6.166" height="3.854" transform="translate(26.978 42.393)" fill="#c6845f"/>
    <path id="Tracé_4050" data-name="Tracé 4050" d="M191.549,349.866h-6.166a3.145,3.145,0,0,1-1.85.9l-1.773.208.262.609a7.007,7.007,0,0,0,2.312,2.906,15.372,15.372,0,0,0,8.725-3.854A13.487,13.487,0,0,1,191.549,349.866Z" transform="translate(-171.508 -318.264)" fill="#b56a4c"/>
    <path id="Tracé_4051" data-name="Tracé 4051" d="M79.881,381.013a4.625,4.625,0,0,0-3.083,4.355v3.623h3.083Z" transform="translate(-76.027 -346.598)" fill="#1c496e"/>
    <path id="Union_27" data-name="Union 27" d="M1349.374,1085.247v-3.083h-4.625v3.083h-1.542v-3.854a.77.77,0,0,1,.771-.77h5.4v-2.313a5.412,5.412,0,0,0-4.681-5.348l-3.548-.417-.035.081a7.77,7.77,0,0,1-7.149,4.713h-.008a7.767,7.767,0,0,1-7.148-4.714l-.035-.081-3.56.418a5.41,5.41,0,0,0-4.669,5.347v2.312h5.4a.771.771,0,0,1,.771.771v3.854h-1.542v-3.083h-4.625v3.083H1317v-6.937a6.961,6.961,0,0,1,6.018-6.876l4.677-.55.033-.014,0,.01,1.188-.14a10.106,10.106,0,0,1-3.7-3.794l-.283-.506a7.947,7.947,0,0,1-1-3.863V1057.4a3.083,3.083,0,0,1-.058-5.955l-.14-1.659a4.594,4.594,0,0,1,1.675-3.975,3.956,3.956,0,0,1-.326-5.806l.727-.766a.771.771,0,0,1,1.248.186l.558,1.116h9.289a5.234,5.234,0,0,1,4.11,2.155,3.926,3.926,0,0,1,.783,2.641,4.636,4.636,0,0,1,2.372,4.453l-.14,1.656a3.083,3.083,0,0,1-.057,5.955v5.493a7.914,7.914,0,0,1-.683,3.234,10.122,10.122,0,0,1-4.145,4.631l1.031.121,0-.01.035.015,4.664.548a6.962,6.962,0,0,1,6.03,6.877v6.937Zm-15.42-9.449h.007a6.231,6.231,0,0,0,5.575-3.442l-.736-.086a3.928,3.928,0,0,1-1.671-.608,10.053,10.053,0,0,1-6.281-.042,3.925,3.925,0,0,1-1.732.649l-.738.087A6.229,6.229,0,0,0,1333.954,1075.8Zm-8.475-13.22a6.418,6.418,0,0,0,.8,3.11l.284.5a8.563,8.563,0,0,0,15.319-.69,6.345,6.345,0,0,0,.551-2.607v-2.751l-1.679,2.641a1.555,1.555,0,0,1-.755.615,1.506,1.506,0,0,1-.545.1,1.544,1.544,0,0,1-1.442-1l-.545-1.422a.776.776,0,0,0-.723-.5h-5.58a.742.742,0,0,0-.736.5l-.549,1.428a1.542,1.542,0,0,1-2.743.276l-1.66-2.622Zm2.962-.618.548-1.429a2.281,2.281,0,0,1,2.184-1.49h1.333l.686-5.492,1.53.191-.662,5.3h2.686a2.327,2.327,0,0,1,2.162,1.491l.546,1.423,2.983-4.685v-4.876l-4.976-5.687h-7.007l-4.975,5.686v4.885Zm-5.274-7.544a1.541,1.541,0,0,0,.77,1.334v-2.668A1.542,1.542,0,0,0,1323.167,1054.416Zm20.812,1.334a1.541,1.541,0,0,0,0-2.668Zm-1.387-5.521.049-.571a3.093,3.093,0,0,0-1.578-2.969.775.775,0,0,1-.167.018h-1.385Zm-15.614-3.6a3.066,3.066,0,0,0-1.7,3.028l.049.574,3.081-3.522h-.49a3.981,3.981,0,0,1-.957-.119Zm-1.2-4.959a2.4,2.4,0,0,0,2.142,3.5h12.353a2.5,2.5,0,0,0-.5-1.57,3.7,3.7,0,0,0-2.858-1.513h-9.766a.77.77,0,0,1-.689-.426l-.279-.559A2.414,2.414,0,0,0,1325.773,1041.668Zm5.628,22.351.489-1.462a6.57,6.57,0,0,0,4.137,0l.488,1.462a8.117,8.117,0,0,1-5.114,0Zm5.64-9.6a1.541,1.541,0,1,1,1.542,1.541A1.541,1.541,0,0,1,1337.041,1054.416Zm-9.25,0a1.542,1.542,0,1,1,1.542,1.541A1.541,1.541,0,0,1,1327.791,1054.416Z" transform="translate(-1317 -1039)" fill="#012f2d"/>
  </g>
</svg>
