<svg id="h-9_1" xmlns="http://www.w3.org/2000/svg" width="52" height="52.247" viewBox="0 0 52 52.247">
  <rect id="Rectangle_421" data-name="Rectangle 421" width="52" height="52" fill="none"/>
  <g id="_022-man-4" data-name="022-man-4" transform="translate(9 6)">
    <path id="Tracé_4066" data-name="Tracé 4066" d="M214.053,298.679H204.8v19.269h9.249V298.679Z" transform="translate(-192.472 -271.701)" fill="#fedac6"/>
    <g id="Groupe_1733" data-name="Groupe 1733" transform="translate(0.771 30.832)">
      <path id="Tracé_4067" data-name="Tracé 4067" d="M82.158,342.169a6.166,6.166,0,0,0-5.349,6.112v8.478H88.37V341.344Z" transform="translate(-76.809 -341.344)" fill="#de4c3c"/>
      <path id="Tracé_4068" data-name="Tracé 4068" d="M318.763,348.282a6.166,6.166,0,0,0-5.349-6.112l-6.212-.825V356.76h11.561v-8.478Z" transform="translate(-286.391 -341.345)" fill="#de4c3c"/>
    </g>
    <path id="Tracé_4069" data-name="Tracé 4069" d="M204.8,381.791v11.762h9.249V381.791A7.005,7.005,0,0,1,204.8,381.791Z" transform="translate(-192.472 -347.305)" fill="#ebebeb"/>
    <path id="Union_37" data-name="Union 37" d="M1320.854,1000.776V993.3a8.469,8.469,0,0,1-3.645-6.966v-7.708l-.116-.856a8.564,8.564,0,0,1,.285-3.769h16.648a8.561,8.561,0,0,1,.2,4.362l-.062.263v.77h.563a2.312,2.312,0,1,1,0,4.624h-.562v2.313a8.473,8.473,0,0,1-4.062,7.238v7.2a7.005,7.005,0,0,1-9.249,0Z" transform="translate(-1308.522 -966.29)" fill="#c6845f"/>
    <path id="Tracé_4071" data-name="Tracé 4071" d="M207.887,383.589a6.993,6.993,0,0,1-3.083-1.542v11.739h3.083Z" transform="translate(-192.472 -347.538)" fill="#dbdbdb"/>
    <path id="Tracé_4072" data-name="Tracé 4072" d="M214.053,301.762v-3.083H204.8v3.083A9.827,9.827,0,0,0,214.053,301.762Z" transform="translate(-192.472 -271.701)" fill="#b56a4c"/>
    <path id="Tracé_4073" data-name="Tracé 4073" d="M174.652,17.088a8.71,8.71,0,0,0-8.332,6.166h16.648A8.7,8.7,0,0,0,174.652,17.088Z" transform="translate(-157.464 -15.545)" fill="#a15d30"/>
    <g id="Groupe_1734" data-name="Groupe 1734" transform="translate(8.267 2.312)">
      <path id="Tracé_4075" data-name="Tracé 4075" d="M166.93,30.994v.771h13.735a8.7,8.7,0,0,0-16.648,0h2.913Z" transform="translate(-163.635 -25.596)" fill="#a15d30"/>
      <path id="Tracé_4076" data-name="Tracé 4076" d="M163.1,93.886h-2.913a8.663,8.663,0,0,0-.293,3.769l.123.856S163.1,96.969,163.1,93.886Z" transform="translate(-159.802 -87.718)" fill="#a15d30"/>
      <path id="Tracé_4077" data-name="Tracé 4077" d="M318.678,93.886h-2.944c0,3.083,3.083,4.625,3.083,4.625l.054-.262A8.669,8.669,0,0,0,318.678,93.886Z" transform="translate(-301.649 -87.718)" fill="#a15d30"/>
    </g>
    <path id="Union_34" data-name="Union 34" d="M1320.083,986.332v-3.082h-.771a2.312,2.312,0,1,1,0-4.624h.771s3.083-1.542,3.083-4.625v11.284a11.941,11.941,0,0,0,1.071,4.948l1.919,4.231A8.477,8.477,0,0,1,1320.083,986.332Z" transform="translate(-1311.605 -965.52)" fill="#b56a4c"/>
    <g id="Groupe_1735" data-name="Groupe 1735" transform="translate(11.6 2.313)">
      <path id="Union_33" data-name="Union 33" d="M1313.15,977.51l2.312-4.624,1.379.689-2.312,4.624Zm-7.75-4.035,1.463-.487,1.542,4.625-1.463.487Zm4.585,4.379v-6.166h1.542v6.166Z" transform="translate(-1305.4 -971.687)" fill="#91542b"/>
    </g>
    <path id="Tracé_4081" data-name="Tracé 4081" d="M176.491,167.36a.771.771,0,0,1-1.249.185A5.324,5.324,0,0,0,171.482,166h-1.688a5.465,5.465,0,0,0-3.854,1.6.771.771,0,0,1-1.09.005.748.748,0,0,1-.128-.167l-2.582-4.663v5.542a8.478,8.478,0,1,0,16.957,0V162.15Z" transform="translate(-153.662 -147.504)" fill="#a15d30"/>
    <g id="Groupe_1736" data-name="Groupe 1736" transform="translate(8.478 0.773)">
      <path id="Tracé_4082" data-name="Tracé 4082" d="M165.222,174.086a.769.769,0,0,1-.5-.362l-2.582-4.663V174.6a8.478,8.478,0,0,0,4.817,7.638,14.085,14.085,0,0,1-1.734-6.752v-1.4Z" transform="translate(-162.139 -154.563)" fill="#8f4f24"/>
      <path id="Tracé_4083" data-name="Tracé 4083" d="M288.877,8.555A3.083,3.083,0,0,0,286.21,10.1l4.709,3.854a3.083,3.083,0,0,0-2.043-5.4Z" transform="translate(-275.003 -8.555)" fill="#8f4f24"/>
    </g>
    <g id="Groupe_1737" data-name="Groupe 1737" transform="translate(0.771 31.601)">
      <rect id="Rectangle_336" data-name="Rectangle 336" width="4.625" height="14.644" transform="translate(6.936)" fill="#ad3228"/>
      <path id="Tracé_4084" data-name="Tracé 4084" d="M79.891,372.284H76.808V361.493l3.083-3.083Z" transform="translate(-76.808 -357.638)" fill="#ad3228"/>
      <rect id="Rectangle_337" data-name="Rectangle 337" width="3.854" height="3.854" transform="translate(3.082 4.625)" fill="#ad3228"/>
    </g>
    <g id="Groupe_1738" data-name="Groupe 1738" transform="translate(0.77 36.226)">
      <rect id="Rectangle_338" data-name="Rectangle 338" width="3.854" height="3.854" transform="translate(6.937)" fill="#7d241d"/>
      <rect id="Rectangle_339" data-name="Rectangle 339" width="3.083" height="3.854" fill="#7d241d"/>
      <rect id="Rectangle_340" data-name="Rectangle 340" width="3.854" height="2.312" transform="translate(6.983 7.708)" fill="#7d241d"/>
    </g>
    <g id="Groupe_1739" data-name="Groupe 1739" transform="translate(21.58 31.601)">
      <rect id="Rectangle_341" data-name="Rectangle 341" width="4.625" height="14.644" fill="#ad3228"/>
      <path id="Tracé_4085" data-name="Tracé 4085" d="M401.064,372.284h3.083V361.493l-3.083-3.083Z" transform="translate(-392.585 -357.638)" fill="#ad3228"/>
      <rect id="Rectangle_342" data-name="Rectangle 342" width="3.854" height="3.854" transform="translate(4.625 4.625)" fill="#ad3228"/>
    </g>
    <g id="Groupe_1740" data-name="Groupe 1740" transform="translate(0.77 36.226)">
      <rect id="Rectangle_343" data-name="Rectangle 343" width="3.854" height="3.854" transform="translate(21.581)" fill="#7d241d"/>
      <rect id="Rectangle_344" data-name="Rectangle 344" width="3.083" height="3.854" transform="translate(29.289)" fill="#7d241d"/>
      <rect id="Rectangle_345" data-name="Rectangle 345" width="3.854" height="2.312" transform="translate(21.536 7.708)" fill="#7d241d"/>
      <rect id="Rectangle_346" data-name="Rectangle 346" width="3.083" height="2.312" transform="translate(0 7.708)" fill="#7d241d"/>
    </g>
    <rect id="Rectangle_347" data-name="Rectangle 347" width="3.854" height="2.312" transform="translate(3.853 43.934)" fill="#ad3228"/>
    <rect id="Rectangle_348" data-name="Rectangle 348" width="3.083" height="2.312" transform="translate(30.059 43.934)" fill="#7d241d"/>
    <rect id="Rectangle_349" data-name="Rectangle 349" width="3.854" height="2.312" transform="translate(26.205 43.934)" fill="#ad3228"/>
    <path id="Union_32" data-name="Union 32" d="M1349.372,1020.247v-8.478a5.411,5.411,0,0,0-4.681-5.348l-2.661-.354,1.92,7.041a.766.766,0,0,1-.13.671.774.774,0,0,1-.613.3h-3.855v6.164h-1.542v-10.268a7.768,7.768,0,0,1-3.849,1.021h-.007a7.773,7.773,0,0,1-3.851-1.021v10.269h-1.542v-6.164h-3.853a.77.77,0,0,1-.743-.974l1.921-7.041-2.663.354a5.413,5.413,0,0,0-4.68,5.348v8.479H1317v-8.478a6.96,6.96,0,0,1,6.018-6.876l5.543-.736v-1.836a9.244,9.244,0,0,1-3.854-7.509V992.5a3.083,3.083,0,0,1-.118-6.164,9.356,9.356,0,0,1-.092-1.289,9.481,9.481,0,0,1,11.472-9.292l.135.03a3.854,3.854,0,0,1,6.588,4,3.871,3.871,0,0,1-.444.618,9.435,9.435,0,0,1,1.113,5.936,3.083,3.083,0,0,1-.156,6.162v2.311a9.246,9.246,0,0,1-3.855,7.51v1.837l5.542.736a6.959,6.959,0,0,1,6.019,6.876v8.477Zm-10.021-7.708h2.845l-1.824-6.691-1.021-.136Zm-11.809-6.692-1.826,6.691h2.844v-6.826Zm2.56-1.015c0,.013,0,.024,0,.037v3.255a6.234,6.234,0,0,0,3.851,1.333h.005a6.226,6.226,0,0,0,3.851-1.333v-3.293h0v-1.611a9.246,9.246,0,0,1-7.708,0Zm-3.854-10.02a7.708,7.708,0,1,0,15.415,0v-2.93l-1.164,2.307a1.543,1.543,0,0,1-1.374.849h0a1.532,1.532,0,0,1-1.088-.449,4.523,4.523,0,0,0-3.2-1.317h-1.7a4.663,4.663,0,0,0-3.31,1.371,1.57,1.57,0,0,1-.328.252,1.542,1.542,0,0,1-1.172.145,1.536,1.536,0,0,1-.931-.725l-1.141-2Zm0-7.264v1.666l2.479,4.338a6.216,6.216,0,0,1,3.084-1.682l1.412-4.239,1.462.488-1.2,3.61h1.351a6.054,6.054,0,0,1,4.289,1.766l2.542-5.035v-.912a6.431,6.431,0,0,1-3.027-4.3h-9.36A6.429,6.429,0,0,1,1326.249,987.548Zm16.958,3.41a1.541,1.541,0,0,0,0-3.082Zm-20.04-1.542a1.543,1.543,0,0,0,1.541,1.542v-3.082A1.543,1.543,0,0,0,1323.167,989.417Zm18.707-3.622a7.879,7.879,0,0,0-.211-2.744v.2H1340.2A4.694,4.694,0,0,0,1341.874,985.794Zm-15.834-.752c0,.241.012.483.034.724a4.674,4.674,0,0,0,1.634-2.516h-1.46v-.036A7.928,7.928,0,0,0,1326.04,985.042Zm15.146-3.334a7.933,7.933,0,0,0-14.42,0Zm-3.528-5.423a9.44,9.44,0,0,1,3.677,2.766l.022-.039a2.312,2.312,0,0,0-3.7-2.727Zm-12.18,40.494a1.156,1.156,0,1,1,1.156,1.156A1.157,1.157,0,0,1,1325.479,1016.779Zm.77,0a.386.386,0,1,0,.385-.385A.386.386,0,0,0,1326.249,1016.779Zm6.167-19.654v-1.541h.131a4.472,4.472,0,0,0,3.178-1.317l1.09,1.091a6.008,6.008,0,0,1-4.268,1.767Zm4.623-8.48a1.541,1.541,0,1,1,1.542,1.542A1.542,1.542,0,0,1,1337.039,988.645Zm-9.249,0a1.542,1.542,0,1,1,1.542,1.542A1.542,1.542,0,0,1,1327.79,988.645Z" transform="translate(-1317 -974)" fill="#012f2d"/>
  </g>
</svg>
