<svg xmlns="http://www.w3.org/2000/svg" width="453.965" height="147.482" viewBox="0 0 453.965 147.482">
  <g id="no-access" transform="translate(2 1.715)">
    <g id="bg" transform="translate(30.943 11.216)">
      <path id="Tracé_5180" data-name="Tracé 5180" d="M351.273,465.672H698.29c8.264-8.96,10.991-28.17,7.592-42.2-3.988-15.938-16.133-34.718-27.825-46.591-39.743-40.257-104.321-46.985-160.243-36.947C375.018,365.477,345.609,457.937,351.273,465.672Z" transform="translate(-350.624 -335.798)" fill="#00d97e" opacity="0.1" style="isolation: isolate"/>
    </g>
    <path id="white" d="M540.286,461.2H484.6V336.584h57.171Z" transform="translate(-290.392 -318.598)" fill="#fff" style="isolation: isolate"/>
    <g id="Union_44" data-name="Union 44" transform="translate(13101.018 2519.81)" fill="none" stroke-miterlimit="10">
      <path d="M-12678.733-2376.043a1.844,1.844,0,0,1-1.845-1.844,1.846,1.846,0,0,1,1.845-1.844h25.84a1.845,1.845,0,0,1,1.841,1.844,1.843,1.843,0,0,1-1.841,1.844Zm-173.843,0a1.84,1.84,0,0,1-1.848-1.835v-95.527c-.414-15.575-10.519-23.505-24.271-23.792-13.826.286-22.888,8.217-23.167,23.792v93.673h8.861a1.845,1.845,0,0,1,1.841,1.844,1.843,1.843,0,0,1-1.841,1.844h-206.173a1.844,1.844,0,0,1-1.844-1.844,1.846,1.846,0,0,1,1.844-1.844h125.125v-10.544l-57.364-.013a5.333,5.333,0,0,1-5.329-5.333v-14.342a5.336,5.336,0,0,1,.493-2.246l48.325-104.227a5.336,5.336,0,0,1,4.837-3.087h12.165a5.333,5.333,0,0,1,4.83,7.6l-47.228,100.788h39.271v-35.246a5.334,5.334,0,0,1,5.333-5.333h10.824a5.334,5.334,0,0,1,5.336,5.333v35.246h6.73a5.334,5.334,0,0,1,5.333,5.333v10.183a5.337,5.337,0,0,1-5.333,5.336h-6.73v10.558h29.246c-.02-.483-.036-.993-.042-1.572v-93.485q.207-21.474,13.319-33.067c8.189-7.651,19.978-11.481,31.337-11.481,11.7,0,24.669,3.834,32.859,11.5,8.328,7.736,10.613,18.777,10.89,33.116v94.988h26.4a51.775,51.775,0,0,1-7.017-15.881,4.532,4.532,0,0,1,4.393-5.668h12.886a4.565,4.565,0,0,1,4.14,2.706,30.144,30.144,0,0,0,7.039,9.893q5.361,5.016,14.236,5.017a21.362,21.362,0,0,0,15.989-6.727q6.6-6.3,6.81-17.936-.207-11.851-6.806-18.36-6.5-6.3-16.5-6.3h-4.676a4.534,4.534,0,0,1-4.531-4.534v-10.508a4.534,4.534,0,0,1,4.531-4.534h2.9q11.063,0,17.16-6.313,6.1-6.1,6.1-15.841-.212-9.849-6.3-16.167-6.091-6.1-15.693-6.313a19.523,19.523,0,0,0-12.6,4.6,21.589,21.589,0,0,0-7.227,11.067,4.517,4.517,0,0,1-4.314,3.169h-12.846a4.514,4.514,0,0,1-4.458-5.359,45.284,45.284,0,0,1,12.728-23.7,38.7,38.7,0,0,1,27.855-11.922q20.525.217,32.6,13.523a45.511,45.511,0,0,1,11.758,30.67,47.682,47.682,0,0,1-3.193,17.249q-3.732,8.305-13.31,14.8,9.8,6.387,14.161,15.335a43.981,43.981,0,0,1,4.153,18.741q-.168,17.7-8.684,29.286h38.817a1.847,1.847,0,0,1,1.845,1.844,1.844,1.844,0,0,1-1.845,1.844Z" stroke="none"/>
      <path d="M -12652.8935546875 -2376.043212890625 C -12651.8779296875 -2376.043212890625 -12651.052734375 -2376.868408203125 -12651.052734375 -2377.8876953125 C -12651.052734375 -2378.903564453125 -12651.8779296875 -2379.732177734375 -12652.8935546875 -2379.732177734375 L -12678.7333984375 -2379.732177734375 C -12679.7529296875 -2379.732177734375 -12680.578125 -2378.903564453125 -12680.578125 -2377.8876953125 C -12680.578125 -2376.868408203125 -12679.7529296875 -2376.043212890625 -12678.7333984375 -2376.043212890625 L -12652.8935546875 -2376.043212890625 M -12698.451171875 -2376.043212890625 C -12697.4326171875 -2376.043212890625 -12696.6064453125 -2376.868408203125 -12696.6064453125 -2377.8876953125 C -12696.6064453125 -2378.903564453125 -12697.4326171875 -2379.732177734375 -12698.451171875 -2379.732177734375 L -12737.2685546875 -2379.732177734375 C -12731.603515625 -2387.46875 -12728.697265625 -2397.220703125 -12728.5849609375 -2409.017822265625 C -12728.5849609375 -2415.55078125 -12729.9697265625 -2421.7978515625 -12732.73828125 -2427.7587890625 C -12735.6513671875 -2433.72314453125 -12740.369140625 -2438.8359375 -12746.8994140625 -2443.09375 C -12740.5107421875 -2447.424072265625 -12736.078125 -2452.359130859375 -12733.58984375 -2457.89599609375 C -12731.4619140625 -2463.432861328125 -12730.396484375 -2469.183349609375 -12730.396484375 -2475.14453125 C -12730.53515625 -2486.928466796875 -12734.4541015625 -2497.150390625 -12742.154296875 -2505.814208984375 C -12750.203125 -2514.68505859375 -12761.0703125 -2519.192626953125 -12774.75390625 -2519.33740234375 C -12785.5546875 -2519.192626953125 -12794.83984375 -2515.220947265625 -12802.609375 -2507.415283203125 C -12809.2578125 -2500.796875 -12813.4990234375 -2492.89599609375 -12815.3369140625 -2483.71923828125 C -12815.896484375 -2480.941162109375 -12813.7158203125 -2478.360107421875 -12810.87890625 -2478.360107421875 L -12798.033203125 -2478.360107421875 C -12796.056640625 -2478.360107421875 -12794.3076171875 -2479.642333984375 -12793.71875 -2481.529541015625 C -12792.20703125 -2486.3662109375 -12789.796875 -2490.05517578125 -12786.4921875 -2492.5966796875 C -12782.7080078125 -2495.664306640625 -12778.5087890625 -2497.196533203125 -12773.896484375 -2497.196533203125 C -12767.494140625 -2497.05517578125 -12762.263671875 -2494.947509765625 -12758.203125 -2490.8837890625 C -12754.142578125 -2486.671875 -12752.044921875 -2481.282958984375 -12751.9033203125 -2474.717041015625 C -12751.9033203125 -2468.223388671875 -12753.9384765625 -2462.94287109375 -12758.001953125 -2458.875732421875 C -12762.072265625 -2454.667236328125 -12767.787109375 -2452.56298828125 -12775.162109375 -2452.56298828125 L -12778.05859375 -2452.56298828125 C -12780.560546875 -2452.56298828125 -12782.58984375 -2450.531005859375 -12782.58984375 -2448.029052734375 L -12782.58984375 -2437.520751953125 C -12782.58984375 -2435.0185546875 -12780.560546875 -2432.98681640625 -12778.05859375 -2432.98681640625 L -12773.3828125 -2432.98681640625 C -12766.71484375 -2432.98681640625 -12761.21484375 -2430.888916015625 -12756.880859375 -2426.68701171875 C -12752.4814453125 -2422.346923828125 -12750.212890625 -2416.228271484375 -12750.0751953125 -2408.327392578125 C -12750.212890625 -2400.56787109375 -12752.4814453125 -2394.59033203125 -12756.884765625 -2390.3916015625 C -12761.2177734375 -2385.906982421875 -12766.5478515625 -2383.66455078125 -12772.8740234375 -2383.66455078125 C -12778.7919921875 -2383.66455078125 -12783.5361328125 -2385.338134765625 -12787.1103515625 -2388.681884765625 C -12789.990234375 -2391.30908203125 -12792.3349609375 -2394.606689453125 -12794.1494140625 -2398.5751953125 C -12794.892578125 -2400.2060546875 -12796.494140625 -2401.28125 -12798.2890625 -2401.28125 L -12811.1748046875 -2401.28125 C -12814.13671875 -2401.28125 -12816.3271484375 -2398.473388671875 -12815.5673828125 -2395.61279296875 C -12813.94921875 -2389.52685546875 -12811.60546875 -2384.239990234375 -12808.55078125 -2379.732177734375 L -12834.9462890625 -2379.732177734375 L -12834.9462890625 -2474.72021484375 C -12835.22265625 -2489.058837890625 -12837.5078125 -2500.099853515625 -12845.8359375 -2507.836181640625 C -12854.0263671875 -2515.503662109375 -12866.9970703125 -2519.33740234375 -12878.6953125 -2519.33740234375 C -12890.0546875 -2519.33740234375 -12901.8427734375 -2515.507080078125 -12910.0322265625 -2507.85595703125 C -12918.771484375 -2500.12939453125 -12923.2138671875 -2489.10498046875 -12923.3515625 -2474.789306640625 L -12923.3515625 -2381.303955078125 C -12923.345703125 -2380.72509765625 -12923.3291015625 -2380.215576171875 -12923.3095703125 -2379.732177734375 L -12952.5556640625 -2379.732177734375 L -12952.5556640625 -2390.289794921875 L -12945.8251953125 -2390.289794921875 C -12942.8818359375 -2390.289794921875 -12940.4921875 -2392.68017578125 -12940.4921875 -2395.6259765625 L -12940.4921875 -2405.808837890625 C -12940.4921875 -2408.754638671875 -12942.8818359375 -2411.141845703125 -12945.8251953125 -2411.141845703125 L -12952.5556640625 -2411.141845703125 L -12952.5556640625 -2446.38818359375 C -12952.5556640625 -2449.334228515625 -12954.9453125 -2451.72119140625 -12957.8916015625 -2451.72119140625 L -12968.7158203125 -2451.72119140625 C -12971.658203125 -2451.72119140625 -12974.048828125 -2449.334228515625 -12974.048828125 -2446.38818359375 L -12974.048828125 -2411.141845703125 L -13013.3193359375 -2411.141845703125 L -12966.091796875 -2511.9296875 C -12964.4345703125 -2515.464111328125 -12967.015625 -2519.52490234375 -12970.921875 -2519.52490234375 L -12983.0869140625 -2519.52490234375 C -12985.1611328125 -2519.52490234375 -12987.0517578125 -2518.318115234375 -12987.923828125 -2516.4375 L -13036.2490234375 -2412.210205078125 C -13036.5751953125 -2411.506591796875 -13036.7421875 -2410.74072265625 -13036.7421875 -2409.964599609375 L -13036.7421875 -2395.622802734375 C -13036.7421875 -2392.68017578125 -13034.35546875 -2390.289794921875 -13031.4130859375 -2390.289794921875 L -12974.048828125 -2390.276611328125 L -12974.048828125 -2379.732177734375 L -13099.173828125 -2379.732177734375 C -13100.1923828125 -2379.732177734375 -13101.017578125 -2378.903564453125 -13101.017578125 -2377.8876953125 C -13101.017578125 -2376.868408203125 -13100.1923828125 -2376.043212890625 -13099.173828125 -2376.043212890625 L -12893.0009765625 -2376.043212890625 C -12891.9853515625 -2376.043212890625 -12891.16015625 -2376.868408203125 -12891.16015625 -2377.8876953125 C -12891.16015625 -2378.903564453125 -12891.9853515625 -2379.732177734375 -12893.0009765625 -2379.732177734375 L -12901.8623046875 -2379.732177734375 L -12901.8623046875 -2473.405029296875 C -12901.5830078125 -2488.97998046875 -12892.521484375 -2496.910400390625 -12878.6953125 -2497.196533203125 C -12864.9423828125 -2496.910400390625 -12854.837890625 -2488.97998046875 -12854.423828125 -2473.405029296875 L -12854.423828125 -2377.881103515625 L -12854.423828125 -2377.8779296875 C -12854.423828125 -2376.86181640625 -12853.595703125 -2376.043212890625 -12852.576171875 -2376.043212890625 L -12698.451171875 -2376.043212890625 M -12652.8935546875 -2374.043212890625 L -12678.7333984375 -2374.043212890625 C -12680.853515625 -2374.043212890625 -12682.578125 -2375.767822265625 -12682.578125 -2377.8876953125 C -12682.578125 -2380.007568359375 -12680.853515625 -2381.732177734375 -12678.7333984375 -2381.732177734375 L -12652.8935546875 -2381.732177734375 C -12650.775390625 -2381.732177734375 -12649.052734375 -2380.007568359375 -12649.052734375 -2377.8876953125 C -12649.052734375 -2375.767822265625 -12650.775390625 -2374.043212890625 -12652.8935546875 -2374.043212890625 Z M -12698.451171875 -2374.043212890625 L -12852.576171875 -2374.043212890625 C -12854.6982421875 -2374.043212890625 -12856.423828125 -2375.763427734375 -12856.423828125 -2377.8779296875 L -12856.423828125 -2473.377197265625 C -12856.5205078125 -2476.915771484375 -12857.1533203125 -2480.11474609375 -12858.3037109375 -2482.8857421875 C -12859.3876953125 -2485.494384765625 -12860.9384765625 -2487.741455078125 -12862.9140625 -2489.564208984375 C -12866.751953125 -2493.106201171875 -12872.208984375 -2495.05322265625 -12878.6953125 -2495.196044921875 C -12881.919921875 -2495.12548828125 -12884.8544921875 -2494.612548828125 -12887.419921875 -2493.671142578125 C -12889.96875 -2492.735595703125 -12892.16796875 -2491.36865234375 -12893.9560546875 -2489.608642578125 C -12895.78515625 -2487.807861328125 -12897.212890625 -2485.567138671875 -12898.197265625 -2482.948974609375 C -12899.236328125 -2480.18505859375 -12899.796875 -2476.9677734375 -12899.8623046875 -2473.385986328125 L -12899.8623046875 -2381.732177734375 L -12893.0009765625 -2381.732177734375 C -12890.8828125 -2381.732177734375 -12889.16015625 -2380.007568359375 -12889.16015625 -2377.8876953125 C -12889.16015625 -2375.767822265625 -12890.8828125 -2374.043212890625 -12893.0009765625 -2374.043212890625 L -13099.173828125 -2374.043212890625 C -13101.29296875 -2374.043212890625 -13103.017578125 -2375.767822265625 -13103.017578125 -2377.8876953125 C -13103.017578125 -2380.007568359375 -13101.29296875 -2381.732177734375 -13099.173828125 -2381.732177734375 L -12976.048828125 -2381.732177734375 L -12976.048828125 -2388.277099609375 L -13031.4130859375 -2388.289794921875 C -13035.4541015625 -2388.289794921875 -13038.7421875 -2391.579345703125 -13038.7421875 -2395.622802734375 L -13038.7421875 -2409.964599609375 C -13038.7421875 -2411.041259765625 -13038.513671875 -2412.079833984375 -13038.0634765625 -2413.05126953125 L -12989.73828125 -2517.27880859375 C -12988.5419921875 -2519.858154296875 -12985.931640625 -2521.52490234375 -12983.0869140625 -2521.52490234375 L -12970.921875 -2521.52490234375 C -12968.3994140625 -2521.52490234375 -12966.0849609375 -2520.25390625 -12964.732421875 -2518.124755859375 C -12963.3798828125 -2515.99658203125 -12963.2109375 -2513.36328125 -12964.28125 -2511.08056640625 L -13010.173828125 -2413.141845703125 L -12976.048828125 -2413.141845703125 L -12976.048828125 -2446.38818359375 C -12976.048828125 -2450.431640625 -12972.759765625 -2453.72119140625 -12968.7158203125 -2453.72119140625 L -12957.8916015625 -2453.72119140625 C -12953.8466796875 -2453.72119140625 -12950.5556640625 -2450.431640625 -12950.5556640625 -2446.38818359375 L -12950.5556640625 -2413.141845703125 L -12945.8251953125 -2413.141845703125 C -12941.7822265625 -2413.141845703125 -12938.4921875 -2409.852294921875 -12938.4921875 -2405.808837890625 L -12938.4921875 -2395.6259765625 C -12938.4921875 -2391.580810546875 -12941.7822265625 -2388.289794921875 -12945.8251953125 -2388.289794921875 L -12950.5556640625 -2388.289794921875 L -12950.5556640625 -2381.732177734375 L -12925.3515625 -2381.732177734375 L -12925.3515625 -2474.789306640625 L -12925.3515625 -2474.798828125 L -12925.3515625 -2474.80859375 C -12925.2802734375 -2482.18310546875 -12924.076171875 -2488.822021484375 -12921.7724609375 -2494.540771484375 C -12919.44921875 -2500.308837890625 -12915.9521484375 -2505.286376953125 -12911.376953125 -2509.33642578125 C -12909.2734375 -2511.298828125 -12906.890625 -2513.070068359375 -12904.2939453125 -2514.6005859375 C -12901.79296875 -2516.0751953125 -12899.0771484375 -2517.3369140625 -12896.2216796875 -2518.3505859375 C -12890.71875 -2520.304443359375 -12884.658203125 -2521.33740234375 -12878.6953125 -2521.33740234375 C -12872.4951171875 -2521.33740234375 -12866.1396484375 -2520.307373046875 -12860.3154296875 -2518.358642578125 C -12857.267578125 -2517.338623046875 -12854.4013671875 -2516.07763671875 -12851.798828125 -2514.6103515625 C -12849.0439453125 -2513.057373046875 -12846.5791015625 -2511.270751953125 -12844.47265625 -2509.299560546875 C -12840.2373046875 -2505.3642578125 -12837.287109375 -2500.466064453125 -12835.455078125 -2494.325927734375 C -12833.900390625 -2489.11572265625 -12833.103515625 -2482.89794921875 -12832.9462890625 -2474.7587890625 L -12832.9462890625 -2474.739501953125 L -12832.9462890625 -2474.72021484375 L -12832.9462890625 -2381.732177734375 L -12812.1435546875 -2381.732177734375 C -12814.396484375 -2385.7021484375 -12816.193359375 -2390.182861328125 -12817.5 -2395.098876953125 C -12818.0205078125 -2397.05810546875 -12817.607421875 -2399.107421875 -12816.365234375 -2400.7216796875 C -12815.1142578125 -2402.348388671875 -12813.22265625 -2403.28125 -12811.1748046875 -2403.28125 L -12798.2890625 -2403.28125 C -12795.7421875 -2403.28125 -12793.40234375 -2401.759521484375 -12792.3291015625 -2399.404541015625 C -12790.6357421875 -2395.70068359375 -12788.4267578125 -2392.589599609375 -12785.7626953125 -2390.159423828125 L -12785.7529296875 -2390.15087890625 L -12785.744140625 -2390.142333984375 C -12784.16796875 -2388.66796875 -12782.3046875 -2387.54541015625 -12780.2060546875 -2386.8056640625 C -12778.05859375 -2386.04833984375 -12775.591796875 -2385.66455078125 -12772.8740234375 -2385.66455078125 C -12769.9931640625 -2385.66455078125 -12767.3134765625 -2386.177734375 -12764.9072265625 -2387.18994140625 C -12762.505859375 -2388.2001953125 -12760.2900390625 -2389.7451171875 -12758.3232421875 -2391.78125 L -12758.294921875 -2391.810791015625 L -12758.2646484375 -2391.839111328125 C -12756.2919921875 -2393.720458984375 -12754.7724609375 -2396.040283203125 -12753.75 -2398.73388671875 C -12752.7060546875 -2401.48388671875 -12752.142578125 -2404.71142578125 -12752.0751953125 -2408.328125 C -12752.1435546875 -2412.01953125 -12752.7080078125 -2415.32275390625 -12753.7548828125 -2418.147216796875 C -12754.7802734375 -2420.911376953125 -12756.30078125 -2423.302001953125 -12758.275390625 -2425.253173828125 C -12760.2353515625 -2427.153076171875 -12762.4873046875 -2428.5966796875 -12764.9697265625 -2429.544189453125 C -12767.4775390625 -2430.50146484375 -12770.30859375 -2430.98681640625 -12773.3828125 -2430.98681640625 L -12778.05859375 -2430.98681640625 C -12781.66015625 -2430.98681640625 -12784.58984375 -2433.91796875 -12784.58984375 -2437.520751953125 L -12784.58984375 -2448.029052734375 C -12784.58984375 -2451.6318359375 -12781.66015625 -2454.56298828125 -12778.05859375 -2454.56298828125 L -12775.162109375 -2454.56298828125 C -12771.728515625 -2454.56298828125 -12768.6572265625 -2455.052490234375 -12766.033203125 -2456.01806640625 C -12763.4736328125 -2456.960205078125 -12761.2548828125 -2458.389404296875 -12759.439453125 -2460.26611328125 L -12759.4287109375 -2460.27783203125 L -12759.4169921875 -2460.289306640625 C -12757.5927734375 -2462.114990234375 -12756.2060546875 -2464.239990234375 -12755.294921875 -2466.605224609375 C -12754.3740234375 -2468.997314453125 -12753.9052734375 -2471.718994140625 -12753.9033203125 -2474.6943359375 C -12753.970703125 -2477.72021484375 -12754.490234375 -2480.500244140625 -12755.447265625 -2482.957275390625 C -12756.3935546875 -2485.385986328125 -12757.80078125 -2487.5810546875 -12759.6298828125 -2489.482177734375 C -12761.45703125 -2491.3076171875 -12763.572265625 -2492.711669921875 -12765.91796875 -2493.65576171875 C -12768.2919921875 -2494.611083984375 -12770.9833984375 -2495.12939453125 -12773.91796875 -2495.196533203125 C -12775.9716796875 -2495.194091796875 -12777.95703125 -2494.84814453125 -12779.8193359375 -2494.168212890625 C -12781.7001953125 -2493.481201171875 -12783.5224609375 -2492.4296875 -12785.232421875 -2491.04296875 L -12785.2529296875 -2491.02685546875 L -12785.2724609375 -2491.01123046875 C -12786.7392578125 -2489.8837890625 -12788.02734375 -2488.47705078125 -12789.103515625 -2486.830078125 C -12790.2021484375 -2485.14794921875 -12791.1123046875 -2483.163818359375 -12791.8095703125 -2480.932861328125 C -12792.2265625 -2479.59765625 -12793.04296875 -2478.45361328125 -12794.171875 -2477.625 C -12795.298828125 -2476.797607421875 -12796.634765625 -2476.360107421875 -12798.033203125 -2476.360107421875 L -12810.87890625 -2476.360107421875 C -12812.85546875 -2476.360107421875 -12814.70703125 -2477.237548828125 -12815.958984375 -2478.767333984375 C -12817.19140625 -2480.272216796875 -12817.6787109375 -2482.220947265625 -12817.2978515625 -2484.1142578125 C -12816.3447265625 -2488.873291015625 -12814.7431640625 -2493.36865234375 -12812.5390625 -2497.472900390625 C -12810.3349609375 -2501.5771484375 -12807.4697265625 -2505.39794921875 -12804.0234375 -2508.829345703125 C -12799.9765625 -2512.894287109375 -12795.4619140625 -2516.009521484375 -12790.60546875 -2518.087890625 C -12785.7431640625 -2520.16845703125 -12780.4189453125 -2521.26171875 -12774.7802734375 -2521.337158203125 L -12774.7568359375 -2521.33740234375 L -12774.732421875 -2521.337158203125 C -12767.666015625 -2521.262451171875 -12761.2197265625 -2520.037353515625 -12755.5751953125 -2517.6953125 C -12749.8916015625 -2515.338134765625 -12744.8779296875 -2511.79296875 -12740.6728515625 -2507.158203125 L -12740.666015625 -2507.150390625 L -12740.6591796875 -2507.142822265625 C -12736.6669921875 -2502.650390625 -12733.609375 -2497.678466796875 -12731.572265625 -2492.365478515625 C -12729.537109375 -2487.05615234375 -12728.46875 -2481.27001953125 -12728.396484375 -2475.168212890625 L -12728.396484375 -2475.15625 L -12728.396484375 -2475.14453125 C -12728.396484375 -2468.966552734375 -12729.515625 -2462.921875 -12731.72265625 -2457.178466796875 L -12731.7431640625 -2457.126708984375 L -12731.765625 -2457.076171875 C -12733.08984375 -2454.13037109375 -12734.94921875 -2451.31396484375 -12737.294921875 -2448.705322265625 C -12739.0439453125 -2446.759521484375 -12741.099609375 -2444.888916015625 -12743.4267578125 -2443.123046875 C -12741.0166015625 -2441.35498046875 -12738.859375 -2439.44482421875 -12736.9931640625 -2437.4228515625 C -12734.5126953125 -2434.73681640625 -12732.4765625 -2431.78076171875 -12730.94140625 -2428.636474609375 L -12730.9326171875 -2428.618896484375 L -12730.9248046875 -2428.601318359375 C -12728.044921875 -2422.401611328125 -12726.5849609375 -2415.812744140625 -12726.5849609375 -2409.017822265625 L -12726.5849609375 -2409.00830078125 L -12726.5849609375 -2408.998779296875 C -12726.642578125 -2402.94775390625 -12727.4306640625 -2397.32373046875 -12728.9267578125 -2392.282958984375 C -12730.0517578125 -2388.496337890625 -12731.59765625 -2384.9619140625 -12733.5400390625 -2381.732177734375 L -12698.451171875 -2381.732177734375 C -12696.3310546875 -2381.732177734375 -12694.6064453125 -2380.007568359375 -12694.6064453125 -2377.8876953125 C -12694.6064453125 -2375.767822265625 -12696.3310546875 -2374.043212890625 -12698.451171875 -2374.043212890625 Z" stroke="none" fill="#fff"/>
    </g>
    <path id="vert" d="M540.286,461.2H484.6V336.584h57.171Z" transform="translate(-290.392 -320.176)" fill="#00d97e" style="isolation: isolate"/>
    <path id="white-2" data-name="white" d="M24.162,0H33.01A24.162,24.162,0,0,1,57.172,24.162v96.619a0,0,0,0,1,0,0H0a0,0,0,0,1,0,0V24.162A24.162,24.162,0,0,1,24.162,0Z" transform="translate(194.204 17.986)" fill="#fff"/>
    <g id="dark" transform="translate(0 0.284)">
      <path id="Tracé_5181" data-name="Tracé 5181" d="M707.524,444.478H681.685a1.844,1.844,0,0,0,0,3.688h25.839a1.844,1.844,0,0,0,0-3.688Z" transform="translate(-259.401 -304.683)" fill="#00302d"/>
      <path id="Tracé_5182" data-name="Tracé 5182" d="M727.035,466.113H688.219q8.5-11.606,8.684-29.288a44.016,44.016,0,0,0-4.154-18.742q-4.369-8.944-14.162-15.334,9.583-6.493,13.31-14.8a47.654,47.654,0,0,0,3.194-17.251,45.5,45.5,0,0,0-11.76-30.667q-12.071-13.31-32.6-13.524a38.7,38.7,0,0,0-27.854,11.922,45.284,45.284,0,0,0-12.728,23.694,4.518,4.518,0,0,0,4.458,5.362h12.846a4.521,4.521,0,0,0,4.315-3.17,21.587,21.587,0,0,1,7.225-11.068,19.53,19.53,0,0,1,12.6-4.6q9.6.213,15.694,6.315,6.091,6.316,6.3,16.165,0,9.739-6.1,15.841-6.1,6.316-17.157,6.315h-2.9a4.532,4.532,0,0,0-4.531,4.531v10.511a4.532,4.532,0,0,0,4.531,4.531H652.1q10,0,16.5,6.3,6.6,6.513,6.806,18.362-.206,11.636-6.808,17.936a21.371,21.371,0,0,1-15.992,6.725q-8.875,0-14.236-5.018a30.122,30.122,0,0,1-7.037-9.892,4.567,4.567,0,0,0-4.141-2.7H614.313a4.531,4.531,0,0,0-4.393,5.668,51.789,51.789,0,0,0,7.017,15.881h-26.4V371.124c-.276-14.339-2.561-25.379-10.889-33.116-8.191-7.668-21.16-11.5-32.859-11.5-11.358,0-23.147,3.828-31.337,11.482q-13.111,11.59-13.318,33.065v93.486c.006.577.021,1.089.041,1.572H472.93v-10.56h6.731a5.334,5.334,0,0,0,5.333-5.333V440.034a5.334,5.334,0,0,0-5.333-5.333H472.93V399.455a5.333,5.333,0,0,0-5.333-5.333H456.774a5.333,5.333,0,0,0-5.333,5.333V434.7H412.167L459.4,333.915a5.334,5.334,0,0,0-4.829-7.6H442.4a5.334,5.334,0,0,0-4.839,3.09L389.239,433.634a5.349,5.349,0,0,0-.495,2.244v14.343a5.334,5.334,0,0,0,5.332,5.333l57.364.013v10.546H326.313a1.844,1.844,0,0,0,0,3.688H532.485a1.844,1.844,0,0,0,0-3.688h-8.859V372.44c.277-15.577,9.342-23.507,23.165-23.793,13.752.286,23.858,8.217,24.274,23.793v95.526a1.839,1.839,0,0,0,1.847,1.835H727.035a1.844,1.844,0,1,0,0-3.688Z" transform="translate(-324.47 -326.318)" fill="#00302d"/>
      <path id="Tracé_5183" data-name="Tracé 5183" d="M504.756,396.877a3.673,3.673,0,1,0,3.674,3.674A3.673,3.673,0,0,0,504.756,396.877Z" transform="translate(-292.132 -313.398)" fill="#00302d"/>
    </g>
  </g>
</svg>
