<?xml version="1.0" encoding="utf-8"?>
<!-- Generator: Adobe Illustrator 26.2.0, SVG Export Plug-In . SVG Version: 6.00 Build 0)  -->
<svg version="1.1" xmlns="http://www.w3.org/2000/svg" xmlns:xlink="http://www.w3.org/1999/xlink" x="0px" y="0px"
	 viewBox="0 0 174.4 158.2" style="enable-background:new 0 0 174.4 158.2;" xml:space="preserve">
<style type="text/css">
	.st0{fill:#00D975;}
	.st1{fill:#EBEEEE;}
	.st2{fill:#FFFFFF;}
	.st3{fill:#F4F7F7;}
	.st4{fill:#102836;}
</style>
<g id="Calque_2">
</g>
<g id="Calque_1">
	<circle class="st0" cx="87.8" cy="133.7" r="7.1"/>
	<path class="st1" d="M105.8,112.4c-2.2,0-4.3-0.8-5.9-2.4c-3.3-3-7.6-4.7-12.1-4.7c-0.4,0-0.7,0-1,0V88.2c0.4,0,0.7,0,1,0
		c8.9,0,17.5,3.4,23.9,9.6c3.4,3.3,3.5,8.6,0.2,12C110.3,111.5,108.1,112.4,105.8,112.4L105.8,112.4z"/>
	<path class="st1" d="M125.3,88.6L125.3,88.6c-2.3,0-4.4-0.9-6-2.5l0,0c-8.2-8.5-19.5-13.3-31.3-13.3c-0.4,0-0.8,0-1.3,0v-17H88
		c16.4,0,32,6.7,43.4,18.5l0,0c3.2,3.4,3.1,8.8-0.3,12C129.5,87.7,127.5,88.6,125.3,88.6L125.3,88.6z"/>
	<path class="st1" d="M146.3,64L146.3,64c-2.2,0-4.3-0.9-5.9-2.4c-14.1-13.6-33-21.3-52.6-21.2h-1V23.5h1c5.8,0,11.6,0.5,17.3,1.6
		c17.7,3.3,34,11.8,47,24.3c3.4,3.3,3.4,8.6,0.2,12C150.7,63.1,148.6,64,146.3,64z"/>
	<path class="st2" d="M146.3,63.7L146.3,63.7c-2.1,0-4.1-0.8-5.6-2.3c-10.6-10.3-24.1-17.2-38.6-20c-14.2-2.7-28.8-1.3-42.3,4
		c-9.2,3.6-17.7,9.1-24.8,16l0,0l0,0c-3.5,2.9-8.6,2.4-11.5-1.1c-2.6-3.1-2.5-7.7,0.2-10.7l0,0l0,0c12.9-12.5,29.3-21,47-24.4
		c11.4-2.2,23.1-2.2,34.5,0c17.7,3.3,34,11.8,46.9,24.3c1.6,1.5,2.5,3.5,2.5,5.7c0.1,2.2-0.8,4.3-2.2,5.8
		C150.6,62.8,148.5,63.7,146.3,63.7L146.3,63.7z"/>
	<path class="st2" d="M50.7,88.4c-4.6,0-8.3-3.7-8.3-8.3c0-2.1,0.8-4.1,2.3-5.7l0,0C56,62.7,71.6,56.1,87.9,56.1H88
		c8.1,0,16,1.6,23.4,4.8c7.4,3.1,14.1,7.8,19.7,13.6l0,0c3.1,3.3,3,8.4-0.3,11.6c-1.5,1.5-3.5,2.3-5.6,2.3l0,0
		c-2.2,0-4.3-0.9-5.8-2.5l0,0C102.7,68.5,75.1,68,57.7,84.7c-0.4,0.4-0.7,0.7-1.1,1.1C55.1,87.5,52.9,88.4,50.7,88.4z"/>
	<path class="st2" d="M69.8,112.1L69.8,112.1c-2.2,0-4.3-0.9-5.9-2.5c-3.1-3.2-3.1-8.4,0.2-11.6l0,0c13.2-12.7,34.1-12.7,47.3,0
		c3.2,3.2,3.2,8.4,0.1,11.6s-8.2,3.2-11.4,0.2c-7-6.4-17.7-6.4-24.6,0C74,111.3,71.9,112.1,69.8,112.1z"/>
	<path class="st3" d="M151.9,49.7c-12.9-12.5-29.2-21-46.9-24.3c-1.4-0.3-2.9-0.5-8.4-1v16.5c4.5,0.4,4.9,0.4,5.4,0.5
		c14.5,2.8,28,9.7,38.6,20c1.5,1.5,3.5,2.3,5.7,2.3l0,0c2.2,0,4.3-0.9,5.9-2.5c1.5-1.6,2.3-3.7,2.2-5.8
		C154.4,53.2,153.5,51.2,151.9,49.7z"/>
	<path class="st3" d="M131.2,74.4c-5.6-5.8-12.3-10.4-19.7-13.6c-3.5-1.5-7-2.6-14.8-4.3v16.9c11,3,17.5,6.8,22.8,12.4
		c1.5,1.6,3.6,2.4,5.8,2.5c2.1,0,4.1-0.8,5.6-2.3C134.2,82.9,134.3,77.7,131.2,74.4z"/>
	<path class="st3" d="M111.5,98c-3.2-3.1-6.8-5.4-14.5-9.4v19.3c7,4.9,11.6,4.6,14.6,1.6C114.7,106.4,114.7,101.2,111.5,98z"/>
	<path class="st4" d="M146.3,62c3.6,0,6.5-2.9,6.5-6.5c0-1.8-0.7-3.4-2-4.7l0,0C115.6,17,60,17,24.8,50.9c-2.4,2.7-2.2,6.8,0.5,9.2
		c2.4,2.1,6,2.2,8.4,0.2c30.1-29.1,77.9-29.1,108,0C143,61.3,144.6,62,146.3,62 M146.3,65.4C143.3,65.4,146.3,65.4,146.3,65.4
		c-2.5,0-5-1-6.8-2.8c-7-6.8-15.2-12.1-24.2-15.6c-17.6-7-37.2-7-54.8,0c-9,3.6-17.3,8.9-24.2,15.7l-0.2,0.2c-1.8,1.5-4,2.3-6.3,2.3
		c-2.7,0-5.3-1.1-7.1-3c-3.6-3.7-3.7-9.6-0.2-13.5l0.1-0.1l0.1-0.1c8.8-8.6,19.2-15.3,30.7-19.8c22.3-8.8,47-8.8,69.3,0
		c11.4,4.5,21.8,11.2,30.7,19.8c3.9,3.8,4,10,0.3,13.9C151.6,64.3,149.3,65.4,146.3,65.4z"/>
	<path class="st4" d="M88,57.8h-0.2c-15.8,0-30.9,6.4-41.9,17.8c-2.5,2.6-2.4,6.8,0.3,9.3c2.6,2.5,6.8,2.4,9.3-0.3
		c17.4-18,46.1-18.6,64.1-1.2c0.4,0.4,0.8,0.8,1.2,1.2c2.6,2.5,6.7,2.4,9.1-0.2c2.4-2.5,2.4-6.3,0.1-8.8
		C119,64.2,103.8,57.8,88,57.8 M88,54.4L88,54.4c12.5,0,24.6,3.8,34.9,10.8c3.4,2.3,6.6,5,9.5,8l0,0c3.8,3.9,3.7,10.2-0.2,14
		c-1.8,1.8-4.3,2.8-6.9,2.8l0,0c-2.6,0-5.2-1.1-7-3l0,0C102.2,70.3,75.7,69.8,59,85.9c-0.4,0.4-0.7,0.7-1.1,1.1
		c-3.5,4.2-9.8,4.8-14.1,1.3c-4.2-3.5-4.8-9.8-1.3-14.1c0.3-0.3,0.5-0.6,0.8-0.9l0,0c5.8-6,12.7-10.7,20.3-14
		c3.8-1.6,7.7-2.8,11.7-3.7c4.1-0.8,8.2-1.2,12.3-1.2H88z"/>
	<path class="st4" d="M87.8,90.2c-8.4,0-16.4,3.3-22.5,9.1c-2.5,2.6-2.3,6.7,0.3,9.2c2.4,2.3,6.2,2.3,8.7,0.2c7.6-7,19.3-7,26.9,0
		c2.6,2.5,6.7,2.4,9.2-0.2s2.4-6.7-0.2-9.2C104.2,93.5,96.2,90.2,87.8,90.2 M87.8,86.8L87.8,86.8c9.3,0,18.2,3.6,24.8,10
		c3.9,3.8,4.1,10,0.3,14l0,0c-3.8,3.9-10,4-13.9,0.3c-6.3-5.8-16-5.8-22.3,0c-4.1,3.6-10.3,3.2-13.9-0.9c-3.4-3.8-3.2-9.6,0.3-13.3
		C69.7,90.4,78.6,86.8,87.8,86.8L87.8,86.8z"/>
	<path class="st2" d="M88,15.6c-4.5,0-8.2,3.2-8.2,7.1v86.1c0,3.9,3.7,7.1,8.2,7.1s8.2-3.2,8.2-7.1V22.7
		C96.2,18.8,92.5,15.6,88,15.6"/>
	<g id="Tracé_5197">
		<path class="st0" d="M88,15.7c-4.5,0-8.2,3.2-8.2,7.1v85.9c0,3.9,3.7,7.1,8.2,7.1s8.2-3.2,8.2-7.1V22.9
			C96.2,18.9,92.5,15.7,88,15.7z"/>
		<g>
			<path class="st4" d="M87.8,124.3c-5.2,0-9.4,4.2-9.4,9.4s4.2,9.4,9.4,9.4c5.2,0,9.4-4.2,9.4-9.4C97.2,128.5,93,124.3,87.8,124.3z
				 M87.8,140.1c-3.5,0-6.4-2.9-6.4-6.4s2.9-6.4,6.4-6.4s6.4,2.9,6.4,6.4C94.2,137.2,91.3,140.1,87.8,140.1z"/>
			<path class="st4" d="M88,14c-5.4,0-9.8,3.9-9.8,8.7v85.8c0,4.8,4.4,8.7,9.8,8.7s9.8-3.8,9.8-8.6V22.7C97.6,17.8,93.4,14,88,14z
				 M88,114.2c-3.7,0-6.8-2.5-6.8-5.7V22.7c0-3.1,3-5.7,6.8-5.7c3.7,0,6.7,2.5,6.8,5.7v85.9C94.8,111.8,91.8,114.2,88,114.2z"/>
		</g>
	</g>
	<g>
		<path class="st2" d="M88.2,13.8c5.4,0,9.6,3.8,9.8,8.6c8.5,0.9,16.8,2.9,24.9,6.1c11.4,4.5,21.8,11.2,30.7,19.8
			c3.9,3.8,4,10,0.3,13.9c-2.1,1.9-4.4,3-7.4,3c-2.5,0-5-1-6.8-2.8c-7-6.8-15.2-12.1-24.2-15.6C109.8,44.5,104,43,98,42.2V55
			c9,1.4,17.5,4.9,25.1,10c3.4,2.3,6.6,5,9.5,8c3.8,3.9,3.7,10.2-0.2,14c-1.8,1.8-4.3,2.8-6.9,2.8c-2.6,0-5.2-1.1-7-3
			c-5.8-6-12.9-9.9-20.5-11.7V88c5.5,1.6,10.6,4.5,14.8,8.6c3.9,3.8,4.1,10,0.3,14c-2,2-4.5,3-7.1,3c-2.4,0-4.9-0.9-6.8-2.7
			c-0.4-0.4-0.9-0.8-1.3-1.1c-0.8,4.1-4.8,7.2-9.7,7.2c-4.9,0-9-3.2-9.7-7.4c-0.6,0.4-1.1,0.8-1.6,1.3c-1.9,1.6-4.2,2.5-6.5,2.5
			c-2.7,0-5.4-1.1-7.4-3.4c-3.4-3.8-3.2-9.6,0.3-13.3c4.3-4.2,9.5-7.2,15.1-8.8V75.1c-7,1.7-13.6,5.2-19.2,10.6
			c-0.4,0.4-0.7,0.7-1.1,1.1c-2,2.4-4.8,3.6-7.7,3.6c-2.3,0-4.5-0.7-6.4-2.3c-4.2-3.5-4.8-9.8-1.3-14.1c0.3-0.3,0.5-0.6,0.8-0.9
			c5.8-6,12.7-10.7,20.3-14c3.8-1.6,7.7-2.8,11.7-3.7c1-0.2,1.9-0.4,2.9-0.5V42.2c-6,0.8-12,2.3-17.7,4.6c-9,3.6-17.3,8.9-24.2,15.7
			l-0.2,0.2c-1.8,1.5-4,2.3-6.3,2.3c-2.7,0-5.3-1.1-7.1-3c-3.6-3.7-3.7-9.6-0.2-13.5l0.1-0.1l0.1-0.1c8.8-8.6,19.2-15.3,30.7-19.8
			c8-3.2,16.4-5.2,24.8-6.1C78.4,17.7,82.8,13.8,88.2,13.8 M88.2,12.8c-5.6,0-10.2,3.8-10.7,8.7c-8.3,1-16.5,3-24.2,6
			c-11.7,4.6-22.1,11.3-31,20l-0.1,0.1L22,47.8l0,0l0,0c-3.8,4.3-3.7,10.8,0.2,14.9c2,2.1,4.8,3.3,7.8,3.3c2.6,0,5-0.9,6.9-2.5l0,0
			l0,0l0.2-0.2c6.7-6.6,14.8-11.8,23.9-15.5c5.2-2.1,10.7-3.5,16.3-4.4V54c-0.7,0.1-1.4,0.2-2.1,0.4c-4.3,1-8.2,2.2-11.9,3.8
			c-7.9,3.4-14.8,8.2-20.6,14.2c-0.2,0.2-0.3,0.3-0.4,0.5c-0.1,0.1-0.2,0.3-0.3,0.4l0,0l0,0c-3.8,4.7-3.2,11.7,1.4,15.5
			c2,1.6,4.5,2.5,7,2.5c3.3,0,6.3-1.4,8.4-3.9l1.1-1.1c4.9-4.7,10.9-8.2,17.5-10v10.8c-5.6,1.7-10.7,4.7-14.8,8.8
			c-3.9,4.1-4,10.6-0.3,14.7c2.1,2.3,5,3.7,8.1,3.7c2.6,0,5.2-1,7.2-2.7c0.1-0.1,0.3-0.2,0.4-0.3c1.4,3.9,5.6,6.7,10.3,6.7
			c4.7,0,8.7-2.6,10.2-6.5c0,0,0.1,0.1,0.1,0.1c2,1.9,4.7,3,7.5,3c3,0,5.8-1.2,7.8-3.3c4.2-4.4,4-11.2-0.3-15.4
			c-4.1-3.9-9.1-6.9-14.5-8.6V76.4c7.1,1.9,13.6,5.8,18.8,11.1c2,2.1,4.8,3.3,7.7,3.3c2.9,0,5.6-1.1,7.6-3.1
			c4.3-4.2,4.4-11.1,0.2-15.4c-3-3.1-6.2-5.8-9.7-8.1c-7.5-5.1-15.8-8.5-24.7-10V43.4c5.5,0.8,11,2.3,16.1,4.4
			c8.9,3.5,16.9,8.6,23.9,15.4c2,2,4.7,3.1,7.5,3.1c3,0,5.6-1,8.1-3.3l0,0l0,0c4.1-4.3,3.9-11.2-0.3-15.3c-9-8.7-19.5-15.4-31-20
			c-7.8-3.1-16-5.1-24.4-6.1C98.2,16.5,93.8,12.8,88.2,12.8L88.2,12.8z"/>
		<path class="st2" d="M88,124.1c5.2,0,9.4,4.2,9.4,9.4s-4.2,9.4-9.4,9.4c-5.2,0-9.4-4.2-9.4-9.4S82.8,124.1,88,124.1 M88,123.1
			c-5.7,0-10.4,4.7-10.4,10.4c0,5.7,4.7,10.4,10.4,10.4c5.7,0,10.4-4.7,10.4-10.4C98.4,127.8,93.7,123.1,88,123.1L88,123.1z"/>
	</g>
	<g>
		<path class="st2" d="M87.9,124c5.2,0,9.3,4.2,9.3,9.4c0,5.2-4.2,9.4-9.3,9.4c-5.2,0-9.3-4.2-9.3-9.4C78.6,128.2,82.7,124,87.9,124
			 M87.9,122c-6.3,0-11.3,5.1-11.3,11.4c0,6.3,5.1,11.4,11.3,11.4c6.3,0,11.3-5.1,11.3-11.4C99.3,127.1,94.2,122,87.9,122L87.9,122z
			"/>
		<path class="st2" d="M88.1,13.7c5.4,0,9.5,3.8,9.7,8.7v85.9c0,4.8-4.4,8.6-9.7,8.6c-5.4,0-9.7-3.9-9.7-8.7V22.4
			C78.4,17.6,82.7,13.7,88.1,13.7 M88.1,11.7c-6.5,0-11.7,4.8-11.7,10.7v85.8c0,5.9,5.3,10.7,11.7,10.7c6.5,0,11.7-4.8,11.7-10.6
			V22.4v0l0,0C99.6,16.3,94.6,11.7,88.1,11.7L88.1,11.7z"/>
	</g>
</g>
</svg>
