<svg xmlns="http://www.w3.org/2000/svg" width="453.965" height="147.495" viewBox="0 0 453.965 147.495">
  <g id="open-access" transform="translate(2 1.999)">
    <path id="bg" d="M336.386,789.262H683.3c8.262-8.96,10.988-28.168,7.589-42.2-3.986-15.934-16.128-34.716-27.816-46.59-39.733-40.253-104.29-46.981-160.2-36.945C360.124,689.076,330.723,781.527,336.386,789.262Z" transform="translate(-304.746 -648.163)" fill="#00d97e" opacity="0.1" style="isolation: isolate"/>
    <path id="vert" d="M541.128,788.411H484.6V669.245h58.029Z" transform="translate(-290.759 -647.238)" fill="#00d97e" style="isolation: isolate"/>
    <g id="white" transform="translate(13101.017 2519.526)" fill="#002f2d">
      <path d="M -12652.8447265625 -2375.02978515625 L -12652.8564453125 -2375.02978515625 L -12678.7353515625 -2375.02978515625 L -12678.818359375 -2375.02978515625 L -12678.830078125 -2375.02978515625 L -12678.8408203125 -2375.030029296875 C -12679.6025390625 -2375.047119140625 -12680.3115234375 -2375.3603515625 -12680.8369140625 -2375.912109375 C -12681.361328125 -2376.46240234375 -12681.6396484375 -2377.18359375 -12681.6201171875 -2377.94287109375 C -12681.603515625 -2378.68994140625 -12681.2998046875 -2379.388916015625 -12680.765625 -2379.91162109375 C -12680.2314453125 -2380.4345703125 -12679.525390625 -2380.72265625 -12678.77734375 -2380.72265625 C -12678.7607421875 -2380.72265625 -12678.7431640625 -2380.722412109375 -12678.7265625 -2380.72216796875 L -12652.8564453125 -2380.72216796875 L -12652.8447265625 -2380.72216796875 L -12652.8330078125 -2380.721923828125 C -12651.3037109375 -2380.686279296875 -12650.08203125 -2379.462890625 -12650.0517578125 -2377.936767578125 C -12650.0341796875 -2377.1796875 -12650.314453125 -2376.458251953125 -12650.8408203125 -2375.908447265625 C -12651.3662109375 -2375.359130859375 -12652.07421875 -2375.047119140625 -12652.833984375 -2375.030029296875 L -12652.8447265625 -2375.02978515625 Z M -12698.4794921875 -2375.02978515625 L -12852.5908203125 -2375.02978515625 L -12852.59765625 -2375.02978515625 L -12852.603515625 -2375.02978515625 C -12853.359375 -2375.02978515625 -12854.0703125 -2375.32421875 -12854.6064453125 -2375.85888671875 C -12855.1435546875 -2376.394775390625 -12855.439453125 -2377.10693359375 -12855.439453125 -2377.864501953125 L -12855.439453125 -2379.827392578125 L -12890.5185546875 -2375.0947265625 L -12890.923828125 -2375.0390625 L -12890.9912109375 -2375.02978515625 L -12891.0595703125 -2375.02978515625 L -12894.4892578125 -2375.02978515625 L -13099.171875 -2375.02978515625 C -13100.740234375 -2375.02978515625 -13102.0166015625 -2376.305908203125 -13102.0166015625 -2377.874267578125 C -13102.0166015625 -2379.442626953125 -13100.740234375 -2380.71875 -13099.171875 -2380.71875 L -12975.056640625 -2380.71875 L -12975.056640625 -2389.266845703125 L -13031.4150390625 -2389.279541015625 C -13034.9072265625 -2389.279541015625 -13037.748046875 -2392.120361328125 -13037.748046875 -2395.612548828125 L -13037.748046875 -2409.95458984375 C -13037.748046875 -2410.866455078125 -13037.5439453125 -2411.788330078125 -13037.158203125 -2412.620849609375 L -12988.8388671875 -2516.8544921875 C -12987.8046875 -2519.083984375 -12985.548828125 -2520.524658203125 -12983.091796875 -2520.524658203125 L -12970.9296875 -2520.524658203125 C -12970.0048828125 -2520.524658203125 -12969.076171875 -2520.31787109375 -12968.2431640625 -2519.926513671875 C -12966.7109375 -2519.209716796875 -12965.5498046875 -2517.93798828125 -12964.9736328125 -2516.3466796875 C -12964.3984375 -2514.755859375 -12964.4775390625 -2513.035400390625 -12965.1953125 -2511.502197265625 L -13011.7509765625 -2412.135009765625 L -12975.056640625 -2412.135009765625 L -12975.056640625 -2446.38134765625 C -12975.056640625 -2449.871337890625 -12972.2158203125 -2452.7138671875 -12968.724609375 -2452.7177734375 L -12957.9033203125 -2452.7177734375 C -12954.4091796875 -2452.7138671875 -12951.5673828125 -2449.871337890625 -12951.5673828125 -2446.38134765625 L -12951.5673828125 -2412.135009765625 L -12945.83984375 -2412.135009765625 C -12942.34765625 -2412.135009765625 -12939.5068359375 -2409.29248046875 -12939.5068359375 -2405.798583984375 L -12939.5068359375 -2395.612548828125 C -12939.5068359375 -2392.12451171875 -12942.345703125 -2389.28369140625 -12945.8359375 -2389.279541015625 L -12951.5673828125 -2389.279541015625 L -12951.5673828125 -2380.71875 L -12924.3544921875 -2380.71875 C -12924.3583984375 -2380.896484375 -12924.361328125 -2381.084228515625 -12924.36328125 -2381.2802734375 L -12924.36328125 -2381.285400390625 L -12924.36328125 -2381.29052734375 L -12924.36328125 -2474.785888671875 L -12924.36328125 -2474.790771484375 L -12924.36328125 -2474.79541015625 C -12924.2939453125 -2482.0458984375 -12923.1142578125 -2488.562255859375 -12920.8583984375 -2494.16357421875 C -12918.591796875 -2499.791259765625 -12915.1787109375 -2504.646240234375 -12910.7158203125 -2508.593505859375 C -12908.6640625 -2510.51025390625 -12906.3369140625 -2512.240966796875 -12903.7998046875 -2513.7373046875 C -12901.353515625 -2515.179931640625 -12898.6962890625 -2516.414794921875 -12895.9013671875 -2517.407470703125 C -12890.5048828125 -2519.323974609375 -12884.5615234375 -2520.337158203125 -12878.7138671875 -2520.337158203125 C -12872.6181640625 -2520.337158203125 -12866.3720703125 -2519.324951171875 -12860.650390625 -2517.41015625 C -12857.662109375 -2516.410400390625 -12854.85546875 -2515.175048828125 -12852.3076171875 -2513.73876953125 C -12849.62109375 -2512.224365234375 -12847.2197265625 -2510.48388671875 -12845.1708984375 -2508.56591796875 C -12841.0712890625 -2504.75634765625 -12838.212890625 -2500.0029296875 -12836.4326171875 -2494.036865234375 C -12834.90625 -2488.917236328125 -12834.1220703125 -2482.784423828125 -12833.96484375 -2474.736328125 L -12833.96484375 -2474.7265625 L -12833.96484375 -2474.716796875 L -12833.96484375 -2380.708984375 L -12810.3916015625 -2380.708984375 C -12813.1787109375 -2385.257080078125 -12815.2490234375 -2390.173095703125 -12816.5556640625 -2395.34814453125 C -12816.6748046875 -2395.818603515625 -12816.7333984375 -2396.286376953125 -12816.73046875 -2396.73828125 L -12816.73046875 -2396.73828125 C -12816.7265625 -2399.78369140625 -12814.248046875 -2402.26123046875 -12811.205078125 -2402.26123046875 L -12811.1904296875 -2402.26123046875 L -12798.310546875 -2402.26123046875 L -12798.3076171875 -2402.26123046875 L -12798.3046875 -2402.26123046875 C -12796.126953125 -2402.249267578125 -12794.146484375 -2400.957275390625 -12793.2587890625 -2398.9697265625 C -12791.650390625 -2395.325439453125 -12789.361328125 -2392.107177734375 -12786.4541015625 -2389.400390625 C -12784.7734375 -2387.829345703125 -12782.791015625 -2386.634765625 -12780.5625 -2385.848876953125 C -12778.3076171875 -2385.05419921875 -12775.7294921875 -2384.651123046875 -12772.8984375 -2384.651123046875 L -12772.888671875 -2384.651123046875 L -12772.8779296875 -2384.65087890625 C -12772.7421875 -2384.648193359375 -12772.6044921875 -2384.646728515625 -12772.46875 -2384.646728515625 C -12769.67578125 -2384.646728515625 -12766.958984375 -2385.209228515625 -12764.3935546875 -2386.318359375 C -12761.8251953125 -2387.427978515625 -12759.552734375 -2389.0234375 -12757.6376953125 -2391.06005859375 L -12757.619140625 -2391.07958984375 L -12757.599609375 -2391.09814453125 C -12755.51953125 -2393.0849609375 -12753.919921875 -2395.52978515625 -12752.8447265625 -2398.364990234375 C -12751.759765625 -2401.22705078125 -12751.1748046875 -2404.57470703125 -12751.1064453125 -2408.314697265625 C -12751.1728515625 -2412.12451171875 -12751.7587890625 -2415.544921875 -12752.8466796875 -2418.480712890625 C -12753.9228515625 -2421.38671875 -12755.5244140625 -2423.903564453125 -12757.607421875 -2425.9609375 C -12759.6640625 -2427.954833984375 -12762.029296875 -2429.470703125 -12764.638671875 -2430.467041015625 C -12767.26171875 -2431.46875 -12770.212890625 -2431.9765625 -12773.408203125 -2431.9765625 L -12778.083984375 -2431.9765625 C -12781.1337890625 -2431.9765625 -12783.6142578125 -2434.45751953125 -12783.6142578125 -2437.50732421875 L -12783.6142578125 -2448.018798828125 C -12783.6142578125 -2451.0703125 -12781.1337890625 -2453.552978515625 -12778.083984375 -2453.552978515625 L -12775.1865234375 -2453.552978515625 L -12775.1689453125 -2453.552978515625 C -12771.6240234375 -2453.552978515625 -12768.44140625 -2454.063720703125 -12765.7080078125 -2455.071044921875 C -12763.0087890625 -2456.06640625 -12760.6669921875 -2457.577880859375 -12758.75 -2459.5634765625 L -12758.7431640625 -2459.570068359375 L -12758.7373046875 -2459.576171875 C -12756.8134765625 -2461.4990234375 -12755.3505859375 -2463.73974609375 -12754.3896484375 -2466.236083984375 C -12753.4228515625 -2468.745361328125 -12752.9326171875 -2471.591796875 -12752.931640625 -2474.696533203125 C -12752.9990234375 -2477.8447265625 -12753.5400390625 -2480.743408203125 -12754.5400390625 -2483.312744140625 C -12755.53515625 -2485.8681640625 -12757.0166015625 -2488.17626953125 -12758.94140625 -2490.17333984375 C -12760.8642578125 -2492.099609375 -12763.0947265625 -2493.581298828125 -12765.5693359375 -2494.577392578125 C -12768.0576171875 -2495.57861328125 -12770.8720703125 -2496.12109375 -12773.93359375 -2496.189697265625 L -12773.9345703125 -2496.189697265625 C -12778.2958984375 -2496.189697265625 -12782.5361328125 -2494.638671875 -12785.873046875 -2491.822509765625 L -12785.8896484375 -2491.8076171875 L -12785.908203125 -2491.793701171875 C -12789.0302734375 -2489.394775390625 -12791.345703125 -2485.837646484375 -12792.7900390625 -2481.220947265625 C -12793.142578125 -2480.0908203125 -12793.833984375 -2479.122314453125 -12794.7890625 -2478.4208984375 C -12795.7431640625 -2477.72021484375 -12796.873046875 -2477.349853515625 -12798.0576171875 -2477.349853515625 L -12810.9033203125 -2477.349853515625 C -12811.2509765625 -2477.349853515625 -12811.6015625 -2477.3818359375 -12811.9453125 -2477.445068359375 L -12811.9482421875 -2477.44580078125 L -12811.9521484375 -2477.4462890625 C -12814.9404296875 -2478.015380859375 -12816.9111328125 -2480.90966796875 -12816.3447265625 -2483.8984375 C -12815.4560546875 -2488.4833984375 -12813.8857421875 -2492.889892578125 -12811.6787109375 -2497.000244140625 C -12809.47265625 -2501.10595703125 -12806.669921875 -2504.843994140625 -12803.3466796875 -2508.111083984375 C -12799.634765625 -2511.984375 -12795.2509765625 -2515.01904296875 -12790.318359375 -2517.131591796875 C -12785.3818359375 -2519.2451171875 -12780.1552734375 -2520.32373046875 -12774.78515625 -2520.337158203125 L -12774.7783203125 -2520.337158203125 L -12774.771484375 -2520.337158203125 C -12767.8330078125 -2520.263671875 -12761.5126953125 -2519.06396484375 -12755.986328125 -2516.77099609375 C -12750.44140625 -2514.469970703125 -12745.548828125 -2511.00830078125 -12741.4453125 -2506.482177734375 C -12737.578125 -2502.20703125 -12734.5712890625 -2497.3115234375 -12732.5078125 -2491.93115234375 C -12730.443359375 -2486.55078125 -12729.40625 -2480.901123046875 -12729.4248046875 -2475.1396484375 C -12729.412109375 -2469.093017578125 -12730.5087890625 -2463.167724609375 -12732.685546875 -2457.529052734375 L -12732.6953125 -2457.504150390625 L -12732.7060546875 -2457.479736328125 C -12733.9853515625 -2454.628173828125 -12735.7880859375 -2451.898193359375 -12738.0654296875 -2449.36572265625 C -12740.041015625 -2447.16845703125 -12742.4228515625 -2445.06591796875 -12745.158203125 -2443.10205078125 C -12742.3447265625 -2441.15185546875 -12739.859375 -2439.014892578125 -12737.7548828125 -2436.736572265625 C -12735.3388671875 -2434.120849609375 -12733.357421875 -2431.245361328125 -12731.8681640625 -2428.190673828125 L -12731.8642578125 -2428.18359375 L -12731.861328125 -2428.176513671875 C -12730.462890625 -2425.192138671875 -12729.3916015625 -2422.046142578125 -12728.677734375 -2418.82568359375 C -12727.96484375 -2415.60791015625 -12727.60546875 -2412.30419921875 -12727.6103515625 -2409.006103515625 L -12727.6103515625 -2409.00146484375 L -12727.6103515625 -2408.9970703125 C -12727.673828125 -2403.03759765625 -12728.44921875 -2397.50732421875 -12729.916015625 -2392.56005859375 C -12731.1943359375 -2388.24560546875 -12733.029296875 -2384.271240234375 -12735.3798828125 -2380.71875 L -12698.4794921875 -2380.71875 C -12696.9111328125 -2380.71875 -12695.634765625 -2379.442626953125 -12695.634765625 -2377.874267578125 C -12695.634765625 -2376.305908203125 -12696.9111328125 -2375.02978515625 -12698.4794921875 -2375.02978515625 Z M -12900.8740234375 -2380.71875 L -12895.4892578125 -2380.71875 L -12895.4892578125 -2486.895263671875 C -12895.4892578125 -2487.818359375 -12895.431640625 -2488.73486328125 -12895.3173828125 -2489.64013671875 C -12896.703125 -2488.124267578125 -12897.83984375 -2486.35693359375 -12898.7119140625 -2484.358642578125 C -12900.0703125 -2481.24755859375 -12900.7978515625 -2477.556884765625 -12900.8740234375 -2473.389404296875 L -12900.8740234375 -2380.71875 Z" stroke="none"/>
      <path d="M -12852.603515625 -2376.02978515625 C -12852.6015625 -2376.02978515625 -12852.599609375 -2376.02978515625 -12852.59765625 -2376.02978515625 L -12852.5908203125 -2376.02978515625 L -12698.4794921875 -2376.02978515625 C -12697.4609375 -2376.02978515625 -12696.634765625 -2376.85498046875 -12696.634765625 -2377.874267578125 C -12696.634765625 -2378.8935546875 -12697.4609375 -2379.71875 -12698.4794921875 -2379.71875 L -12737.2939453125 -2379.71875 C -12731.62890625 -2387.455322265625 -12728.7353515625 -2397.220458984375 -12728.6103515625 -2409.007568359375 C -12728.6005859375 -2415.48486328125 -12730.017578125 -2421.886474609375 -12732.7666015625 -2427.752197265625 C -12735.67578125 -2433.71630859375 -12740.3974609375 -2438.82568359375 -12746.927734375 -2443.0869140625 C -12740.5390625 -2447.417236328125 -12736.103515625 -2452.34912109375 -12733.6181640625 -2457.88916015625 C -12731.494140625 -2463.39306640625 -12730.412109375 -2469.242431640625 -12730.4248046875 -2475.140869140625 C -12730.388671875 -2486.47119140625 -12734.583984375 -2497.40673828125 -12742.1865234375 -2505.810546875 C -12750.2314453125 -2514.684814453125 -12761.0986328125 -2519.1923828125 -12774.7822265625 -2519.337158203125 C -12785.30078125 -2519.310791015625 -12795.3583984375 -2515.0068359375 -12802.634765625 -2507.408447265625 C -12809.177734375 -2500.980712890625 -12813.6162109375 -2492.718017578125 -12815.3623046875 -2483.71240234375 C -12815.826171875 -2481.262939453125 -12814.2177734375 -2478.895751953125 -12811.7646484375 -2478.4287109375 C -12811.4794921875 -2478.376220703125 -12811.193359375 -2478.349853515625 -12810.9033203125 -2478.349853515625 L -12798.0576171875 -2478.349853515625 C -12796.08203125 -2478.349853515625 -12794.3330078125 -2479.632080078125 -12793.744140625 -2481.51953125 C -12792.2314453125 -2486.35595703125 -12789.8212890625 -2490.04833984375 -12786.517578125 -2492.586669921875 C -12782.9951171875 -2495.5595703125 -12778.5400390625 -2497.189697265625 -12773.9345703125 -2497.189697265625 C -12773.9296875 -2497.189697265625 -12773.9248046875 -2497.189697265625 -12773.9208984375 -2497.189697265625 C -12767.51953125 -2497.04833984375 -12762.2880859375 -2494.944091796875 -12758.2275390625 -2490.87353515625 C -12754.1669921875 -2486.6650390625 -12752.0693359375 -2481.276123046875 -12751.931640625 -2474.706787109375 C -12751.931640625 -2468.213134765625 -12753.9638671875 -2462.932861328125 -12758.0302734375 -2458.868896484375 C -12762.0947265625 -2454.66064453125 -12767.8056640625 -2452.552978515625 -12775.1689453125 -2452.552978515625 C -12775.1748046875 -2452.552978515625 -12775.1806640625 -2452.552978515625 -12775.1865234375 -2452.552978515625 L -12778.083984375 -2452.552978515625 C -12780.5859375 -2452.552978515625 -12782.6142578125 -2450.524169921875 -12782.6142578125 -2448.018798828125 L -12782.6142578125 -2437.50732421875 C -12782.6142578125 -2435.005126953125 -12780.5859375 -2432.9765625 -12778.083984375 -2432.9765625 L -12773.408203125 -2432.9765625 C -12766.740234375 -2432.9765625 -12761.2392578125 -2430.87548828125 -12756.9091796875 -2426.677001953125 C -12752.509765625 -2422.33349609375 -12750.2412109375 -2416.21142578125 -12750.1064453125 -2408.31396484375 C -12750.2451171875 -2400.554443359375 -12752.509765625 -2394.576904296875 -12756.9091796875 -2390.375 C -12760.9482421875 -2386.080078125 -12766.5830078125 -2383.646728515625 -12772.46875 -2383.646728515625 C -12772.611328125 -2383.646728515625 -12772.755859375 -2383.648193359375 -12772.8984375 -2383.651123046875 C -12778.81640625 -2383.651123046875 -12783.5576171875 -2385.32470703125 -12787.1357421875 -2388.66845703125 C -12790.126953125 -2391.453369140625 -12792.5205078125 -2394.8203125 -12794.171875 -2398.56201171875 C -12794.9013671875 -2400.196044921875 -12796.5185546875 -2401.25146484375 -12798.310546875 -2401.26123046875 L -12811.193359375 -2401.26123046875 C -12811.197265625 -2401.26123046875 -12811.201171875 -2401.26123046875 -12811.205078125 -2401.26123046875 C -12813.7021484375 -2401.26123046875 -12815.7275390625 -2399.235107421875 -12815.73046875 -2396.737060546875 C -12815.7333984375 -2396.3525390625 -12815.6806640625 -2395.9677734375 -12815.5859375 -2395.593017578125 C -12814.1591796875 -2389.94091796875 -12811.78515625 -2384.57177734375 -12808.5693359375 -2379.708984375 L -12834.96484375 -2379.708984375 L -12834.96484375 -2474.716796875 C -12835.244140625 -2489.055419921875 -12837.5263671875 -2500.09619140625 -12845.8544921875 -2507.8359375 C -12854.044921875 -2515.50341796875 -12867.01171875 -2519.337158203125 -12878.7138671875 -2519.337158203125 C -12890.0673828125 -2519.337158203125 -12901.857421875 -2515.506591796875 -12910.0439453125 -2507.8525390625 C -12918.787109375 -2500.125732421875 -12923.2255859375 -2489.101318359375 -12923.36328125 -2474.785888671875 L -12923.36328125 -2381.29052734375 C -12923.357421875 -2380.711669921875 -12923.3408203125 -2380.2021484375 -12923.3212890625 -2379.71875 L -12952.5673828125 -2379.71875 L -12952.5673828125 -2390.279541015625 L -12945.8369140625 -2390.279541015625 C -12942.890625 -2390.282958984375 -12940.5068359375 -2392.669921875 -12940.5068359375 -2395.612548828125 L -12940.5068359375 -2405.798583984375 C -12940.5068359375 -2408.74462890625 -12942.8935546875 -2411.135009765625 -12945.83984375 -2411.135009765625 L -12952.5673828125 -2411.135009765625 L -12952.5673828125 -2446.38134765625 C -12952.5673828125 -2449.327392578125 -12954.95703125 -2451.71435546875 -12957.9033203125 -2451.7177734375 L -12968.7236328125 -2451.7177734375 C -12971.6669921875 -2451.71435546875 -12974.056640625 -2449.327392578125 -12974.056640625 -2446.38134765625 L -12974.056640625 -2411.135009765625 L -13013.32421875 -2411.135009765625 L -12966.1005859375 -2511.92626953125 C -12964.8505859375 -2514.595947265625 -12965.998046875 -2517.77197265625 -12968.66796875 -2519.021484375 C -12969.375 -2519.353515625 -12970.1474609375 -2519.524658203125 -12970.9296875 -2519.524658203125 L -12983.091796875 -2519.524658203125 C -12985.169921875 -2519.524658203125 -12987.0576171875 -2518.31787109375 -12987.931640625 -2516.433837890625 L -13036.2509765625 -2412.2001953125 C -13036.5771484375 -2411.49658203125 -13036.748046875 -2410.73046875 -13036.748046875 -2409.95458984375 L -13036.748046875 -2395.612548828125 C -13036.748046875 -2392.669921875 -13034.3603515625 -2390.279541015625 -13031.4150390625 -2390.279541015625 L -12974.056640625 -2390.2666015625 L -12974.056640625 -2379.71875 L -13099.171875 -2379.71875 C -13100.19140625 -2379.71875 -13101.0166015625 -2378.8935546875 -13101.0166015625 -2377.874267578125 C -13101.0166015625 -2376.85498046875 -13100.19140625 -2376.02978515625 -13099.171875 -2376.02978515625 L -12894.4892578125 -2376.02978515625 L -12891.0595703125 -2376.02978515625 L -12890.65234375 -2376.085693359375 L -12854.439453125 -2380.971435546875 L -12854.439453125 -2377.864501953125 C -12854.439453125 -2376.850341796875 -12853.61328125 -2376.029541015625 -12852.603515625 -2376.02978515625 M -12893.7294921875 -2492.46484375 C -12894.2294921875 -2490.686279296875 -12894.4892578125 -2488.808837890625 -12894.4892578125 -2486.895263671875 L -12894.4892578125 -2379.71875 L -12901.8740234375 -2379.71875 L -12901.8740234375 -2473.398193359375 C -12901.7158203125 -2482.190185546875 -12898.759765625 -2488.545654296875 -12893.7294921875 -2492.46484375 M -12652.8564453125 -2376.02978515625 C -12651.8369140625 -2376.052734375 -12651.0283203125 -2376.897705078125 -12651.0517578125 -2377.9169921875 C -12651.0712890625 -2378.9033203125 -12651.8671875 -2379.69921875 -12652.8564453125 -2379.72216796875 L -12678.7353515625 -2379.72216796875 C -12678.75 -2379.722412109375 -12678.763671875 -2379.72265625 -12678.77734375 -2379.72265625 C -12679.7783203125 -2379.72265625 -12680.599609375 -2378.922119140625 -12680.6201171875 -2377.9169921875 C -12680.646484375 -2376.897705078125 -12679.8369140625 -2376.052734375 -12678.818359375 -2376.02978515625 C -12678.7880859375 -2376.02978515625 -12678.76171875 -2376.02978515625 -12678.7353515625 -2376.02978515625 L -12652.8564453125 -2376.02978515625 M -12652.833984375 -2374.02978515625 L -12652.8564453125 -2374.02978515625 L -12678.7353515625 -2374.02978515625 L -12678.818359375 -2374.02978515625 L -12678.8408203125 -2374.02978515625 L -12678.86328125 -2374.0302734375 C -12679.892578125 -2374.053466796875 -12680.8505859375 -2374.476806640625 -12681.5615234375 -2375.222412109375 C -12682.2705078125 -2375.966552734375 -12682.6455078125 -2376.94189453125 -12682.619140625 -2377.96875 C -12682.595703125 -2378.977294921875 -12682.1865234375 -2379.920654296875 -12681.46484375 -2380.62646484375 C -12680.7421875 -2381.333251953125 -12679.7880859375 -2381.72265625 -12678.77734375 -2381.72265625 C -12678.7568359375 -2381.72265625 -12678.7373046875 -2381.722412109375 -12678.716796875 -2381.72216796875 L -12652.8564453125 -2381.72216796875 L -12652.8330078125 -2381.72216796875 L -12652.810546875 -2381.7216796875 C -12650.74609375 -2381.673828125 -12649.0966796875 -2380.0234375 -12649.052734375 -2377.963134765625 L -12649.052734375 -2377.963134765625 C -12649.0283203125 -2376.935546875 -12649.4072265625 -2375.96044921875 -12650.1181640625 -2375.21728515625 C -12650.828125 -2374.47509765625 -12651.7841796875 -2374.053466796875 -12652.8115234375 -2374.0302734375 L -12652.833984375 -2374.02978515625 Z M -12698.4794921875 -2374.02978515625 L -12852.5908203125 -2374.02978515625 L -12852.59765625 -2374.02978515625 L -12852.603515625 -2374.02978515625 C -12853.6259765625 -2374.029541015625 -12854.587890625 -2374.427734375 -12855.3125 -2375.15087890625 C -12856.0390625 -2375.875732421875 -12856.439453125 -2376.83935546875 -12856.439453125 -2377.864501953125 L -12856.439453125 -2378.68359375 L -12890.384765625 -2374.103515625 L -12890.787109375 -2374.04833984375 L -12890.9228515625 -2374.02978515625 L -12891.0595703125 -2374.02978515625 L -12894.4892578125 -2374.02978515625 L -13099.171875 -2374.02978515625 C -13101.2919921875 -2374.02978515625 -13103.0166015625 -2375.75439453125 -13103.0166015625 -2377.874267578125 C -13103.0166015625 -2379.994140625 -13101.2919921875 -2381.71875 -13099.171875 -2381.71875 L -12976.056640625 -2381.71875 L -12976.056640625 -2388.26708984375 L -13031.4150390625 -2388.279541015625 C -13035.4580078125 -2388.279541015625 -13038.748046875 -2391.569091796875 -13038.748046875 -2395.612548828125 L -13038.748046875 -2409.95458984375 C -13038.748046875 -2411.0107421875 -13038.51171875 -2412.078125 -13038.0654296875 -2413.041259765625 L -12989.74609375 -2517.27490234375 C -12988.548828125 -2519.856689453125 -12985.9365234375 -2521.524658203125 -12983.091796875 -2521.524658203125 L -12970.9296875 -2521.524658203125 C -12969.859375 -2521.524658203125 -12968.783203125 -2521.28515625 -12967.8173828125 -2520.831787109375 C -12966.044921875 -2520.002197265625 -12964.7001953125 -2518.529541015625 -12964.033203125 -2516.686767578125 C -12963.3671875 -2514.844970703125 -12963.4580078125 -2512.85302734375 -12964.2890625 -2511.078125 L -13010.1787109375 -2413.135009765625 L -12976.056640625 -2413.135009765625 L -12976.056640625 -2446.38134765625 C -12976.056640625 -2450.421875 -12972.7685546875 -2453.713134765625 -12968.7255859375 -2453.7177734375 L -12957.9033203125 -2453.7177734375 C -12953.857421875 -2453.713134765625 -12950.5673828125 -2450.421875 -12950.5673828125 -2446.38134765625 L -12950.5673828125 -2413.135009765625 L -12945.83984375 -2413.135009765625 C -12941.796875 -2413.135009765625 -12938.5068359375 -2409.84375 -12938.5068359375 -2405.798583984375 L -12938.5068359375 -2395.612548828125 C -12938.5068359375 -2391.57373046875 -12941.7939453125 -2388.2841796875 -12945.8349609375 -2388.279541015625 L -12950.5673828125 -2388.279541015625 L -12950.5673828125 -2381.71875 L -12925.36328125 -2381.71875 L -12925.36328125 -2474.785888671875 L -12925.36328125 -2474.79541015625 L -12925.36328125 -2474.80517578125 C -12925.2919921875 -2482.1806640625 -12924.0888671875 -2488.819580078125 -12921.7861328125 -2494.537109375 C -12919.462890625 -2500.305419921875 -12915.96484375 -2505.283447265625 -12911.3896484375 -2509.332763671875 C -12909.2861328125 -2511.2958984375 -12906.904296875 -2513.0673828125 -12904.3076171875 -2514.5986328125 C -12901.806640625 -2516.07373046875 -12899.0908203125 -2517.335693359375 -12896.236328125 -2518.349853515625 C -12890.7333984375 -2520.30419921875 -12884.6748046875 -2521.337158203125 -12878.7138671875 -2521.337158203125 C -12872.51171875 -2521.337158203125 -12866.15625 -2520.30712890625 -12860.3330078125 -2518.3583984375 C -12857.2841796875 -2517.338623046875 -12854.4189453125 -2516.077392578125 -12851.81640625 -2514.60986328125 C -12849.0615234375 -2513.05712890625 -12846.59765625 -2511.270263671875 -12844.4912109375 -2509.299072265625 C -12840.255859375 -2505.3623046875 -12837.306640625 -2500.46337890625 -12835.474609375 -2494.322509765625 C -12833.9208984375 -2489.1142578125 -12833.1240234375 -2482.896728515625 -12832.96484375 -2474.755859375 L -12832.96484375 -2474.736328125 L -12832.96484375 -2474.716796875 L -12832.96484375 -2381.708984375 L -12812.1435546875 -2381.708984375 C -12814.533203125 -2385.9111328125 -12816.3388671875 -2390.402587890625 -12817.525390625 -2395.103515625 C -12817.6650390625 -2395.65625 -12817.734375 -2396.208740234375 -12817.73046875 -2396.7451171875 C -12817.72265625 -2400.338623046875 -12814.796875 -2403.26123046875 -12811.205078125 -2403.26123046875 L -12811.193359375 -2403.26123046875 L -12798.310546875 -2403.26123046875 L -12798.3046875 -2403.26123046875 L -12798.2998046875 -2403.26123046875 C -12795.7294921875 -2403.2470703125 -12793.392578125 -2401.72265625 -12792.345703125 -2399.377197265625 L -12792.34375 -2399.373291015625 L -12792.341796875 -2399.36962890625 C -12790.791015625 -2395.85400390625 -12788.580078125 -2392.74609375 -12785.7724609375 -2390.13232421875 C -12784.19140625 -2388.65478515625 -12782.328125 -2387.53173828125 -12780.2294921875 -2386.7919921875 C -12778.08203125 -2386.034912109375 -12775.615234375 -2385.651123046875 -12772.8984375 -2385.651123046875 L -12772.8779296875 -2385.651123046875 L -12772.8583984375 -2385.650634765625 C -12772.728515625 -2385.648193359375 -12772.5966796875 -2385.646728515625 -12772.46875 -2385.646728515625 C -12769.8134765625 -2385.646728515625 -12767.2294921875 -2386.181396484375 -12764.7900390625 -2387.236083984375 C -12762.3486328125 -2388.291259765625 -12760.1875 -2389.808349609375 -12758.3662109375 -2391.7451171875 L -12758.3291015625 -2391.7841796875 L -12758.2900390625 -2391.8212890625 C -12756.3193359375 -2393.7041015625 -12754.8017578125 -2396.025146484375 -12753.7802734375 -2398.719482421875 C -12752.7373046875 -2401.469482421875 -12752.1748046875 -2404.69775390625 -12752.1064453125 -2408.315673828125 C -12752.1728515625 -2412.0048828125 -12752.7373046875 -2415.30810546875 -12753.7841796875 -2418.13330078125 C -12754.80859375 -2420.899658203125 -12756.330078125 -2423.292236328125 -12758.3056640625 -2425.245361328125 C -12760.2646484375 -2427.14306640625 -12762.5146484375 -2428.585693359375 -12764.9951171875 -2429.53271484375 C -12767.50390625 -2430.49072265625 -12770.3349609375 -2430.9765625 -12773.408203125 -2430.9765625 L -12778.083984375 -2430.9765625 C -12781.6845703125 -2430.9765625 -12784.6142578125 -2433.90625 -12784.6142578125 -2437.50732421875 L -12784.6142578125 -2448.018798828125 C -12784.6142578125 -2451.621826171875 -12781.6845703125 -2454.552978515625 -12778.083984375 -2454.552978515625 L -12775.1865234375 -2454.552978515625 L -12775.1689453125 -2454.552978515625 C -12771.7421875 -2454.552978515625 -12768.67578125 -2455.04296875 -12766.0546875 -2456.00927734375 C -12763.4970703125 -2456.9521484375 -12761.28125 -2458.381591796875 -12759.46875 -2460.25830078125 L -12759.45703125 -2460.27099609375 L -12759.4443359375 -2460.283447265625 C -12757.6201171875 -2462.106689453125 -12756.2333984375 -2464.230224609375 -12755.322265625 -2466.595458984375 C -12754.40234375 -2468.986328125 -12753.93359375 -2471.7080078125 -12753.931640625 -2474.6845703125 C -12753.9970703125 -2477.711669921875 -12754.515625 -2480.492431640625 -12755.47265625 -2482.94970703125 C -12756.41796875 -2485.379150390625 -12757.826171875 -2487.573974609375 -12759.65625 -2489.473876953125 C -12761.482421875 -2491.30078125 -12763.5966796875 -2492.70556640625 -12765.943359375 -2493.649658203125 C -12768.31640625 -2494.6044921875 -12771.0078125 -2495.122802734375 -12773.9443359375 -2495.189697265625 C -12778.06640625 -2495.187255859375 -12782.0732421875 -2493.720458984375 -12785.2275390625 -2491.058349609375 L -12785.2626953125 -2491.02880859375 L -12785.298828125 -2491.000732421875 C -12786.763671875 -2489.875244140625 -12788.0517578125 -2488.46923828125 -12789.1279296875 -2486.821533203125 C -12790.2265625 -2485.138916015625 -12791.1376953125 -2483.154296875 -12791.8349609375 -2480.922607421875 C -12792.251953125 -2479.587646484375 -12793.068359375 -2478.443603515625 -12794.197265625 -2477.614990234375 C -12795.32421875 -2476.787353515625 -12796.6591796875 -2476.349853515625 -12798.0576171875 -2476.349853515625 L -12810.9033203125 -2476.349853515625 C -12811.3115234375 -2476.349853515625 -12811.7236328125 -2476.387451171875 -12812.126953125 -2476.461669921875 L -12812.1328125 -2476.462890625 L -12812.138671875 -2476.4638671875 C -12815.66796875 -2477.135986328125 -12817.99609375 -2480.5546875 -12817.3271484375 -2484.08447265625 L -12817.326171875 -2484.0888671875 L -12817.326171875 -2484.093017578125 C -12816.4189453125 -2488.7724609375 -12814.814453125 -2493.2744140625 -12812.5595703125 -2497.4736328125 C -12810.30859375 -2501.6630859375 -12807.44921875 -2505.478271484375 -12804.05859375 -2508.813232421875 C -12800.2548828125 -2512.779052734375 -12795.7646484375 -2515.88720703125 -12790.7119140625 -2518.05078125 C -12785.6513671875 -2520.2177734375 -12780.29296875 -2521.3232421875 -12774.787109375 -2521.337158203125 L -12774.7744140625 -2521.337158203125 L -12774.7607421875 -2521.337158203125 C -12767.693359375 -2521.26220703125 -12761.248046875 -2520.036865234375 -12755.603515625 -2517.694580078125 C -12749.9208984375 -2515.336669921875 -12744.908203125 -2511.790283203125 -12740.705078125 -2507.15380859375 C -12736.7529296875 -2502.785888671875 -12733.681640625 -2497.785400390625 -12731.57421875 -2492.289306640625 C -12729.4658203125 -2486.793701171875 -12728.40625 -2481.023193359375 -12728.4248046875 -2475.138671875 C -12728.412109375 -2468.968505859375 -12729.5322265625 -2462.922607421875 -12731.751953125 -2457.169189453125 L -12731.771484375 -2457.119384765625 L -12731.79296875 -2457.070556640625 C -12733.115234375 -2454.1240234375 -12734.9755859375 -2451.306884765625 -12737.322265625 -2448.697021484375 C -12739.0703125 -2446.75244140625 -12741.126953125 -2444.88232421875 -12743.4560546875 -2443.11572265625 C -12741.04296875 -2441.345947265625 -12738.88671875 -2439.435791015625 -12737.0205078125 -2437.415283203125 C -12734.5380859375 -2434.7275390625 -12732.501953125 -2431.771484375 -12730.96875 -2428.629150390625 L -12730.9619140625 -2428.614990234375 L -12730.9560546875 -2428.600830078125 C -12729.525390625 -2425.550048828125 -12728.4306640625 -2422.333984375 -12727.701171875 -2419.0419921875 C -12726.97265625 -2415.7529296875 -12726.60546875 -2412.375732421875 -12726.6103515625 -2409.004638671875 L -12726.6103515625 -2408.995361328125 L -12726.6103515625 -2408.986328125 C -12726.6748046875 -2402.934326171875 -12727.4638671875 -2397.31201171875 -12728.95703125 -2392.27587890625 C -12730.0810546875 -2388.483642578125 -12731.6259765625 -2384.947021484375 -12733.56640625 -2381.71875 L -12698.4794921875 -2381.71875 C -12696.359375 -2381.71875 -12694.634765625 -2379.994140625 -12694.634765625 -2377.874267578125 C -12694.634765625 -2375.75439453125 -12696.359375 -2374.02978515625 -12698.4794921875 -2374.02978515625 Z M -12899.8740234375 -2381.71875 L -12896.4892578125 -2381.71875 L -12896.4892578125 -2486.44482421875 C -12896.9775390625 -2485.66455078125 -12897.4130859375 -2484.8349609375 -12897.7958984375 -2483.95849609375 C -12899.1005859375 -2480.97119140625 -12899.7998046875 -2477.412353515625 -12899.8740234375 -2473.381103515625 L -12899.8740234375 -2381.71875 Z" stroke="none" fill="#fff"/>
    </g>
    <g id="dark" transform="translate(-0.001 0)">
      <path id="Tracé_5184" data-name="Tracé 5184" d="M719.461,776.924H693.582a1.847,1.847,0,1,0-.082,3.692c.027,0,.055,0,.082,0h25.879a1.847,1.847,0,0,0,0-3.692Z" transform="translate(-271.3 -637.12)" fill="#002f2d"/>
      <path id="Tracé_5185" data-name="Tracé 5185" d="M709.944,788.936H671.131q8.5-11.608,8.682-29.291a44,44,0,0,0-4.154-18.743q-4.367-8.945-14.164-15.335,9.583-6.495,13.31-14.8A47.657,47.657,0,0,0,678,693.512a45.51,45.51,0,0,0-11.76-30.669q-12.071-13.311-32.6-13.526a38.7,38.7,0,0,0-27.852,11.927,45.292,45.292,0,0,0-12.727,23.7,4.519,4.519,0,0,0,3.6,5.283,4.46,4.46,0,0,0,.861.08h12.846a4.522,4.522,0,0,0,4.315-3.168,21.592,21.592,0,0,1,7.225-11.069,19.526,19.526,0,0,1,12.6-4.6q9.6.215,15.693,6.316,6.091,6.316,6.3,16.166,0,9.742-6.1,15.84-6.1,6.318-17.157,6.315h-2.9a4.532,4.532,0,0,0-4.53,4.532v10.512a4.529,4.529,0,0,0,4.529,4.531h4.676q10,0,16.5,6.3,6.6,6.515,6.8,18.363-.207,11.638-6.8,17.938A21.375,21.375,0,0,1,635.526,785q-8.876,0-14.236-5.019a30.109,30.109,0,0,1-7.036-9.892,4.563,4.563,0,0,0-4.141-2.7H597.231a4.534,4.534,0,0,0-4.393,5.669,51.833,51.833,0,0,0,7.017,15.883h-26.4V693.939c-.28-14.341-2.562-25.382-10.889-33.12-8.191-7.669-21.158-11.5-32.858-11.5-11.355,0-23.145,3.829-31.333,11.483q-13.111,11.592-13.318,33.068v93.494c.005.578.022,1.089.042,1.573H455.857V778.374h6.73a5.334,5.334,0,0,0,5.331-5.334V762.855a5.333,5.333,0,0,0-5.333-5.334h-6.73V722.272a5.335,5.335,0,0,0-5.333-5.335H439.7a5.335,5.335,0,0,0-5.333,5.335v35.248H395.1l47.225-100.794a5.336,5.336,0,0,0-4.83-7.6H425.331a5.337,5.337,0,0,0-4.84,3.092L372.173,756.454a5.331,5.331,0,0,0-.5,2.244V773.04a5.334,5.334,0,0,0,5.332,5.334l57.36.013v10.548H309.251a1.844,1.844,0,1,0,0,3.688H513.933l1.608-1.259.852-.81,37.593-2.871v3.106a1.838,1.838,0,0,0,1.842,1.836H709.944a1.844,1.844,0,1,0,0-3.688ZM513.933,681.759V788.935H506.55v-93.68c.158-8.792,3.115-15.146,8.145-19.067A20.629,20.629,0,0,0,513.933,681.759Z" transform="translate(-307.407 -649.128)" fill="#002f2d"/>
    </g>
    <path id="white-2" data-name="white" d="M518.845,665.393c11.2,1.2,17.126,12.511,17.126,22.718v98.366l-36.6,4.758-.335-110C499.034,668.522,509.085,663.823,518.845,665.393Z" transform="translate(-289.405 -647.702)" fill="#fff"/>
    <path id="dark-2" data-name="dark" d="M505.088,725.438c-1.417,0-2.564,1.646-2.564,3.678s1.148,3.679,2.564,3.679,2.564-1.648,2.564-3.679S506.5,725.438,505.088,725.438Z" transform="translate(-289.075 -641.958)" fill="#00302d"/>
  </g>
</svg>
