<?xml version="1.0" encoding="utf-8"?>
<!-- Generator: Adobe Illustrator 25.2.3, SVG Export Plug-In . SVG Version: 6.00 Build 0)  -->
<svg version="1.1" id="construction" xmlns="http://www.w3.org/2000/svg" xmlns:xlink="http://www.w3.org/1999/xlink" x="0px"
	 y="0px" viewBox="0 0 345 295" style="enable-background:new 0 0 345 295;" xml:space="preserve">
<style type="text/css">
	.st0{opacity:0;fill:none;}
	.st1{opacity:0.1;fill:#00D975;enable-background:new    ;}
	.st2{fill:#FFFFFF;}
	.st3{fill:#00D975;}
	.st4{fill:#012F2D;}
</style>
<rect id="bg" class="st0" width="345" height="295"/>
<g id="vert">
	<path class="st1" d="M295.7,32H151.3c-9.6,0-17.3,7.7-17.3,17.3c0,9.6,7.7,17.3,17.3,17.3h144.4c9.6,0,17.3-7.7,17.3-17.3
		C313,39.7,305.3,32,295.7,32z"/>
	<path class="st1" d="M252.2,90H49.3C39.7,90,32,97.7,32,107.3c0,9.6,7.7,17.3,17.3,17.3h202.9c9.6,0,17.3-7.7,17.3-17.3
		C269.5,97.7,261.8,90,252.2,90z"/>
</g>
<path id="blanc" class="st2" d="M180.6,226.2c33.4,0,58.7-11.5,58.7-25.4L192,57.6c0-2-5.1-3.5-11.4-3.5s-11.4,1.6-11.4,3.5
	l-47.4,143.9C121.8,215.3,147.2,226.2,180.6,226.2z"/>
<g id="vert_1_">
	<path class="st3" d="M219.4,141.1c-8,4.3-22.4,7.2-38.8,7.2c-16.4,0-30.8-2.9-38.8-7.2l-8,24.3c4.9,6.7,24.2,11.8,46.8,11.8
		c22.9,0,42.3-4.9,46.8-11.8L219.4,141.1z"/>
	<path class="st3" d="M206.7,102.5L200,82.1c-12.9,5-27.1,4.1-38.8,0l-6.7,20.4c4.5,3.3,14.5,5.5,26.1,5.5
		C192.2,108,202.2,105.7,206.7,102.5z"/>
</g>
<path id="dark" class="st4" d="M286.9,200.1c-0.6-1.8-2.5-4.5-8.2-7.1l-43.3-19.8L196.7,56.3c-0.7-4.6-6.6-7.3-16.1-7.3
	s-15.3,2.7-16.1,7.3l-38.7,117.3l-46.5,21.3c-3.2,1.1-5.4,4.1-5.4,7.5c0,1.7,0.6,5,5.4,7.8l0,0l0,0l86.9,48.8c0.8,0.4,7.4,4,14.3,4
	c0.2,0,0.5,0,0.7,0c1.1,0,7.4-0.4,16.8-5.2h0.1h0.1l83-46.1C285.2,209.6,288.5,205.1,286.9,200.1z M168.5,59.6c2.2,2.2,7.4,3,12.1,3
	s9.9-0.8,12.1-3l46.6,140.7c0,13.8-25.3,25.3-58.7,25.3s-58.8-10.9-58.8-24.7L168.5,59.6z M162.4,229.3L162.4,229.3L162.4,229.3
	L162.4,229.3z"/>
</svg>
