<svg xmlns="http://www.w3.org/2000/svg" width="25.679" height="22.362" viewBox="0 0 25.679 22.362">
  <g id="Groupe_1752" data-name="Groupe 1752" transform="translate(-38.421 -18.859)">
    <g id="Groupe_5" data-name="Groupe 5" transform="translate(38.421 18.92)">
      <path id="Tracé_109" data-name="Tracé 109" d="M42.8,20.107V40.564a.94.94,0,0,0,.994.911H67.4a.94.94,0,0,0,.994-.911V20.107a.982.982,0,0,0-1.656-.663L56.3,26.981a1.122,1.122,0,0,1-1.408,0L44.456,19.444A.982.982,0,0,0,42.8,20.107Z" transform="translate(-42.8 -19.174)" fill="#00d975" opacity="0.118"/>
    </g>
    <path id="Tracé_110" data-name="Tracé 110" d="M67.415,19.1a.94.94,0,0,0-.663.248L56.317,26.885a1.008,1.008,0,0,1-1.325,0L44.556,19.348a1,1,0,0,0-1.656.663v20.54a.94.94,0,0,0,.994.911H67.5a.94.94,0,0,0,.994-.911V20.094A1.143,1.143,0,0,0,67.415,19.1ZM55.655,28.459a2.186,2.186,0,0,0,1.574-.58l9.856-7.123v7.206H59.879V40.137H51.762V26.306l2.319,1.656A2.549,2.549,0,0,0,55.655,28.459Zm4.887,4.224V28.79H67v3.893Zm6.543.663v3.893h-6.46V33.345Zm-16.15-.166v3.893H44.142V33.18Zm-6.709-.663V28.625h6.791v3.893Zm6.709-6.791v2.153H44.142v-7.04ZM44.225,37.735h6.791v2.4H44.225Zm16.316,2.4V37.9H67v2.236Z" transform="translate(-4.392 -0.241)" fill="#00d975"/>
  </g>
</svg>
