<?xml version="1.0" encoding="utf-8"?>
<!-- Generator: Adobe Illustrator 25.2.0, SVG Export Plug-In . SVG Version: 6.00 Build 0)  -->
<svg version="1.1" id="Calque_1" xmlns="http://www.w3.org/2000/svg" xmlns:xlink="http://www.w3.org/1999/xlink" x="0px" y="0px"
	 viewBox="0 0 283.5 283.5" style="enable-background:new 0 0 283.5 283.5;" xml:space="preserve">
<style type="text/css">
	.st0{fill:#00D975;}
	.st1{fill:#FFFFFF;}
</style>
<ellipse class="st0" cx="140.8" cy="141.3" rx="113.1" ry="98.5"/>
<g>
	<path id="Tracé_327" class="st1" d="M178.3,119c0.6-20.5-16.4-38.1-36.9-38.1s-38.1,16.4-38.1,36.9c0,0.6,0,0.6,0,1.2
		c0,4.1,3.5,7,7,7s7-3.5,7-7c0-12.3,10-22.3,22.3-22.3s22.3,10,22.3,22.3s-10,22.3-22.3,22.3c-4.1,0-7,3.5-7,7l0,0v15.2
		c0,4.1,3.5,7,7,7c3.5,0,7-3.5,7-7v-8.2C166,152.4,178.3,137.2,178.3,119z"/>
	<circle id="Ellipse_29" class="st1" cx="140.8" cy="194.1" r="7"/>
</g>
</svg>
