<?xml version="1.0" encoding="utf-8"?>
<!-- Generator: Adobe Illustrator 25.2.1, SVG Export Plug-In . SVG Version: 6.00 Build 0)  -->
<svg version="1.1" id="Calque_1" xmlns="http://www.w3.org/2000/svg" xmlns:xlink="http://www.w3.org/1999/xlink" x="0px" y="0px"
	 viewBox="0 0 100 100" style="enable-background:new 0 0 100 100;" xml:space="preserve">
<style type="text/css">
	.st0{fill:#00D975;}
</style>
<path class="st0" d="M46.3,37.7l0.2,0.2c0.2,0.2,0.3,0.3,0.5,0.7c0.2,0.2,0.3,0.5,0.5,0.7l0.2,0.2c0.2,0.3,0.3,0.7,0.7,0.8l0,0
	c0.8,1.1,1.5,2.3,1.8,3.8c2.5-7.2,9.2-12.3,17.2-12.3h22.6l0,0v-11l0,0H67.2c-6.6,0-12.5,2.1-17.4,5.7c-4.9-3.6-11-5.7-17.5-5.7H10
	v8.7v2.3v48.2l0,0h22.5l0,0c6.6,0,12.6-2.1,17.5-5.7c4.9,3.6,11,5.7,17.5,5.7H90V44.6l0,0H67.7v-5.7L56.3,50.3l11.5,11.1v-5.6h11.1
	v12.8H67.4l0,0c-8,0-14.8-5.1-17.4-12.1c-0.5,1.5-1.3,3-2.3,4.3c-0.2,0-0.2,0.2-0.3,0.3c-3.3,4.6-8.7,7.5-14.9,7.5l0,0H21V55.9h11
	v5.6l11.5-11.1L32,38.8v5.7H21v-13h11.6l0,0c3.6,0,7,1,9.8,2.8l0,0C43.8,35.4,45.1,36.5,46.3,37.7z"/>
</svg>
