<?xml version="1.0" encoding="utf-8"?>
<!-- Generator: Adobe Illustrator 25.2.3, SVG Export Plug-In . SVG Version: 6.00 Build 0)  -->
<svg version="1.1" id="Calque_1" xmlns="http://www.w3.org/2000/svg" xmlns:xlink="http://www.w3.org/1999/xlink" x="0px" y="0px"
	 viewBox="0 0 100 100" style="enable-background:new 0 0 100 100;" xml:space="preserve">
<style type="text/css">
	.st0{fill:#00D975;}
	.st1{fill:#012F2D;}
</style>
<path class="st0" d="M98.1,73.4L79.8,28.1c-0.7-1.7-2.6-2.5-4.3-1.8c-1.7,0.7-2.5,2.6-1.8,4.3l18.4,45.3c0.5,1.3,1.7,2,3,2
	c0.4,0,0.8-0.1,1.2-0.2C98,77,98.8,75.1,98.1,73.4z"/>
<path class="st1" d="M70.5,55.3L70.5,55.3l-11-27.2c0,0,0,0,0,0c-0.1-0.1-0.1-0.2-0.2-0.3c-0.8-1.4-2.5-2.1-4.1-1.4
	c-0.9,0.3-1.5,1-1.8,1.8L40.9,59c-3.2,8.1-7.8,12.4-13.2,12.4C17,71.4,8.2,62.7,8.2,52c0-10.7,8.7-19.4,19.4-19.4
	c4.2,0,8.1,1.3,11.5,3.8c1.5,1.1,3.5,0.8,4.6-0.7c1.1-1.5,0.8-3.5-0.7-4.6c-4.5-3.3-9.8-5-15.4-5c-14.3,0-26,11.7-26,26
	c0,14.3,11.7,26,26,26c4.6,0,13.2-2.1,18.9-15.6c0-0.1,0.1-0.1,0.1-0.1l0.3-0.7c0,0,0,0,0,0c0,0,0,0,0,0L56.4,38l7.9,19.6
	c0.5,1.3,1.7,2,3,2c0.4,0,0.8-0.1,1.2-0.2C70.3,58.8,71.1,56.9,70.5,55.3z"/>
</svg>
