<?xml version="1.0" encoding="utf-8"?>
<!-- Generator: Adobe Illustrator 25.2.0, SVG Export Plug-In . SVG Version: 6.00 Build 0)  -->
<svg version="1.1" id="Calque_1" xmlns="http://www.w3.org/2000/svg" xmlns:xlink="http://www.w3.org/1999/xlink" x="0px" y="0px"
	 viewBox="0 0 283.5 283.5" style="enable-background:new 0 0 283.5 283.5;" xml:space="preserve">
<style type="text/css">
	.st0{fill:#00D975;}
</style>
<path class="st0" d="M143.8,36.5C143.1,36.5,143.1,36.5,143.8,36.5L143.8,36.5H52.1l0,0c0,0,0,0-0.6,0c-6.9,0-12.5,6.2-12.5,13.1
	v0.6l0,0V233l0,0l0,0c0,7.5,5.6,13.1,13.1,13.1l0,0l0,0h18.7l0,0h29.3c-6.9-1.9-9.4-6.9-9.4-13.1s0-64.9,0-65.5
	c0-7.5,5.6-13.1,13.1-13.1l0,0c0,0,25.6,0,26.2,0c7.5,0,13.1,5.6,13.1,13.1v64.9c0,6.9,5.6,12.5,13.1,12.5c0.6,0,1.2,0,2.5,0
	c50.5-7.5,89.2-51.1,89.2-103.5C248.5,83.9,201.1,36.5,143.8,36.5z M117.6,135.1c-14.3,0-26.2-11.8-26.2-26.2s11.8-26.2,26.2-26.2
	s26.2,11.8,26.2,26.2S131.9,135.1,117.6,135.1z"/>
</svg>
