<svg xmlns="http://www.w3.org/2000/svg" width="40" height="40" viewBox="0 0 40 40">
  <path id="Tracé_5276" data-name="Tracé 5276" d="M22.028,40A20.017,20.017,0,0,1,2.051,21.395H13.035a9.139,9.139,0,0,0,.67,2.368,9.813,9.813,0,0,0,2.08,3.061,9.92,9.92,0,0,0,3.056,2.058,9.291,9.291,0,0,0,3.718.755,8.142,8.142,0,0,0,4.252-1.146,10.983,10.983,0,0,0,3.264-3.021l-3.433-2.032a6,6,0,0,1-1.7,1.837,4.076,4.076,0,0,1-2.38.716,5.106,5.106,0,0,1-2.21-.495,6.137,6.137,0,0,1-1.82-1.315,6.1,6.1,0,0,1,0-8.361A6.137,6.137,0,0,1,20.35,14.5a5.106,5.106,0,0,1,2.21-.495,4.344,4.344,0,0,1,1.378.208,4.238,4.238,0,0,1,1.118.56,4.939,4.939,0,0,1,.884.807,8.2,8.2,0,0,1,.7.951l3.251-2.214a10.418,10.418,0,0,0-3.2-2.918,8.217,8.217,0,0,0-4.135-1.041,9.319,9.319,0,0,0-3.757.768,9.8,9.8,0,0,0-3.056,2.084,9.933,9.933,0,0,0-2.054,3.061,9.153,9.153,0,0,0-.657,2.329H2.052a20.034,20.034,0,0,1,38.426-6.389A20,20,0,0,1,22.028,40Z" transform="translate(-2.051 0)" fill="#00d975"/>
</svg>
