<?xml version="1.0" encoding="utf-8"?>
<!-- Generator: Adobe Illustrator 25.2.0, SVG Export Plug-In . SVG Version: 6.00 Build 0)  -->
<svg version="1.1" id="Calque_1" xmlns="http://www.w3.org/2000/svg" xmlns:xlink="http://www.w3.org/1999/xlink" x="0px" y="0px"
	 viewBox="0 0 283.5 283.5" style="enable-background:new 0 0 283.5 283.5;" xml:space="preserve">
<style type="text/css">
	.st0{fill:#00D975;}
</style>
<path id="Soustraction_12" class="st0" d="M99.2,237.6l-58.5-58.5l66.7-66.7l28.6,28.6c2.1,2.1,3.8,3.8,6.4,5.1
	c4.3,3,9.4,4.7,14.5,6c7.7,1.3,15.8,0.9,22.6-2.1c2.6-0.9,4.7-2.1,6.8-3.8c4.7-3,8.5-6.8,11.5-11.5c3-4.3,4.7-9.4,6-14.5
	c1.3-7.7,0.9-15.8-2.1-22.6c-0.9-2.6-2.1-4.7-3.8-6.8s-3.4-4.3-5.1-6.4L174,65.5l-28.6,28.6l38,38c-2.6,2.6-5.6,4.7-9,6
	c-10.3,3.8-21.4,1.7-29.1-6l-38-38L173.5,27l38,38c3.4,3.4,6,6.8,8.5,10.7c4.7,7.3,8.1,15.4,9.8,23.9c2.6,12.8,1.3,26.1-3.8,38
	c-1.7,4.3-3.8,8.1-6,11.5c-5.1,7.7-11.5,14.1-19.2,19.2c-7.3,4.7-15.4,8.1-23.9,9.8c-12.8,2.6-26.1,1.3-38-3.8
	c-4.3-1.7-8.1-3.8-11.5-6c-3.8-2.6-7.3-5.6-10.7-8.5l-9.4-9.4l-28.6,28.6l37.6,37.6c2.1,2.1,3.8,3.8,6.4,5.1c4.3,3,9.4,4.7,14.5,6
	c7.7,1.3,15.8,0.9,22.6-2.1c2.6-0.9,4.7-2.1,6.8-3.8c4.7-3,8.5-6.8,11.5-11.5c3-4.3,4.7-9.4,6-14.5c0.4-1.7,0.4-3.8,0.9-5.6
	c8.5-2.1,16.2-6,23.5-10.7c0.9-0.4,1.7-1.3,3-2.1c2.1,12,0.4,24.8-3.8,35.9c-1.7,4.3-3.8,8.1-6,11.5c-5.1,7.7-11.5,14.1-19.2,19.2
	c-7.3,4.7-15.4,8.1-23.9,9.8c-12.8,2.6-26.1,1.3-38-3.8c-4.3-1.7-8.1-3.8-11.5-6C104.8,242.3,101.8,240.2,99.2,237.6L99.2,237.6
	L99.2,237.6z"/>
</svg>
