<?xml version="1.0" encoding="utf-8"?>
<!-- Generator: Adobe Illustrator 25.4.1, SVG Export Plug-In . SVG Version: 6.00 Build 0)  -->
<svg version="1.1" id="Calque_1" xmlns="http://www.w3.org/2000/svg" xmlns:xlink="http://www.w3.org/1999/xlink" x="0px" y="0px"
	 viewBox="0 0 100 100" style="enable-background:new 0 0 100 100;" xml:space="preserve">
<style type="text/css">
	.st0{fill:#00D975;}
</style>
<path class="st0" d="M78.3,37.5C78.3,37.5,78.3,37.5,78.3,37.5c0.3-0.6,8.9-15.4,12.9-22.3c0.9-1.6-0.2-3.6-2.1-3.6l-27.1,0v0
	c-8.6,0.5-16.3,5.1-20.5,12.2c0,0,0,0,0,0c-0.3-0.6-4.5-8.1-6.1-11.2c-0.4-0.8-1.2-1.2-2.1-1.2h-27c-1.8,0-3,1.9-2.1,3.5l23.7,44.4
	c0.3,0.5,0.3,1.2,0,1.7l-14,23.3c-1,1.6,0.2,3.6,2.1,3.6l54.2,0v0C83.9,87.2,95,75.7,95,61.6C95,50.8,88.4,41.4,78.3,37.5z
	 M68.8,81.9l-23.5,0c-0.5,0-0.9-0.6-0.6-1l8.2-13.6c0.2-0.3,0.5-0.4,0.8-0.4c1.5,0,5.8,0,5.8,0c1.6,0,3.1-1.2,3.3-2.8
	c0.2-1.9-1.3-3.6-3.2-3.6l-8,0c-0.8,0-1.6,0.4-2.1,1.2L37.8,81.1c-0.3,0.5-0.8,0.8-1.3,0.8l-13.1,0c-0.4,0-0.7-0.4-0.7-0.8l11.4-19
	c0.7-1.1,0.7-2.5,0.1-3.6L14.1,20.5l-1-1.9c-0.2-0.5,0.1-1,0.6-1h16.7c0.5,0,0.8,0.2,1,0.6l13.3,23.9c0,0-0.6-2.2-0.6-6
	c0-8.1,8.8-18.4,19.2-18.4l18.4,0c0.4,0,0.7,0.4,0.5,0.8L72.2,35.4C71.9,35.8,71.5,36,71,36c-1.4,0-4.2,0-4.2,0
	c-1.9,0-3.3,1.3-3.3,3c0,1.8,1.2,3,3.1,3c2,0,5.6-0.1,9.5,1.1c3.9,1.2,6.9,3.7,9.1,6.9c2.4,3.4,3.6,7.4,3.6,11.5
	C88.9,72.8,79.9,81.8,68.8,81.9z"/>
</svg>
