<?xml version="1.0" encoding="utf-8"?>
<!-- Generator: Adobe Illustrator 25.2.1, SVG Export Plug-In . SVG Version: 6.00 Build 0)  -->
<svg version="1.1" id="Calque_1" xmlns="http://www.w3.org/2000/svg" xmlns:xlink="http://www.w3.org/1999/xlink" x="0px" y="0px"
	 viewBox="0 0 584.3 584.3" style="enable-background:new 0 0 584.3 584.3;" xml:space="preserve">
<style type="text/css">
	.st0{fill:#00D975;}
</style>
<g>
	<path class="st0" d="M276.9,164.6h-49.6c-12.3,0-22.7,10-22.7,22.7v370.3h233.5c0.3,0,0.6,0,1.3,0c47-3.9,83.9-43.1,83.9-91V391
		c0-50.2-40.8-91.4-91.4-91.4H299.5V187.2C299.5,174.6,289.5,164.6,276.9,164.6z"/>
	<path class="st0" d="M167,187.2c0-33.4,27.2-60.3,60.3-60.3h49.6c33.4,0,60.3,27.2,60.3,60.3v73.5c0.5-0.1,57.8-0.1,74.3-0.1
		c26.3,0,47.6-21.3,47.6-47.6l0.2-90.6c0-50.5-37.6-91.7-88.1-91.7H180c-50.6,0-91.7,41.1-91.7,91.7v361.3
		c0,40.8,33.1,73.9,73.9,73.9h4.9V187.2z"/>
</g>
</svg>
