<svg xmlns="http://www.w3.org/2000/svg" width="37" height="37" viewBox="0 0 37 37">
  <g id="Groupe_1796" data-name="Groupe 1796" transform="translate(-64 -29)">
    <rect id="Rectangle_6" data-name="Rectangle 6" width="37" height="37" rx="8" transform="translate(64 29)" fill="#fffffe" opacity="0"/>
    <g id="favicon" transform="translate(68 32)">
      <path id="Tracé_5120" data-name="Tracé 5120" d="M1.4,0H28.6A1.393,1.393,0,0,1,30,1.39V28.5a1.393,1.393,0,0,1-1.4,1.39H1.4A1.393,1.393,0,0,1,0,28.5V1.39A1.393,1.393,0,0,1,1.4,0Z" transform="translate(0.005)" fill="#00d975" opacity="0.097"/>
      <path id="Soustraction_8" data-name="Soustraction 8" d="M28.83,30H1.165A1.182,1.182,0,0,1,0,28.778V1.222A1.168,1.168,0,0,1,1.165,0H28.733A1.422,1.422,0,0,1,30,1.334V28.778A1.182,1.182,0,0,1,28.83,30Zm-8.154-4.778v3h7.572v-3ZM9.415,11.764h.971V28.222H19.9V11.889h8.446V1.527h-.1v-.02H1.423V11.764h.033v.014h7.96v-.014ZM1.553,25v3.222h7.96V25Zm19.219-5.889v5.222h7.572V19.111ZM1.456,18.889v5.222h7.96V18.889ZM20.676,13v5.222h7.572V13ZM1.553,12.778V18h7.96V12.778Z" fill="#00d975"/>
      <path id="Tracé_5122" data-name="Tracé 5122" d="M.465,0H9.53C9.787,0,10,.366,10,.818V16.769c0,.452-.208.818-.465.818H.465c-.257,0-.465-.366-.465-.818V.818C0,.366.208,0,.465,0Z" transform="translate(0.005 12.303)" fill="#00d975" opacity="0.202"/>
      <path id="Tracé_5123" data-name="Tracé 5123" d="M.465,0H9.53C9.787,0,10,.366,10,.818V16.769c0,.452-.208.818-.465.818H.465c-.257,0-.465-.366-.465-.818V.818C0,.366.208,0,.465,0Z" transform="translate(20.005 12.303)" fill="#00d975" opacity="0.202"/>
    </g>
  </g>
</svg>
