<?xml version="1.0" encoding="utf-8"?>
<!-- Generator: Adobe Illustrator 25.2.3, SVG Export Plug-In . SVG Version: 6.00 Build 0)  -->
<svg version="1.1" id="Calque_1" xmlns="http://www.w3.org/2000/svg" xmlns:xlink="http://www.w3.org/1999/xlink" x="0px" y="0px"
	 viewBox="0 0 170 57.1" style="enable-background:new 0 0 170 57.1;" xml:space="preserve">
<style type="text/css">
	.st0{fill:#00D975;}
	.st1{fill:#132B2F;}
</style>
<path class="st0" d="M31.1,20.4l0.1,0.1c0.1,0.1,0.2,0.2,0.3,0.4c0.1,0.1,0.2,0.3,0.3,0.4l0.1,0.1c0.1,0.2,0.2,0.4,0.4,0.5l0,0
	c0.5,0.7,0.9,1.4,1.1,2.3c1.5-4.4,5.6-7.5,10.5-7.5h13.8l0,0V10l0,0H43.9c-4,0-7.6,1.3-10.6,3.5c-3-2.2-6.7-3.5-10.7-3.5H9v5.3v1.4
	v29.4l0,0h13.7l0,0c4,0,7.7-1.3,10.7-3.5c3,2.2,6.7,3.5,10.7,3.5h13.7V24.6l0,0H44.2v-3.5l-7,7l7,6.8v-3.4H51v7.8h-7l0,0
	c-4.9,0-9-3.1-10.6-7.4c-0.3,0.9-0.8,1.8-1.4,2.6c-0.1,0-0.1,0.1-0.2,0.2c-2,2.8-5.3,4.6-9.1,4.6l0,0h-7v-7.8h6.7v3.4l7-6.8l-7-7
	v3.5h-6.7v-7.9h7.1l0,0c2.2,0,4.3,0.6,6,1.7l0,0C29.6,19,30.4,19.7,31.1,20.4z"/>
<g>
	<path class="st1" d="M67.7,10h7c1.2,0,2.4,0.2,3.5,0.7s2,1.2,2.8,2s1.4,1.8,1.9,2.9s0.7,2.2,0.7,3.4c0,1.2-0.2,2.3-0.7,3.4
		s-1.1,2.1-1.9,2.9s-1.8,1.5-2.8,2S76,28,74.7,28h-7V10z M72.4,24.1h1.1c0.8,0,1.5-0.1,2.2-0.4c0.6-0.3,1.2-0.6,1.6-1.1s0.8-1,1-1.6
		s0.3-1.3,0.3-2s-0.1-1.4-0.4-2c-0.2-0.6-0.6-1.2-1-1.6c-0.4-0.4-1-0.8-1.6-1.1C75,14.1,74.3,14,73.5,14h-1.1V24.1z"/>
	<path class="st1" d="M96.9,24.9h-6.7L89.1,28h-5L91,10h5.1l6.9,18.1h-5L96.9,24.9z M95.7,21.4l-2.1-6l-2.1,6H95.7z"/>
	<path class="st1" d="M111.1,14v14.1h-4.7V14h-3.9v-4H115v4H111.1z"/>
	<path class="st1" d="M127.3,24.9h-6.7l-1.1,3.1h-5l6.9-18.1h5.1l6.9,18.1h-5L127.3,24.9z M126.1,21.4l-2.1-6l-2.1,6H126.1z"/>
</g>
<g>
	<path class="st1" d="M73.2,40.3h4v0.3c0,0.7-0.1,1.4-0.3,2c-0.2,0.5-0.5,1-0.9,1.5c-0.9,1-2.1,1.5-3.5,1.5S70,45.1,69,44.1
		s-1.5-2.2-1.5-3.6c0-1.4,0.5-2.6,1.5-3.6s2.2-1.5,3.6-1.5c0.8,0,1.5,0.2,2.1,0.5s1.3,0.8,1.9,1.5l-1.1,1c-0.8-1.1-1.8-1.6-2.9-1.6
		c-1,0-1.9,0.4-2.6,1.1c-0.7,0.7-1.1,1.6-1.1,2.6c0,1.1,0.4,2,1.2,2.7c0.7,0.7,1.5,1,2.4,1c0.7,0,1.4-0.2,2-0.7s0.9-1.1,1-1.8h-2.4
		v-1.4H73.2z"/>
	<path class="st1" d="M78.7,40.4c0-1.4,0.5-2.6,1.5-3.6s2.2-1.5,3.6-1.5s2.6,0.5,3.6,1.5s1.5,2.2,1.5,3.6c0,1.4-0.5,2.6-1.5,3.6
		s-2.2,1.5-3.7,1.5c-1.3,0-2.4-0.4-3.4-1.3C79.2,43.3,78.7,42,78.7,40.4z M80.2,40.4c0,1.1,0.4,2,1.1,2.7s1.6,1,2.5,1
		c1,0,1.9-0.4,2.6-1.1c0.7-0.7,1.1-1.6,1.1-2.6s-0.4-1.9-1-2.6c-0.7-0.7-1.6-1.1-2.6-1.1s-1.9,0.4-2.6,1.1
		C80.5,38.5,80.2,39.4,80.2,40.4z"/>
	<path class="st1" d="M90.8,35.6l2.7,6.8l2.7-6.8h1.6l-4.4,10.5l-4.3-10.5H90.8z"/>
	<path class="st1" d="M104.5,37h-3.9v2.4h3.8v1.4h-3.8V44h3.9v1.4h-5.4v-9.8h5.4V37z"/>
	<path class="st1" d="M109.8,41.2l3,4.2H111l-2.8-4H108v4h-1.5v-9.8h1.7c1.3,0,2.2,0.2,2.8,0.7c0.6,0.5,1,1.3,1,2.1
		c0,0.7-0.2,1.3-0.6,1.8S110.5,41,109.8,41.2z M108,40.1h0.5c1.4,0,2.1-0.5,2.1-1.6c0-1-0.7-1.5-2-1.5H108V40.1z"/>
	<path class="st1" d="M114.3,45.4V34.9l7.1,7.5v-6.8h1.5V46l-7.1-7.5v6.9H114.3z"/>
	<path class="st1" d="M131.1,43h-4.2l-1.1,2.4h-1.6L129,35l4.7,10.4h-1.6L131.1,43z M130.5,41.6l-1.5-3.3l-1.5,3.3H130.5z"/>
	<path class="st1" d="M135,45.4V34.9l7.1,7.5v-6.8h1.5V46l-7.1-7.5v6.9H135z"/>
	<path class="st1" d="M153.3,36.1v1.8c-0.9-0.7-1.7-1.1-2.7-1.1s-1.9,0.4-2.5,1.1c-0.7,0.7-1,1.6-1,2.6s0.3,1.9,1,2.6
		c0.7,0.7,1.5,1.1,2.6,1.1c0.5,0,1-0.1,1.3-0.3c0.2-0.1,0.4-0.2,0.6-0.3s0.4-0.3,0.7-0.5v1.8c-0.8,0.5-1.7,0.7-2.7,0.7
		c-1.4,0-2.6-0.5-3.6-1.5s-1.5-2.2-1.5-3.6c0-1.2,0.4-2.4,1.2-3.3c1-1.2,2.3-1.8,3.9-1.8C151.6,35.4,152.5,35.6,153.3,36.1z"/>
	<path class="st1" d="M160.6,37h-3.9v2.4h3.8v1.4h-3.8V44h3.9v1.4h-5.4v-9.8h5.4V37z"/>
</g>
</svg>
