<?xml version="1.0" encoding="utf-8"?>
<!-- Generator: Adobe Illustrator 25.4.1, SVG Export Plug-In . SVG Version: 6.00 Build 0)  -->
<svg version="1.1" id="Calque_1" xmlns="http://www.w3.org/2000/svg" xmlns:xlink="http://www.w3.org/1999/xlink" x="0px" y="0px"
	 viewBox="0 0 356.7 211" style="enable-background:new 0 0 356.7 211;" xml:space="preserve">
<style type="text/css">
	.st0{fill:#00D975;}
	.st1{fill:#FFFFFF;}
</style>
<path class="st0" d="M291.6,76.2C291.6,76.2,291.6,76.2,291.6,76.2c0.8-1.4,21.2-36.7,30.9-53.4c2.2-3.8-0.5-8.6-5-8.6l-64.7,0.1
	v0.1c-20.7,1.1-38.9,12.3-49,29.3c-0.1,0-0.1,0-0.1,0L189,17c-1-1.8-2.9-3-5-3h-64.5c-4.3,0-7.1,4.6-5.1,8.4l37.9,71.3
	c1.2-2,2.7-3.8,4.4-5.3c2.1-1.9,4.6-3.3,7.3-4.3L135.9,31c-0.6-1.1,0.2-2.4,1.5-2.4h39.8c1.2,0,2,0.6,2.4,1.4l31.8,57.2
	c0,0-1.4-5.3-1.4-14.3c0-19.3,21.1-44,45.9-44l44.1-0.1c1,0,1.6,1.1,1.1,1.9L277,71.1c-0.6,1-1.6,1.6-2.8,1.6c-3.3,0-10,0-10,0
	c-4.5,0-7.8,3.1-7.8,7.3c0,4.3,2.8,7.3,7.5,7.3c4.7,0,13.4-0.3,22.7,2.5c9.4,2.9,16.4,8.7,21.8,16.5c5.6,8.1,8.6,17.6,8.6,27.6
	c0,26.6-21.6,48.3-48.2,48.4l-56.1,0.1c-1.3,0-2.1-1.4-1.4-2.5l19.5-32.4c0.4-0.7,1.1-1.1,1.9-1.1c3.6,0,13.8,0,13.8,0
	c3.9,0,7.4-2.8,7.9-6.7c0.6-4.6-3-8.6-7.6-8.6l-19.1,0c-2,0-3.9,1.1-4.9,2.8l-27.9,46.7c-0.7,1.1-1.9,1.8-3.2,1.8l-31.2,0
	c-1.3,0-2.1-1.4-1.4-2.5l26.8-44.1c-0.4,0.1-0.8,0.2-1.2,0.2c-2.6,0.4-5,0.6-7.3,0.6c-2.8,0-5.5-0.3-8.1-0.9l-31.6,52.5
	c-2.3,3.8,0.5,8.7,4.9,8.7l129.5-0.1v-0.1c33.1-1.7,59.6-29.3,59.6-62.8C331.6,108.1,315.9,85.4,291.6,76.2z"/>
<path class="st1" d="M26.1,70.2c0.6-0.2,1.5-0.4,2.7-0.5c1.2-0.2,2.5-0.3,3.8-0.3c1.2,0,2.3,0.1,3.3,0.3c1,0.2,1.8,0.5,2.5,1
	c0.7,0.5,1.2,1.2,1.5,2.1c0.3,0.9,0.5,2,0.5,3.4V89c1.4-0.6,2.7-1,4-1.2c1.3-0.2,2.7-0.3,4.2-0.3c2.7,0,5.2,0.5,7.7,1.4
	c2.4,1,4.5,2.3,6.4,4.2c1.9,1.8,3.3,4.1,4.4,6.8c1.1,2.7,1.6,5.8,1.6,9.3c0,3.7-0.5,6.8-1.6,9.6c-1.1,2.7-2.6,5-4.6,6.8
	c-2,1.8-4.4,3.2-7.2,4.1c-2.8,0.9-6,1.4-9.4,1.4c-3.7,0-6.9-0.4-9.4-1.3c-2.6-0.9-4.8-1.9-6.6-3.2c-2.5-1.7-3.7-4-3.7-6.7V70.2z
	 M45.8,119.8c2.6,0,4.6-0.9,6-2.7c1.4-1.8,2.1-4.4,2.1-7.9c0-3.5-0.7-6.2-2.2-7.9c-1.5-1.7-3.4-2.6-5.9-2.6c-1.1,0-2.1,0.1-2.9,0.3
	c-0.8,0.2-1.7,0.6-2.7,1v18.4c0.6,0.4,1.4,0.7,2.2,1C43.4,119.6,44.5,119.8,45.8,119.8z"/>
<path class="st1" d="M91.5,130.3c-0.6,0.1-1.6,0.3-2.8,0.5c-1.2,0.2-2.5,0.3-3.8,0.3c-1.3,0-2.4-0.1-3.4-0.3c-1-0.2-1.9-0.5-2.5-1.1
	c-0.7-0.5-1.2-1.2-1.6-2.2c-0.4-0.9-0.6-2.1-0.6-3.6V88.3c0.6-0.1,1.6-0.3,2.8-0.5c1.2-0.2,2.5-0.3,3.8-0.3c1.3,0,2.4,0.1,3.4,0.3
	c1,0.2,1.9,0.5,2.5,1.1c0.7,0.5,1.2,1.2,1.6,2.2c0.4,0.9,0.6,2.1,0.6,3.6V130.3z"/>
<path class="st1" d="M124.6,87.6c3.5,0,6.6,0.4,9.4,1.3c2.8,0.9,5.2,2,7.2,3.4c1.2,0.9,2.2,1.8,2.9,2.8c0.7,1,1,2.4,1,4v31.9
	c0,3.2-0.6,6-1.8,8.3c-1.2,2.3-2.9,4.3-5,5.8c-2.1,1.6-4.6,2.7-7.4,3.4c-2.8,0.7-5.9,1.1-9.1,1.1c-5.5,0-9.9-0.7-13-2.2
	c-3.2-1.5-4.7-3.9-4.7-7.3c0-1.4,0.3-2.6,0.9-3.7c0.6-1.1,1.2-1.9,2-2.4c1.8,1,3.8,1.8,6,2.5c2.2,0.7,4.5,1,6.9,1
	c3.3,0,5.9-0.5,7.8-1.6c1.9-1.1,2.9-2.9,2.9-5.3v-1.5c-2.5,1.1-5.5,1.6-9.1,1.6c-2.7,0-5.3-0.4-7.8-1.2c-2.5-0.8-4.6-2.1-6.5-3.8
	c-1.9-1.7-3.3-4-4.5-6.7c-1.1-2.7-1.7-6-1.7-9.8c0-3.7,0.6-6.9,1.8-9.7c1.2-2.7,2.8-5,4.9-6.8c2.1-1.8,4.6-3.1,7.5-4
	C118,88,121.2,87.6,124.6,87.6z M130.2,100.8c-0.4-0.2-1-0.5-1.9-0.7c-0.8-0.2-1.8-0.4-3.1-0.4c-3,0-5.2,0.8-6.7,2.5
	c-1.5,1.7-2.2,4.1-2.2,7.2c0,3.5,0.7,6.1,2.2,7.6c1.5,1.6,3.4,2.3,5.7,2.3c2.5,0,4.5-0.6,5.9-1.7V100.8z"/>
<path class="st1" d="M177.7,131c-3.3,0-6.4-0.5-9.3-1.4c-2.8-0.9-5.3-2.3-7.4-4.2c-2.1-1.8-3.8-4.2-5-7c-1.2-2.8-1.8-6.1-1.8-9.8
	c0-3.7,0.6-6.9,1.8-9.5c1.2-2.7,2.8-4.8,4.8-6.6c2-1.7,4.2-3,6.8-3.8c2.5-0.8,5.1-1.2,7.8-1.2c3,0,5.7,0.4,8.2,1.3
	c2.5,0.9,4.6,2.1,6.3,3.7c1.8,1.6,3.2,3.4,4.1,5.6c1,2.2,1.5,4.6,1.5,7.1c0,1.9-0.5,3.4-1.6,4.4c-1.1,1-2.6,1.7-4.5,1.9l-20.9,3.1
	c0.6,1.9,1.9,3.2,3.8,4.2c1.9,0.9,4.1,1.4,6.6,1.4c2.3,0,4.5-0.3,6.6-0.9c2.1-0.6,3.7-1.3,5-2.1c0.9,0.6,1.7,1.3,2.3,2.4
	c0.6,1,0.9,2.1,0.9,3.2c0,2.5-1.2,4.4-3.6,5.6c-1.8,1-3.8,1.6-6.1,1.9C181.8,130.9,179.7,131,177.7,131z M175.4,98
	c-1.4,0-2.5,0.2-3.5,0.7c-1,0.4-1.8,1-2.4,1.7c-0.6,0.7-1.1,1.5-1.4,2.4c-0.3,0.9-0.5,1.8-0.6,2.6L182,103c-0.2-1.1-0.8-2.2-1.9-3.4
	C179,98.6,177.5,98,175.4,98z"/>
<path class="st0" d="M76.8,74.2c0-2,0.7-3.7,2-5.1c1.4-1.4,3.2-2.1,5.4-2.1s4,0.7,5.4,2.1c1.4,1.4,2,3.1,2,5.1c0,2-0.7,3.7-2,5.1
	c-1.4,1.4-3.2,2.1-5.4,2.1s-4-0.7-5.4-2.1C77.5,78,76.8,76.3,76.8,74.2z"/>
</svg>
