<?xml version="1.0" encoding="utf-8"?>
<!-- Generator: Adobe Illustrator 25.2.1, SVG Export Plug-In . SVG Version: 6.00 Build 0)  -->
<svg version="1.1" id="Calque_1" xmlns="http://www.w3.org/2000/svg" xmlns:xlink="http://www.w3.org/1999/xlink" x="0px" y="0px"
	 viewBox="0 0 136.8 43.8" style="enable-background:new 0 0 136.8 43.8;" xml:space="preserve">
<style type="text/css">
	.st0{fill:#00D975;}
	.st1{fill:#FFFFFF;}
</style>
<path class="st0" d="M23.5,4.9C23.4,4.9,23.4,4.9,23.5,4.9L23.5,4.9H8.8l0,0c0,0,0,0-0.1,0c-1.1,0-2,1-2,2.1v0.1l0,0v29.3l0,0l0,0
	c0,1.2,0.9,2.1,2.1,2.1l0,0l0,0h3l0,0h4.7c-1.1-0.3-1.5-1.1-1.5-2.1s0-10.4,0-10.5c0-1.2,0.9-2.1,2.1-2.1l0,0c0,0,4.1,0,4.2,0
	c1.2,0,2.1,0.9,2.1,2.1v10.4c0,1.1,0.9,2,2.1,2c0.1,0,0.2,0,0.4,0c8.1-1.2,14.3-8.2,14.3-16.6C40.3,12.5,32.7,4.9,23.5,4.9z
	 M19.3,20.7c-2.3,0-4.2-1.9-4.2-4.2s1.9-4.2,4.2-4.2s4.2,1.9,4.2,4.2S21.6,20.7,19.3,20.7z"/>
<g>
	<path class="st1" d="M64.3,27.6c-0.8,1-2.1,1.5-4,1.5s-3.2-0.5-4-1.5s-1.2-2.6-1.2-4.8s0.4-3.8,1.2-4.9s2.1-1.6,4-1.6
		s3.2,0.5,4,1.6c0.8,1.1,1.2,2.7,1.2,4.9S65,26.6,64.3,27.6z M58.3,26c0.4,0.6,1,1,2,1s1.7-0.3,2-1c0.4-0.6,0.5-1.7,0.5-3.2
		s-0.2-2.6-0.5-3.3c-0.4-0.7-1-1-2-1s-1.6,0.3-2,1s-0.5,1.8-0.5,3.3C57.7,24.3,57.9,25.4,58.3,26z"/>
	<path class="st1" d="M67.6,28V17.5c0-0.5,0.4-1,1-1h0.6c0.5,0,0.8,0.2,1.1,0.7c0.3,0.5,3.5,5.3,4.4,6.7C74.8,24,75,24,75,23.8v-6.4
		c0-0.5,0.4-0.9,0.9-0.9h0.7c0.5,0,0.9,0.4,0.9,0.9V28c0,0.5-0.4,0.9-0.9,0.9h-0.5c-0.6,0-0.9-0.1-1.3-0.8c-0.4-0.6-3.5-5.5-4.4-6.9
		c-0.1-0.1-0.3-0.1-0.3,0.1V28c0,0.5-0.4,1-1,1h-0.6C68,28.9,67.6,28.5,67.6,28z"/>
	<path class="st1" d="M79.1,17.8v-0.4c0-0.5,0.4-0.9,0.9-0.9h7.3c0.5,0,0.9,0.4,0.9,0.9v0.4c0,0.5-0.4,0.9-0.9,0.9h-2.2
		c-0.1,0-0.2,0.1-0.2,0.2V28c0,0.5-0.4,0.9-0.9,0.9h-0.7c-0.5,0-0.9-0.4-0.9-0.9v-9.1c0-0.1-0.1-0.2-0.2-0.2H80
		C79.5,18.8,79.1,18.3,79.1,17.8z"/>
	<path class="st1" d="M120.6,17.8v-0.4c0-0.5,0.4-0.9,0.9-0.9h7.3c0.5,0,0.9,0.4,0.9,0.9v0.4c0,0.5-0.4,0.9-0.9,0.9h-2.2
		c-0.1,0-0.2,0.1-0.2,0.2V28c0,0.5-0.4,0.9-0.9,0.9h-0.7c-0.5,0-0.9-0.4-0.9-0.9v-9.1c0-0.1-0.1-0.2-0.2-0.2h-2.2
		C121,18.8,120.6,18.3,120.6,17.8z"/>
	<path class="st1" d="M92.3,25v2.9c0,0.6-0.4,1-1,1h-0.5c-0.6,0-1-0.4-1-1V17.5c0-0.6,0.4-1,1-1h3.8c2.9,0,4.4,1.4,4.4,4.1
		c0,1.6-0.6,2.7-1.7,3.5c-0.1,0-0.1,0.1-0.1,0.2l1.2,3.3c0.2,0.7-0.2,1.4-0.9,1.4h-0.6c-0.4,0-0.8-0.3-0.9-0.7L94.8,25
		c0-0.1-0.2-0.2-0.3-0.2h-1.9C92.5,24.8,92.3,24.9,92.3,25z M96,22.1c0.3-0.4,0.4-0.8,0.4-1.4s-0.2-1.1-0.5-1.4
		c-0.3-0.4-0.8-0.5-1.3-0.5h-2.1c-0.1,0-0.2,0.1-0.2,0.2v3.5c0,0.1,0.1,0.2,0.2,0.2h2.1C95.3,22.6,95.7,22.4,96,22.1z"/>
	<path class="st1" d="M100.2,27.7l2.3-10.4c0.1-0.5,0.5-0.8,1-0.8h3.2c0.5,0,0.9,0.3,1,0.8l2.3,10.4c0.1,0.6-0.3,1.2-1,1.2h-0.4
		c-0.5,0-0.9-0.3-1-0.8l-0.3-1.2c0-0.1-0.1-0.2-0.3-0.2h-3.9c-0.1,0-0.2,0.1-0.3,0.2l-0.3,1.2c-0.1,0.5-0.5,0.8-1,0.8h-0.4
		C100.6,28.9,100.1,28.3,100.2,27.7z M104.6,19.1l-1.1,5.2c0,0.1,0.1,0.2,0.2,0.2h2.9c0.1,0,0.2-0.1,0.2-0.2l-1.1-5.2
		c0,0,0-0.4-0.5-0.4S104.6,19.1,104.6,19.1z"/>
	<path class="st1" d="M119.7,27.9c0,0.5-0.3,0.9-0.8,1c-1,0.2-1.9,0.3-2.7,0.3c-1,0-1.9-0.1-2.5-0.4s-1.1-0.7-1.5-1.2
		c-0.4-0.6-0.6-1.2-0.7-2s-0.2-1.7-0.2-2.8c0-2.4,0.3-4.1,1-5s1.9-1.4,3.7-1.4c0.8,0,1.8,0.1,2.8,0.3c0.5,0.1,0.8,0.5,0.8,1v0.1
		c0,0.6-0.5,1-1.1,0.9c-0.8-0.1-1.4-0.1-2-0.1c-0.8,0-1.4,0.1-1.7,0.3c-0.3,0.2-0.6,0.6-0.8,1.2c-0.2,0.6-0.2,1.6-0.2,3
		s0.2,2.4,0.5,3s1,0.8,2,0.8c0.7,0,1.4,0,2.1-0.1c0.6-0.1,1.1,0.4,1.1,0.9L119.7,27.9z"/>
	<path class="st1" d="M53.7,27.9c0,0.5-0.3,0.9-0.8,1c-1,0.2-1.9,0.3-2.7,0.3c-1,0-1.9-0.1-2.5-0.4s-1.1-0.7-1.5-1.2s-0.6-1.2-0.7-2
		c-0.1-0.8-0.2-1.7-0.2-2.8c0-2.4,0.3-4.1,1-5s1.9-1.4,3.7-1.4c0.8,0,1.8,0.1,2.8,0.3c0.5,0.1,0.8,0.5,0.8,1v0.1
		c0,0.6-0.5,1-1.1,0.9c-0.8-0.1-1.4-0.1-2-0.1c-0.8,0-1.4,0.1-1.7,0.3c-0.3,0.2-0.6,0.6-0.8,1.2s-0.2,1.6-0.2,3s0.2,2.4,0.5,3
		s1,0.8,2,0.8c0.7,0,1.4,0,2.1-0.1c0.6-0.1,1.1,0.4,1.1,0.9L53.7,27.9z"/>
</g>
</svg>
