<svg id="Composant_103_1" data-name="Composant 103 – 1" xmlns="http://www.w3.org/2000/svg" width="144.3" height="40" viewBox="0 0 144.3 40">
  <path id="Tracé_5276" data-name="Tracé 5276" d="M22.028,40A20.017,20.017,0,0,1,2.051,21.395H13.035a9.139,9.139,0,0,0,.67,2.368,9.813,9.813,0,0,0,2.08,3.061,9.92,9.92,0,0,0,3.056,2.058,9.291,9.291,0,0,0,3.718.755,8.142,8.142,0,0,0,4.252-1.146,10.983,10.983,0,0,0,3.264-3.021l-3.433-2.032a6,6,0,0,1-1.7,1.837,4.076,4.076,0,0,1-2.38.716,5.106,5.106,0,0,1-2.21-.495,6.137,6.137,0,0,1-1.82-1.315,6.1,6.1,0,0,1,0-8.361A6.137,6.137,0,0,1,20.35,14.5a5.106,5.106,0,0,1,2.21-.495,4.344,4.344,0,0,1,1.378.208,4.238,4.238,0,0,1,1.118.56,4.939,4.939,0,0,1,.884.807,8.2,8.2,0,0,1,.7.951l3.251-2.214a10.418,10.418,0,0,0-3.2-2.918,8.217,8.217,0,0,0-4.135-1.041,9.319,9.319,0,0,0-3.757.768,9.8,9.8,0,0,0-3.056,2.084,9.933,9.933,0,0,0-2.054,3.061,9.153,9.153,0,0,0-.657,2.329H2.052a20.034,20.034,0,0,1,38.426-6.389A20,20,0,0,1,22.028,40Z" transform="translate(-2.051)" fill="#00d975"/>
  <path id="Tracé_5277" data-name="Tracé 5277" d="M14.16-2.8A8.4,8.4,0,0,1,11.65-.48,6.245,6.245,0,0,1,8.38.4,7.122,7.122,0,0,1,5.52-.18,7.593,7.593,0,0,1,3.17-1.76a7.494,7.494,0,0,1-1.6-2.35A7.137,7.137,0,0,1,.98-7a7.122,7.122,0,0,1,.58-2.86,7.593,7.593,0,0,1,1.58-2.35,7.494,7.494,0,0,1,2.35-1.6,7.137,7.137,0,0,1,2.89-.59,6.294,6.294,0,0,1,3.18.8,7.965,7.965,0,0,1,2.46,2.24l-2.5,1.7a6.247,6.247,0,0,0-.54-.73,3.76,3.76,0,0,0-.68-.62,3.247,3.247,0,0,0-.86-.43,3.337,3.337,0,0,0-1.06-.16,3.913,3.913,0,0,0-1.7.38,4.7,4.7,0,0,0-1.4,1.01,4.624,4.624,0,0,0-.94,1.47A4.6,4.6,0,0,0,4-7a4.6,4.6,0,0,0,.34,1.74,4.624,4.624,0,0,0,.94,1.47,4.7,4.7,0,0,0,1.4,1.01,3.913,3.913,0,0,0,1.7.38,3.123,3.123,0,0,0,1.83-.55,4.581,4.581,0,0,0,1.31-1.41Zm12.5-7.38V0h-3V-.8a5.65,5.65,0,0,1-1.4.87,3.975,3.975,0,0,1-1.6.33,5.431,5.431,0,0,1-2.15-.43,5.4,5.4,0,0,1-1.75-1.18,5.635,5.635,0,0,1-1.17-1.75,5.31,5.31,0,0,1-.43-2.12,5.324,5.324,0,0,1,.44-2.15,5.536,5.536,0,0,1,1.19-1.75,5.635,5.635,0,0,1,1.75-1.17,5.31,5.31,0,0,1,2.12-.43,3.975,3.975,0,0,1,1.6.33,6,6,0,0,1,1.4.85v-.78ZM20.98-2.3a2.673,2.673,0,0,0,1.07-.22,2.92,2.92,0,0,0,.89-.59,2.713,2.713,0,0,0,.6-.88,2.722,2.722,0,0,0,.22-1.09,2.722,2.722,0,0,0-.22-1.09,2.713,2.713,0,0,0-.6-.88,2.92,2.92,0,0,0-.89-.59,2.673,2.673,0,0,0-1.07-.22,2.722,2.722,0,0,0-1.09.22,2.8,2.8,0,0,0-.88.59,2.8,2.8,0,0,0-.59.88,2.722,2.722,0,0,0-.22,1.09,2.722,2.722,0,0,0,.22,1.09,2.8,2.8,0,0,0,.59.88,2.8,2.8,0,0,0,.88.59A2.722,2.722,0,0,0,20.98-2.3Zm20.44-8.28a3.627,3.627,0,0,1,1.55.34,3.985,3.985,0,0,1,1.27.93,4.433,4.433,0,0,1,.85,1.37,4.507,4.507,0,0,1,.31,1.68V0h-3V-5.68a2.372,2.372,0,0,0-.15-.84,2.4,2.4,0,0,0-.4-.7,1.823,1.823,0,0,0-.59-.47,1.589,1.589,0,0,0-.72-.17,1.517,1.517,0,0,0-.72.18,1.949,1.949,0,0,0-.59.48,2.4,2.4,0,0,0-.4.7,2.429,2.429,0,0,0-.15.86V0h-3V-5.68a2.372,2.372,0,0,0-.15-.84,2.4,2.4,0,0,0-.4-.7,1.823,1.823,0,0,0-.59-.47,1.589,1.589,0,0,0-.72-.17,1.517,1.517,0,0,0-.72.18,1.949,1.949,0,0,0-.59.48,2.4,2.4,0,0,0-.4.7,2.429,2.429,0,0,0-.15.86V0H28.94V-10.18h3.02v1.1a4.65,4.65,0,0,1,1.15-1.09,2.634,2.634,0,0,1,1.47-.41,3.93,3.93,0,0,1,1.87.42,3.684,3.684,0,0,1,1.29,1.12,4.731,4.731,0,0,1,1.46-1.1A4.949,4.949,0,0,1,41.42-10.58ZM57.4,0H54.42V-1.04A5.007,5.007,0,0,1,53.1.01,3.3,3.3,0,0,1,51.5.4,3.97,3.97,0,0,1,49.86.06a4.119,4.119,0,0,1-1.32-.93,4.539,4.539,0,0,1-.89-1.37,4.267,4.267,0,0,1-.33-1.68v-6.26h3V-4.5a2.218,2.218,0,0,0,.16.85,2.257,2.257,0,0,0,.44.69,2.055,2.055,0,0,0,.65.47,1.87,1.87,0,0,0,.79.17,1.87,1.87,0,0,0,.79-.17,2.174,2.174,0,0,0,.66-.47,2.115,2.115,0,0,0,.45-.71,2.372,2.372,0,0,0,.16-.87v-5.64H57.4Zm8.26-10.58a4.158,4.158,0,0,1,1.68.34,4.411,4.411,0,0,1,1.37.93,4.411,4.411,0,0,1,.93,1.37,4.158,4.158,0,0,1,.34,1.68V0h-3V-5.68a2.024,2.024,0,0,0-.18-.84,2.335,2.335,0,0,0-.48-.7,2.192,2.192,0,0,0-.7-.47,2.126,2.126,0,0,0-.84-.17,2.071,2.071,0,0,0-.86.18,2.335,2.335,0,0,0-.7.48,2.335,2.335,0,0,0-.48.7,2.071,2.071,0,0,0-.18.86V0h-3V-10.18h3v1.16a5.313,5.313,0,0,1,1.39-1.13A3.447,3.447,0,0,1,65.66-10.58ZM83.1-14V0h-3V-.8a6.023,6.023,0,0,1-1.42.87,3.975,3.975,0,0,1-1.6.33,5.359,5.359,0,0,1-2.14-.43A5.431,5.431,0,0,1,73.2-1.21a5.635,5.635,0,0,1-1.17-1.75,5.31,5.31,0,0,1-.43-2.12,5.431,5.431,0,0,1,.43-2.15,5.4,5.4,0,0,1,1.18-1.75,5.635,5.635,0,0,1,1.75-1.17,5.31,5.31,0,0,1,2.12-.43,4.046,4.046,0,0,1,1.61.33,5.925,5.925,0,0,1,1.41.85V-14ZM77.4-2.3a2.722,2.722,0,0,0,1.09-.22,2.8,2.8,0,0,0,.88-.59,2.8,2.8,0,0,0,.59-.88,2.722,2.722,0,0,0,.22-1.09,2.722,2.722,0,0,0-.22-1.09,2.8,2.8,0,0,0-.59-.88,2.8,2.8,0,0,0-.88-.59,2.722,2.722,0,0,0-1.09-.22,2.722,2.722,0,0,0-1.09.22,2.8,2.8,0,0,0-.88.59,2.8,2.8,0,0,0-.59.88,2.722,2.722,0,0,0-.22,1.09,2.722,2.722,0,0,0,.22,1.09,2.8,2.8,0,0,0,.59.88,2.8,2.8,0,0,0,.88.59A2.722,2.722,0,0,0,77.4-2.3Zm18.9-7.88V0h-3V-.8a5.65,5.65,0,0,1-1.4.87A3.975,3.975,0,0,1,90.3.4a5.431,5.431,0,0,1-2.15-.43A5.4,5.4,0,0,1,86.4-1.21a5.635,5.635,0,0,1-1.17-1.75,5.31,5.31,0,0,1-.43-2.12,5.324,5.324,0,0,1,.44-2.15,5.536,5.536,0,0,1,1.19-1.75,5.635,5.635,0,0,1,1.75-1.17,5.31,5.31,0,0,1,2.12-.43,3.975,3.975,0,0,1,1.6.33,6,6,0,0,1,1.4.85v-.78ZM90.62-2.3a2.673,2.673,0,0,0,1.07-.22,2.92,2.92,0,0,0,.89-.59,2.713,2.713,0,0,0,.6-.88,2.722,2.722,0,0,0,.22-1.09,2.722,2.722,0,0,0-.22-1.09,2.713,2.713,0,0,0-.6-.88,2.92,2.92,0,0,0-.89-.59,2.673,2.673,0,0,0-1.07-.22,2.722,2.722,0,0,0-1.09.22,2.8,2.8,0,0,0-.88.59,2.8,2.8,0,0,0-.59.88,2.722,2.722,0,0,0-.22,1.09,2.722,2.722,0,0,0,.22,1.09,2.8,2.8,0,0,0,.59.88,2.8,2.8,0,0,0,.88.59A2.722,2.722,0,0,0,90.62-2.3Z" transform="translate(48 26)" fill="#012f2d"/>
</svg>
