<?xml version="1.0" encoding="utf-8"?>
<!-- Generator: Adobe Illustrator 25.2.1, SVG Export Plug-In . SVG Version: 6.00 Build 0)  -->
<svg version="1.1" id="Calque_1" xmlns="http://www.w3.org/2000/svg" xmlns:xlink="http://www.w3.org/1999/xlink" x="0px" y="0px"
	 viewBox="0 0 531.3 188.7" style="enable-background:new 0 0 531.3 188.7;" xml:space="preserve">
<style type="text/css">
	.st0{fill:#00D975;}
	.st1{fill:#132B2F;}
</style>
<g>
	<path class="st0" d="M70.9,56.9H57c-3.5,0-6.4,2.8-6.4,6.4v107.1h65.6c0.1,0,0.2,0,0.4,0c13.2-1.1,23.6-12.1,23.6-25.6v-24.2
		c0-14.1-11.5-25.7-25.7-25.7H77.3V63.3C77.3,59.7,74.5,56.9,70.9,56.9z"/>
	<path class="st0" d="M40.1,63.3c0-9.4,7.6-16.9,16.9-16.9h13.9c9.4,0,16.9,7.6,16.9,16.9v20.7c0.1,0,16.2,0,20.9,0
		c7.4,0,13.4-6,13.4-13.4l0-25.5c0-14.2-10.6-25.8-24.8-25.8H43.7c-14.2,0-25.8,11.5-25.8,25.8v104.5c0,11.5,9.3,20.8,20.8,20.8h1.4
		V63.3z"/>
</g>
<g>
	<path class="st1" d="M207.6,78.3h-16.1v-7.1c0-3-2.5-5.5-5.5-5.5h-2.8c-3,0-5.5,2.5-5.5,5.5v44.1c0,3,2.5,5.5,5.5,5.5h23.6
		c3.9,0,7-1.1,9.2-3.4s3.4-5.3,3.4-9.2V90.1c0-3.6-1.1-6.4-3.2-8.6C214,79.3,211.2,78.3,207.6,78.3z M205.6,107.4
		c0,1.5-1.2,2.7-2.7,2.7h-11.4V88.9h11.4c0.8,0,1.5,0.3,2,0.8c0.5,0.6,0.8,1.2,0.8,2V107.4L205.6,107.4z"/>
	<path class="st1" d="M263.1,111c-6.4,0-19.1,0-20.8,0c-0.8,0-1.5-0.3-2-0.8c-0.6-0.5-0.8-1.1-0.8-1.9v-3h23.5c2,0,3.6-1.6,3.6-3.6
		V90.9c0-3.9-1.1-7-3.4-9.2s-5.3-3.4-9.2-3.4h-15.8c-3.9,0-7,1.1-9.2,3.4s-3.4,5.3-3.4,9.2v18.8c0,3.6,1.1,6.4,3.2,8.5
		c2.2,2.2,5,2.8,8.6,2.8c2.3,0,18.3-0.1,25.6-0.1c2,0,3.6-1.6,3.6-3.6v-2.5C266.7,112.7,265.1,111,263.1,111z M239.5,91.3
		c0-1.8,1.4-3.2,3.2-3.2h7.1c1.8,0,3.2,1.4,3.2,3.2v4.3h-13.4V91.3z"/>
	<path class="st1" d="M320.5,96c-0.8-1.1-1.9-2.1-3-2.7c-1.2-0.7-2.3-1.2-3.4-1.5c2-0.8,3.6-2.2,5-4.1c1.3-2,2-4.6,2-7.7
		c0-4.8-1.2-8.3-3.6-10.7c-2.4-2.3-6.2-3.5-11.4-3.5h-27.9c-2,0-3.6,1.6-3.6,3.6v47.9c0,2,1.6,3.6,3.6,3.6h30.2
		c5.1,0,8.9-1.2,11.4-3.6c2.4-2.4,3.6-6.2,3.6-11.4c0-2.2-0.3-4.1-0.8-5.7C322,98.5,321.3,97.1,320.5,96z M288.7,76.7h13.4
		c2.6,0,4.7,2.1,4.7,4.7v1.5c0,2.6-2.1,4.7-4.7,4.7h-13.4V76.7z M309.2,105.1c0,2.6-2.1,4.7-4.7,4.7h-15.8v-11h15.8
		c2.6,0,4.7,2.1,4.7,4.7V105.1z"/>
	<path class="st1" d="M346,109.9c-0.8,0-1.4-0.3-2-0.8c-0.5-0.5-0.8-1.2-0.8-2V70.3c0-2.6-2.1-4.6-4.6-4.6h-4.3
		c-2.6,0-4.6,2.1-4.6,4.6v38.8c0,3.5,1.1,6.3,3.2,8.5c2.1,2.1,5,3.2,8.5,3.2c0.5,0,2.6,0,4.7,0c2.6,0,4.6-2.1,4.6-4.6v-1.6
		C350.7,112,348.6,109.9,346,109.9z"/>
	<path class="st1" d="M385.9,78.3h-17.8c-3.9,0-6.9,1.1-9.1,3.3c-2.2,2.2-3.3,5.3-3.3,9.1v17.8c0,3.9,1.1,6.9,3.3,9.1
		c2.2,2.2,5.3,3.3,9.1,3.3h17.8c3.9,0,6.9-1.1,9.1-3.3c2.2-2.2,3.3-5.3,3.3-9.1V90.7c0-3.9-1.1-6.9-3.3-9.1
		C392.8,79.4,389.8,78.3,385.9,78.3z M384.7,107.3c0,2-1.1,3.1-3.1,3.1h-9.3c-2,0-3.1-1.1-3.1-3.1V91.8c0-2,1.1-3.1,3.1-3.1h9.3
		c2,0,3.1,1.1,3.1,3.1V107.3z"/>
	<path class="st1" d="M480.9,99.2l8.5-14.4c1.7-2.9-0.4-6.6-3.8-6.6h-4.5c-1.5,0-2.9,0.8-3.7,2.1l-7.1,12.1
		c-0.4,0.8-1.3,1.3-2.2,1.3h-4.8V70c0-2.4-2-4.3-4.3-4.3h-5c-2.4,0-4.3,2-4.3,4.3v46.5c0,2.4,2,4.3,4.3,4.3h5c2.4,0,4.3-2,4.3-4.3
		v-12.1c1.4,0,1.7-0.1,3.7-0.1c1.3,0,2.6,0.8,3.2,1.9l6.8,12.3c0.8,1.4,2.2,2.2,3.8,2.2h4.7c3.3,0,5.4-3.5,3.9-6.4L480.9,99.2z"/>
	<path class="st1" d="M439.6,78.3h-21.7c-3.9,0-7,1.1-9.2,3.4c-2.1,2.1-3.2,5-3.3,8.6h-0.1v0.6v17.4v0.6h0.1
		c0.1,3.6,1.2,6.5,3.3,8.6c2.2,2.2,5.3,3.4,9.2,3.4h21.7c1.9,0,3.5-1.5,3.5-3.5v-3.6c0-1.9-1.5-3.5-3.5-3.5h-16.8
		c-2,0-3.7-1.7-3.7-3.7V92.7c0-2,1.7-3.7,3.7-3.7h16.8c1.9,0,3.5-1.5,3.5-3.5v-3.6C443.1,79.8,441.5,78.3,439.6,78.3z"/>
</g>
</svg>
