<?xml version="1.0" encoding="utf-8"?>
<!-- Generator: Adobe Illustrator 25.2.0, SVG Export Plug-In . SVG Version: 6.00 Build 0)  -->
<svg version="1.1" id="branding_business" xmlns="http://www.w3.org/2000/svg" xmlns:xlink="http://www.w3.org/1999/xlink" x="0px"
	 y="0px" viewBox="0 0 138.2 66.8" style="enable-background:new 0 0 138.2 66.8;" xml:space="preserve">
<style type="text/css">
	.st0{fill:#00D975;}
	.st1{fill:#FFFFFF;}
</style>
<path id="Soustraction_12" class="st0" d="M19.5,55.8L5.8,42.1l15.6-15.6l6.7,6.7c0.5,0.5,0.9,0.9,1.5,1.2c1,0.7,2.2,1.1,3.4,1.4
	c1.8,0.3,3.7,0.2,5.3-0.5c0.6-0.2,1.1-0.5,1.6-0.9c1.1-0.7,2-1.6,2.7-2.7c0.7-1,1.1-2.2,1.4-3.4c0.3-1.8,0.2-3.7-0.5-5.3
	c-0.2-0.6-0.5-1.1-0.9-1.6c-0.4-0.5-0.8-1-1.2-1.5l-4.4-4.4l-6.7,6.7l8.9,8.9c-0.6,0.6-1.3,1.1-2.1,1.4c-2.4,0.9-5,0.4-6.8-1.4
	l-8.9-8.9L36.9,6.5l8.9,8.9c0.8,0.8,1.4,1.6,2,2.5c1.1,1.7,1.9,3.6,2.3,5.6c0.6,3,0.3,6.1-0.9,8.9c-0.4,1-0.9,1.9-1.4,2.7
	c-1.2,1.8-2.7,3.3-4.5,4.5c-1.7,1.1-3.6,1.9-5.6,2.3c-3,0.6-6.1,0.3-8.9-0.9c-1-0.4-1.9-0.9-2.7-1.4c-0.9-0.6-1.7-1.3-2.5-2
	l-2.2-2.2l-6.7,6.7l8.8,8.8c0.5,0.5,0.9,0.9,1.5,1.2c1,0.7,2.2,1.1,3.4,1.4c1.8,0.3,3.7,0.2,5.3-0.5c0.6-0.2,1.1-0.5,1.6-0.9
	c1.1-0.7,2-1.6,2.7-2.7c0.7-1,1.1-2.2,1.4-3.4c0.1-0.4,0.1-0.9,0.2-1.3c2-0.5,3.8-1.4,5.5-2.5c0.2-0.1,0.4-0.3,0.7-0.5
	c0.5,2.8,0.1,5.8-0.9,8.4c-0.4,1-0.9,1.9-1.4,2.7c-1.2,1.8-2.7,3.3-4.5,4.5c-1.7,1.1-3.6,1.9-5.6,2.3c-3,0.6-6.1,0.3-8.9-0.9
	c-1-0.4-1.9-0.9-2.7-1.4C20.8,56.9,20.1,56.4,19.5,55.8L19.5,55.8L19.5,55.8z"/>
<path id="Tracé_4875" class="st1" d="M56.7,33.2h4.6c1-0.1,1.9,0.2,2.7,0.7c0.7,0.6,1,1.5,0.9,2.4c0,0.5-0.1,1.1-0.3,1.6
	c-0.2,0.4-0.6,0.8-1,1c0.5,0.2,0.9,0.5,1.1,1c0.3,0.5,0.4,1.1,0.4,1.7c0.1,1-0.3,1.9-1,2.5c-0.8,0.6-1.8,0.9-2.8,0.8h-4.7V33.2z
	 M61.2,40H59v2.9h2.2c0.4,0,0.8-0.1,1.1-0.3c0.3-0.3,0.4-0.7,0.4-1.1C62.7,40.5,62.2,40,61.2,40z M61.1,35.2H59V38h2.1
	c0.9,0,1.3-0.5,1.3-1.4c0.1-0.7-0.4-1.3-1-1.4C61.4,35.2,61.3,35.2,61.1,35.2z M69.5,41c-0.1,1,0.6,1.9,1.6,2.1c0.2,0,0.3,0,0.5,0
	c1,0.2,1.9-0.5,2.1-1.5c0-0.2,0-0.3,0-0.5v-7.8H76v7.8c0.1,1.2-0.3,2.3-1.1,3.2c-1,0.7-2.2,1.1-3.4,1c-1.2,0.1-2.4-0.3-3.4-1
	c-0.8-0.8-1.2-2-1.1-3.2v-7.8h2.4L69.5,41z M82.1,35c-1.3,0-1.9,0.4-1.9,1.2c0,0.3,0.2,0.7,0.5,0.8c0.7,0.4,1.4,0.6,2.2,0.8
	c0.9,0.2,1.7,0.7,2.4,1.3c0.5,0.6,0.8,1.4,0.7,2.2c0.1,1.1-0.3,2.1-1.1,2.8c-0.8,0.7-1.9,1-2.9,1c-1.1,0-2.2-0.2-3.3-0.4L78,44.6
	l0.2-1.8c1.2,0.2,2.4,0.3,3.5,0.3c1.2,0,1.8-0.5,1.8-1.5c0-0.3-0.1-0.7-0.4-0.9c-0.5-0.3-1.1-0.5-1.7-0.7c-1-0.2-2-0.7-2.8-1.4
	c-0.6-0.6-0.9-1.4-0.8-2.2c-0.1-1,0.3-2,1.1-2.6c0.9-0.6,1.9-0.9,2.9-0.9c1.1,0,2.2,0.1,3.2,0.3l0.6,0.1l-0.2,1.9
	C83.9,35.1,82.8,35,82.1,35z M87.9,44.9V33.2h2.4v11.8H87.9z M92.8,44.9V33.2h4l2.8,9.7h0.2v-9.7h2.4v11.8h-3.9l-2.9-9.7h-0.2v9.7
	L92.8,44.9z M104.8,44.9V33.2h7.6v2.1h-5.2V38h4.2v2h-4.2v2.8h5.2v2.1L104.8,44.9z M118,35c-1.3,0-1.9,0.4-1.9,1.2
	c0,0.3,0.2,0.7,0.5,0.8c0.7,0.4,1.4,0.6,2.2,0.8c0.9,0.2,1.7,0.7,2.4,1.3c0.5,0.6,0.8,1.4,0.7,2.2c0.1,1.1-0.3,2.1-1.1,2.8
	c-0.8,0.7-1.9,1-2.9,1c-1.1,0-2.2-0.2-3.3-0.4l-0.6-0.1l0.2-1.8c1.2,0.2,2.4,0.3,3.5,0.3c1.2,0,1.8-0.5,1.8-1.5
	c0-0.3-0.1-0.7-0.4-0.9c-0.5-0.3-1.1-0.5-1.7-0.7c-1-0.2-2-0.7-2.8-1.4c-0.6-0.6-0.9-1.4-0.8-2.2c-0.1-1,0.3-2,1.1-2.6
	c0.9-0.6,1.9-0.9,2.9-0.9c1.1,0,2.2,0.1,3.2,0.3l0.6,0.1l-0.2,1.9C119.8,35.1,118.7,35,118,35L118,35z M127.4,35
	c-1.3,0-1.9,0.4-1.9,1.2c0,0.3,0.2,0.7,0.5,0.8c0.7,0.4,1.4,0.6,2.2,0.8c0.9,0.2,1.7,0.7,2.4,1.3c0.5,0.6,0.8,1.4,0.7,2.2
	c0.1,1.1-0.3,2.1-1.1,2.8c-0.8,0.7-1.9,1-2.9,1c-1.1,0-2.2-0.2-3.3-0.4l-0.6-0.1l0.2-1.8c1.2,0.2,2.4,0.3,3.5,0.3
	c1.2,0,1.8-0.5,1.8-1.5c0-0.3-0.1-0.7-0.4-0.9c-0.5-0.3-1.1-0.5-1.7-0.7c-1-0.2-2-0.7-2.8-1.4c-0.6-0.6-0.9-1.4-0.8-2.2
	c-0.1-1,0.3-2,1.1-2.6c0.9-0.6,1.9-0.9,2.9-0.9c1.1,0,2.2,0.1,3.2,0.3l0.6,0.1l-0.2,1.9C129.2,35.1,128.1,35,127.4,35L127.4,35z"/>
<circle id="Ellipse_50" class="st0" cx="89" cy="29.6" r="1.5"/>
</svg>
