<?xml version="1.0" encoding="utf-8"?>
<!-- Generator: Adobe Illustrator 25.2.0, SVG Export Plug-In . SVG Version: 6.00 Build 0)  -->
<svg version="1.1" id="branding_be-ys" xmlns="http://www.w3.org/2000/svg" xmlns:xlink="http://www.w3.org/1999/xlink" x="0px"
	 y="0px" viewBox="0 0 110.4 52.2" style="enable-background:new 0 0 110.4 52.2;" xml:space="preserve">
<style type="text/css">
	.st0{fill:#00D975;}
	.st1{fill:#012F2D;}
</style>
<path id="Tracé_4848" class="st0" d="M67.1,29.7L65.7,33l-7.5-17.5h-3.9l10.1,23l3.1-7.8L67.1,29.7z"/>
<path id="Tracé_4849" class="st1" d="M26.2,26.3c0,6.2-4,12.1-10.9,12.1c-2,0-3.9-0.6-5.6-1.6c-0.7-0.5-1.4-1.1-2.1-1.7l-2.3,3.5
	V3.3h3.9v26.1c0,5.7,4.3,9.3,8.7,8.2c3.6-0.9,4.8-6.2,4.5-11.7c-0.3-5.7-3.5-9.4-7.7-9.3c-2.1,0.1-4.2,1.8-5.2,3
	c0.6-1.4,2.9-4.7,6.9-4.8C21.6,14.6,26.2,18.1,26.2,26.3z"/>
<path id="Tracé_4850" class="st1" d="M50.8,31.4l0.3-0.5c-1.1,4.6-5.2,7.7-9.9,7.5c-6.1-0.1-11-4.7-11.1-11.7
	c-0.2-4.2,1.9-8.2,5.5-10.4c2-1.2,4.4-1.8,6.8-1.6c5,0.3,8.7,4.2,8.6,10.3H33.8c0,6.1,3.4,10.3,8.7,10.6
	C45.9,35.6,49,34.6,50.8,31.4z M33.8,24.4h13.3c0.5-2,0.8-6.1-1.5-8c-2.1-1.8-5.8-1.8-8.3,0C34.7,18.3,33.9,22,33.8,24.4L33.8,24.4z
	"/>
<path id="Tracé_4851" class="st1" d="M95.1,15.4c-2.2,0-3.6,1.2-3.9,3c-0.2,1.4,0,4.2,6,5.8c6.4,1.7,8.1,3.9,8.1,7
	c0,3.5-2.4,7.2-8.2,7.2c-3.2,0-6.3-0.8-9-2.5L88,29.3c1.1,2.5,2.8,4.7,5,6.4c3.7,2.4,9.3,2.8,9.8-0.9c0.5-2.5-1-4.9-6.9-6.5
	c-5.7-1.7-7.3-3.9-7.3-6.8c0-3.4,2.8-6.7,8.4-6.7c2.4-0.1,4.8,0.7,6.8,2.1v4.9C101.9,17.9,98.5,15.4,95.1,15.4z"/>
<path id="Tracé_4852" class="st1" d="M84.9,15.6l-7.1,17.5l-7.5-17.5h-3.9l9.7,22.1L75.6,39c-0.7,2.7-3.5,4.3-6.2,3.6h-0.1
	l-0.2,0.5l-1.3,3.2c3.1-0.1,6.6-2.2,8.6-7.4l0.3-0.8l9-22.5L84.9,15.6L84.9,15.6z"/>
</svg>
