<?xml version="1.0" encoding="utf-8"?>
<!-- Generator: Adobe Illustrator 25.2.3, SVG Export Plug-In . SVG Version: 6.00 Build 0)  -->
<svg version="1.1" id="Calque_1" xmlns="http://www.w3.org/2000/svg" xmlns:xlink="http://www.w3.org/1999/xlink" x="0px" y="0px"
	 viewBox="0 0 278.8 86.9" style="enable-background:new 0 0 278.8 86.9;" xml:space="preserve">
<style type="text/css">
	.st0{fill:#012F2D;}
	.st1{fill:#00D975;}
</style>
<g>
	<path class="st0" d="M135.6,25.2c1-1.1,2.2-1.9,3.5-2.6c1.3-0.6,2.8-0.9,4.3-0.9c1.7,0,3,0.2,4,0.7c1,0.4,2,1.1,3,1.9
		c0.5,0.4,0.9,0.5,1.4,0.5c0.5,0,0.9-0.2,1.3-0.5c0.3-0.3,0.5-0.7,0.5-1.2c0-0.2,0-0.4-0.1-0.6c0-0.2-0.1-0.3-0.2-0.5
		c-0.1-0.2-0.3-0.3-0.5-0.5c-1.4-1.2-2.9-2-4.3-2.6c-1.4-0.5-3.1-0.8-5.1-0.8c-2.1,0-4.1,0.4-5.9,1.2c-1.8,0.8-3.4,1.9-4.7,3.3
		c-1.4,1.4-2.4,3-3.2,4.9c-0.8,1.9-1.1,3.9-1.1,6c0,2.2,0.4,4.2,1.1,6.1c0.8,1.9,1.8,3.5,3.2,4.9c1.4,1.4,2.9,2.5,4.8,3.3
		c1.8,0.8,3.8,1.2,5.9,1.2c1.8,0,3.4-0.3,5-0.8s3.1-1.4,4.5-2.5c0.2-0.2,0.4-0.4,0.5-0.7c0.1-0.2,0.2-0.5,0.2-0.8
		c0-0.6-0.2-1-0.5-1.3c-0.3-0.3-0.7-0.5-1.1-0.5c-0.5,0-0.9,0.1-1.4,0.4c-1.1,0.8-2.2,1.4-3.4,1.9c-1.2,0.5-2.4,0.7-3.7,0.7
		c-1.5,0-3-0.3-4.3-0.9c-1.3-0.6-2.5-1.4-3.5-2.5c-1-1.1-1.8-2.3-2.4-3.8c-0.6-1.4-0.8-3-0.8-4.6c0-1.6,0.3-3.1,0.8-4.6
		C133.7,27.5,134.5,26.2,135.6,25.2z"/>
	<path class="st0" d="M179.7,44.9h-14.4V20.1c0-0.6-0.2-1.1-0.6-1.5c-0.4-0.4-0.9-0.6-1.5-0.6c-0.6,0-1,0.2-1.4,0.6
		c-0.4,0.4-0.6,0.9-0.6,1.5V47c0,0.6,0.2,1.1,0.6,1.5c0.4,0.4,0.9,0.6,1.4,0.6h16.4c0.6,0,1.1-0.2,1.5-0.6s0.6-0.9,0.6-1.5
		c0-0.6-0.2-1.1-0.6-1.5S180.3,44.9,179.7,44.9z"/>
	<path class="st0" d="M200.5,19.4c-0.3-0.9-1-1.4-1.9-1.4c-0.9,0-1.5,0.5-1.9,1.4l-11.2,26.7c-0.3,0.7-0.3,1.4,0.1,2
		c0.4,0.6,1,1,1.7,1c0.4,0,0.7-0.1,1.1-0.3c0.4-0.2,0.6-0.5,0.8-1l2.3-5.6h14.2l2.2,5.6c0.2,0.4,0.4,0.7,0.8,0.9
		c0.4,0.2,0.7,0.3,1.1,0.3c0.8,0,1.3-0.3,1.7-0.9c0.4-0.6,0.4-1.3,0.1-2L200.5,19.4z M192.9,38.8l5.8-14.1l5.7,14.1H192.9z"/>
	<path class="st0" d="M219,18c-0.6,0-1.1,0.2-1.5,0.6c-0.4,0.4-0.6,0.9-0.6,1.5V47c0,0.6,0.2,1.1,0.6,1.5c0.4,0.4,0.9,0.6,1.5,0.6
		c0.6,0,1.1-0.2,1.5-0.6c0.4-0.4,0.6-0.9,0.6-1.5V20.1c0-0.6-0.2-1.1-0.6-1.5C220.1,18.2,219.6,18,219,18z"/>
	<path class="st0" d="M257.4,18.6c-0.4-0.4-0.9-0.6-1.5-0.6c-0.8,0-1.4,0.4-1.8,1.1l-11.5,23.6l-11.8-23.6c-0.4-0.7-1-1.1-1.8-1.1
		c-0.6,0-1.1,0.2-1.5,0.6c-0.4,0.4-0.6,0.9-0.6,1.5V47c0,0.6,0.2,1.1,0.6,1.5c0.4,0.4,0.9,0.6,1.5,0.6c0.6,0,1.1-0.2,1.5-0.6
		c0.4-0.4,0.6-0.9,0.6-1.5V27.6l9.5,19c0.4,0.8,1,1.2,1.9,1.2c0.7,0,1.3-0.3,1.8-1l9.6-19.6V47c0,0.6,0.2,1.1,0.6,1.5
		c0.4,0.4,0.9,0.6,1.5,0.6c0.6,0,1-0.2,1.4-0.6c0.4-0.4,0.6-0.9,0.6-1.5V20.1C258,19.5,257.8,19,257.4,18.6z"/>
</g>
<g>
	<path class="st0" d="M143.3,57.3c-0.2,0-0.4,0.1-0.5,0.3l-4.4,8.9l-4.5-8.9c-0.1-0.2-0.3-0.3-0.5-0.3c-0.1,0-0.3,0.1-0.4,0.2
		c-0.1,0.1-0.2,0.2-0.2,0.4v9.8c0,0.1,0.1,0.3,0.2,0.4c0.1,0.1,0.2,0.2,0.4,0.2c0.1,0,0.3-0.1,0.4-0.2c0.1-0.1,0.2-0.2,0.2-0.4v-7.8
		l3.9,7.7c0.1,0.2,0.3,0.3,0.5,0.3c0.2,0,0.4-0.1,0.5-0.3l3.9-7.9v7.9c0,0.1,0.1,0.3,0.2,0.4c0.1,0.1,0.2,0.2,0.4,0.2
		c0.1,0,0.3-0.1,0.4-0.2c0.1-0.1,0.2-0.2,0.2-0.4v-9.8c0-0.2-0.1-0.3-0.2-0.4C143.6,57.3,143.4,57.3,143.3,57.3z"/>
	<path class="st0" d="M152.5,57.7c-0.1-0.3-0.3-0.4-0.5-0.4c-0.3,0-0.4,0.1-0.5,0.4l-4.1,9.7c-0.1,0.2-0.1,0.3,0,0.5
		c0.1,0.2,0.2,0.3,0.5,0.3c0.1,0,0.2,0,0.3-0.1c0.1-0.1,0.2-0.1,0.2-0.3l0.9-2.3h5.4l0.9,2.3c0.1,0.1,0.1,0.2,0.2,0.3
		c0.1,0.1,0.2,0.1,0.3,0.1c0.2,0,0.3-0.1,0.5-0.3c0.1-0.2,0.1-0.3,0-0.5L152.5,57.7z M149.6,64.6l2.3-5.6l2.3,5.6H149.6z"/>
	<path class="st0" d="M168.5,57.3c-0.2,0-0.3,0.1-0.4,0.2c-0.1,0.1-0.2,0.2-0.2,0.4v8.4l-6.7-8.8c-0.1-0.1-0.3-0.2-0.4-0.2
		c-0.2,0-0.3,0.1-0.4,0.2c-0.1,0.1-0.2,0.2-0.2,0.4v9.8c0,0.2,0.1,0.3,0.2,0.4c0.1,0.1,0.2,0.2,0.4,0.2c0.1,0,0.3-0.1,0.4-0.2
		c0.1-0.1,0.2-0.2,0.2-0.4v-8.4l6.7,8.8c0,0.1,0.1,0.1,0.2,0.1c0.1,0,0.1,0,0.2,0c0.1,0,0.3-0.1,0.4-0.2c0.1-0.1,0.2-0.2,0.2-0.4
		v-9.8c0-0.2-0.1-0.3-0.2-0.4C168.8,57.3,168.6,57.3,168.5,57.3z"/>
	<path class="st0" d="M177.9,57.7c-0.1-0.3-0.3-0.4-0.5-0.4c-0.3,0-0.4,0.1-0.5,0.4l-4.1,9.7c-0.1,0.2-0.1,0.3,0,0.5
		c0.1,0.2,0.2,0.3,0.5,0.3c0.1,0,0.2,0,0.3-0.1c0.1-0.1,0.2-0.1,0.2-0.3l0.9-2.3h5.4l0.9,2.3c0.1,0.1,0.1,0.2,0.2,0.3
		c0.1,0.1,0.2,0.1,0.3,0.1c0.2,0,0.3-0.1,0.5-0.3c0.1-0.2,0.1-0.3,0-0.5L177.9,57.7z M175.1,64.6l2.3-5.6l2.3,5.6H175.1z"/>
	<path class="st0" d="M193.2,62.7h-2.7c-0.2,0-0.3,0-0.4,0.1c-0.1,0.1-0.2,0.2-0.2,0.3c0,0.1,0.1,0.3,0.2,0.3
		c0.1,0.1,0.2,0.1,0.4,0.1h2.2v2.8c-0.3,0.2-0.7,0.4-1.1,0.6c-0.5,0.2-0.9,0.3-1.5,0.3c-0.6,0-1.2-0.1-1.7-0.4c-0.5-0.2-1-0.6-1.4-1
		c-0.4-0.4-0.7-0.9-0.9-1.5c-0.2-0.5-0.3-1.1-0.3-1.8c0-0.6,0.1-1.2,0.3-1.7c0.2-0.5,0.5-1,0.9-1.5c0.4-0.4,0.9-0.7,1.4-1
		c0.5-0.2,1.1-0.4,1.7-0.4c0.6,0,1.1,0.1,1.5,0.2c0.4,0.2,0.8,0.4,1.2,0.7c0.1,0.1,0.2,0.1,0.3,0.1c0.1,0,0.2,0,0.3,0
		c0.1,0,0.1-0.1,0.1-0.2c0.1,0,0.1-0.1,0.2-0.2c0-0.1,0-0.2,0-0.3c0-0.1-0.1-0.2-0.1-0.2c-0.5-0.4-1-0.7-1.6-0.9
		c-0.5-0.2-1.2-0.3-1.8-0.3c-0.8,0-1.5,0.1-2.1,0.4c-0.7,0.3-1.2,0.7-1.7,1.2c-0.5,0.5-0.9,1.1-1.2,1.8c-0.3,0.7-0.4,1.4-0.4,2.2
		c0,0.8,0.1,1.5,0.4,2.2c0.3,0.7,0.7,1.3,1.2,1.8c0.5,0.5,1.1,0.9,1.7,1.2c0.7,0.3,1.4,0.4,2.1,0.4c0.6,0,1.2-0.1,1.8-0.3
		c0.6-0.2,1.1-0.5,1.6-0.9c0.1-0.1,0.1-0.1,0.1-0.2c0-0.1,0-0.1,0-0.2v-3.5c0-0.2-0.1-0.3-0.2-0.4C193.5,62.8,193.3,62.7,193.2,62.7
		z"/>
	<path class="st0" d="M205.2,58.3c0.1,0,0.3-0.1,0.4-0.2c0.1-0.1,0.2-0.2,0.2-0.4c0-0.2-0.1-0.3-0.2-0.4c-0.1-0.1-0.2-0.1-0.4-0.1
		h-6.5c-0.2,0-0.3,0.1-0.4,0.2c-0.1,0.1-0.2,0.2-0.2,0.4v9.8c0,0.2,0.1,0.3,0.2,0.4c0.1,0.1,0.2,0.2,0.4,0.2h6.5
		c0.1,0,0.3,0,0.4-0.1c0.1-0.1,0.2-0.2,0.2-0.4c0-0.1-0.1-0.3-0.2-0.4c-0.1-0.1-0.2-0.2-0.4-0.2h-6v-3.9h4.4c0.2,0,0.3-0.1,0.4-0.2
		c0.1-0.1,0.2-0.2,0.2-0.4c0-0.1-0.1-0.3-0.2-0.4c-0.1-0.1-0.2-0.2-0.4-0.2h-4.4v-3.9H205.2z"/>
	<path class="st0" d="M220.4,57.3c-0.2,0-0.4,0.1-0.5,0.3l-4.4,8.9l-4.5-8.9c-0.1-0.2-0.3-0.3-0.5-0.3c-0.1,0-0.3,0.1-0.4,0.2
		c-0.1,0.1-0.2,0.2-0.2,0.4v9.8c0,0.1,0.1,0.3,0.2,0.4c0.1,0.1,0.2,0.2,0.4,0.2c0.1,0,0.3-0.1,0.4-0.2c0.1-0.1,0.2-0.2,0.2-0.4v-7.8
		l3.9,7.7c0.1,0.2,0.3,0.3,0.5,0.3c0.2,0,0.4-0.1,0.5-0.3l3.9-7.9v7.9c0,0.1,0.1,0.3,0.2,0.4c0.1,0.1,0.2,0.2,0.4,0.2
		c0.1,0,0.3-0.1,0.4-0.2c0.1-0.1,0.2-0.2,0.2-0.4v-9.8c0-0.2-0.1-0.3-0.2-0.4C220.7,57.3,220.6,57.3,220.4,57.3z"/>
	<path class="st0" d="M232.4,58.3c0.1,0,0.3-0.1,0.4-0.2c0.1-0.1,0.2-0.2,0.2-0.4c0-0.2-0.1-0.3-0.2-0.4c-0.1-0.1-0.2-0.1-0.4-0.1
		h-6.5c-0.2,0-0.3,0.1-0.4,0.2c-0.1,0.1-0.2,0.2-0.2,0.4v9.8c0,0.2,0.1,0.3,0.2,0.4c0.1,0.1,0.2,0.2,0.4,0.2h6.5
		c0.1,0,0.3,0,0.4-0.1c0.1-0.1,0.2-0.2,0.2-0.4c0-0.1-0.1-0.3-0.2-0.4c-0.1-0.1-0.2-0.2-0.4-0.2h-6v-3.9h4.4c0.2,0,0.3-0.1,0.4-0.2
		c0.1-0.1,0.2-0.2,0.2-0.4c0-0.1-0.1-0.3-0.2-0.4c-0.1-0.1-0.2-0.2-0.4-0.2h-4.4v-3.9H232.4z"/>
	<path class="st0" d="M244.7,57.3c-0.2,0-0.3,0.1-0.4,0.2c-0.1,0.1-0.2,0.2-0.2,0.4v8.4l-6.7-8.8c-0.1-0.1-0.3-0.2-0.4-0.2
		c-0.2,0-0.3,0.1-0.4,0.2c-0.1,0.1-0.2,0.2-0.2,0.4v9.8c0,0.2,0.1,0.3,0.2,0.4c0.1,0.1,0.2,0.2,0.4,0.2c0.1,0,0.3-0.1,0.4-0.2
		c0.1-0.1,0.2-0.2,0.2-0.4v-8.4l6.7,8.8c0,0.1,0.1,0.1,0.2,0.1c0.1,0,0.1,0,0.2,0c0.1,0,0.3-0.1,0.4-0.2c0.1-0.1,0.2-0.2,0.2-0.4
		v-9.8c0-0.2-0.1-0.3-0.2-0.4C245,57.3,244.9,57.3,244.7,57.3z"/>
	<path class="st0" d="M257.9,57.4c-0.1-0.1-0.2-0.1-0.4-0.1h-3.3h-1.1h-3.3c-0.1,0-0.3,0-0.4,0.1c-0.1,0.1-0.1,0.2-0.1,0.4
		c0,0.1,0,0.3,0.1,0.3c0.1,0.1,0.2,0.1,0.4,0.1h3.3v9.4c0,0.1,0.1,0.3,0.2,0.4c0.1,0.1,0.2,0.2,0.4,0.2c0.2,0,0.3-0.1,0.4-0.2
		c0.1-0.1,0.2-0.2,0.2-0.4v-9.4h3.3c0.1,0,0.3,0,0.4-0.1c0.1-0.1,0.1-0.2,0.1-0.3C258,57.6,258,57.5,257.9,57.4z"/>
</g>
<path class="st1" d="M116.3,63.9L98.5,20c-0.7-1.6-2.5-2.4-4.1-1.7c-1.6,0.7-2.4,2.5-1.7,4.1l17.8,43.8c0.5,1.2,1.7,2,2.9,2
	c0.4,0,0.8-0.1,1.2-0.2C116.2,67.3,116.9,65.5,116.3,63.9z"/>
<path class="st0" d="M89.6,46.3L89.6,46.3L78.9,20c0,0,0,0,0,0c0-0.1-0.1-0.2-0.2-0.3c-0.8-1.4-2.4-2-3.9-1.4
	c-0.8,0.3-1.4,1-1.7,1.8L60.9,50c-3.1,7.8-7.5,12-12.8,12c-10.4,0-18.8-8.4-18.8-18.8c0-10.4,8.4-18.8,18.8-18.8
	c4,0,7.9,1.3,11.1,3.6c1.4,1,3.4,0.7,4.4-0.7c1-1.4,0.7-3.4-0.7-4.4c-4.3-3.2-9.5-4.9-14.8-4.9c-13.9,0-25.1,11.3-25.1,25.1
	c0,13.8,11.3,25.1,25.1,25.1c4.5,0,12.7-2,18.3-15.1c0,0,0.1-0.1,0.1-0.1l0.3-0.7c0,0,0,0,0,0c0,0,0,0,0,0L76,29.6l7.7,19
	c0.5,1.2,1.7,2,2.9,2c0.4,0,0.8-0.1,1.2-0.2C89.4,49.7,90.2,47.9,89.6,46.3z"/>
</svg>
