<?xml version="1.0" encoding="utf-8"?>
<!-- Generator: Adobe Illustrator 25.4.1, SVG Export Plug-In . SVG Version: 6.00 Build 0)  -->
<svg version="1.1" id="Calque_1" xmlns="http://www.w3.org/2000/svg" xmlns:xlink="http://www.w3.org/1999/xlink" x="0px" y="0px"
	 viewBox="0 0 96.8 37.4" style="enable-background:new 0 0 96.8 37.4;" xml:space="preserve">
<style type="text/css">
	.st0{fill:#FFFFFF;}
	.st1{opacity:0.118;fill:#00D975;enable-background:new    ;}
	.st2{fill:#00D975;}
</style>
<g id="logo-cms" transform="translate(-8.3 -12.5)">
	<path id="Tracé_107" class="st0" d="M16.5,31.7c0-9.1,6-14.3,12.6-14.3c2.8,0,5.4,1.1,7.4,2.9c0.4,0.3,0.4,0.9,0.1,1.4
		c0,0,0,0,0,0l-2.3,3.1c-0.3,0.4-0.9,0.5-1.3,0.2c-1-0.9-2.3-1.4-3.6-1.4c-3.1,0-5.7,2.9-5.7,7.9c0,5.1,2.3,8,5.6,8
		c1.5,0,2.9-0.6,4-1.6c0.4-0.4,1-0.4,1.4,0c0,0,0,0,0,0l2.4,3c0.3,0.4,0.3,1-0.1,1.4c-2.1,2.2-5,3.4-8,3.3
		C22.3,45.5,16.5,40.9,16.5,31.7z"/>
	<path id="Tracé_108" class="st0" d="M76.8,40.5l2.2-2.8c0.4-0.6,1.2-0.7,1.8-0.3c1.5,1.1,3.2,1.7,5.1,1.9c2.1,0,3-0.7,3-1.9
		c0-1.3-1.3-1.7-3.5-2.6L82,33.4c-3.2-1.2-5.3-4.2-5.2-7.6c0-4.6,4-8.4,9.7-8.4c2.8,0,5.5,1,7.7,2.7c0.6,0.5,0.7,1.4,0.2,2l-1.8,2.4
		c-0.4,0.6-1.2,0.7-1.8,0.3c-1.3-0.8-2.7-1.3-4.2-1.3c-1.7,0-2.7,0.6-2.7,1.9c0,1.3,1.5,1.8,3.8,2.7l3.2,1.3c3.2,1,5.3,4.1,5.1,7.4
		c0,4.5-3.7,8.7-10.2,8.7c-3.1-0.1-6.2-1.1-8.7-2.9C76.5,42.1,76.3,41.2,76.8,40.5C76.8,40.6,76.8,40.5,76.8,40.5z"/>
	<g id="Groupe_5" transform="translate(38.421 18.92)">
		<path id="Tracé_109" class="st1" d="M6.6,5.4v19.3c0,0.5,0.4,0.9,0.9,0.9c0,0,0,0,0,0h22.3c0.5,0,0.9-0.3,0.9-0.8c0,0,0,0,0,0
			V5.4c0-0.5-0.5-0.9-1-0.9c-0.2,0-0.4,0.1-0.6,0.3l-9.9,7.1c-0.4,0.3-0.9,0.3-1.3,0L8.2,4.8c-0.4-0.4-1-0.3-1.3,0
			C6.7,5,6.6,5.2,6.6,5.4z"/>
	</g>
	<path id="Tracé_110" class="st2" d="M68.3,23.4c-0.2,0-0.5,0.1-0.6,0.2l-9.9,7.1c-0.4,0.3-0.9,0.3-1.3,0l-9.9-7.1
		c-0.4-0.3-1-0.3-1.3,0.1c-0.1,0.2-0.2,0.3-0.2,0.5v19.4c0,0.5,0.4,0.9,0.9,0.9c0,0,0,0,0,0h22.3c0.5,0,0.9-0.3,0.9-0.8c0,0,0,0,0,0
		V24.3C69.2,23.8,68.8,23.4,68.3,23.4z M57.2,32.2c0.5,0,1.1-0.2,1.5-0.5L68,25v6.8h-6.8v11.5h-7.7V30.2l2.2,1.6
		C56.1,32.1,56.6,32.2,57.2,32.2z M61.8,36.2v-3.7h6.1v3.7L61.8,36.2z M68,36.9v3.7h-6.1v-3.7L68,36.9z M52.7,36.7v3.7h-6.4v-3.7
		L52.7,36.7z M46.4,36.1v-3.7h6.4v3.7L46.4,36.1z M52.7,29.7v2h-6.4V25L52.7,29.7z M46.4,41h6.4v2.3h-6.4V41z M61.8,43.3v-2.1h6.1
		v2.1L61.8,43.3z"/>
</g>
</svg>
