<?xml version="1.0" encoding="utf-8"?>
<!-- Generator: Adobe Illustrator 25.4.1, SVG Export Plug-In . SVG Version: 6.00 Build 0)  -->
<svg version="1.1" id="Calque_1" xmlns="http://www.w3.org/2000/svg" xmlns:xlink="http://www.w3.org/1999/xlink" x="0px" y="0px"
	 viewBox="0 0 96.8 37.4" style="enable-background:new 0 0 96.8 37.4;" xml:space="preserve">
<style type="text/css">
	.st0{fill:#FFFFFF;}
	.st1{opacity:9.700000e-02;fill:#00D975;enable-background:new    ;}
	.st2{fill:#00D975;}
	.st3{opacity:0.202;fill:#00D975;enable-background:new    ;}
</style>
<g>
	<path id="Tracé_107_00000181065279918366628890000007629044441479346103_" class="st0" d="M4.8,19c0-9,6-14.1,12.5-14.1
		c2.7,0,5.3,1.1,7.3,2.9C25,8.1,25,8.7,24.7,9.1l0,0l-2.3,3c-0.3,0.4-0.9,0.5-1.3,0.2c-1-0.9-2.2-1.3-3.6-1.4c-3,0-5.6,2.9-5.6,7.8
		c0,5.1,2.2,7.9,5.6,7.9c1.5,0,2.9-0.6,3.9-1.6c0.4-0.4,1-0.3,1.4,0l0,0l2.4,3c0.3,0.4,0.3,1-0.1,1.4c-2.1,2.1-4.9,3.3-7.9,3.3
		C10.6,32.7,4.8,28.2,4.8,19z"/>
	<path id="Union_47" class="st0" d="M87.8,32.7c-0.8,0-1-0.5-1-1.1s-0.1-11.8-0.1-11.8s-5.3,11.7-5.5,12.1c-0.2,0.5-0.7,0.8-1.2,0.8
		c-0.2,0-0.5,0-0.7,0s-0.4,0-0.7,0c-0.5,0-1-0.3-1.2-0.8c-0.2-0.4-5.5-12.1-5.5-12.1s-0.1,11.1-0.1,11.8s-0.3,1.1-1,1.1h-3.7
		c-0.6,0-1.2-0.1-1.2-1.2c0-1.1,0-24.3,0-25.4s0.6-1.2,1.2-1.2h3.6c0.6,0,1.2,0.4,1.3,1c0.2,0.5,5.9,13.5,7.3,16.5
		c1.3-3,7-15.9,7.3-16.5c0.2-0.6,0.7-1,1.3-1h3.6c0.6,0,1.2,0.2,1.2,1.2s0,24.3,0,25.4s-0.6,1.2-1.2,1.2H87.8z"/>
	<g id="Groupe_1782">
		<path id="Tracé_5116" class="st1" d="M32.6,4.9h25.2c0.7,0,1.3,0.6,1.3,1.3l0,0v25.2c0,0.7-0.6,1.3-1.3,1.3l0,0H32.6
			c-0.7,0-1.3-0.6-1.3-1.3l0,0V6.2C31.3,5.5,31.9,4.9,32.6,4.9z"/>
		<path id="Soustraction_7" class="st2" d="M57.9,32.7H32.4c-0.6,0-1.1-0.5-1.1-1.1l0,0V6c0-0.6,0.4-1.1,1-1.1l0,0h25.5
			C58.5,5,59,5.5,59,6.1v25.5C59,32.2,58.6,32.7,57.9,32.7C58,32.7,57.9,32.7,57.9,32.7z M50.4,28.3v2.8h7v-2.8H50.4z M40,15.8h0.9
			v15.3h8.8V15.9h7.8V6.3h-0.1l0,0H32.6v9.5l0,0l0,0H40L40,15.8z M32.7,28.1v3h7.4v-3H32.7z M50.5,22.6v4.8h7v-4.8
			C57.5,22.6,50.5,22.6,50.5,22.6z M32.6,22.4v4.8H40v-4.8C40,22.4,32.6,22.4,32.6,22.4z M50.4,17v4.8h7V17H50.4z M32.7,16.8v4.8
			h7.4v-4.8H32.7z"/>
		<path id="Tracé_5118" class="st3" d="M31.7,16.2h8.5c0.2,0,0.4,0.3,0.4,0.8v14.9c0,0.4-0.2,0.8-0.4,0.8h-8.5
			c-0.2,0-0.4-0.3-0.4-0.8V17C31.3,16.6,31.5,16.2,31.7,16.2z"/>
		<path id="Tracé_5119" class="st3" d="M50.1,16.2h8.5c0.2,0,0.4,0.3,0.4,0.8v14.9c0,0.4-0.2,0.8-0.4,0.8h-8.5
			c-0.2,0-0.4-0.3-0.4-0.8V17C49.7,16.6,49.9,16.2,50.1,16.2z"/>
	</g>
</g>
</svg>
