<?xml version="1.0" encoding="utf-8"?>
<!-- Generator: Adobe Illustrator 25.2.1, SVG Export Plug-In . SVG Version: 6.00 Build 0)  -->
<svg version="1.1" id="Calque_1" xmlns="http://www.w3.org/2000/svg" xmlns:xlink="http://www.w3.org/1999/xlink" x="0px" y="0px"
	 viewBox="0 0 404 228" style="enable-background:new 0 0 404 228;" xml:space="preserve">
<style type="text/css">
	.st0{display:none;}
	.st1{display:inline;opacity:0.1;}
	.st2{fill:#231F20;}
	.st3{display:inline;opacity:0.1;fill:#231F20;enable-background:new    ;}
	.st4{fill:#012F2D;}
	.st5{fill:#00D975;}
</style>
<g id="Calque_2_1_" class="st0">
	<g class="st1">
		<circle class="st2" cx="198.3" cy="106.2" r="10.2"/>
	</g>
	<g class="st1">
		<circle class="st2" cx="363" cy="106.2" r="10.2"/>
	</g>
	<path class="st3" d="M280.4,34.5c-39.6,0-71.7,32.1-71.7,71.7s32.1,71.7,71.7,71.7s71.7-32.1,71.7-71.7
		C352.1,66.6,320,34.5,280.4,34.5z M280.4,150.6c-24.5,0-44.4-19.9-44.4-44.4s19.9-44.4,44.4-44.4s44.4,19.9,44.4,44.4
		S305,150.6,280.4,150.6z"/>
	<path class="st3" d="M116,34.7c-39.6,0-71.7,32.1-71.7,71.7s32.1,71.7,71.7,71.7s71.7-32.1,71.7-71.7
		C187.8,66.8,155.7,34.7,116,34.7z M116,150.8c-24.5,0-44.4-19.9-44.4-44.4S91.5,62,116,62s44.4,19.9,44.4,44.4
		S140.6,150.8,116,150.8z"/>
	<path class="st3" d="M116,106.1c-39.6,0-71.7,32.1-71.7,71.7s32.1,71.7,71.7,71.7s71.7-32.1,71.7-71.7
		C187.8,138.2,155.7,106.1,116,106.1z M116,222.2c-24.5,0-44.4-19.9-44.4-44.4s19.9-44.4,44.4-44.4s44.4,19.9,44.4,44.4
		S140.6,222.2,116,222.2z"/>
	<g class="st1">
		<circle class="st2" cx="27.1" cy="106.5" r="17.1"/>
	</g>
</g>
<g id="Calque_1_1_">
	<g>
		<path class="st4" d="M192.3,42h-20.4c-1.9,0-3.5,1.6-3.5,3.5v64.9c-1.6,23.1-20.8,41.3-44.3,41.3c-24.2,0-43.9-19.4-44.4-43.5
			c0.1-0.3,0.1-0.5,0.1-0.8V45.5c0-1.9-1.6-3.5-3.5-3.5H55.9c-1.9,0-3.5,1.6-3.5,3.5v61.9l0,0C52.5,147,84.5,179,124.1,179
			c16.7,0,32.1-5.7,44.3-15.3v5.1c0,1.9,1.6,3.5,3.5,3.5h20.4c1.9,0,3.5-1.6,3.5-3.5V45.5C195.8,43.6,194.3,42,192.3,42z"/>
		<path class="st4" d="M242.9,43c-1.4-1.4-3.6-1.4-5,0l-14.4,14.4c-1.4,1.4-1.4,3.6,0,5l44.6,44.6l-44.6,44.6c-1.4,1.4-1.4,3.6,0,5
			L238,171c1.4,1.4,3.6,1.4,5,0l44.6-44.6l44.6,44.6c1.4,1.4,3.6,1.4,5,0l14.4-14.4c1.4-1.4,1.4-3.6,0-5
			C336.7,136.7,257.8,57.8,242.9,43z"/>
	</g>
	<path class="st5" d="M351.6,57.4L337.1,43c-1.4-1.4-3.6-1.4-4.9,0l0,0l0,0l-16.3,16.3l0,0l0,0c-1.3,1.4-1.3,3.6,0,4.9l14.4,14.4
		c1.4,1.4,3.6,1.4,4.9,0l0,0l0,0l16.3-16.3l0,0l0,0C352.9,61,352.9,58.8,351.6,57.4z"/>
</g>
</svg>
