<?xml version="1.0" encoding="utf-8"?>
<!-- Generator: Adobe Illustrator 26.2.1, SVG Export Plug-In . SVG Version: 6.00 Build 0)  -->
<svg version="1.1" id="Composant_103_1" xmlns="http://www.w3.org/2000/svg" xmlns:xlink="http://www.w3.org/1999/xlink" x="0px"
	 y="0px" viewBox="0 0 144.3 40" style="enable-background:new 0 0 144.3 40;" xml:space="preserve">
<style type="text/css">
	.st0{fill:#00D975;}
	.st1{fill:#FFFFFF;}
</style>
<path id="Tracé_5276" class="st0" d="M20,40C9.5,40,0.7,31.9,0,21.4h11c0.1,0.8,0.3,1.6,0.7,2.4c0.5,1.1,1.2,2.2,2.1,3.1
	c0.9,0.9,1.9,1.6,3.1,2.1c1.2,0.5,2.4,0.8,3.7,0.8c1.5,0,3-0.4,4.3-1.1c1.3-0.8,2.4-1.8,3.3-3l-3.4-2c-0.4,0.7-1,1.4-1.7,1.8
	c-0.7,0.5-1.5,0.7-2.4,0.7c-0.8,0-1.5-0.2-2.2-0.5c-0.7-0.3-1.3-0.8-1.8-1.3c-2.2-2.3-2.2-6,0-8.4c0.5-0.5,1.1-1,1.8-1.3
	c0.7-0.3,1.4-0.5,2.2-0.5c0.5,0,0.9,0.1,1.4,0.2c0.4,0.1,0.8,0.3,1.1,0.6c0.3,0.2,0.6,0.5,0.9,0.8c0.3,0.3,0.5,0.6,0.7,1l3.3-2.2
	c-0.9-1.2-1.9-2.2-3.2-2.9c-1.3-0.7-2.7-1.1-4.1-1c-1.3,0-2.6,0.3-3.8,0.8c-1.1,0.5-2.2,1.2-3.1,2.1c-0.9,0.9-1.6,1.9-2.1,3.1
	c-0.3,0.7-0.5,1.5-0.7,2.3H0C0.8,7.6,10.4-0.7,21.4,0.1c7.5,0.5,14.1,5.2,17,12.2c4.3,10.2-0.5,21.9-10.6,26.2
	C25.3,39.5,22.7,40,20,40z"/>
<path id="Tracé_5277" class="st1" d="M62.2,23.2c-0.7,0.9-1.5,1.7-2.5,2.3c-1,0.6-2.1,0.9-3.3,0.9c-1,0-2-0.2-2.9-0.6
	c-0.9-0.4-1.7-0.9-2.4-1.6c-0.7-0.7-1.2-1.5-1.6-2.4C49.2,21,49,20,49,19c0-1,0.2-2,0.6-2.9c0.4-0.9,0.9-1.7,1.6-2.3
	c0.7-0.7,1.5-1.2,2.3-1.6c0.9-0.4,1.9-0.6,2.9-0.6c1.1,0,2.2,0.3,3.2,0.8c1,0.6,1.8,1.3,2.5,2.2l-2.5,1.7c-0.2-0.3-0.3-0.5-0.5-0.7
	c-0.2-0.2-0.4-0.4-0.7-0.6c-0.3-0.2-0.6-0.3-0.9-0.4c-0.3-0.1-0.7-0.2-1.1-0.2c-0.6,0-1.2,0.1-1.7,0.4c-0.5,0.2-1,0.6-1.4,1
	c-0.4,0.4-0.7,0.9-0.9,1.5C52.1,17.8,52,18.4,52,19c0,0.6,0.1,1.2,0.3,1.7c0.2,0.5,0.5,1,0.9,1.5c0.4,0.4,0.9,0.8,1.4,1
	c0.5,0.3,1.1,0.4,1.7,0.4c0.7,0,1.3-0.2,1.8-0.6c0.5-0.4,1-0.9,1.3-1.4L62.2,23.2z M74.7,15.8V26h-3v-0.8c-0.4,0.4-0.9,0.6-1.4,0.9
	c-0.5,0.2-1,0.3-1.6,0.3c-0.7,0-1.5-0.1-2.2-0.4c-0.7-0.3-1.2-0.7-1.8-1.2c-0.5-0.5-0.9-1.1-1.2-1.8c-0.3-0.7-0.4-1.4-0.4-2.1
	c0-0.7,0.1-1.5,0.4-2.1c0.3-0.7,0.7-1.2,1.2-1.8c0.5-0.5,1.1-0.9,1.8-1.2c0.7-0.3,1.4-0.4,2.1-0.4c0.6,0,1.1,0.1,1.6,0.3
	c0.5,0.2,1,0.5,1.4,0.9v-0.8L74.7,15.8z M69,23.7c0.4,0,0.7-0.1,1.1-0.2c0.3-0.1,0.6-0.3,0.9-0.6c0.3-0.3,0.5-0.5,0.6-0.9
	c0.1-0.3,0.2-0.7,0.2-1.1c0-0.4-0.1-0.7-0.2-1.1c-0.1-0.3-0.3-0.6-0.6-0.9c-0.3-0.2-0.6-0.4-0.9-0.6c-0.3-0.1-0.7-0.2-1.1-0.2
	c-0.4,0-0.7,0.1-1.1,0.2c-0.3,0.1-0.6,0.3-0.9,0.6c-0.3,0.3-0.5,0.6-0.6,0.9c-0.1,0.3-0.2,0.7-0.2,1.1c0,0.4,0.1,0.7,0.2,1.1
	c0.1,0.3,0.3,0.6,0.6,0.9c0.3,0.3,0.6,0.5,0.9,0.6C68.2,23.6,68.6,23.7,69,23.7z M89.4,15.4c0.5,0,1.1,0.1,1.6,0.3
	c0.5,0.2,0.9,0.5,1.3,0.9c0.4,0.4,0.7,0.9,0.8,1.4c0.2,0.5,0.3,1.1,0.3,1.7V26h-3v-5.7c0-0.3,0-0.6-0.1-0.8
	c-0.1-0.3-0.2-0.5-0.4-0.7c-0.2-0.2-0.4-0.4-0.6-0.5c-0.2-0.1-0.5-0.2-0.7-0.2c-0.3,0-0.5,0.1-0.7,0.2c-0.2,0.1-0.4,0.3-0.6,0.5
	c-0.2,0.2-0.3,0.4-0.4,0.7c-0.1,0.3-0.2,0.6-0.1,0.9V26h-3v-5.7c0-0.3,0-0.6-0.2-0.8c-0.1-0.3-0.2-0.5-0.4-0.7
	c-0.2-0.2-0.4-0.4-0.6-0.5c-0.2-0.1-0.5-0.2-0.7-0.2c-0.3,0-0.5,0.1-0.7,0.2c-0.2,0.1-0.4,0.3-0.6,0.5c-0.2,0.2-0.3,0.4-0.4,0.7
	C80,19.8,80,20.1,80,20.4V26h-3V15.8h3v1.1c0.3-0.4,0.7-0.8,1.2-1.1c0.4-0.3,1-0.4,1.5-0.4c0.6,0,1.3,0.1,1.9,0.4
	c0.5,0.3,1,0.7,1.3,1.1c0.4-0.5,0.9-0.8,1.5-1.1C87.9,15.5,88.7,15.4,89.4,15.4z M105.4,26h-3v-1c-0.4,0.4-0.8,0.8-1.3,1.1
	c-0.5,0.3-1,0.4-1.6,0.4c-0.6,0-1.1-0.1-1.6-0.3c-0.5-0.2-0.9-0.5-1.3-0.9c-0.4-0.4-0.7-0.9-0.9-1.4c-0.2-0.5-0.3-1.1-0.3-1.7v-6.3
	h3v5.7c0,0.3,0.1,0.6,0.2,0.9c0.1,0.3,0.3,0.5,0.4,0.7c0.2,0.2,0.4,0.4,0.7,0.5c0.2,0.1,0.5,0.2,0.8,0.2c0.3,0,0.5-0.1,0.8-0.2
	c0.2-0.1,0.5-0.3,0.7-0.5c0.2-0.2,0.3-0.4,0.5-0.7c0.1-0.3,0.2-0.6,0.2-0.9v-5.6h3V26z M113.7,15.4c0.6,0,1.1,0.1,1.7,0.3
	c0.5,0.2,1,0.5,1.4,0.9c0.4,0.4,0.7,0.9,0.9,1.4c0.2,0.5,0.3,1.1,0.3,1.7V26h-3v-5.7c0-0.3-0.1-0.6-0.2-0.8
	c-0.1-0.3-0.3-0.5-0.5-0.7c-0.2-0.2-0.4-0.4-0.7-0.5c-0.3-0.1-0.6-0.2-0.8-0.2c-0.3,0-0.6,0.1-0.9,0.2c-0.3,0.1-0.5,0.3-0.7,0.5
	c-0.2,0.2-0.4,0.4-0.5,0.7c-0.1,0.3-0.2,0.6-0.2,0.9V26h-3V15.8h3V17c0.4-0.5,0.9-0.8,1.4-1.1C112.5,15.6,113.1,15.4,113.7,15.4z
	 M131.1,12v14h-3v-0.8c-0.4,0.4-0.9,0.6-1.4,0.9c-0.5,0.2-1,0.3-1.6,0.3c-0.7,0-1.5-0.1-2.1-0.4c-0.7-0.3-1.2-0.7-1.7-1.2
	c-0.5-0.5-0.9-1.1-1.2-1.8c-0.3-0.7-0.4-1.4-0.4-2.1c0-0.7,0.1-1.5,0.4-2.1c0.3-0.7,0.7-1.2,1.2-1.8c0.5-0.5,1.1-0.9,1.8-1.2
	c0.7-0.3,1.4-0.4,2.1-0.4c0.6,0,1.1,0.1,1.6,0.3c0.5,0.2,1,0.5,1.4,0.9V12H131.1z M125.4,23.7c0.4,0,0.7-0.1,1.1-0.2
	c0.3-0.1,0.6-0.3,0.9-0.6c0.3-0.3,0.5-0.6,0.6-0.9c0.1-0.3,0.2-0.7,0.2-1.1c0-0.4-0.1-0.7-0.2-1.1c-0.1-0.3-0.3-0.6-0.6-0.9
	c-0.3-0.3-0.6-0.5-0.9-0.6c-0.3-0.1-0.7-0.2-1.1-0.2c-0.4,0-0.7,0.1-1.1,0.2c-0.3,0.1-0.6,0.3-0.9,0.6c-0.3,0.3-0.5,0.6-0.6,0.9
	c-0.1,0.3-0.2,0.7-0.2,1.1c0,0.4,0.1,0.7,0.2,1.1c0.1,0.3,0.3,0.6,0.6,0.9c0.3,0.3,0.6,0.5,0.9,0.6C124.7,23.6,125,23.7,125.4,23.7z
	 M144.3,15.8V26h-3v-0.8c-0.4,0.4-0.9,0.6-1.4,0.9c-0.5,0.2-1,0.3-1.6,0.3c-0.7,0-1.5-0.1-2.2-0.4c-0.7-0.3-1.2-0.7-1.8-1.2
	c-0.5-0.5-0.9-1.1-1.2-1.8c-0.3-0.7-0.4-1.4-0.4-2.1c0-0.7,0.1-1.5,0.4-2.1c0.3-0.7,0.7-1.2,1.2-1.8c0.5-0.5,1.1-0.9,1.8-1.2
	c0.7-0.3,1.4-0.4,2.1-0.4c0.6,0,1.1,0.1,1.6,0.3c0.5,0.2,1,0.5,1.4,0.9v-0.8L144.3,15.8z M138.6,23.7c0.4,0,0.7-0.1,1.1-0.2
	c0.3-0.1,0.6-0.3,0.9-0.6c0.3-0.3,0.5-0.5,0.6-0.9c0.1-0.3,0.2-0.7,0.2-1.1c0-0.4-0.1-0.7-0.2-1.1c-0.1-0.3-0.3-0.6-0.6-0.9
	c-0.3-0.2-0.6-0.4-0.9-0.6c-0.3-0.1-0.7-0.2-1.1-0.2c-0.4,0-0.7,0.1-1.1,0.2c-0.3,0.1-0.6,0.3-0.9,0.6c-0.3,0.3-0.5,0.6-0.6,0.9
	c-0.1,0.3-0.2,0.7-0.2,1.1c0,0.4,0.1,0.7,0.2,1.1c0.1,0.3,0.3,0.6,0.6,0.9c0.3,0.3,0.6,0.5,0.9,0.6
	C137.9,23.6,138.2,23.7,138.6,23.7z"/>
</svg>
