<svg id="Calque_1" data-name="Calque 1" xmlns="http://www.w3.org/2000/svg" viewBox="0 0 174.39 158.2"><defs><style>.cls-1{opacity:0;}.cls-2{fill:#fff;}.cls-3,.cls-5{fill:none;}.cls-3{stroke:#fff;}.cls-4,.cls-9{fill:#00d975;}.cls-5,.cls-7,.cls-9{stroke:#102836;}.cls-5,.cls-9{stroke-width:2.5px;}.cls-6{fill:#102836;}.cls-7{fill:#ebeeee;stroke-width:3px;}.cls-8{fill:#db3434;}</style></defs><g id="Groupe_1933" data-name="Groupe 1933"><g id="wifi"><g id="Rectangle_265" data-name="Rectangle 265" class="cls-1"><rect class="cls-2" x="10.07" y="1.98" width="154.24" height="154.24"/><rect class="cls-3" x="9.51" y="1.41" width="155.38" height="155.38"/></g><g id="Ellipse_34" data-name="Ellipse 34"><circle class="cls-4" cx="87.8" cy="133.69" r="6.48"/><circle class="cls-5" cx="87.8" cy="133.69" r="7.89"/></g><g id="Tracé_435" data-name="Tracé 435"><path class="cls-2" d="M69.82,112.12h0a8.1,8.1,0,0,1-5.88-2.5,8.18,8.18,0,0,1,.2-11.57,34.08,34.08,0,0,1,47.31,0,8.18,8.18,0,0,1-11.34,11.79,18.24,18.24,0,0,0-24.62,0A8.14,8.14,0,0,1,69.82,112.12Z"/><path class="cls-6" d="M87.8,90.2a32.38,32.38,0,0,0-22.48,9.07,6.49,6.49,0,0,0,9,9.33,20,20,0,0,1,26.94,0,6.48,6.48,0,0,0,9-9.33A32.36,32.36,0,0,0,87.8,90.2m0-3.4h0a35.77,35.77,0,0,1,24.83,10,9.89,9.89,0,0,1,.25,14,9.88,9.88,0,0,1-13.94.28,16.54,16.54,0,0,0-22.29,0A9.88,9.88,0,0,1,63,96.82a35.82,35.82,0,0,1,24.84-10Z"/></g><g id="Tracé_436" data-name="Tracé 436"><path class="cls-2" d="M50.65,88.39a8.26,8.26,0,0,1-6-13.93h0A59.93,59.93,0,0,1,87.8,56.12H88a59.75,59.75,0,0,1,23.45,4.77,60,60,0,0,1,19.72,13.56h0a8.17,8.17,0,0,1-5.89,13.82h0a8.25,8.25,0,0,1-5.81-2.46h0a43.65,43.65,0,0,0-62.83,0A8.27,8.27,0,0,1,50.65,88.39Z"/><path class="cls-6" d="M88,57.82H87.8A58.31,58.31,0,0,0,45.89,75.63a6.55,6.55,0,0,0,9.52,9,45.35,45.35,0,0,1,65.29,0,6.46,6.46,0,0,0,9.26-9A58.31,58.31,0,0,0,88,57.82m0-3.4h0a61.56,61.56,0,0,1,34.9,10.82,61.12,61.12,0,0,1,9.49,8h0A9.88,9.88,0,0,1,125.31,90h0a10,10,0,0,1-7-3l0,0a41.94,41.94,0,0,0-60.38,0A10,10,0,1,1,43.42,73.29l0,0A61.91,61.91,0,0,1,63.7,59.33a62.88,62.88,0,0,1,11.74-3.66,61.75,61.75,0,0,1,12.35-1.25Z"/></g><g id="Tracé_437" data-name="Tracé 437"><path class="cls-2" d="M146.28,63.73h0a8.16,8.16,0,0,1-5.65-2.29,75.82,75.82,0,0,0-38.61-20,76.12,76.12,0,0,0-42.26,4,75.48,75.48,0,0,0-24.8,16l-.05.05,0,0A8.18,8.18,0,0,1,23.58,49.75l0,0,0,0A92.08,92.08,0,0,1,70.54,25.39a92.7,92.7,0,0,1,34.51,0,92.08,92.08,0,0,1,46.88,24.28,8,8,0,0,1,2.5,5.71,8.14,8.14,0,0,1-2.25,5.82,8.25,8.25,0,0,1-5.89,2.53Z"/><path class="cls-6" d="M146.28,62a6.47,6.47,0,0,0,4.47-11.14h0a90.67,90.67,0,0,0-125.91,0,6.48,6.48,0,0,0,8.94,9.33,77.72,77.72,0,0,1,108,0A6.54,6.54,0,0,0,146.28,62m0,3.4h0a9.85,9.85,0,0,1-6.82-2.76A73.77,73.77,0,0,0,115.21,47a74.42,74.42,0,0,0-54.82,0A73.94,73.94,0,0,0,36.14,62.66l-.09.1-.11.08a9.85,9.85,0,0,1-6.28,2.26,10,10,0,0,1-7.14-3,9.9,9.9,0,0,1-.21-13.45l.08-.09.09-.08A93.61,93.61,0,0,1,53.14,28.66a94.41,94.41,0,0,1,69.31,0,93.61,93.61,0,0,1,30.66,19.78,9.89,9.89,0,0,1,.3,13.93,9.92,9.92,0,0,1-7.11,3.06Z"/></g><path id="Soustraction_33" data-name="Soustraction 33" class="cls-7" d="M105.77,112.42a8.41,8.41,0,0,1-5.87-2.36,17.88,17.88,0,0,0-12.1-4.7c-.36,0-.68,0-1,0V88.22c.38,0,.71,0,1,0a34.3,34.3,0,0,1,23.87,9.63,8.48,8.48,0,0,1-5.89,14.58Z"/><path id="Soustraction_32" data-name="Soustraction 32" class="cls-7" d="M125.31,88.58h0a8.55,8.55,0,0,1-6-2.54h0A43.37,43.37,0,0,0,88.05,72.76c-.37,0-.77,0-1.27,0v-17H88A60.25,60.25,0,0,1,131.4,74.24h0a8.48,8.48,0,0,1-6.1,14.33Z"/><path id="Soustraction_31" data-name="Soustraction 31" class="cls-7" d="M146.29,64h0a8.42,8.42,0,0,1-5.85-2.38A75.59,75.59,0,0,0,87.8,40.38h-1V23.47h1a93.11,93.11,0,0,1,17.31,1.63,92.23,92.23,0,0,1,47,24.35A8.47,8.47,0,0,1,146.29,64Z"/></g><g id="Tracé_5198" data-name="Tracé 5198"><path class="cls-8" d="M88,118.17a11.14,11.14,0,0,1-7.3-2.64,8.91,8.91,0,0,1-3.18-6.76V22.7a8.91,8.91,0,0,1,3.18-6.76,11.37,11.37,0,0,1,14.59,0,8.89,8.89,0,0,1,3.19,6.76v86.07a8.89,8.89,0,0,1-3.19,6.76A11.1,11.1,0,0,1,88,118.17Z"/><path class="cls-2" d="M88,15.56c-4.54,0-8.21,3.2-8.21,7.14v86.07c0,3.94,3.67,7.14,8.21,7.14s8.21-3.2,8.21-7.14V22.7c0-3.94-3.68-7.14-8.21-7.14M88,11a13.31,13.31,0,0,1,8.78,3.21,11.52,11.52,0,0,1,2.86,3.71,10.66,10.66,0,0,1,1.11,4.76v86.07a10.72,10.72,0,0,1-1.11,4.76,11.63,11.63,0,0,1-2.86,3.71,13.65,13.65,0,0,1-17.56,0,11.81,11.81,0,0,1-2.87-3.71,10.85,10.85,0,0,1-1.1-4.76V22.7a10.79,10.79,0,0,1,1.1-4.76,11.7,11.7,0,0,1,2.87-3.71A13.31,13.31,0,0,1,88,11Z"/></g><path id="Tracé_5197" data-name="Tracé 5197" class="cls-9" d="M88,15.56c-4.54,0-8.21,3.19-8.21,7.12v85.87c0,3.93,3.67,7.12,8.21,7.12s8.21-3.19,8.21-7.12V22.68C96.17,18.75,92.49,15.56,88,15.56Z"/></g></svg>