<svg xmlns="http://www.w3.org/2000/svg" 
	 viewBox="0 0 112.3 29.6">
<style type="text/css">
	.st0{fill:#B4A169;}
	.st1{fill:#979797;}
	.st2{fill:#01DD53;}
</style>
<path class="st0" d="M35.7,16.2l-0.2-1.1h-0.1c-0.8,0.9-2,1.4-3.4,1.4c-2.5,0-3.8-1.7-3.8-3.4c0-2.9,2.6-4.3,7-4.3V8.7
	c0-0.5-0.3-1.4-2.2-1.4c-1.2,0-2.6,0.4-3.3,0.9L29,5.9c0.8-0.5,2.4-1,4.6-1c3.8,0,5.2,2.1,5.2,4.8v3.8c0,1.1,0.1,2.2,0.2,2.7H35.7z
	 M35.2,11c-2.1,0-3.5,0.5-3.5,1.7c0,0.8,0.6,1.3,1.5,1.3c1,0,1.7-0.7,2-1.4c0.1-0.2,0.1-0.4,0.1-0.6V11z M41.7,0h3.6v16.2h-3.6V0z
	 M48.3,8.8c0-1.4,0-2.6-0.1-3.6h3l0.1,1.6h0.1C51.9,6,52.9,4.9,55,4.9c1.5,0,2.7,0.8,3.2,2h0c0.5-0.6,1-1.1,1.5-1.4
	c0.7-0.4,1.4-0.6,2.3-0.6c2.2,0,4,1.5,4,5v6.4h-3.5v-5.9c0-1.7-0.6-2.6-1.8-2.6c-0.9,0-1.5,0.6-1.7,1.3C59,9.3,59,9.7,59,9.9v6.3
	h-3.5v-6c0-1.6-0.6-2.5-1.8-2.5c-1,0-1.6,0.8-1.8,1.3c-0.1,0.3-0.1,0.6-0.1,0.9v6.3h-3.5V8.8z M71.9,11.8c0.1,1.3,1.7,2,3.4,2
	c1.3,0,2.3-0.1,3.4-0.5l0.5,2.4c-1.3,0.5-2.7,0.8-4.3,0.8c-4,0-6.3-2.3-6.3-5.7c0-2.5,1.7-5.9,6-5.9c4,0,5.3,3.1,5.3,5.6
	c0,0.5-0.1,1.1-0.1,1.3H71.9z M76.4,9.4c0-0.6-0.4-2.2-2.2-2.2c-1.6,0-2.3,1.3-2.4,2.2H76.4z M81.9,5.1h3L85,7.3h0.1
	c0.6-1.8,2.1-2.5,3.3-2.5c0.3,0,0.5,0,0.8,0.1v3.3c-0.3-0.1-0.6-0.1-1-0.1c-1.5,0-2.4,0.8-2.6,1.8c0,0.2,0,0.4,0,0.7v5.6h-3.6
	C81.9,16.2,82.2,11,81.9,5.1z M94.2,5.1l1.8,5.3c0.2,0.6,0.5,1.6,0.6,2.1h0.1c0.2-0.6,0.4-1.5,0.6-2.1l1.5-5.3h3.9l-2.7,6.9
	c-1.9,5.2-3.1,6.8-4.4,7.8c-1.3,1-2.6,1.4-3.6,1.4l-0.7-3c0.4-0.1,1-0.2,1.5-0.5c0.6-0.2,1.2-0.8,1.6-1.4c0.1-0.2,0.2-0.4,0.2-0.5
	c0-0.1,0-0.3-0.2-0.6L90.2,5.1H94.2z M104,13.1c0.7,0.4,2.2,0.9,3.3,0.9c1.1,0,1.6-0.4,1.6-0.9c0-0.6-0.4-0.8-1.7-1.2
	c-2.5-0.7-3.5-2-3.5-3.4c0-2.1,1.9-3.7,4.8-3.7c1.4,0,2.7,0.3,3.4,0.7L111.2,8c-0.5-0.3-1.6-0.7-2.7-0.7c-0.9,0-1.4,0.3-1.4,0.9
	c0,0.5,0.5,0.8,2,1.2c2.3,0.6,3.2,1.7,3.3,3.4c0,2-1.6,3.6-5.1,3.6c-1.6,0-3-0.4-4-0.8L104,13.1z"/>
<path class="st1" d="M84.4,23.2V25c0.2-0.2,0.3-0.3,0.5-0.4c0.2-0.1,0.4-0.1,0.6-0.1c0.5,0,0.9,0.2,1.2,0.5c0.3,0.4,0.5,0.8,0.5,1.4
	c0,0.5-0.2,1-0.5,1.4c-0.3,0.4-0.8,0.5-1.2,0.5c-0.2,0-0.4,0-0.6-0.1c-0.2-0.1-0.4-0.2-0.5-0.4v0.4h-0.9v-5.1H84.4z M85.4,25.4
	c-0.3,0-0.5,0.1-0.7,0.3c-0.2,0.2-0.3,0.5-0.3,0.8c0,0.3,0.1,0.6,0.3,0.8c0.2,0.2,0.4,0.3,0.7,0.3c0.3,0,0.5-0.1,0.7-0.3
	c0.2-0.2,0.3-0.5,0.3-0.8c0-0.3-0.1-0.6-0.3-0.8C85.9,25.5,85.7,25.4,85.4,25.4z M88,24.6h0.9l0.9,2.3l1-2.3h0.9l-2.3,5h-0.9
	l0.8-1.6L88,24.6z M94.9,23.2h0.9V25c0.2-0.2,0.4-0.3,0.5-0.3c0.2-0.1,0.4-0.1,0.6-0.1c0.4,0,0.7,0.1,0.9,0.4c0.2,0.2,0.3,0.5,0.3,1
	v2.4h-0.9v-1.6c0-0.4,0-0.7-0.1-0.9c0-0.2-0.1-0.3-0.2-0.3c-0.1-0.1-0.2-0.1-0.4-0.1c-0.2,0-0.3,0.1-0.5,0.2
	c-0.1,0.1-0.2,0.3-0.3,0.5c0,0.1,0,0.4,0,0.8v1.5h-0.9V23.2z M103,26.7h-2.9c0,0.3,0.2,0.5,0.3,0.6s0.4,0.2,0.7,0.2
	c0.3,0,0.6-0.1,0.9-0.4l0.8,0.4c-0.2,0.3-0.4,0.5-0.7,0.6s-0.6,0.2-1,0.2c-0.6,0-1-0.2-1.4-0.5c-0.4-0.4-0.5-0.8-0.5-1.4
	c0-0.6,0.2-1,0.5-1.4c0.4-0.4,0.8-0.6,1.4-0.6c0.6,0,1,0.2,1.4,0.6c0.4,0.4,0.5,0.9,0.5,1.5L103,26.7z M102.1,26
	c-0.1-0.2-0.2-0.4-0.4-0.5c-0.2-0.1-0.4-0.2-0.6-0.2c-0.3,0-0.5,0.1-0.7,0.2c-0.1,0.1-0.2,0.2-0.3,0.5H102.1z M104.1,23.2h0.9v2.9
	l1.4-1.5h1.2l-1.6,1.8l1.8,1.9h-1.1l-1.6-1.7v1.7h-0.9V23.2z M111.1,24.6h0.9v3.7h-0.9v-0.4c-0.2,0.2-0.4,0.3-0.5,0.4
	c-0.2,0.1-0.4,0.1-0.6,0.1c-0.5,0-0.9-0.2-1.2-0.5s-0.5-0.8-0.5-1.4c0-0.6,0.2-1,0.5-1.4c0.3-0.4,0.7-0.5,1.2-0.5
	c0.2,0,0.4,0,0.6,0.1s0.4,0.2,0.5,0.4V24.6z M110.1,25.4c-0.3,0-0.5,0.1-0.7,0.3c-0.2,0.2-0.3,0.5-0.3,0.8c0,0.3,0.1,0.6,0.3,0.8
	c0.2,0.2,0.4,0.3,0.7,0.3c0.3,0,0.5-0.1,0.7-0.3c0.2-0.2,0.3-0.5,0.3-0.8c0-0.3-0.1-0.6-0.3-0.8C110.6,25.5,110.4,25.4,110.1,25.4z"
	/>
<path class="st2" d="M22.6,9.4l-6.9-6.9c-0.6-0.6-1.5-0.6-2.1,0l-2.1,2.1l4.8,4.8c0.6,0.6,0.6,1.5,0,2.1l-4.8,4.8l2.1,2.1
	c0.6,0.6,1.5,0.6,2.1,0l6.9-6.9C23.1,10.9,23.1,10,22.6,9.4z"/>
<path class="st2" d="M22.6,11.5l-6.9,6.9c-0.6,0.6-1.5,0.6-2.1,0l-6.9-6.9c-0.6-0.6-0.6-1.5,0-2.1l6.9-6.9c0.6-0.6,1.5-0.6,2.1,0
	l6.9,6.9C23.1,10,23.1,10.9,22.6,11.5z"/>
<path class="st0" d="M16.3,11.5l-6.9,6.9c-0.6,0.6-1.5,0.6-2.1,0l-6.9-6.9c-0.6-0.6-0.6-1.5,0-2.1l6.9-6.9C7.9,2,8.8,2,9.4,2.5
	l6.9,6.9C16.8,10,16.8,10.9,16.3,11.5z"/>
</svg>
