<svg id="catalog" xmlns="http://www.w3.org/2000/svg" width="160" height="160" viewBox="0 0 160 160">
  <g id="bg-2">
    <rect id="zone" width="160" height="160" fill="rgba(255,255,255,0)"/>
    <path id="bg" d="M20.216,57.506c-5.773,34.795,29.526,64,55.464,67.839s46.235-9.839,59.5-36.642c18.928-38.234-8.516-73.638-44.067-78.932C59.163,5.422,28.208,9.335,20.216,57.506Z" transform="translate(-0.941 11.567)" fill="#00d975" opacity="0.1"/>
  </g>
  <g id="catalog-2" data-name="catalog" transform="translate(-10.577 10.971)">
    <rect id="white" width="60.051" height="74.479" rx="2" transform="translate(62.812 29.09)" fill="#fff"/>
    <rect id="vert" width="31.503" height="12.714" rx="2" transform="translate(77.085 43.476)" fill="#00d975"/>
    <path id="vert-2" data-name="vert" d="M15.25-814.436a1.178,1.178,0,0,1-1.178-1.178,1.178,1.178,0,0,1,1.178-1.178h25.5a1.178,1.178,0,0,1,1.178,1.178,1.178,1.178,0,0,1-1.178,1.178Zm-3.494-6.179a1.178,1.178,0,0,1-1.178-1.178,1.178,1.178,0,0,1,1.178-1.178h32.49a1.178,1.178,0,0,1,1.178,1.178,1.178,1.178,0,0,1-1.178,1.178Z" transform="translate(64.765 886.012)" fill="#00d975" opacity="0.317"/>
    <path id="dark" d="M12.578-740.809a2,2,0,0,1-2-2v-71.859a2,2,0,0,1,2-2H15.1v-4.181a2.123,2.123,0,0,1,2.123-2.122H75.138a2.123,2.123,0,0,1,2.123,2.122v64.623c0,.032,0,.065,0,.1s0,.065,0,.1v4.151c0,.032,0,.065,0,.1s0,.065,0,.1v3.182a2.123,2.123,0,0,1-.618,1.508,2.122,2.122,0,0,1-1.5.625H68.644v3.56a2,2,0,0,1-2,2Zm4.648-7.693H75.138v-2.219H17.226Zm57.912-4.341v-2.224H17.226v2.224Zm0-4.346v-63.66H17.226v63.66Z" transform="translate(46.652 851.005)" fill="#012f2d"/>
  </g>
</svg>
