<svg id="comments" xmlns="http://www.w3.org/2000/svg" width="160" height="160" viewBox="0 0 160 160">
  <g id="bg-1">
    <rect id="zone" width="160" height="160" fill="rgba(255,255,255,0)"/>
    <path id="bg" d="M136.559,34.722c-8.559-14.078-21.981-23.77-36.541-24.4-17.336,0-25.612,11.122-30.346,19.1C63.323,40.094,51.9,39.07,40.17,43.787S17.4,62.78,16.326,75.105c-.69,8.383,4.4,16.392,10.909,22.009,21.8,18.8,56.629,16.886,83.6,18.066,23.789,1.042,38.249-7.59,38.746-32.005a90.5,90.5,0,0,0-13.02-48.453Z" transform="translate(-2.93 17.68)" fill="#00d975" opacity="0.1"/>
  </g>
  <g id="Bulles" transform="translate(0 2)">
    <path id="white" d="M134.189,63.438A36.052,36.052,0,0,0,75.5,103.078a3.8,3.8,0,0,1,.31,2.3l-3.153,15.272a3.577,3.577,0,0,0,2.76,4.25,3.618,3.618,0,0,0,.84.077H77l15.433-3.106a4.542,4.542,0,0,1,2.3.328,36.052,36.052,0,0,0,39.64-58.691Z" transform="translate(-27.596 -12.183)" fill="#fff"/>
    <path id="dark" d="M52.032,76.716a26.993,26.993,0,0,1-7.3-4.288A37.453,37.453,0,0,1,23,70.047a3.172,3.172,0,0,0-1.548-.225L5.812,72.939H5.079a4.6,4.6,0,0,1-1.127-.107A4.946,4.946,0,0,1,.131,66.948L3.279,51.683a2.423,2.423,0,0,0-.215-1.431,37.429,37.429,0,0,1,60.719-41.4l.179.072.191.2a37.382,37.382,0,0,1,10,17.81A27.147,27.147,0,0,1,87.143,62.007a2.841,2.841,0,0,0-.245,1.735l2.385,11.5a2.7,2.7,0,0,1-2.075,3.2,2.909,2.909,0,0,1-.589.06h-.592L74.4,76.171a3.462,3.462,0,0,0-.41-.025,3.394,3.394,0,0,0-1.331.27,27.126,27.126,0,0,1-20.632.3ZM24.076,67.509A34.669,34.669,0,0,0,62.4,11.261l-.178-.077-.2-.191a34.669,34.669,0,0,0-56.45,38.12A5.075,5.075,0,0,1,5.99,52.2L2.831,67.514a2.2,2.2,0,0,0,2.211,2.665h.626l15.4-3.094c.234-.025.469-.04.7-.041A5.956,5.956,0,0,1,24.076,67.509Z" transform="translate(43.592 41.24)" fill="#012f2d"/>
  </g>
</svg>
