<svg id="company" xmlns="http://www.w3.org/2000/svg" width="160" height="160" viewBox="0 0 160 160">
  <g id="bg-2">
    <rect id="zone" width="160" height="160" fill="rgba(255,255,255,0)"/>
    <path id="bg" d="M20.216,57.506c-5.773,34.795,29.526,64,55.464,67.839s46.235-9.839,59.5-36.642c18.928-38.234-8.516-73.638-44.067-78.932C59.163,5.422,28.208,9.335,20.216,57.506Z" transform="translate(-0.941 11.567)" fill="#00D975" opacity="0.1"/>
  </g>
  <g id="company-2" data-name="company" transform="translate(-8.941 11.567)">
    <path id="white" d="M135.93,88h41.3a1.05,1.05,0,0,1,1.05,1.05v60.471h-43.4V89.05A1.05,1.05,0,0,1,135.93,88Z" transform="translate(-55.048 -37.778)" fill="#fff"/>
    <path id="vert" d="M-147.867,19.53a2,2,0,0,1-2-2V14.215a2,2,0,0,1,2-2h1.761a2,2,0,0,1,2,2V17.53a2,2,0,0,1-2,2Zm-10.6,0a2,2,0,0,1-2-2V14.215a2,2,0,0,1,2-2h1.762a2,2,0,0,1,2,2V17.53a2,2,0,0,1-2,2Zm-10.593,0a2,2,0,0,1-2-2V14.215a2,2,0,0,1,2-2h1.761a2,2,0,0,1,2,2V17.53a2,2,0,0,1-2,2Zm21.192-11.89a2,2,0,0,1-2-2V2.324a2,2,0,0,1,2-2h1.761a2,2,0,0,1,2,2V5.639a2,2,0,0,1-2,2Zm-10.6,0a2,2,0,0,1-2-2V2.324a2,2,0,0,1,2-2h1.762a2,2,0,0,1,2,2V5.639a2,2,0,0,1-2,2Zm-10.593,0a2,2,0,0,1-2-2V2.324a2,2,0,0,1,2-2h1.761a2,2,0,0,1,2,2V5.639a2,2,0,0,1-2,2Zm21.192-11.891a2,2,0,0,1-2-2V-9.567a2,2,0,0,1,2-2h1.761a2,2,0,0,1,2,2v3.317a2,2,0,0,1-2,2Zm-10.6,0a2,2,0,0,1-2-2V-9.567a2,2,0,0,1,2-2h1.762a2,2,0,0,1,2,2v3.317a2,2,0,0,1-2,2Zm-10.593,0a2,2,0,0,1-2-2V-9.567a2,2,0,0,1,2-2h1.761a2,2,0,0,1,2,2v3.317a2,2,0,0,1-2,2Z" transform="translate(259.116 72.502)" fill="#00D975"/>
    <path id="dark" d="M-73.833,77.749h-95.922a1.224,1.224,0,0,1-1.127-.587,1.224,1.224,0,0,1,0-1.27,1.225,1.225,0,0,1,1.127-.586h13.692V-10.517a1.052,1.052,0,0,1,1.05-1.05H-119.4a1.051,1.051,0,0,1,1.05,1.05V-.9h19.044A1.051,1.051,0,0,1-98.26.15l.007,13.934h9.521A2.138,2.138,0,0,1-86.6,16.222V75.307h12.767a1.225,1.225,0,0,1,1.127.586,1.224,1.224,0,0,1,0,1.27,1.224,1.224,0,0,1-1.047.589Zm-14.6-2.443V16.222a.3.3,0,0,0-.3-.3H-129.7a.3.3,0,0,0-.3.3V75.307Z" transform="translate(210.749 35.213)" fill="#012f2d"/>
  </g>
</svg>
