<svg id="contact" xmlns="http://www.w3.org/2000/svg" width="160" height="160" viewBox="0 0 160 160">
  <g id="bg-1">
    <rect id="zone" width="160" height="160" fill="rgba(255,255,255,0)"/>
  </g>
  <g id="contact-2" data-name="contact" transform="translate(-9.298 9.929)">
    <rect id="white" width="60.051" height="74.479" rx="2" transform="translate(61.532 30.132)" fill="#fff"/>
    <path id="vert" d="M-166.03-813.394a1.178,1.178,0,0,1-1.178-1.178,1.178,1.178,0,0,1,1.178-1.178h25.5a1.178,1.178,0,0,1,1.178,1.178,1.178,1.178,0,0,1-1.178,1.178Zm-3.494-6.179a1.178,1.178,0,0,1-1.178-1.178,1.178,1.178,0,0,1,1.178-1.178h32.49a1.178,1.178,0,0,1,1.178,1.178,1.178,1.178,0,0,1-1.178,1.178Z" transform="translate(244.765 901.012)" fill="#00d975" opacity="0.317"/>
    <path id="vert-2" data-name="vert" d="M-124.727-770.244v-14.687h2.959a1.011,1.011,0,0,1,.925,1.079v12.53a1.01,1.01,0,0,1-.925,1.078Zm0-18.5V-803.43h2.959a1.011,1.011,0,0,1,.925,1.078v12.531a1.01,1.01,0,0,1-.925,1.078ZM-169.786-806.3a14.821,14.821,0,0,1,13.9-9.692,14.815,14.815,0,0,1,13.9,9.688,14.814,14.814,0,0,1-4.28,16.4,10.882,10.882,0,0,0-9.624-6.89,10.881,10.881,0,0,0-9.625,6.9A14.823,14.823,0,0,1-169.786-806.3Zm8.44,2.2a5.462,5.462,0,0,0,5.462,5.462,5.462,5.462,0,0,0,5.461-5.462,5.462,5.462,0,0,0-5.461-5.461A5.462,5.462,0,0,0-161.346-804.1Zm36.618-3.143v-14.687h2.959a1.01,1.01,0,0,1,.925,1.078v12.53a1.011,1.011,0,0,1-.925,1.079Z" transform="translate(247.367 855.975)" fill="#00d975"/>
    <path id="dark" d="M-168.7-739.767a2,2,0,0,1-2-2v-71.859a2,2,0,0,1,2-2h2.526v-4.181a2.123,2.123,0,0,1,2.122-2.122h57.913a2.123,2.123,0,0,1,2.122,2.122v64.613a1.072,1.072,0,0,1,.005.108,1.076,1.076,0,0,1-.005.108v4.131a1.071,1.071,0,0,1,.005.108,1.072,1.072,0,0,1-.005.108v3.172a2.126,2.126,0,0,1-.617,1.508,2.124,2.124,0,0,1-1.5.625h-6.494v3.56a2,2,0,0,1-2,2Zm4.648-7.693h57.913v-2.219h-57.913Zm57.913-4.341v-2.224h-57.913v2.224Zm0-4.346v-63.66h-57.913v63.66Z" transform="translate(226.652 851.005)" fill="#012f2d"/>
  </g>
</svg>
