<svg id="dashboard" xmlns="http://www.w3.org/2000/svg" width="160" height="160" viewBox="0 0 160 160">
  <g id="bg-3">
    <rect id="zone" width="160" height="160" fill="rgba(255,255,255,0)"/>
    <path id="bg" d="M12.759,73.982c0,27.755,32.064,59.709,72.215,41.811,3.8-2.053,7.4-4.512,11.368-6.159,4.529-1.885,9.407-2.661,14.11-3.958,5.582-1.62,35.106-4.967,35.106-26.674,0-19.758-40.079-70.624-85.013-69.538C34.737,10.088,12.759,47.64,12.759,73.982Z" transform="translate(1.346 14.571)" fill="#00d975" opacity="0.1"/>
  </g>
  <g id="dashboard-2" data-name="dashboard" transform="translate(-0.098 12.909)">
    <rect id="white" width="82.379" height="58.138" rx="2" transform="translate(44.106 33.345)" fill="#fff"/>
    <path id="vert" d="M-1495.9,31.59a2,2,0,0,1-2-2V7.871a2,2,0,0,1,2-2h63.74a2,2,0,0,1,2,2V29.59a2,2,0,0,1-2,2Zm47.5-33.066a2,2,0,0,1-2-2v-7.432a2,2,0,0,1,2-2h16.249a2,2,0,0,1,2,2v7.432a2,2,0,0,1-2,2Zm-23.751,0a2,2,0,0,1-2-2v-7.432a2,2,0,0,1,2-2h16.249a2,2,0,0,1,2,2v7.432a2,2,0,0,1-2,2Zm-23.746,0a2,2,0,0,1-2-2v-7.432a2,2,0,0,1,2-2h16.249a2,2,0,0,1,2,2v7.432a2,2,0,0,1-2,2Z" transform="translate(1549.324 53.334)" fill="#00d975" opacity="0.119"/>
    <path id="vert-2" data-name="vert" d="M-1450.41,9.59V-7.9a.991.991,0,0,1,.99-.99h4.848a.99.99,0,0,1,.989.99V9.59Zm-11.873,0V-11.92a.989.989,0,0,1,.99-.989h4.847a.99.99,0,0,1,.99.989V9.59Zm-11.873,0V-4.361a.989.989,0,0,1,.989-.989h4.848a.99.99,0,0,1,.99.989V9.59Zm-11.873,0v-7.2c0-.148.443-.266.989-.266h4.848c.546,0,.989.119.989.266v7.2Zm-11.873,0V-11.92a.989.989,0,0,1,.989-.989h4.848a.989.989,0,0,1,.989.989V9.59Z" transform="translate(1556.037 75.348)" fill="#00d975"/>
    <path id="dark" d="M-1495.9,53.3a2,2,0,0,1-2-2V-2.836a2,2,0,0,1,2-2h7.271v-6.436a1.637,1.637,0,0,1,1.637-1.637h80.361A1.637,1.637,0,0,1-1405-11.272v56.12a1.637,1.637,0,0,1-1.637,1.638h-8.891V51.3a2,2,0,0,1-2,2Zm8.527-64.574v56.12a.381.381,0,0,0,.381.381h80.361a.381.381,0,0,0,.381-.381v-56.12a.381.381,0,0,0-.381-.381h-80.361A.381.381,0,0,0-1487.375-11.272Z" transform="translate(1532.109 45.626)" fill="#012f2d"/>
  </g>
</svg>
