<svg id="email" xmlns="http://www.w3.org/2000/svg" width="160" height="160" viewBox="0 0 160 160">
  <g id="bg-2">
    <rect id="zone" width="160" height="160" fill="rgba(255,255,255,0)"/>
    <path id="bg" d="M12.759,73.982c0,27.755,32.064,59.709,72.215,41.811,3.8-2.053,7.4-4.512,11.368-6.159,4.529-1.885,9.407-2.661,14.11-3.958,5.582-1.62,35.106-4.967,35.106-26.674,0-19.758-40.079-70.624-85.013-69.538C34.737,10.088,12.759,47.64,12.759,73.982Z" transform="translate(1.346 14.571)" fill="#00d975" opacity="0.1"/>
  </g>
  <g id="email-2" data-name="email" transform="translate(-2.546 14.571)">
    <rect id="white" width="77.76" height="53.679" rx="5" transform="translate(46.097 35.891)" fill="#fff"/>
    <path id="dark" d="M-351.454,48.285a6.007,6.007,0,0,1-6-6V.606a6.007,6.007,0,0,1,6-6h.812V-9.574a5.012,5.012,0,0,1,5.007-5h69.845a5.017,5.017,0,0,1,5.011,5V36.189a5.017,5.017,0,0,1-5.011,5.007h-3.9v1.089a6.007,6.007,0,0,1-6,6Zm2.949-11.853a3.151,3.151,0,0,0,3.111,2.676h69.36a3.151,3.151,0,0,0,3.117-2.676l-26.634-21.766-6.194,5.09c-2.038,1.419-2.929,1.835-4.947,1.835-2.142,0-3.007-.475-4.946-1.831l-.064-.049-6.174-5.045Zm50.617-23.112,25.007,20.426V-7.1ZM-348.54,33.746l24.982-20.426L-348.54-7.1Zm.035-43.533,34.079,27.856c1.815,1.267,2.241,1.43,3.69,1.43s1.9-.178,3.686-1.43l34.133-27.856a3.156,3.156,0,0,0-3.117-2.681h-69.36A3.157,3.157,0,0,0-348.505-9.788Z" transform="translate(395.691 49.462)" fill="#012f2d"/>
  </g>
</svg>
