<svg id="file" xmlns="http://www.w3.org/2000/svg" width="160" height="160" viewBox="0 0 160 160">
  <g id="bg-1">
    <rect id="zone" width="160" height="160" fill="rgba(255,255,255,0)"/>
    <path id="bg" d="M136.559,34.722c-8.559-14.078-21.981-23.77-36.541-24.4-17.336,0-25.612,11.122-30.346,19.1C63.323,40.094,51.9,39.07,40.17,43.787S17.4,62.78,16.326,75.105c-.69,8.383,4.4,16.392,10.909,22.009,21.8,18.8,56.629,16.886,83.6,18.066,23.789,1.042,38.249-7.59,38.746-32.005a90.5,90.5,0,0,0-13.02-48.453Z" transform="translate(-2.93 17.68)" fill="#00d975" opacity="0.1"/>
  </g>
  <g id="file-2" data-name="file" transform="translate(-9.759 9.275)">
    <path id="white" d="M94.691,43.7h61.1a1.094,1.094,0,0,1,1.091,1.091v76.321a1.094,1.094,0,0,1-1.091,1.091h-61.1a1.094,1.094,0,0,1-1.091-1.091V44.791A1.061,1.061,0,0,1,94.691,43.7Z" transform="translate(-31.658 -15.895)" fill="#fff"/>
    <path id="vert" d="M123.991,126.2h29.186a1.094,1.094,0,0,1,1.091,1.091v.491a1.094,1.094,0,0,1-1.091,1.091H123.991a1.094,1.094,0,0,1-1.091-1.091v-.491A1.094,1.094,0,0,1,123.991,126.2Z" transform="translate(-44.974 -53.388)" fill="#00d975" opacity="0.2"/>
    <path id="vert-2" data-name="vert" d="M117.491,108.9h36.224a1.094,1.094,0,0,1,1.091,1.091v.491a1.094,1.094,0,0,1-1.091,1.091H117.491a1.094,1.094,0,0,1-1.091-1.091v-.491A1.094,1.094,0,0,1,117.491,108.9Z" transform="translate(-42.02 -45.525)" fill="#00d975" opacity="0.4"/>
    <path id="vert-3" data-name="vert" d="M117.491,91.7h36.224a1.094,1.094,0,0,1,1.091,1.091v.491a1.094,1.094,0,0,1-1.091,1.091H117.491a1.094,1.094,0,0,1-1.091-1.091v-.491A1.094,1.094,0,0,1,117.491,91.7Z" transform="translate(-42.02 -37.709)" fill="#00d975" opacity="0.6"/>
    <path id="vert-4" data-name="vert" d="M117.491,74.5h36.224a1.094,1.094,0,0,1,1.091,1.091v.491a1.094,1.094,0,0,1-1.091,1.091H117.491a1.094,1.094,0,0,1-1.091-1.091v-.491A1.094,1.094,0,0,1,117.491,74.5Z" transform="translate(-42.02 -29.892)" fill="#00d975" opacity="0.8"/>
    <path id="dark" d="M10.85-911.807A1.092,1.092,0,0,1,9.759-912.9v-77.467a1.055,1.055,0,0,1,1.091-1.091h6v-4.528a2.188,2.188,0,0,1,2.183-2.182H35.563v-2.019a1.094,1.094,0,0,1,1.091-1.091h25.8a1.094,1.094,0,0,1,1.092,1.091v2.019H80.133a2.188,2.188,0,0,1,2.182,2.182v76.321a2.178,2.178,0,0,1-2.182,2.128h-8.4v4.637a1.092,1.092,0,0,1-1.091,1.091Zm8.184-7.855h61.1v-76.321H63.549v2.182a1.094,1.094,0,0,1-1.092,1.091h-25.8a1.094,1.094,0,0,1-1.091-1.091v-2.182H19.033Z" transform="translate(44 1024.879)" fill="#012f2d"/>
  </g>
</svg>
