<svg id="file-signature" xmlns="http://www.w3.org/2000/svg" width="160" height="160" viewBox="0 0 160 160">
  <g id="bg-1" transform="translate(160 160) rotate(180)">
    <rect id="zone" width="160" height="160" fill="rgba(255,255,255,0)"/>
    <path id="bg" d="M136.559,34.722c-8.559-14.078-21.981-23.77-36.541-24.4-17.336,0-25.612,11.122-30.346,19.1C63.323,40.094,51.9,39.07,40.17,43.787S17.4,62.78,16.326,75.105c-.69,8.383,4.4,16.392,10.909,22.009,21.8,18.8,56.629,16.886,83.6,18.066,23.789,1.042,38.249-7.59,38.746-32.005a90.5,90.5,0,0,0-13.02-48.453Z" transform="translate(-2.93 17.68)" fill="#00d975" opacity="0.1"/>
  </g>
  <g id="file-signature-2" data-name="file-signature" transform="translate(-13.939 9.275)">
    <path id="white" d="M94.691,43.7h61.1a1.094,1.094,0,0,1,1.091,1.091v76.321a1.094,1.094,0,0,1-1.091,1.091h-61.1a1.094,1.094,0,0,1-1.091-1.091V44.791A1.061,1.061,0,0,1,94.691,43.7Z" transform="translate(-31.658 -15.895)" fill="#fff"/>
    <path id="vert" d="M123.991,126.2h29.186a1.094,1.094,0,0,1,1.091,1.091v.491a1.094,1.094,0,0,1-1.091,1.091H123.991a1.094,1.094,0,0,1-1.091-1.091v-.491A1.094,1.094,0,0,1,123.991,126.2Z" transform="translate(-44.961 -53.388)" fill="#00d975" opacity="0.2"/>
    <path id="vert-2" data-name="vert" d="M117.491,108.9h36.224a1.094,1.094,0,0,1,1.091,1.091v.491a1.094,1.094,0,0,1-1.091,1.091H117.491a1.094,1.094,0,0,1-1.091-1.091v-.491A1.094,1.094,0,0,1,117.491,108.9Z" transform="translate(-42.461 -45.525)" fill="#00d975" opacity="0.4"/>
    <path id="vert-3" data-name="vert" d="M117.491,91.7h36.224a1.094,1.094,0,0,1,1.091,1.091v.491a1.094,1.094,0,0,1-1.091,1.091H117.491a1.094,1.094,0,0,1-1.091-1.091v-.491A1.094,1.094,0,0,1,117.491,91.7Z" transform="translate(-42.461 -37.709)" fill="#00d975" opacity="0.6"/>
    <path id="vert-4" data-name="vert" d="M117.491,74.5h36.224a1.094,1.094,0,0,1,1.091,1.091v.491a1.094,1.094,0,0,1-1.091,1.091H117.491a1.094,1.094,0,0,1-1.091-1.091v-.491A1.094,1.094,0,0,1,117.491,74.5Z" transform="translate(-42.461 -29.892)" fill="#00d975" opacity="0.8"/>
    <path id="Union_22" data-name="Union 22" d="M-164.97-911.807a1.091,1.091,0,0,1-1.091-1.091v-77.467a1.055,1.055,0,0,1,1.091-1.091h6v-4.528a2.188,2.188,0,0,1,2.182-2.182h16.53v-2.019a1.094,1.094,0,0,1,1.091-1.091h25.8a1.094,1.094,0,0,1,1.091,1.091v2.019h16.584a2.188,2.188,0,0,1,2.183,2.182v76.321a2.178,2.178,0,0,1-2.183,2.128h-8.4v4.637a1.092,1.092,0,0,1-1.091,1.091Zm8.183-7.855h61.1v-76.321h-16.584v2.182a1.094,1.094,0,0,1-1.091,1.091h-25.8a1.094,1.094,0,0,1-1.091-1.091v-2.182h-16.53Zm26.732-8.4a1.809,1.809,0,0,1-1.418-.709,2.411,2.411,0,0,1-.545-1.909,4.173,4.173,0,0,1,1.8-2.673,13.1,13.1,0,0,1,5.237-2.019,5.784,5.784,0,0,0,.382-1.037,23,23,0,0,0-2.618.655,10.2,10.2,0,0,1-4.2.709,2.658,2.658,0,0,1-2.182,1.418,1.842,1.842,0,0,1-.545-.055,2.248,2.248,0,0,1-2.182.328,2.36,2.36,0,0,1-1.255-1.91.412.412,0,0,1-.219-.109.3.3,0,0,1-.164-.273.773.773,0,0,1,.11-.328l.218-.273a8.191,8.191,0,0,1,1.855-4.964,2.1,2.1,0,0,1,1.582-.927.871.871,0,0,1,.764.436,1.011,1.011,0,0,1-.11,1.036,30.062,30.062,0,0,1-3.273,4.692c.055.383.11,1.473.819,1.8a1.219,1.219,0,0,0,1.146-.11,1.666,1.666,0,0,1-.164-.709,2.288,2.288,0,0,1,1.036-1.909.9.9,0,0,1,1.146,0c.164.109.382.491.055,1.146q-.328.572-.654,1.146a1.973,1.973,0,0,0,1.309-1.146l.11-.328.327.055a9.258,9.258,0,0,0,4.146-.6,16.649,16.649,0,0,1,3.273-.709l.382-.055.055.437a2.774,2.774,0,0,1-.219,1.31l.164-.055c.764-.109,1.473-.273,2.237-.436a21.318,21.318,0,0,0,6.493-2.727.686.686,0,0,1,.327-.055.541.541,0,0,1,.273.218c.055.11.055.164.11.274a.3.3,0,0,1-.164.273,21.489,21.489,0,0,1-6.71,2.837c-.709.218-1.472.327-2.237.49l-.818.164a45.927,45.927,0,0,1-3.055,4.909,3.532,3.532,0,0,1-2.509,1.691Zm.273-4.691a3.272,3.272,0,0,0-1.473,2.128,1.808,1.808,0,0,0,.382,1.255.871.871,0,0,0,.764.437c.764.054,1.364-.709,1.855-1.364a41.286,41.286,0,0,0,2.673-4.146A11.748,11.748,0,0,0-129.783-932.755Zm-4.364-2.237a7.013,7.013,0,0,0,.6-1.091c.055-.055.055-.055.055-.109A1.5,1.5,0,0,0-134.147-934.992Zm-.11-6.328c-.273,0-.545.218-.873.654a7.773,7.773,0,0,0-1.527,3.164,31.263,31.263,0,0,0,2.346-3.6.414.414,0,0,0,.054-.218v0Z" transform="translate(219.82 1024.879)" fill="#012f2d"/>
  </g>
</svg>
