<svg id="folder" xmlns="http://www.w3.org/2000/svg" width="160" height="160" viewBox="0 0 160 160">
  <g id="bg-4">
    <rect id="zone" width="160" height="160" fill="rgba(255,255,255,0)"/>
    <path id="bg" d="M20.086,55.449c-1.313,6.488-1.943,13.32-.578,19.857,1.575,7.373,5.724,13.762,10.345,19.218,15.859,18.628,39.175,28.7,61.913,26.836s44.531-15.728,57.817-36.716c5.409-8.552,9.5-18.628,9.137-29.048C158.2,40.95,127.3,15.2,99.958,10.722,63.934,6.691,29.118,10.329,20.086,55.449Z" transform="translate(-8.744 14.514)" fill="#00d975" opacity="0.1"/>
  </g>
  <g id="folder-2" data-name="folder" transform="translate(37 41.098)">
    <path id="white" d="M160.693,64.138H120.858v-3.1a3.132,3.132,0,0,0-3.132-3.132H89.613a3.133,3.133,0,0,0-3.132,3.132v54.742a3.133,3.133,0,0,0,3.132,3.132h71.079a3.132,3.132,0,0,0,3.132-3.132V67.27A3.133,3.133,0,0,0,160.693,64.138Z" transform="translate(-78.069 -56.732)" fill="#fff"/>
    <path id="ombre" d="M103.648,57.907H89.828a3.114,3.114,0,0,0-3.347,2.811v49.126a3.114,3.114,0,0,0,3.347,2.811h13.82Z" transform="translate(-17.892 -50.473)" fill="#012f2d" opacity="0.06"/>
    <path id="dark" d="M-31-1143.439a6.007,6.007,0,0,1-6-6v-46.641a6.007,6.007,0,0,1,6-6h1.237v-6.713a4.312,4.312,0,0,1,4.307-4.307H2.657a4.311,4.311,0,0,1,4.307,4.307v1.924h38.66a4.313,4.313,0,0,1,4.306,4.307v48.511a4.312,4.312,0,0,1-4.306,4.307H42.3v.3a6.007,6.007,0,0,1-6,6Zm3.586-65.353v54.743a1.96,1.96,0,0,0,1.958,1.958H45.624a1.96,1.96,0,0,0,1.957-1.958v-48.511a1.961,1.961,0,0,0-1.957-1.958H4.614v-4.273a1.96,1.96,0,0,0-1.958-1.958H-25.456A1.961,1.961,0,0,0-27.414-1208.792Z" transform="translate(37 1213.098)" fill="#012f2d" stroke="rgba(0,0,0,0)" stroke-miterlimit="10" stroke-width="1"/>
  </g>
</svg>
