<svg id="identity-card" xmlns="http://www.w3.org/2000/svg" width="160" height="160" viewBox="0 0 160 160">
  <g id="bg-3">
    <rect id="zone" width="160" height="160" fill="rgba(255,255,255,0)"/>
    <path id="bg" d="M12.759,73.982c0,27.755,32.064,59.709,72.215,41.811,3.8-2.053,7.4-4.512,11.368-6.159,4.529-1.885,9.407-2.661,14.11-3.958,5.582-1.62,35.106-4.967,35.106-26.674,0-19.758-40.079-70.624-85.013-69.538C34.737,10.088,12.759,47.64,12.759,73.982Z" transform="translate(1.346 14.571)" fill="#00d975" opacity="0.1"/>
  </g>
  <g id="identity" transform="translate(7.7 13.107)">
    <rect id="white" width="79.751" height="55.052" rx="6" transform="translate(43.364 35.667)" fill="#fff"/>
    <path id="vert" d="M182.573,107.672H164.037a1.522,1.522,0,1,1,0-3.044h18.536a1.522,1.522,0,0,1,0,3.044Z" transform="translate(-69.643 -51.084)" fill="#00d975"/>
    <path id="vert-2" data-name="vert" d="M182.573,123.537H164.037a1.522,1.522,0,1,1,0-3.044h18.536a1.522,1.522,0,0,1,0,3.044Z" transform="translate(-69.643 -58.9)" fill="#00d975" opacity="0.6"/>
    <path id="vert-3" data-name="vert" d="M182.573,139.4H164.037a1.522,1.522,0,0,1,0-3.044h18.536a1.522,1.522,0,0,1,0,3.044Z" transform="translate(-69.643 -66.716)" fill="#00d975" opacity="0.401"/>
    <path id="vert-4" data-name="vert" d="M140.515,77.53a14.822,14.822,0,0,0-9.624,26.09,10.88,10.88,0,0,1,9.624-6.9h0a10.883,10.883,0,0,1,9.624,6.891,14.816,14.816,0,0,0-9.624-26.085Zm0,17.356h0a5.462,5.462,0,1,1,5.462-5.462A5.462,5.462,0,0,1,140.515,94.886Z" transform="translate(-71.029 -28.726)" fill="#00d975"/>
    <path id="dark" d="M-181.7-1122.173a6.007,6.007,0,0,1-6-6v-43.052a6.007,6.007,0,0,1,6-6h.6v-2.745a5.143,5.143,0,0,1,5.137-5.136h71.634a5.142,5.142,0,0,1,5.136,5.136v46.934a5.142,5.142,0,0,1-5.136,5.137h-3.625a6.007,6.007,0,0,1-5.994,5.726Zm2.791-58.031v47.4a3.234,3.234,0,0,0,3.193,2.747h71.137a3.233,3.233,0,0,0,3.192-2.747v-47.4a3.233,3.233,0,0,0-3.192-2.747h-71.137A3.235,3.235,0,0,0-178.909-1180.2Z" transform="translate(223.387 1219.618)" fill="#012f2d" stroke="rgba(0,0,0,0)" stroke-miterlimit="10" stroke-width="1"/>
  </g>
</svg>
