<svg id="image" xmlns="http://www.w3.org/2000/svg" width="160" height="160" viewBox="0 0 160 160">
  <g id="bg-1" transform="translate(160 160) rotate(180)">
    <rect id="zone" width="160" height="160" fill="rgba(255,255,255,0)"/>
    <path id="bg" d="M136.559,34.722c-8.559-14.078-21.981-23.77-36.541-24.4-17.336,0-25.612,11.122-30.346,19.1C63.323,40.094,51.9,39.07,40.17,43.787S17.4,62.78,16.326,75.105c-.69,8.383,4.4,16.392,10.909,22.009,21.8,18.8,56.629,16.886,83.6,18.066,23.789,1.042,38.249-7.59,38.746-32.005a90.5,90.5,0,0,0-13.02-48.453Z" transform="translate(-2.93 17.68)" fill="#00D975" opacity="0.1"/>
  </g>
  <g id="image-2" data-name="image" transform="translate(-17.314 8.28)">
    <rect id="white" width="79.258" height="54.713" rx="4" transform="translate(60.669 42.315)" fill="#fff"/>
    <ellipse id="vert" cx="6.856" cy="6.856" rx="6.856" ry="6.856" transform="translate(114.083 51.417)" fill="#00D975"/>
    <path id="vert-2" data-name="vert" d="M157.928,115.145c-7.957.735-14.761,5.707-21.829,9.417a20.754,20.754,0,0,1-4.379,1.841c-3.065.81-6.319.381-9.417-.264-14.794-3.084-28.538-11.084-43.634-11.809v23.543a4.28,4.28,0,0,0,4.285,4.28h70.708a4.28,4.28,0,0,0,4.28-4.28Z" transform="translate(-18.001 -45.125)" fill="#00D975" opacity="0.32"/>
    <path id="dark" d="M-516.685,54.7a6.007,6.007,0,0,1-6-6V5.983a6.007,6.007,0,0,1,6-6h.945V-2.936a5.353,5.353,0,0,1,5.353-5.344h70.7a5.353,5.353,0,0,1,5.349,5.334V19.3h.01V43.212a5.359,5.359,0,0,1-5.359,5.344h-3.739v.14a6.007,6.007,0,0,1-6,6Zm3.1-11.5a3.216,3.216,0,0,0,3.211,3.211h70.684a3.216,3.216,0,0,0,3.211-3.211V21.676c-5.513.819-10.608,3.729-15.539,6.554-1.539.876-3.131,1.785-4.708,2.623a22.084,22.084,0,0,1-4.605,1.931c-3.39.89-6.912.372-9.887-.254a136.47,136.47,0,0,1-17.813-5.4c-7.943-2.806-16.145-5.707-24.555-6.319Zm0-46.144V18.67c8.759.61,17.148,3.574,25.27,6.447a137.476,137.476,0,0,0,17.492,5.321c2.759.574,5.975,1.059,8.946.283a20.245,20.245,0,0,0,4.148-1.757c1.55-.819,3.127-1.718,4.648-2.589,5.2-2.971,10.579-6.044,16.6-6.854V-2.946a3.216,3.216,0,0,0-3.211-3.211h-70.7A3.216,3.216,0,0,0-513.584-2.946Z" transform="translate(575.342 49.541)" fill="#012f2d"/>
  </g>
</svg>
