<svg id="instruction" xmlns="http://www.w3.org/2000/svg" width="160" height="160" viewBox="0 0 160 160">
  <g id="bg-1">
    <rect id="zone" width="160" height="160" fill="rgba(255,255,255,0)"/>
  </g>
  <g id="instruction-2" data-name="instruction" transform="translate(-9.295 9.842)">
    <rect id="white" width="60.051" height="74.479" rx="2" transform="translate(61.532 30.132)" fill="#fff"/>
    <path id="vert" d="M-346.03-813.394a1.178,1.178,0,0,1-1.178-1.178,1.178,1.178,0,0,1,1.178-1.178h25.5a1.178,1.178,0,0,1,1.178,1.178,1.178,1.178,0,0,1-1.178,1.178Zm-3.494-6.179a1.178,1.178,0,0,1-1.178-1.178,1.178,1.178,0,0,1,1.178-1.178h32.49a1.178,1.178,0,0,1,1.178,1.178,1.178,1.178,0,0,1-1.178,1.178Z" transform="translate(424.765 901.012)" fill="#00d975" opacity="0.316"/>
    <path id="vert-2" data-name="vert" d="M-335.881-792.285a14.724,14.724,0,0,1-10.48-4.341,14.725,14.725,0,0,1-4.341-10.481,14.724,14.724,0,0,1,4.341-10.48,14.724,14.724,0,0,1,10.48-4.341,14.726,14.726,0,0,1,10.481,4.341,14.724,14.724,0,0,1,4.341,10.48,14.725,14.725,0,0,1-4.341,10.481A14.725,14.725,0,0,1-335.881-792.285Zm-1.687-17.734V-799.2l3.36-.038v-10.784Zm1.669-4.992a1.693,1.693,0,0,0-1.688,1.674,1.677,1.677,0,0,0,.485,1.2,1.677,1.677,0,0,0,1.19.5c.038,0,.077,0,.129,0a1.678,1.678,0,0,0,1.145-.449,1.686,1.686,0,0,0,.537-1.237,1.686,1.686,0,0,0-.524-1.235,1.677,1.677,0,0,0-1.157-.461q-.052,0-.1,0h-.013Z" transform="translate(427 862)" fill="#00d975"/>
    <path id="dark" d="M-348.7-739.767a2,2,0,0,1-2-2v-71.859a2,2,0,0,1,2-2h2.526v-4.181a2.123,2.123,0,0,1,2.122-2.122h57.913a2.123,2.123,0,0,1,2.122,2.122v64.613a1.072,1.072,0,0,1,.005.108,1.076,1.076,0,0,1-.005.108v4.131a1.071,1.071,0,0,1,.005.108,1.072,1.072,0,0,1-.005.108v3.172a2.126,2.126,0,0,1-.617,1.508,2.124,2.124,0,0,1-1.5.625h-6.494v3.56a2,2,0,0,1-2,2Zm4.648-7.693h57.913v-2.219h-57.913Zm57.913-4.341v-2.224h-57.913v2.224Zm0-4.346v-63.66h-57.913v63.66Z" transform="translate(406.652 851.005)" fill="#012f2d"/>
  </g>
</svg>
