<svg id="list-users" xmlns="http://www.w3.org/2000/svg" width="160" height="160" viewBox="0 0 160 160">
  <g id="bg-2">
    <rect id="zone" width="160" height="160" fill="rgba(255,255,255,0)"/>
    <path id="bg" d="M20.216,57.506c-5.773,34.795,29.526,64,55.464,67.839s46.235-9.839,59.5-36.642c18.928-38.234-8.516-73.638-44.067-78.932C59.163,5.422,28.208,9.335,20.216,57.506Z" transform="translate(-0.941 11.567)" fill="#00d975" opacity="0.1"/>
  </g>
  <g id="list-users-2" data-name="list-users" transform="translate(-17.322 5.238)">
    <path id="vert" d="M-1588.927-125.462h-80.751v-56a.99.99,0,0,1,.989-.989h34.837v48.272a2,2,0,0,0,2,2h42.925v6.717Z" transform="translate(1717.624 230.403)" fill="#00d975" opacity="0.204"/>
    <path id="ombre" d="M-1617.6-128.462h-51.068a1.014,1.014,0,0,1-1.012-1.012v-52.8h4.6v48.1a2,2,0,0,0,2,2h45.482v3.716Z" transform="translate(1748.852 230.403)" fill="#012f2d" opacity="0.102"/>
    <rect id="white" width="58.122" height="57.059" rx="2" transform="translate(83.772 41.165)" fill="#fff"/>
    <path id="vert-2" data-name="vert" d="M-1664.528-154.786a4,4,0,0,0-3.484,2.425,5.148,5.148,0,0,1-1.315-5.662,5.15,5.15,0,0,1,4.8-3.281,5.15,5.15,0,0,1,4.8,3.281,5.148,5.148,0,0,1-1.315,5.662A3.979,3.979,0,0,0-1664.528-154.786Zm1.816-1.637a2,2,0,0,0,0-2.058,2,2,0,0,0-1.816-.968,2,2,0,0,0-1.816.968,2,2,0,0,0,0,2.058,2,2,0,0,0,1.816.968A2,2,0,0,0-1662.711-156.424Zm-1.816-12.33a4,4,0,0,0-3.484,2.425,5.148,5.148,0,0,1-1.315-5.662,5.15,5.15,0,0,1,4.8-3.281,5.15,5.15,0,0,1,4.8,3.281,5.148,5.148,0,0,1-1.315,5.662A3.979,3.979,0,0,0-1664.528-168.754Zm1.816-1.637a2,2,0,0,0,0-2.058,2,2,0,0,0-1.816-.968,2,2,0,0,0-1.816.968,2,2,0,0,0,0,2.058,2,2,0,0,0,1.816.968A2,2,0,0,0-1662.711-170.391Zm-1.816-12.33a3.994,3.994,0,0,0-3.484,2.425,5.147,5.147,0,0,1-1.315-5.662,5.15,5.15,0,0,1,4.8-3.281,5.15,5.15,0,0,1,4.8,3.281,5.15,5.15,0,0,1-1.315,5.662A3.979,3.979,0,0,0-1664.528-182.721Zm1.816-1.637a2,2,0,0,0,0-2.058,2,2,0,0,0-1.816-.968,2,2,0,0,0-1.816.968,2,2,0,0,0,0,2.058,2,2,0,0,0,1.816.968A2,2,0,0,0-1662.711-184.358Z" transform="translate(1762.94 239.706)" fill="#00d975"/>
    <path id="dark" d="M-1669.351-120.35a2.3,2.3,0,0,1,0-2.363,2.312,2.312,0,0,1,1.974-1.119l.106,0h8.375v-56a3.962,3.962,0,0,1,3.957-3.957h34.2v-3.805a1.651,1.651,0,0,1,1.646-1.646h56.1a1.646,1.646,0,0,1,1.646,1.646v55.038a1.646,1.646,0,0,1-1.646,1.646h-9.211v7.079h8.375a2.3,2.3,0,0,1,2.194,2.3,2.3,2.3,0,0,1-2.194,2.3H-1667.27l-.106,0A2.309,2.309,0,0,1-1669.351-120.35Zm13.424-59.48v55.022h80.751v-6.1h-43.917a1.651,1.651,0,0,1-1.646-1.646v-48.264h-34.2A.99.99,0,0,0-1655.926-179.83Zm36.454-7.762v55.038a.385.385,0,0,0,.38.38h56.1a.379.379,0,0,0,.38-.38v-55.038a.38.38,0,0,0-.38-.38h-56.1A.385.385,0,0,0-1619.473-187.592Zm26.817,42.59a1.1,1.1,0,0,1-1.1-1.1,1.1,1.1,0,0,1,1.1-1.1h20.084a1.1,1.1,0,0,1,1.1,1.1,1.1,1.1,0,0,1-1.1,1.1Zm0-13.967a1.1,1.1,0,0,1-1.1-1.1,1.1,1.1,0,0,1,1.1-1.1h20.084a1.1,1.1,0,0,1,1.1,1.1,1.1,1.1,0,0,1-1.1,1.1Zm0-13.967a1.1,1.1,0,0,1-1.1-1.1,1.1,1.1,0,0,1,1.1-1.1h20.084a1.1,1.1,0,0,1,1.1,1.1,1.1,1.1,0,0,1-1.1,1.1Z" transform="translate(1703.873 229.77)" fill="#012f2d"/>
  </g>
</svg>
