<svg id="notification" xmlns="http://www.w3.org/2000/svg" width="160" height="160" viewBox="0 0 160 160">
  <g id="bg-3">
    <rect id="zone" width="160" height="160" fill="rgba(255,255,255,0)"/>
    <path id="bg" d="M12.759,73.982c0,27.755,32.064,59.709,72.215,41.811,3.8-2.053,7.4-4.512,11.368-6.159,4.529-1.885,9.407-2.661,14.11-3.958,5.582-1.62,35.106-4.967,35.106-26.674,0-19.758-40.079-70.624-85.013-69.538C34.737,10.088,12.759,47.64,12.759,73.982Z" transform="translate(1.346 14.571)" fill="#00d975" opacity="0.1"/>
  </g>
  <g id="notification-2" data-name="notification" transform="translate(12 26)">
    <path id="white" d="M138.775,111.373a6.188,6.188,0,0,0,4.378-10.522l-6.792-6.792V77.241a25.881,25.881,0,0,0-21.953-25.975A25.426,25.426,0,0,0,85.885,73.155a24.92,24.92,0,0,0-.218,3.27V94.059l-6.792,6.807a6.188,6.188,0,0,0,4.378,10.507Z" transform="translate(-44.12 -30.351)" fill="#fff"/>
    <path id="ombre" d="M145.818,111.37h27.568a6.183,6.183,0,0,0,4.378-10.522l-6.777-6.792V77.238a25.881,25.881,0,0,0-21.953-25.975,26.345,26.345,0,0,0-3.393-.223Z" transform="translate(-78.807 -30.348)" fill="#012f2d" opacity="0.08"/>
    <path id="dark" d="M14.5-143.1v-.323H-4.727a7.307,7.307,0,0,1-6.71-4.5,7.307,7.307,0,0,1,1.531-7.931l6.471-6.515V-179.5a26.962,26.962,0,0,1,.228-3.418,26.577,26.577,0,0,1,29.778-22.854A27.123,27.123,0,0,1,49.5-178.686v16.323l6.465,6.505a7.306,7.306,0,0,1,1.54,7.928,7.305,7.305,0,0,1-6.7,4.5l0,.005H31.323v.265a8.222,8.222,0,0,1-8.41,7.952l-.306.026A8.21,8.21,0,0,1,14.5-143.1ZM-.987-182.644a23.59,23.59,0,0,0-.207,3.127v18.07l-7.114,7.173a5.072,5.072,0,0,0-1.058,5.5,5.071,5.071,0,0,0,4.645,3.121H50.79a5.07,5.07,0,0,0,5.031-5.1,5.021,5.021,0,0,0-1.449-3.523l-7.114-7.152v-17.254a24.857,24.857,0,0,0-21-24.843,23.81,23.81,0,0,0-3.181-.232l.014-.01A24.337,24.337,0,0,0-.987-182.644Z" transform="translate(44 225.576)" fill="#012f2d"/>
  </g>
</svg>
