<svg id="page" xmlns="http://www.w3.org/2000/svg" width="160" height="160" viewBox="0 0 160 160">
  <g id="bg-3">
    <rect id="zone" width="160" height="160" fill="rgba(255,255,255,0)"/>
    <path id="bg" d="M12.759,73.982c0,27.755,32.064,59.709,72.215,41.811,3.8-2.053,7.4-4.512,11.368-6.159,4.529-1.885,9.407-2.661,14.11-3.958,5.582-1.62,35.106-4.967,35.106-26.674,0-19.758-40.079-70.624-85.013-69.538C34.737,10.088,12.759,47.64,12.759,73.982Z" transform="translate(1.346 14.571)" fill="#00d975" opacity="0.1"/>
  </g>
  <g id="page-2" data-name="page" transform="translate(-8.468 10.712)">
    <path id="white" d="M-1318.532-129.927v-56a.991.991,0,0,1,.99-.99h9.577v-5.8a2,2,0,0,1,2-2h76.749a2,2,0,0,1,2,2v52.988a2,2,0,0,1-2,2h-8.572v7.8Z" transform="translate(1357.639 230.649)" fill="#fff"/>
    <path id="vert" d="M-1237.788-130.927h-80.744v-56a.991.991,0,0,1,.99-.99h9.577v48.192a2,2,0,0,0,2,2h68.178v6.8Z" transform="translate(1357.639 230.649)" fill="#00d975" opacity="0.204"/>
    <path id="ombre" d="M-1243.833-134.849h-73.709a.991.991,0,0,1-.99-.989v-51.078h4.522v47.192a2,2,0,0,0,2,2h68.177v2.874Z" transform="translate(1363.684 230.649)" fill="#012f2d" opacity="0.123"/>
    <rect id="vert-2" data-name="vert" width="80.749" height="43.525" rx="2" transform="translate(49.673 49.171)" fill="#00d975" opacity="0.076"/>
    <path id="vert-3" data-name="vert" d="M-1305.695-192.985a1.727,1.727,0,0,1,1.726-1.726,1.727,1.727,0,0,1,1.727,1.726,1.726,1.726,0,0,1-1.727,1.726A1.726,1.726,0,0,1-1305.695-192.985Zm-6.416,0a1.727,1.727,0,0,1,1.726-1.726,1.727,1.727,0,0,1,1.727,1.726,1.726,1.726,0,0,1-1.727,1.726A1.726,1.726,0,0,1-1312.111-192.985Zm-6.422,0a1.727,1.727,0,0,1,1.727-1.726,1.727,1.727,0,0,1,1.726,1.726,1.726,1.726,0,0,1-1.726,1.726A1.726,1.726,0,0,1-1318.532-192.985Z" transform="translate(1426.728 235.123)" fill="#00d975"/>
    <path id="dark" d="M-1212.9-124.759h-103.434a2.3,2.3,0,0,1-2.2-2.3,2.3,2.3,0,0,1,2.2-2.3h8.379v-56a3.962,3.962,0,0,1,3.958-3.958h8.964V-193.1a1.607,1.607,0,0,1,1.607-1.607h78.79a1.613,1.613,0,0,1,1.608,1.607v55.01a1.613,1.613,0,0,1-1.608,1.608h-6.638v7.132h8.375l.108,0a2.31,2.31,0,0,1,1.974,1.12,2.3,2.3,0,0,1,0,2.362,2.311,2.311,0,0,1-1.974,1.119Zm-92.086-60.594v55.02h80.744v-6.152h-69.183a1.607,1.607,0,0,1-1.607-1.608v-48.249H-1304A.99.99,0,0,0-1304.989-185.353Zm11.19,47.259a.371.371,0,0,0,.371.372h78.79a.374.374,0,0,0,.371-.371v-42.535h-79.524Zm79.531-43.277V-193.1a.376.376,0,0,0-.371-.371h-78.78a.371.371,0,0,0-.371.371l0,11.732Z" transform="translate(1344.096 229.8)" fill="#012f2d"/>
  </g>
</svg>
