<svg id="password" xmlns="http://www.w3.org/2000/svg" width="160" height="160" viewBox="0 0 160 160">
  <g id="bg-2">
    <rect id="zone" width="160" height="160" fill="rgba(255,255,255,0)"/>
    <path id="bg" d="M20.216,57.506c-5.773,34.795,29.526,64,55.464,67.839s46.235-9.839,59.5-36.642c18.928-38.234-8.516-73.638-44.067-78.932C59.163,5.422,28.208,9.335,20.216,57.506Z" transform="translate(-0.941 11.567)" fill="#00d975" opacity="0.1"/>
  </g>
  <g id="password-2" data-name="password" transform="translate(2.986 13.849)">
    <rect id="white" width="33.781" height="114.581" rx="2" transform="translate(21.847 82.413) rotate(-90)" fill="#fff"/>
    <path id="vert" d="M62.668,111.446h-.713V110.1a2.85,2.85,0,1,0-5.7,0v1.345h-.713a2.133,2.133,0,0,0-2.138,2.143v5.7a2.133,2.133,0,0,0,2.138,2.133h7.121a2.133,2.133,0,0,0,2.133-2.133v-5.7a2.133,2.133,0,0,0-2.133-2.143ZM57.685,110.1a1.425,1.425,0,1,1,2.845-.161.859.859,0,0,1,0,.161v1.345H57.685Zm5.7,9.178a.713.713,0,0,1-.713.708H55.548a.708.708,0,0,1-.713-.708h0v-5.69a.708.708,0,0,1,.713-.708h7.121a.713.713,0,0,1,.713.708h0Z" transform="translate(-20.623 -48.814)" fill="#00d975"/>
    <path id="dark" d="M-180.986-152.837a2,2,0,0,1-2-2v-28.8a2,2,0,0,1,2-2h2.455V-192.1a1.748,1.748,0,0,1,.514-1.237,1.744,1.744,0,0,1,1.238-.509h112.6a1.744,1.744,0,0,1,1.237.509,1.744,1.744,0,0,1,.514,1.237v31.784a1.752,1.752,0,0,1-1.751,1.751H-69.1v3.73a2,2,0,0,1-2,2Zm4.03-39.442a.244.244,0,0,0-.075.175v31.784a.251.251,0,0,0,.251.251h112.6a.251.251,0,0,0,.251-.251V-192.1h-.021a.246.246,0,0,0-.23-.246h-112.6A.247.247,0,0,0-176.955-192.279Zm94.194,16.068a3.271,3.271,0,0,1,3.271-3.271,3.271,3.271,0,0,1,3.271,3.271,3.271,3.271,0,0,1-3.271,3.271A3.271,3.271,0,0,1-82.761-176.211Zm-12.245,0a3.272,3.272,0,0,1,3.272-3.271,3.272,3.272,0,0,1,3.271,3.271,3.272,3.272,0,0,1-3.271,3.271A3.272,3.272,0,0,1-95.006-176.211Zm-12.244,0a3.272,3.272,0,0,1,3.271-3.271,3.271,3.271,0,0,1,3.271,3.271,3.271,3.271,0,0,1-3.271,3.271A3.272,3.272,0,0,1-107.249-176.211Zm-12.249,0a3.272,3.272,0,0,1,3.271-3.271,3.272,3.272,0,0,1,3.272,3.271,3.272,3.272,0,0,1-3.272,3.271A3.272,3.272,0,0,1-119.5-176.211Zm-12.244,0a3.271,3.271,0,0,1,3.271-3.271,3.271,3.271,0,0,1,3.271,3.271,3.271,3.271,0,0,1-3.271,3.271A3.271,3.271,0,0,1-131.742-176.211Zm-12.244,0a3.272,3.272,0,0,1,3.272-3.271,3.272,3.272,0,0,1,3.271,3.271,3.272,3.272,0,0,1-3.271,3.271A3.272,3.272,0,0,1-143.986-176.211Z" transform="translate(199.63 241.728)" fill="#012f2d"/>
  </g>
</svg>
