<svg id="screen" xmlns="http://www.w3.org/2000/svg" width="160" height="160" viewBox="0 0 160 160">
  <g id="bg-3">
    <rect id="zone" width="160" height="160" fill="rgba(255,255,255,0)"/>
    <path id="bg" d="M12.759,73.982c0,27.755,32.064,59.709,72.215,41.811,3.8-2.053,7.4-4.512,11.368-6.159,4.529-1.885,9.407-2.661,14.11-3.958,5.582-1.62,35.106-4.967,35.106-26.674,0-19.758-40.079-70.624-85.013-69.538C34.737,10.088,12.759,47.64,12.759,73.982Z" transform="translate(1.346 14.571)" fill="#00d975" opacity="0.1"/>
  </g>
  <g id="add-screen" transform="translate(-6.738 12.801)">
    <rect id="white" width="82.2" height="58.016" rx="2" transform="translate(46.978 33.536)" fill="#fff"/>
    <rect id="vert" width="82.2" height="45.016" rx="2" transform="translate(46.738 46.536)" fill="#00d975" opacity="0.05"/>
    <path id="vert-2" data-name="vert" d="M-1298.192-11.045a1.756,1.756,0,0,1,1.756-1.756,1.756,1.756,0,0,1,1.756,1.756,1.755,1.755,0,0,1-1.756,1.756A1.755,1.755,0,0,1-1298.192-11.045Zm-6.535,0a1.756,1.756,0,0,1,1.756-1.756,1.756,1.756,0,0,1,1.756,1.756,1.755,1.755,0,0,1-1.756,1.756A1.756,1.756,0,0,1-1304.727-11.045Zm-6.535,0a1.757,1.757,0,0,1,1.757-1.756,1.756,1.756,0,0,1,1.756,1.756,1.756,1.756,0,0,1-1.756,1.756A1.756,1.756,0,0,1-1311.262-11.045Z" transform="translate(1417.818 51.125)" fill="#00d975"/>
    <path id="dark" d="M-1309.261,53.273a2,2,0,0,1-2-2V-2.742a2,2,0,0,1,2-2h7.25v-6.421a1.637,1.637,0,0,1,1.637-1.637h80.172a1.637,1.637,0,0,1,1.633,1.637v56a1.638,1.638,0,0,1-1.633,1.638h-8.86v4.8a2,2,0,0,1-2,2Zm8.507-8.449a.371.371,0,0,0,.11.271.377.377,0,0,0,.271.111h80.187a.382.382,0,0,0,.381-.382V1.292h-80.949Zm.11-56.258a.374.374,0,0,0-.11.271V.545h80.933V-11.164a.381.381,0,0,0-.381-.381h-80.175A.38.38,0,0,0-1300.645-11.435Z" transform="translate(1348.361 45.709)" fill="#012f2d"/>
  </g>
</svg>
