<svg id="search" xmlns="http://www.w3.org/2000/svg" width="160" height="160" viewBox="0 0 160 160">
  <rect id="Rectangle_1" data-name="Rectangle 1" width="160" height="160" fill="rgba(255,255,255,0)"/>
  <g id="bg-2">
    <rect id="zone" width="160" height="160" fill="rgba(255,255,255,0)"/>
    <path id="bg" d="M20.216,57.506c-5.773,34.795,29.526,64,55.464,67.839s46.235-9.839,59.5-36.642c18.928-38.234-8.516-73.638-44.067-78.932C59.163,5.422,28.208,9.335,20.216,57.506Z" transform="translate(-0.941 11.567)" fill="#00d975" opacity="0.1"/>
  </g>
  <g id="search-2" data-name="search" transform="translate(7.83 15.901)">
    <rect id="white" width="33.657" height="114.16" rx="2" transform="translate(17.355 80.178) rotate(-90)" fill="#fff"/>
    <path id="vert" d="M58.169,116.185,55.5,113.53a6.294,6.294,0,1,0-1.1,1.1l2.66,2.665a.787.787,0,0,0,1.11-1.115Zm-12.314-6.5a4.7,4.7,0,1,1,1.376,3.328A4.7,4.7,0,0,1,45.856,109.685Z" transform="translate(-16.037 -47.141)" fill="#00d975"/>
    <path id="dark" d="M-365.83-155.165a2,2,0,0,1-2-2v-28.677a2,2,0,0,1,2-2h2.44v-6.313a1.744,1.744,0,0,1,1.74-1.745h112.17a1.75,1.75,0,0,1,1.745,1.745v31.662a1.745,1.745,0,0,1-1.745,1.745h-4.884v3.584a2,2,0,0,1-2,2Zm4.005-39.167a.24.24,0,0,0-.07.176v31.662a.243.243,0,0,0,.069.176.249.249,0,0,0,.176.074h112.17a.25.25,0,0,0,.25-.25v-31.662a.25.25,0,0,0-.25-.25h-112.17A.242.242,0,0,0-361.825-194.333Z" transform="translate(380 241.672)" fill="#012f2d"/>
  </g>
</svg>
