<svg id="section" xmlns="http://www.w3.org/2000/svg" width="160" height="160" viewBox="0 0 160 160">
  <rect id="Rectangle_15" data-name="Rectangle 15" width="160" height="160" fill="rgba(255,255,255,0)"/>
  <g id="bg-3">
    <rect id="zone" width="160" height="160" fill="rgba(255,255,255,0)"/>
    <path id="bg" d="M12.759,73.982c0,27.755,32.064,59.709,72.215,41.811,3.8-2.053,7.4-4.512,11.368-6.159,4.529-1.885,9.407-2.661,14.11-3.958,5.582-1.62,35.106-4.967,35.106-26.674,0-19.758-40.079-70.624-85.013-69.538C34.737,10.088,12.759,47.64,12.759,73.982Z" transform="translate(1.346 14.571)" fill="#00d975" opacity="0.1"/>
  </g>
  <g id="section-2" data-name="section" transform="translate(-9.458 11.71)">
    <path id="Tracé_71" data-name="Tracé 71" d="M71.329,77.4H150.1a.989.989,0,0,1,.989.989v56H70.34v-56A.989.989,0,0,1,71.329,77.4Z" transform="translate(-30.258 -34.921)" fill="#fff"/>
    <path id="vert" d="M71.329,77.4H150.1a.989.989,0,0,1,.989.989v56H70.34v-56A.989.989,0,0,1,71.329,77.4Z" transform="translate(-30.258 -35.921)" fill="#00d975" opacity="0.195"/>
    <path id="ombre" d="M-1422.842-135.841h-73.711a.991.991,0,0,1-.99-.989v-51.083h4.523v47.193a2,2,0,0,0,2,2h68.179v2.878Z" transform="translate(1543.674 230.393)" fill="#012f2d" opacity="0.095"/>
    <rect id="white" width="80.751" height="56.99" rx="2" transform="translate(50.654 34.683)" fill="#fff"/>
    <rect id="vert-2" data-name="vert" width="80.751" height="44.128" rx="2" transform="translate(50.654 47.545)" fill="#00d975" opacity="0.078"/>
    <path id="vert-3" data-name="vert" d="M-1484.7-193.983a1.727,1.727,0,0,1,1.727-1.726,1.727,1.727,0,0,1,1.726,1.726,1.726,1.726,0,0,1-1.726,1.726A1.726,1.726,0,0,1-1484.7-193.983Zm-6.421,0a1.727,1.727,0,0,1,1.726-1.726,1.726,1.726,0,0,1,1.726,1.726,1.725,1.725,0,0,1-1.726,1.726A1.726,1.726,0,0,1-1491.125-193.983Zm-6.417,0a1.727,1.727,0,0,1,1.727-1.726,1.727,1.727,0,0,1,1.726,1.726,1.726,1.726,0,0,1-1.726,1.726A1.726,1.726,0,0,1-1497.542-193.983Z" transform="translate(1606.72 235.097)" fill="#00d975"/>
    <path id="vert-4" data-name="vert" d="M-1457.449-167.22a2,2,0,0,1-2-2v-7.521a2,2,0,0,1,2-2h9.025a2,2,0,0,1,2,2v7.521a2,2,0,0,1-2,2Zm-19.047,0a2,2,0,0,1-2-2v-7.521a2,2,0,0,1,2-2h9.026a2,2,0,0,1,2,2v7.521a2,2,0,0,1-2,2Zm-19.046,0a2,2,0,0,1-2-2v-7.521a2,2,0,0,1,2-2h9.025a2,2,0,0,1,2,2v7.521a2,2,0,0,1-2,2Zm38.093-16.968a2,2,0,0,1-2-2v-7.521a2,2,0,0,1,2-2h9.025a2,2,0,0,1,2,2v7.521a2,2,0,0,1-2,2Zm-19.047,0a2,2,0,0,1-2-2v-7.521a2,2,0,0,1,2-2h9.026a2,2,0,0,1,2,2v7.521a2,2,0,0,1-2,2Zm-19.046,0a2,2,0,0,1-2-2v-7.521a2,2,0,0,1,2-2h9.025a2,2,0,0,1,2,2v7.521a2,2,0,0,1-2,2Z" transform="translate(1563.012 250.478)" fill="#00d975" opacity="0.116"/>
    <path id="dark" d="M-1495.24-125.706a2.312,2.312,0,0,1-1.975-1.12,2.3,2.3,0,0,1,0-2.362,2.311,2.311,0,0,1,1.973-1.12l.108,0h8.375v-56a3.962,3.962,0,0,1,3.957-3.957h8.964V-194.1a1.613,1.613,0,0,1,1.608-1.607h78.773a1.613,1.613,0,0,1,1.607,1.607v55.012a1.607,1.607,0,0,1-1.607,1.607h-6.615v7.178h8.375a2.3,2.3,0,0,1,2.194,2.3,2.3,2.3,0,0,1-2.194,2.3h-103.438l-.1,0Zm11.449-60.6v55.021h80.751v-6.2h-69.189a1.607,1.607,0,0,1-1.608-1.607v-48.2h-8.964A.99.99,0,0,0-1483.791-186.305Zm11.191,47.215a.37.37,0,0,0,.371.371h78.773a.371.371,0,0,0,.371-.371v-42.767h-79.524Zm.02-55.012v11.5h79.494v-11.5a.376.376,0,0,0-.371-.371h-78.773A.375.375,0,0,0-1472.581-194.1Z" transform="translate(1523.873 229.774)" fill="#012f2d"/>
  </g>
</svg>
