<svg id="setting" xmlns="http://www.w3.org/2000/svg" width="160" height="160" viewBox="0 0 160 160">
  <g id="bg-1">
    <rect id="zone" width="160" height="160" fill="rgba(255,255,255,0)"/>
    <path id="bg" d="M136.559,34.722c-8.559-14.078-21.981-23.77-36.541-24.4-17.336,0-25.612,11.122-30.346,19.1C63.323,40.094,51.9,39.07,40.17,43.787S17.4,62.78,16.326,75.105c-.69,8.383,4.4,16.392,10.909,22.009,21.8,18.8,56.629,16.886,83.6,18.066,23.789,1.042,38.249-7.59,38.746-32.005a90.5,90.5,0,0,0-13.02-48.453Z" transform="translate(-2.93 17.68)" fill="#00d975" opacity="0.1"/>
  </g>
  <g id="setting2" transform="translate(-6.275 11.49)">
    <path id="white" d="M136.432,60.272l-6.594-.835a32.236,32.236,0,0,0-2-4.783l4.09-5.216a5.138,5.138,0,0,0-.433-6.891l-5.571-5.467a5.284,5.284,0,0,0-6.985-.417l-5.269,4.017a33.511,33.511,0,0,0-4.841-1.982l-.84-6.531a5.258,5.258,0,0,0-5.216-4.6H94.888a5.258,5.258,0,0,0-5.216,4.585l-.84,6.547a33.165,33.165,0,0,0-4.841,1.982l-5.274-4.022a5.289,5.289,0,0,0-6.969.423L66.2,42.546a5.143,5.143,0,0,0-.443,6.912l4.095,5.2a33.385,33.385,0,0,0-2,4.783l-6.6.835A5.216,5.216,0,0,0,56.6,65.446v7.8a5.216,5.216,0,0,0,4.632,5.18l6.62.835a32.238,32.238,0,0,0,2,4.783l-4.084,5.216a5.133,5.133,0,0,0,.433,6.87l5.545,5.488a5.3,5.3,0,0,0,6.99.438l5.258-4.043a33.693,33.693,0,0,0,4.836,1.982l.84,6.531a5.253,5.253,0,0,0,5.216,4.59h7.887a5.258,5.258,0,0,0,5.216-4.58l.84-6.547a32.536,32.536,0,0,0,4.836-1.982l5.263,4.043a5.279,5.279,0,0,0,6.969-.423l5.555-5.5a5.138,5.138,0,0,0,.449-6.907l-4.09-5.216a32.8,32.8,0,0,0,2-4.783l6.6-.835a5.216,5.216,0,0,0,4.648-5.175V65.446a5.216,5.216,0,0,0-4.632-5.175ZM98.816,83.36a14.084,14.084,0,1,1,9.991-4.068,14.011,14.011,0,0,1-9.991,4.068Z" transform="translate(-19.29 -8.639)" fill="#fff"/>
    <path id="ombre" d="M137.53,111.121h3.944a5.258,5.258,0,0,0,5.216-4.58l.84-6.547a32.536,32.536,0,0,0,4.836-1.982l5.263,4.043a5.279,5.279,0,0,0,6.969-.423l5.566-5.5a5.138,5.138,0,0,0,.449-6.907l-4.09-5.216a32.8,32.8,0,0,0,2-4.783l6.6-.835a5.216,5.216,0,0,0,4.648-5.175V65.446a5.216,5.216,0,0,0-4.632-5.175l-6.594-.835a32.236,32.236,0,0,0-2-4.783l4.09-5.216a5.138,5.138,0,0,0-.433-6.891l-5.571-5.467a5.284,5.284,0,0,0-6.985-.417l-5.269,4.017A33.51,33.51,0,0,0,147.54,38.7l-.84-6.531a5.258,5.258,0,0,0-5.216-4.6H137.54V55.337a14.011,14.011,0,0,1,0,28.023Z" transform="translate(-58.003 -8.639)" fill="#012f2d" opacity="0.079"/>
    <path id="dark" d="M-451.88-92.472l-5.915-.642a5.269,5.269,0,0,1-4.638-5.79c.012-.107.027-.212.047-.313l.073-.485a4.08,4.08,0,0,0-1.273-3.756,4.21,4.21,0,0,0-2.861-1.118,4.242,4.242,0,0,0-.79.075l-.929.183a5.254,5.254,0,0,1-1.144.126,5.242,5.242,0,0,1-2.972-.919,4.746,4.746,0,0,1-.657-.632,5.318,5.318,0,0,1-1.565-2.968l-1-5.972a5.572,5.572,0,0,1,.572-3.379l-.629-.481a33.126,33.126,0,0,1-3.652,1.487l-.751,5.827a6.412,6.412,0,0,1-6.39,5.6h-7.888a6.41,6.41,0,0,1-6.358-5.655l-.751-5.806A35.123,35.123,0,0,1-505-118.585l-4.694,3.6a6.474,6.474,0,0,1-8.539-.522l-5.566-5.472a6.26,6.26,0,0,1-.521-8.414l3.651-4.632a32.841,32.841,0,0,1-1.5-3.594l-5.895-.741a6.406,6.406,0,0,1-5.655-6.328v-7.8a6.4,6.4,0,0,1,5.675-6.317l5.884-.741a34.612,34.612,0,0,1,1.507-3.594l-3.651-4.627a6.292,6.292,0,0,1,.558-8.451l5.514-5.472a6.441,6.441,0,0,1,8.513-.5l4.694,3.6a33.436,33.436,0,0,1,3.651-1.487l.752-5.832a6.406,6.406,0,0,1,6.385-5.593h7.851a6.417,6.417,0,0,1,6.39,5.613l.746,5.806a34.625,34.625,0,0,1,3.651,1.487l4.7-3.595a6.464,6.464,0,0,1,8.539.522l5.55,5.472a6.258,6.258,0,0,1,.521,8.409l-3.651,4.632a32.752,32.752,0,0,1,1.5,3.6l5.89.741a6.4,6.4,0,0,1,5.686,6.317v7.815a6.391,6.391,0,0,1-5.675,6.317l-1.218.154a5.005,5.005,0,0,1,1.134,1.468,4.507,4.507,0,0,0,3.484,2.4l.386.047c.137.013.275.019.411.019a4.578,4.578,0,0,0,3.277-1.39l.386-.407a5.394,5.394,0,0,1,3.946-1.693,5.418,5.418,0,0,1,3.717,1.469l4.32,4.136a5.277,5.277,0,0,1,1.616,3.735,5.523,5.523,0,0,1-1.565,3.949l-.454.474a4.152,4.152,0,0,0-1.153,3.542l.058.313a4.089,4.089,0,0,0,2.269,3.026l.752.36a5.31,5.31,0,0,1,2.509,7.068c-.026.058-.052.11-.084.167l-2.754,5.55a5.512,5.512,0,0,1-2.076,2.286,5.546,5.546,0,0,1-2.9.818,5.492,5.492,0,0,1-2.239-.475l-.454-.209a4.473,4.473,0,0,0-1.925-.438,4.454,4.454,0,0,0-2.248.61,4.7,4.7,0,0,0-2.259,3.2l-.177,1.043a5.581,5.581,0,0,1-1.9,3.367,5.578,5.578,0,0,1-3.6,1.322A5.633,5.633,0,0,1-451.88-92.472Zm-34.491-15.493a4.1,4.1,0,0,0,4.08-3.568l.933-7.277.7-.224a31.466,31.466,0,0,0,4.663-1.914l.663-.334,5.847,4.487a4.09,4.09,0,0,0,5.414-.313l5.561-5.472a4.018,4.018,0,0,0,.349-5.389l-4.543-5.779.338-.652a31.8,31.8,0,0,0,1.936-4.616l.2-.715,7.339-.923a4.085,4.085,0,0,0,3.651-4.033v-7.8a4.084,4.084,0,0,0-3.61-4.032l-7.36-.923-.229-.7a30.773,30.773,0,0,0-1.931-4.611l-.338-.652,4.543-5.785a3.985,3.985,0,0,0-.319-5.351l-5.56-5.5a4.126,4.126,0,0,0-5.451-.345l-5.842,4.492-.658-.334a32.115,32.115,0,0,0-4.694-1.915l-.662-.224-.94-7.256a4.094,4.094,0,0,0-4.073-3.589h-7.888a4.09,4.09,0,0,0-4.1,3.542l-.934,7.3-.7.224a32.587,32.587,0,0,0-4.658,1.915l-.662.334-5.843-4.492a4.1,4.1,0,0,0-5.414.313l-5.535,5.5a4.023,4.023,0,0,0-.349,5.394l4.538,5.78-.333.652a31.449,31.449,0,0,0-1.962,4.612l-.229.7-7.287.923a4.083,4.083,0,0,0-3.651,4.027v7.8a4.09,4.09,0,0,0,3.615,4.037l7.355.923.229.7a30.335,30.335,0,0,0,1.93,4.612l.312.652-4.543,5.785a3.99,3.99,0,0,0,.319,5.357l5.56,5.514a4.132,4.132,0,0,0,5.441.323l5.843-4.491.657.334a32.644,32.644,0,0,0,4.7,1.909l.7.229.934,7.256a4.094,4.094,0,0,0,4.073,3.584Zm30.5-4.126a7.038,7.038,0,0,0,4.891,1.966,7.009,7.009,0,0,0,5.1-2.174,7.071,7.071,0,0,0-.211-9.986,7.03,7.03,0,0,0-4.887-1.966,7,7,0,0,0-4.67,1.762,6.251,6.251,0,0,1-1.182,1.545l-.319.315A7.075,7.075,0,0,0-455.871-112.091Zm-49.435-36.38a15.164,15.164,0,0,1,14.992-15.277,15.268,15.268,0,0,1,15.336,15.164,15.164,15.164,0,0,1-15.107,15.162h-.058A15.165,15.165,0,0,1-505.306-148.471Zm2.28-.21a12.859,12.859,0,0,0,12.712,12.955,12.947,12.947,0,0,0,13-12.858,12.859,12.859,0,0,0-12.811-12.858h-.048A12.86,12.86,0,0,0-503.026-148.681Z" transform="translate(569.841 209.294)" fill="#012f2d"/>
  </g>
</svg>
