<svg id="shield" xmlns="http://www.w3.org/2000/svg" width="160" height="160" viewBox="0 0 160 160">
  <g id="bg-1" transform="translate(160 160) rotate(180)">
    <rect id="zone" width="160" height="160" fill="rgba(255,255,255,0)"/>
    <path id="bg" d="M136.559,34.722c-8.559-14.078-21.981-23.77-36.541-24.4-17.336,0-25.612,11.122-30.346,19.1C63.323,40.094,51.9,39.07,40.17,43.787S17.4,62.78,16.326,75.105c-.69,8.383,4.4,16.392,10.909,22.009,21.8,18.8,56.629,16.886,83.6,18.066,23.789,1.042,38.249-7.59,38.746-32.005a90.5,90.5,0,0,0-13.02-48.453Z" transform="translate(-2.93 17.68)" fill="#00d975" opacity="0.1"/>
  </g>
  <g id="shield-2" data-name="shield" transform="translate(0)">
    <path id="dark" d="M117.9,133.468a9.327,9.327,0,0,1-4.653-1.166l-1.394-.788A70.626,70.626,0,0,1,76,70.048V69.41a9.322,9.322,0,0,1,4.658-8.117l32.59-18.36a9.327,9.327,0,0,1,9.311,0l32.584,18.321a9.305,9.305,0,0,1,4.653,8.167v.644a70.62,70.62,0,0,1-35.932,61.449l-1.4.788A9.366,9.366,0,0,1,117.9,133.468Z" transform="translate(-37.918 -7.472)" fill="#fff"/>
    <path id="ombre" d="M151.47,41.64a9.238,9.238,0,0,1,4.691,1.244L188.746,61.2a9.316,9.316,0,0,1,4.658,8.184v.655a70.62,70.62,0,0,1-35.932,61.449l-1.4.788a9.366,9.366,0,0,1-4.564,1.149Z" transform="translate(-71.488 -7.451)" fill="#012f2d" opacity="0.079"/>
    <path id="dark-2" data-name="dark" d="M43.085-259.71H43a10.572,10.572,0,0,1-5.115-1.322l-1.409-.8a72.082,72.082,0,0,1-26.67-26.347A72.075,72.075,0,0,1,0-324.363V-325a10.579,10.579,0,0,1,1.316-5.19A10.569,10.569,0,0,1,3.4-332.848a10.549,10.549,0,0,1,5.133-7.381l32.606-18.365a10.6,10.6,0,0,1,10.549,0l32.567,18.321A10.548,10.548,0,0,1,89.549-331v.655a71.946,71.946,0,0,1-10.408,37.151q-.224.465-.455.926a72.191,72.191,0,0,1-7.492,11.9,72.039,72.039,0,0,1-9.724,10.273,72.182,72.182,0,0,1-11.748,8.284l-1.393.788a10.721,10.721,0,0,1-5.239,1.31Zm-.71-96.713-32.6,18.365a8.085,8.085,0,0,0-4.02,7.045v.65A69.487,69.487,0,0,0,40.964-270l1.4.794a8.115,8.115,0,0,0,4.02,1h.105a8.078,8.078,0,0,0,3.886-.994l1.382-.783a69.473,69.473,0,0,0,35.288-60.36V-331a8.076,8.076,0,0,0-4.031-7.085L50.447-356.407A8.091,8.091,0,0,0,46.4-357.5h-.005A8.039,8.039,0,0,0,42.375-356.423Z" transform="translate(33.582 392.939)" fill="#012f2d"/>
  </g>
</svg>
