<svg id="square" xmlns="http://www.w3.org/2000/svg" width="160" height="160" viewBox="0 0 160 160">
  <g id="bg-1" transform="translate(160 160) rotate(180)">
    <rect id="zone" width="160" height="160" fill="rgba(255,255,255,0)"/>
    <path id="bg" d="M136.559,34.722c-8.559-14.078-21.981-23.77-36.541-24.4-17.336,0-25.612,11.122-30.346,19.1C63.323,40.094,51.9,39.07,40.17,43.787S17.4,62.78,16.326,75.105c-.69,8.383,4.4,16.392,10.909,22.009,21.8,18.8,56.629,16.886,83.6,18.066,23.789,1.042,38.249-7.59,38.746-32.005a90.5,90.5,0,0,0-13.02-48.453Z" transform="translate(-2.93 17.68)" fill="#00d975" opacity="0.1"/>
  </g>
  <rect id="white" width="50.54" height="50.54" rx="4" transform="translate(55.359 54.422)" fill="#fff"/>
  <path id="dark" d="M6,57a6.007,6.007,0,0,1-6-6V12.977A6.009,6.009,0,0,1,5.207,7.029V4.351A4.355,4.355,0,0,1,9.56,0H52.647A4.356,4.356,0,0,1,57,4.351V47.419a4.357,4.357,0,0,1-4.353,4.347H50A6.009,6.009,0,0,1,44.053,57ZM9.56,1.743A2.615,2.615,0,0,0,6.947,4.351V47.419A2.612,2.612,0,0,0,9.56,50.027H52.647a2.613,2.613,0,0,0,2.613-2.607V4.351A2.616,2.616,0,0,0,52.647,1.74Z" transform="translate(49.223 53.541)" fill="#012f2d"/>
</svg>
