<?xml version="1.0" encoding="utf-8"?>
<!-- Generator: Adobe Illustrator 25.2.3, SVG Export Plug-In . SVG Version: 6.00 Build 0)  -->
<svg version="1.1" id="Calque_1" xmlns="http://www.w3.org/2000/svg" xmlns:xlink="http://www.w3.org/1999/xlink" x="0px" y="0px"
	 viewBox="0 0 719.4 212.1" style="enable-background:new 0 0 719.4 212.1;" xml:space="preserve">
<style type="text/css">
	.st0{fill:#012F2D;}
	.st1{fill:#00D975;}
</style>
<g>
	<path class="st0" d="M404,91.7c-0.5,6.9-3.1,12.4-7.7,16.4c-4.6,4-10.7,6-18.3,6c-8.3,0-14.8-2.8-19.5-8.3
		c-4.7-5.6-7.1-13.2-7.1-22.9v-3.9c0-6.2,1.1-11.7,3.3-16.4c2.2-4.7,5.3-8.3,9.4-10.9s8.8-3.8,14.1-3.8c7.4,0,13.4,2,18,6
		c4.5,4,7.2,9.6,7.9,16.8h-13.3c-0.3-4.2-1.5-7.2-3.5-9c-2-1.9-5-2.8-9.1-2.8c-4.4,0-7.7,1.6-9.9,4.8c-2.2,3.2-3.3,8.1-3.4,14.8v4.9
		c0,7,1.1,12,3.2,15.3c2.1,3.2,5.4,4.8,10,4.8c4.1,0,7.2-0.9,9.2-2.8c2-1.9,3.2-4.8,3.5-8.7H404z"/>
	<path class="st0" d="M459.9,59.5h-19.7v53.7h-13.3V59.5h-19.5V48.7h52.5V59.5z"/>
	<path class="st0" d="M481.6,113.1h-13.3V48.7h13.3V113.1z"/>
	<path class="st0" d="M517.7,97.2l14.6-48.4H547l-22.4,64.4h-13.8l-22.3-64.4h14.7L517.7,97.2z"/>
	<path class="st0" d="M567.2,113.1h-13.3V48.7h13.3V113.1z"/>
	<path class="st0" d="M628,59.5h-19.7v53.7H595V59.5h-19.5V48.7H628V59.5z"/>
	<path class="st0" d="M658.5,77.7l13.4-29h14.5l-21.1,41.1v23.4h-13.5V89.8l-21.1-41.1h14.6L658.5,77.7z"/>
</g>
<polygon class="st0" points="198.7,47.8 157.9,47.8 201.1,163 241.9,163 "/>
<polygon class="st0" points="112.7,47.8 71.8,47.8 115,163 155.9,163 "/>
<polygon class="st1" points="28.9,163 69.6,163 49.3,108.3 "/>
<polygon class="st0" points="317.1,67.3 333.9,112.2 347.4,112.2 323.3,47.8 311,47.8 287,112.2 300.4,112.2 "/>
<g>
	<g>
		<path class="st0" d="M291.6,137.2L300,158l8.3-20.8h4.4v25.5h-3.4v-9.9l0.3-10.7l-8.4,20.6h-2.6l-8.3-20.6l0.3,10.7v9.9h-3.4
			v-25.5H291.6z"/>
		<path class="st0" d="M348.5,156h-10.7l-2.4,6.7H332l9.7-25.5h2.9l9.8,25.5H351L348.5,156z M338.9,153.3h8.7l-4.3-11.9L338.9,153.3
			z"/>
		<path class="st0" d="M393.3,162.7h-3.4L377.1,143v19.6h-3.4v-25.5h3.4l12.9,19.7v-19.7h3.3V162.7z"/>
		<path class="st0" d="M429.2,156h-10.7l-2.4,6.7h-3.5l9.7-25.5h2.9l9.8,25.5h-3.4L429.2,156z M419.6,153.3h8.7l-4.3-11.9
			L419.6,153.3z"/>
		<path class="st0" d="M473.3,159.3c-0.9,1.2-2.1,2.2-3.6,2.8c-1.5,0.6-3.3,0.9-5.4,0.9c-2.1,0-3.9-0.5-5.5-1.5s-2.9-2.4-3.7-4.2
			s-1.3-3.9-1.4-6.2v-2.2c0-3.8,0.9-6.8,2.7-8.9c1.8-2.1,4.3-3.2,7.6-3.2c2.7,0,4.8,0.7,6.4,2c1.6,1.4,2.6,3.3,3,5.8h-3.4
			c-0.6-3.4-2.6-5.1-6-5.1c-2.3,0-4,0.8-5.1,2.4c-1.2,1.6-1.7,3.9-1.8,6.9v2.1c0,2.9,0.7,5.1,2,6.8c1.3,1.7,3.1,2.5,5.3,2.5
			c1.3,0,2.4-0.1,3.3-0.4s1.7-0.8,2.3-1.4v-5.7H464V150h9.2V159.3z"/>
		<path class="st0" d="M509.1,150.9h-11v9h12.8v2.7h-16.2v-25.5h16v2.7h-12.7v8.2h11V150.9z"/>
		<path class="st0" d="M535.3,137.2l8.3,20.8l8.3-20.8h4.4v25.5H553v-9.9l0.3-10.7l-8.4,20.6h-2.6l-8.3-20.6l0.3,10.7v9.9H531v-25.5
			H535.3z"/>
		<path class="st0" d="M592.6,150.9h-11v9h12.8v2.7h-16.2v-25.5h16v2.7h-12.7v8.2h11V150.9z"/>
		<path class="st0" d="M634,162.7h-3.4L617.8,143v19.6h-3.4v-25.5h3.4l12.9,19.7v-19.7h3.3V162.7z"/>
		<path class="st0" d="M673.5,139.9h-8.2v22.7h-3.3v-22.7h-8.2v-2.7h19.7V139.9z"/>
	</g>
</g>
</svg>
