<?xml version="1.0" encoding="utf-8"?>
<!-- Generator: Adobe Illustrator 25.2.0, SVG Export Plug-In . SVG Version: 6.00 Build 0)  -->
<svg version="1.1" id="branding_be-ys" xmlns="http://www.w3.org/2000/svg" xmlns:xlink="http://www.w3.org/1999/xlink" x="0px"
	 y="0px" viewBox="0 0 177 58" style="enable-background:new 0 0 177 58;" xml:space="preserve">
<style type="text/css">
	.st0{fill:#00D975;}
	.st1{fill:#012F2D;}
	.st2{fill:#FFFFFF;}
</style>
<path id="Tracé_4848" class="st0" d="M76.2,33.3l-1.3,3.2l-7.2-16.8h-3.7l9.7,22l3-7.5L76.2,33.3z"/>
<path id="Tracé_4849" class="st1" d="M37,30c0,5.9-3.8,11.6-10.4,11.6c-1.9,0-3.7-0.6-5.4-1.5c-0.7-0.5-1.3-1.1-2-1.6L17,41.8V8
	h3.7v25c0,5.5,4.1,8.9,8.3,7.9c3.4-0.9,4.6-5.9,4.3-11.2c-0.3-5.5-3.4-9-7.4-8.9c-2,0.1-4,1.7-5,2.9c0.6-1.3,2.8-4.5,6.6-4.6
	C32.6,18.8,37,22.2,37,30z"/>
<path id="Tracé_4850" class="st1" d="M60.6,34.9l0.3-0.5c-1.1,4.4-5,7.4-9.5,7.2c-5.8-0.1-10.5-4.5-10.6-11.2
	c-0.2-4,1.8-7.9,5.3-10c1.9-1.1,4.2-1.7,6.5-1.5c4.8,0.3,8.3,4,8.2,9.9H44.3c0,5.8,3.3,9.9,8.3,10.1C55.9,38.9,58.8,38,60.6,34.9z
	 M44.3,28.2H57c0.5-1.9,0.8-5.8-1.4-7.7c-2-1.7-5.6-1.7-7.9,0C45.2,22.4,44.4,25.9,44.3,28.2L44.3,28.2z"/>
<path id="Tracé_4851" class="st1" d="M103,19.6c-2.1,0-3.4,1.1-3.7,2.9c-0.2,1.3,0,4,5.7,5.6c6.1,1.6,7.8,3.7,7.8,6.7
	c0,3.4-2.3,6.9-7.9,6.9c-3.1,0-6-0.8-8.6-2.4l-0.1-6.3c1.1,2.4,2.7,4.5,4.8,6.1c3.5,2.3,8.9,2.7,9.4-0.9c0.5-2.4-1-4.7-6.6-6.2
	c-5.5-1.6-7-3.7-7-6.5c0-3.3,2.7-6.4,8-6.4c2.3-0.1,4.6,0.7,6.5,2v4.7C109.5,22,106.2,19.6,103,19.6z"/>
<path id="Tracé_4852" class="st1" d="M93.2,19.8l-6.8,16.8l-7.2-16.8h-3.7l9.3,21.2l-0.5,1.2c-0.7,2.6-3.4,4.1-5.9,3.4h-0.1
	l-0.2,0.5l-1.2,3.1c3-0.1,6.3-2.1,8.2-7.1l0.3-0.8L94,19.8H93.2L93.2,19.8z"/>
<ellipse class="st0" cx="145.8" cy="24.9" rx="19.3" ry="16.8"/>
<polygon class="st0" points="130.3,27 120.9,32.5 140.6,32.3 "/>
<g>
	<path id="Tracé_327" class="st2" d="M152.2,21.1c0.1-3.5-2.8-6.5-6.3-6.5c-3.5,0-6.5,2.8-6.5,6.3c0,0.1,0,0.1,0,0.2
		c0,0.7,0.6,1.2,1.2,1.2s1.2-0.6,1.2-1.2c0-2.1,1.7-3.8,3.8-3.8s3.8,1.7,3.8,3.8s-1.7,3.8-3.8,3.8c-0.7,0-1.2,0.6-1.2,1.2l0,0v2.6
		c0,0.7,0.6,1.2,1.2,1.2s1.2-0.6,1.2-1.2v-1.4C150.1,26.8,152.2,24.2,152.2,21.1z"/>
	<circle id="Ellipse_29" class="st2" cx="145.8" cy="33.9" r="1.2"/>
</g>
</svg>
