<?xml version="1.0" encoding="utf-8"?>
<!-- Generator: Adobe Illustrator 24.0.3, SVG Export Plug-In . SVG Version: 6.00 Build 0)  -->
<svg version="1.1" id="Capa_1" xmlns="http://www.w3.org/2000/svg" xmlns:xlink="http://www.w3.org/1999/xlink" x="0px" y="0px"
	 viewBox="0 0 458 286" style="enable-background:new 0 0 458 286;" xml:space="preserve">
<style type="text/css">
	.st0{fill:#00D975;}
	.st1{fill:#FFFFFF;}
</style>
<g>
	<g>
		<path class="st0" d="M150.29,218.75c-6.38,0-9.58,2.3-9.58,6.9c0,2.11,0.7,3.6,2.11,4.46c1.41,0.87,4.59,1.72,9.54,2.56
			c4.95,0.84,8.44,1.99,10.47,3.45c2.03,1.46,3.04,4.26,3.04,8.4c0,4.14-1.33,7.17-3.98,9.09c-2.65,1.92-6.55,2.88-11.69,2.88
			c-2.98,0-6.82-0.38-11.53-1.14l-2.35-0.32l0.32-4.3c6.06,0.92,10.71,1.38,13.96,1.38s5.77-0.57,7.59-1.7
			c1.81-1.14,2.72-3.06,2.72-5.76c0-2.7-0.75-4.5-2.23-5.4c-1.49-0.89-4.68-1.72-9.58-2.47c-4.9-0.76-8.35-1.84-10.35-3.25
			c-2-1.41-3-4.06-3-7.95c0-3.9,1.38-6.74,4.14-8.52c2.76-1.79,6.17-2.68,10.22-2.68c3.25,0,7.3,0.35,12.17,1.06l2.19,0.32
			l-0.16,4.3C158.54,219.18,153.86,218.75,150.29,218.75z"/>
		<path class="st0" d="M173.98,235.3c0-7.63,1.28-13.04,3.85-16.23c2.57-3.19,6.95-4.79,13.15-4.79c6.19,0,10.58,1.6,13.15,4.79
			c2.57,3.19,3.85,8.6,3.85,16.23c0,7.63-1.18,13.07-3.53,16.31c-2.35,3.25-6.83,4.87-13.43,4.87c-6.6,0-11.09-1.62-13.47-4.87
			C175.17,248.37,173.98,242.93,173.98,235.3z M179.02,235.18c0,6.41,0.74,10.85,2.23,13.31c1.49,2.46,4.73,3.69,9.74,3.69
			c5,0,8.26-1.24,9.78-3.73c1.51-2.49,2.27-6.91,2.27-13.27c0-6.36-0.85-10.71-2.56-13.07c-1.7-2.35-4.86-3.53-9.45-3.53
			c-4.6,0-7.75,1.16-9.45,3.49C179.87,224.4,179.02,228.77,179.02,235.18z"/>
		<path class="st0" d="M224.95,219.4v36.28h-4.87V219.4h-5.28v-4.3h5.28v-4.14c0-5.73,0.78-9.62,2.35-11.65
			c1.57-2.03,4.35-3.04,8.36-3.04l7.87,0.41v4.14c-3.19-0.11-5.57-0.16-7.14-0.16c-2.54,0-4.28,0.7-5.2,2.11
			c-0.92,1.41-1.38,4.17-1.38,8.28v4.06h12.25v4.3H224.95z"/>
		<path class="st0" d="M265.28,219.4h-13.55v20.04c0,5.25,0.38,8.68,1.14,10.31c0.76,1.62,2.54,2.44,5.36,2.44l7.47-0.57l0.32,4.14
			c-3.57,0.54-6.3,0.81-8.2,0.81c-4.11,0-6.97-1.01-8.56-3.04c-1.6-2.03-2.39-5.91-2.39-11.65V219.4h-6.01v-4.3h6.01v-12.74h4.87
			v12.74h13.55V219.4z"/>
		<path class="st0" d="M269.5,215.1h4.95l8.93,36.36h1.14l10.55-35.55h5.11l10.55,35.55h1.22l8.93-36.36h4.95l-10.14,40.58h-8.44
			l-9.58-33.43L288,255.67h-8.36L269.5,215.1z"/>
		<path class="st0" d="M362.01,227.19v21.75c0.21,2,1.97,3.19,5.27,3.57l-0.24,3.9c-4.17,0-7.22-1.08-9.17-3.25
			c-5.09,2.22-10.17,3.33-15.26,3.33c-3.63,0-6.38-1.04-8.28-3.12c-1.89-2.08-2.84-5.06-2.84-8.93c0-3.87,0.96-6.74,2.88-8.6
			c1.92-1.87,4.94-3.02,9.05-3.45l13.8-1.38v-3.81c0-3.03-0.66-5.21-1.99-6.53c-1.33-1.33-3.1-1.99-5.32-1.99
			c-3.46,0-7.95,0.32-13.47,0.97l-2.52,0.24l-0.24-3.89c5.95-1.14,11.16-1.7,15.62-1.7s7.7,1.06,9.7,3.17
			C361.01,219.56,362.01,222.81,362.01,227.19z M336.53,244.15c0,5.47,2.24,8.2,6.74,8.2c1.95,0,4.08-0.23,6.41-0.69
			c2.33-0.46,4.17-0.93,5.52-1.42l2.03-0.73v-14.69L344,236.2c-2.65,0.22-4.56,0.97-5.72,2.27
			C337.11,239.77,336.53,241.66,336.53,244.15z"/>
		<path class="st0" d="M374.59,255.67V215.1h4.79v5.84c2-1.41,4.45-2.76,7.34-4.06c2.89-1.3,5.56-2.16,7.99-2.6v4.87
			c-2.33,0.49-4.76,1.23-7.3,2.23s-4.52,1.88-5.92,2.64l-2.11,1.22v30.43H374.59z"/>
		<path class="st0" d="M427.91,251.62l2.43-0.24l0.16,3.98c-6.12,0.76-11.28,1.14-15.5,1.14c-5.84-0.05-9.93-1.79-12.25-5.19
			c-2.33-3.41-3.49-8.65-3.49-15.74c0-14.17,5.57-21.26,16.72-21.26c5.36,0,9.36,1.53,12.01,4.59c2.65,3.06,3.98,7.94,3.98,14.65
			l-0.16,3.9h-27.59c0,4.98,0.85,8.67,2.56,11.08c1.7,2.41,4.63,3.61,8.77,3.61S423.8,251.94,427.91,251.62z M404.21,233.36h22.89
			c0-5.36-0.88-9.17-2.64-11.44c-1.76-2.27-4.57-3.41-8.44-3.41c-3.87,0-6.8,1.18-8.8,3.53
			C405.22,224.39,404.21,228.16,404.21,233.36z"/>
	</g>
</g>
<g>
	<path class="st1" d="M108.41,124.48c-0.2,25.7-16.52,49.97-45.08,49.97c-6.53,0-16.52-2.04-23.25-6.73
		c-4.69-3.06-8.57-7.14-8.57-7.14l-9.38,14.89V29.43h16.11v107.9c0,23.46,17.95,38.55,36.1,33.86
		c15.09-3.88,19.99-25.49,18.76-48.54C91.89,99.19,78.84,83.89,61.3,84.3c-8.77,0.41-17.34,7.34-21.62,12.44
		c2.65-5.71,11.83-19.38,28.35-19.99C89.44,76.14,108.62,90.83,108.41,124.48z"/>
	<path class="st1" d="M210.38,145.49l1.22-2.24c-3.67,16.93-19.38,31.61-41,31.21c-25.29-0.41-45.48-19.58-46.1-48.34
		c-0.41-21.82,10.81-35.69,22.84-42.83c9.18-5.71,19.58-7.14,27.94-6.73c20.6,1.22,36.1,17.34,35.49,42.42h-70.57
		c0,25.09,13.87,42.63,36.1,43.65C190.18,163.23,203.03,158.75,210.38,145.49z M140.21,116.73h55.07
		c2.24-8.36,3.26-25.09-6.32-33.04c-8.77-7.55-23.86-7.55-34.47,0C143.68,91.44,140.62,106.74,140.21,116.73z"/>
	<path class="st1" d="M393.64,79.4c-8.97,0.2-15.09,4.9-16.11,12.44c-1.02,5.91,0,17.34,24.68,23.86
		c26.31,7.14,33.65,16.11,33.65,28.96c0.2,14.69-9.79,29.78-33.86,29.78c-20.19,0-31-7.14-37.12-10.4l-0.41-27.33
		c2.65,5.91,9.79,19.17,20.8,26.31c15.3,9.99,38.35,11.42,40.39-3.67c2.04-10.2-4.08-20.19-28.55-26.92
		c-23.66-6.94-30.19-16.32-30.19-28.15c0.2-14.07,11.42-27.54,34.67-27.74c17.34,0,26.51,7.55,28.15,8.77v20.4
		C421.99,90.01,407.71,79.4,393.64,79.4z"/>
	<polygon class="st0" points="277.67,138.85 272.05,152.63 241.05,80.43 224.94,80.43 266.55,175.47 279.56,143.16 	"/>
	<path class="st1" d="M351.59,80.43l-29.37,72.2l-31-72.2H275.1l39.98,91.38l-2.07,5.32c-2.65,6.93-6.73,12.03-13.26,14.48
		c-3.88,1.22-8.36,1.63-12.85,0.41l-0.79,1.88l-5.48,13.6c12.79-0.51,27.13-9.31,35.64-30.58l1.25-3.27l37.33-93.21H351.59z"/>
</g>
</svg>
