<?xml version="1.0" encoding="utf-8"?>
<!-- Generator: Adobe Illustrator 26.0.1, SVG Export Plug-In . SVG Version: 6.00 Build 0)  -->
<svg version="1.1" id="Capa_1" xmlns="http://www.w3.org/2000/svg" xmlns:xlink="http://www.w3.org/1999/xlink" x="0px" y="0px"
	 viewBox="0 0 462 276" style="enable-background:new 0 0 462 276;" xml:space="preserve">
<style type="text/css">
	.st0{fill:#00D975;}
	.st1{fill:#012F2D;}
</style>
<g>
	<g>
		<g>
			<path class="st0" d="M152.3,213.7c-6.4,0-9.6,2.3-9.6,6.9c0,2.1,0.7,3.6,2.1,4.5c1.4,0.9,4.6,1.7,9.5,2.6s8.4,2,10.5,3.4
				c2,1.5,3,4.3,3,8.4s-1.3,7.2-4,9.1s-6.6,2.9-11.7,2.9c-3,0-6.8-0.4-11.5-1.1l-2.4-0.3l0.3-4.3c6.1,0.9,10.7,1.4,14,1.4
				s5.8-0.6,7.6-1.7c1.8-1.1,2.7-3.1,2.7-5.8s-0.8-4.5-2.2-5.4c-1.5-0.9-4.7-1.7-9.6-2.5c-4.9-0.8-8.4-1.8-10.4-3.2s-3-4.1-3-7.9
				c0-3.9,1.4-6.7,4.1-8.5c2.8-1.8,6.2-2.7,10.2-2.7c3.2,0,7.3,0.4,12.2,1.1l2.2,0.3l-0.2,4.3C160.5,214.2,155.9,213.7,152.3,213.7z
				"/>
			<path class="st0" d="M176,230.3c0-7.6,1.3-13,3.9-16.2s6.9-4.8,13.1-4.8c6.2,0,10.6,1.6,13.1,4.8c2.6,3.2,3.9,8.6,3.9,16.2
				c0,7.6-1.2,13.1-3.5,16.3c-2.4,3.2-6.8,4.9-13.4,4.9s-11.1-1.6-13.5-4.9C177.2,243.4,176,237.9,176,230.3z M181,230.2
				c0,6.4,0.7,10.9,2.2,13.3c1.5,2.5,4.7,3.7,9.7,3.7c5,0,8.3-1.2,9.8-3.7c1.5-2.5,2.3-6.9,2.3-13.3s-0.9-10.7-2.6-13.1
				c-1.7-2.4-4.9-3.5-9.4-3.5c-4.6,0-7.8,1.2-9.4,3.5C181.9,219.4,181,223.8,181,230.2z"/>
			<path class="st0" d="M226.9,214.4v36.3h-4.9v-36.3h-5.3v-4.3h5.3V206c0-5.7,0.8-9.6,2.4-11.6s4.4-3,8.4-3l7.9,0.4v4.1
				c-3.2-0.1-5.6-0.2-7.1-0.2c-2.5,0-4.3,0.7-5.2,2.1s-1.4,4.2-1.4,8.3v4.1h12.2v4.3L226.9,214.4L226.9,214.4z"/>
			<path class="st0" d="M267.3,214.4h-13.6v20c0,5.2,0.4,8.7,1.1,10.3c0.8,1.6,2.5,2.4,5.4,2.4l7.5-0.6l0.3,4.1
				c-3.6,0.5-6.3,0.8-8.2,0.8c-4.1,0-7-1-8.6-3c-1.6-2-2.4-5.9-2.4-11.6v-22.5h-6v-4.3h6v-12.7h4.9v12.7h13.6L267.3,214.4
				L267.3,214.4z"/>
			<path class="st0" d="M271.5,210.1h5l8.9,36.4h1.1l10.5-35.6h5.1l10.5,35.6h1.2l8.9-36.4h5l-10.1,40.6h-8.4l-9.6-33.4l-9.7,33.4
				h-8.4L271.5,210.1z"/>
			<path class="st0" d="M364,222.2v21.8c0.2,2,2,3.2,5.3,3.6l-0.2,3.9c-4.2,0-7.2-1.1-9.2-3.2c-5.1,2.2-10.2,3.3-15.3,3.3
				c-3.6,0-6.4-1-8.3-3.1c-1.9-2.1-2.8-5.1-2.8-8.9c0-3.9,1-6.7,2.9-8.6c1.9-1.9,4.9-3,9-3.4l13.8-1.4v-3.8c0-3-0.7-5.2-2-6.5
				c-1.3-1.3-3.1-2-5.3-2c-3.5,0-8,0.3-13.5,1l-2.5,0.2l-0.2-3.9c6-1.1,11.2-1.7,15.6-1.7s7.7,1.1,9.7,3.2
				C363,214.6,364,217.8,364,222.2z M338.5,239.1c0,5.5,2.2,8.2,6.7,8.2c2,0,4.1-0.2,6.4-0.7c2.3-0.5,4.2-0.9,5.5-1.4l2-0.7v-14.7
				l-13.2,1.4c-2.6,0.2-4.6,1-5.7,2.3C339.1,234.8,338.5,236.7,338.5,239.1z"/>
			<path class="st0" d="M376.6,250.7v-40.6h4.8v5.8c2-1.4,4.5-2.8,7.3-4.1c2.9-1.3,5.6-2.2,8-2.6v4.9c-2.3,0.5-4.8,1.2-7.3,2.2
				s-4.5,1.9-5.9,2.6l-2.1,1.2v30.4L376.6,250.7L376.6,250.7z"/>
			<path class="st0" d="M429.9,246.6l2.4-0.2l0.2,4c-6.1,0.8-11.3,1.1-15.5,1.1c-5.8-0.1-9.9-1.8-12.2-5.2
				c-2.3-3.4-3.5-8.6-3.5-15.7c0-14.2,5.6-21.3,16.7-21.3c5.4,0,9.4,1.5,12,4.6c2.6,3.1,4,7.9,4,14.6l-0.2,3.9h-27.6
				c0,5,0.9,8.7,2.6,11.1c1.7,2.4,4.6,3.6,8.8,3.6S425.8,246.9,429.9,246.6z M406.2,228.4h22.9c0-5.4-0.9-9.2-2.6-11.4
				s-4.6-3.4-8.4-3.4s-6.8,1.2-8.8,3.5C407.2,219.4,406.2,223.2,406.2,228.4z"/>
		</g>
	</g>
	<g>
		<g>
			<g>
				<path class="st1" d="M110.4,119.5c-0.2,25.7-16.5,50-45.1,50c-6.5,0-16.5-2-23.2-6.7c-4.7-3.1-8.6-7.1-8.6-7.1l-9.4,14.9v-146
					h16.1v107.9c0,23.5,18,38.6,36.1,33.9c15.1-3.9,20-25.5,18.8-48.5c-1.2-23.5-14.3-38.8-31.8-38.3c-8.8,0.4-17.3,7.3-21.6,12.4
					c2.7-5.7,11.8-19.4,28.3-20C91.4,71.1,110.6,85.8,110.4,119.5z"/>
				<path class="st1" d="M212.4,140.5l1.2-2.2c-3.7,16.9-19.4,31.6-41,31.2c-25.3-0.4-45.5-19.6-46.1-48.3
					c-0.4-21.8,10.8-35.7,22.8-42.8c9.2-5.7,19.6-7.1,27.9-6.7c20.6,1.2,36.1,17.3,35.5,42.4h-70.6c0,25.1,13.9,42.6,36.1,43.7
					C192.2,158.2,205,153.7,212.4,140.5z M142.2,111.7h55.1c2.2-8.4,3.3-25.1-6.3-33c-8.8-7.6-23.9-7.6-34.5,0
					C145.7,86.4,142.6,101.7,142.2,111.7z"/>
				<path class="st1" d="M395.6,74.4c-9,0.2-15.1,4.9-16.1,12.4c-1,5.9,0,17.3,24.7,23.9c26.3,7.1,33.6,16.1,33.6,29
					c0.2,14.7-9.8,29.8-33.9,29.8c-20.2,0-31-7.1-37.1-10.4l-0.4-27.3c2.6,5.9,9.8,19.2,20.8,26.3c15.3,10,38.4,11.4,40.4-3.7
					c2-10.2-4.1-20.2-28.5-26.9c-23.7-6.9-30.2-16.3-30.2-28.2c0.2-14.1,11.4-27.5,34.7-27.7c17.3,0,26.5,7.6,28.1,8.8v20.4
					C424,85,409.7,74.4,395.6,74.4z"/>
				<g>
					<polygon class="st0" points="279.7,133.8 274,147.6 243.1,75.4 226.9,75.4 268.5,170.5 281.6,138.2 					"/>
					<path class="st1" d="M353.6,75.4l-29.4,72.2l-31-72.2h-16.1l40,91.4l-2.1,5.3c-2.6,6.9-6.7,12-13.3,14.5
						c-3.9,1.2-8.4,1.6-12.9,0.4l-0.8,1.9l-5.5,13.6c12.8-0.5,27.1-9.3,35.6-30.6l1.2-3.3l37.3-93.2L353.6,75.4L353.6,75.4z"/>
				</g>
			</g>
		</g>
	</g>
</g>
</svg>
