<?xml version="1.0" encoding="utf-8"?>
<!-- Generator: Adobe Illustrator 25.4.1, SVG Export Plug-In . SVG Version: 6.00 Build 0)  -->
<svg version="1.1" id="Calque_1" xmlns="http://www.w3.org/2000/svg" xmlns:xlink="http://www.w3.org/1999/xlink" x="0px" y="0px"
	 viewBox="0 0 96.8 37.4" style="enable-background:new 0 0 96.8 37.4;" xml:space="preserve">
<style type="text/css">
	.st0{fill:#012F2D;}
	.st1{opacity:0.118;fill:#00D975;enable-background:new    ;}
	.st2{fill:#00D975;}
</style>
<path id="Tracé_107" class="st0" d="M8.2,19.2c0-9.1,6-14.3,12.6-14.3c2.8,0,5.4,1.1,7.4,2.9c0.4,0.3,0.4,0.9,0.1,1.4l0,0L26,12.3
	c-0.3,0.4-0.9,0.5-1.3,0.2c-1-0.9-2.3-1.4-3.6-1.4c-3.1,0-5.7,2.9-5.7,7.9c0,5.1,2.3,8,5.6,8c1.5,0,2.9-0.6,4-1.6
	c0.4-0.4,1-0.4,1.4,0l0,0l2.4,3c0.3,0.4,0.3,1-0.1,1.4c-2.1,2.2-5,3.4-8,3.3C14,33,8.2,28.4,8.2,19.2z"/>
<path id="Tracé_108" class="st0" d="M68.5,28l2.2-2.8c0.4-0.6,1.2-0.7,1.8-0.3c1.5,1.1,3.2,1.7,5.1,1.9c2.1,0,3-0.7,3-1.9
	c0-1.3-1.3-1.7-3.5-2.6l-3.4-1.4c-3.2-1.2-5.3-4.2-5.2-7.6c0-4.6,4-8.4,9.7-8.4c2.8,0,5.5,1,7.7,2.7c0.6,0.5,0.7,1.4,0.2,2L84.3,12
	c-0.4,0.6-1.2,0.7-1.8,0.3c-1.3-0.8-2.7-1.3-4.2-1.3c-1.7,0-2.7,0.6-2.7,1.9s1.5,1.8,3.8,2.7l3.2,1.3c3.2,1,5.3,4.1,5.1,7.4
	c0,4.5-3.7,8.7-10.2,8.7c-3.1-0.1-6.2-1.1-8.7-2.9C68.2,29.6,68,28.7,68.5,28C68.5,28.1,68.5,28,68.5,28z"/>
<g id="Groupe_5" transform="translate(38.421 18.92)">
	<path id="Tracé_109" class="st1" d="M-1.7-7.1v19.3c0,0.5,0.4,0.9,0.9,0.9l0,0h22.3c0.5,0,0.9-0.3,0.9-0.8l0,0V-7.1
		c0-0.5-0.5-0.9-1-0.9c-0.2,0-0.4,0.1-0.6,0.3l-9.9,7.1c-0.4,0.3-0.9,0.3-1.3,0l-9.7-7.1c-0.4-0.4-1-0.3-1.3,0
		C-1.6-7.5-1.7-7.3-1.7-7.1z"/>
</g>
<path id="Tracé_110" class="st2" d="M60,10.9c-0.2,0-0.5,0.1-0.6,0.2l-9.9,7.1c-0.4,0.3-0.9,0.3-1.3,0l-9.9-7.1
	c-0.4-0.3-1-0.3-1.3,0.1c-0.1,0.2-0.2,0.3-0.2,0.5v19.4c0,0.5,0.4,0.9,0.9,0.9l0,0H60c0.5,0,0.9-0.3,0.9-0.8l0,0V11.8
	C60.9,11.3,60.5,10.9,60,10.9z M48.9,19.7c0.5,0,1.1-0.2,1.5-0.5l9.3-6.7v6.8h-6.8v11.5h-7.7V17.7l2.2,1.6
	C47.8,19.6,48.3,19.7,48.9,19.7z M53.5,23.7V20h6.1v3.7H53.5z M59.7,24.4v3.7h-6.1v-3.7H59.7z M44.4,24.2v3.7H38v-3.7H44.4z
	 M38.1,23.6v-3.7h6.4v3.7H38.1z M44.4,17.2v2H38v-6.7L44.4,17.2z M38.1,28.5h6.4v2.3h-6.4V28.5z M53.5,30.8v-2.1h6.1v2.1H53.5z"/>
</svg>
