<?xml version="1.0" encoding="utf-8"?>
<!-- Generator: Adobe Illustrator 24.0.3, SVG Export Plug-In . SVG Version: 6.00 Build 0)  -->
<svg version="1.1" id="Capa_1" xmlns="http://www.w3.org/2000/svg" xmlns:xlink="http://www.w3.org/1999/xlink" x="0px" y="0px"
	 viewBox="0 0 610 264" style="enable-background:new 0 0 610 264;" xml:space="preserve">
<style type="text/css">
	.st0{fill:#012F2D;}
	.st1{fill:#00D975;}
</style>
<g>
	<g>
		<g>
			<g>
				<path class="st0" d="M110.66,104.31c-0.2,25.7-16.52,49.97-45.08,49.97c-6.53,0-16.52-2.04-23.25-6.73
					c-4.69-3.06-8.57-7.14-8.57-7.14l-9.38,14.89V9.26H40.5v107.9c0,23.46,17.95,38.55,36.1,33.86
					c15.09-3.88,19.99-25.49,18.76-48.54c-1.22-23.46-14.28-38.75-31.82-38.34c-8.77,0.41-17.34,7.34-21.62,12.44
					c2.65-5.71,11.83-19.38,28.35-19.99C91.69,55.97,110.86,70.66,110.66,104.31z"/>
				<path class="st0" d="M212.62,125.32l1.22-2.24c-3.67,16.93-19.38,31.61-41,31.21c-25.29-0.41-45.48-19.58-46.1-48.34
					c-0.41-21.82,10.81-35.69,22.84-42.83c9.18-5.71,19.58-7.14,27.94-6.73c20.6,1.22,36.1,17.34,35.49,42.42h-70.57
					c0,25.09,13.87,42.63,36.1,43.65C192.43,143.06,205.28,138.58,212.62,125.32z M142.46,96.56h55.07
					c2.24-8.36,3.26-25.09-6.32-33.04c-8.77-7.55-23.86-7.55-34.47,0C145.93,71.27,142.87,86.57,142.46,96.56z"/>
				<path class="st0" d="M395.89,59.23c-8.97,0.2-15.09,4.9-16.11,12.44c-1.02,5.91,0,17.34,24.68,23.86
					c26.31,7.14,33.65,16.11,33.65,28.96c0.2,14.69-9.79,29.78-33.86,29.78c-20.19,0-31-7.14-37.12-10.4l-0.41-27.33
					c2.65,5.91,9.79,19.17,20.8,26.31c15.3,9.99,38.35,11.42,40.39-3.67c2.04-10.2-4.08-20.19-28.55-26.92
					c-23.66-6.94-30.19-16.32-30.19-28.15c0.2-14.07,11.42-27.54,34.67-27.74c17.34,0,26.51,7.55,28.15,8.77v20.4
					C424.24,69.84,409.96,59.23,395.89,59.23z"/>
				<g>
					<polygon class="st1" points="279.92,118.68 274.3,132.46 243.3,60.25 227.18,60.25 268.79,155.3 281.81,122.99 					"/>
					<path class="st0" d="M353.83,60.25l-29.37,72.2l-31-72.2h-16.11l39.98,91.38l-2.07,5.32c-2.65,6.93-6.73,12.03-13.26,14.48
						c-3.88,1.22-8.36,1.63-12.85,0.41l-0.79,1.88l-5.48,13.6c12.79-0.51,27.13-9.31,35.64-30.58l1.25-3.27l37.33-93.21H353.83z"/>
				</g>
			</g>
		</g>
	</g>
	<g>
		<g>
			<path class="st1" d="M44.87,199.23H31.31v20.04c0,5.25,0.38,8.68,1.14,10.31c0.76,1.62,2.54,2.44,5.36,2.44l7.47-0.57l0.32,4.14
				c-3.57,0.54-6.3,0.81-8.2,0.81c-4.11,0-6.97-1.01-8.56-3.04c-1.6-2.03-2.39-5.91-2.39-11.65v-22.48h-6.01v-4.3h6.01v-12.74h4.87
				v12.74h13.55V199.23z"/>
			<path class="st1" d="M52.49,235.5v-40.58h4.79v5.84c2-1.41,4.45-2.76,7.35-4.06c2.89-1.3,5.56-2.16,7.99-2.6v4.87
				c-2.33,0.49-4.76,1.23-7.3,2.23s-4.52,1.88-5.92,2.64l-2.11,1.22v30.43H52.49z"/>
			<path class="st1" d="M105.65,194.93h4.79v40.58h-4.79v-3c-4.17,2.54-8.33,3.81-12.5,3.81c-5.52,0-9.16-1.41-10.92-4.22
				c-1.76-2.81-2.64-8.14-2.64-15.99v-21.18h4.79v21.1c0,6.28,0.58,10.5,1.75,12.66c1.16,2.16,3.69,3.25,7.59,3.25
				c1.89,0,3.84-0.28,5.84-0.85c2-0.57,3.52-1.15,4.54-1.75l1.54-0.81V194.93z"/>
			<path class="st1" d="M134.86,198.58c-6.38,0-9.58,2.3-9.58,6.9c0,2.11,0.7,3.6,2.11,4.46c1.41,0.87,4.59,1.72,9.54,2.56
				c4.95,0.84,8.44,1.99,10.47,3.45s3.04,4.26,3.04,8.4c0,4.14-1.33,7.17-3.98,9.09c-2.65,1.92-6.55,2.88-11.69,2.88
				c-2.98,0-6.82-0.38-11.53-1.14l-2.35-0.32l0.32-4.3c6.06,0.92,10.71,1.38,13.96,1.38c3.25,0,5.77-0.57,7.59-1.7
				c1.81-1.14,2.72-3.06,2.72-5.76c0-2.7-0.74-4.5-2.23-5.4c-1.49-0.89-4.68-1.72-9.58-2.47c-4.9-0.76-8.35-1.84-10.35-3.25
				c-2-1.41-3-4.06-3-7.95c0-3.9,1.38-6.74,4.14-8.52c2.76-1.79,6.17-2.68,10.23-2.68c3.25,0,7.3,0.35,12.17,1.06l2.19,0.32
				l-0.16,4.3C143.11,199.01,138.43,198.58,134.86,198.58z"/>
			<path class="st1" d="M180.8,199.23h-13.55v20.04c0,5.25,0.38,8.68,1.14,10.31c0.76,1.62,2.54,2.44,5.36,2.44l7.47-0.57l0.32,4.14
				c-3.57,0.54-6.3,0.81-8.2,0.81c-4.11,0-6.97-1.01-8.56-3.04c-1.6-2.03-2.39-5.91-2.39-11.65v-22.48h-6.01v-4.3h6.01v-12.74h4.87
				v12.74h13.55V199.23z"/>
			<path class="st1" d="M215.29,231.45l2.43-0.24l0.16,3.98c-6.11,0.76-11.28,1.14-15.5,1.14c-5.84-0.05-9.93-1.79-12.25-5.19
				c-2.33-3.41-3.49-8.65-3.49-15.74c0-14.17,5.57-21.26,16.72-21.26c5.36,0,9.36,1.53,12.01,4.59c2.65,3.06,3.98,7.94,3.98,14.65
				l-0.16,3.9h-27.59c0,4.98,0.85,8.67,2.56,11.08c1.7,2.41,4.63,3.61,8.76,3.61C207.05,231.93,211.17,231.77,215.29,231.45z
				 M191.59,213.19h22.89c0-5.36-0.88-9.17-2.64-11.44c-1.76-2.27-4.57-3.41-8.44-3.41c-3.87,0-6.8,1.18-8.81,3.53
				C192.59,204.22,191.59,207.99,191.59,213.19z"/>
			<path class="st1" d="M259.68,176.91v58.59h-4.87v-3c-4.28,2.54-8.6,3.81-12.99,3.81c-2,0-3.73-0.23-5.19-0.69
				c-1.46-0.46-2.95-1.37-4.46-2.72c-3.08-2.76-4.63-8.16-4.63-16.19c0-8.03,1.3-13.81,3.89-17.33c2.6-3.52,6.98-5.27,13.15-5.27
				c2.38,0,5.79,0.35,10.23,1.06v-18.26H259.68z M238.78,231.37c1,0.38,2.3,0.57,3.89,0.57s3.44-0.3,5.52-0.89
				c2.08-0.6,3.72-1.16,4.91-1.7l1.7-0.89v-29.05c-4.33-0.65-7.68-0.97-10.06-0.97c-4.6,0-7.78,1.41-9.54,4.22
				c-1.76,2.81-2.64,7.17-2.64,13.07c0,6.93,1.06,11.44,3.17,13.55C236.76,230.28,237.78,230.99,238.78,231.37z"/>
			<path class="st1" d="M301.88,198.58c-6.38,0-9.58,2.3-9.58,6.9c0,2.11,0.7,3.6,2.11,4.46c1.4,0.87,4.59,1.72,9.54,2.56
				c4.95,0.84,8.44,1.99,10.47,3.45s3.04,4.26,3.04,8.4c0,4.14-1.33,7.17-3.98,9.09c-2.65,1.92-6.55,2.88-11.69,2.88
				c-2.97,0-6.82-0.38-11.52-1.14l-2.35-0.32l0.32-4.3c6.06,0.92,10.71,1.38,13.96,1.38c3.25,0,5.78-0.57,7.59-1.7
				c1.81-1.14,2.72-3.06,2.72-5.76c0-2.7-0.75-4.5-2.23-5.4c-1.49-0.89-4.68-1.72-9.58-2.47c-4.9-0.76-8.35-1.84-10.35-3.25
				c-2-1.41-3-4.06-3-7.95c0-3.9,1.38-6.74,4.14-8.52c2.76-1.79,6.17-2.68,10.22-2.68c3.25,0,7.3,0.35,12.17,1.06l2.19,0.32
				l-0.16,4.3C310.12,199.01,305.45,198.58,301.88,198.58z"/>
			<path class="st1" d="M325.57,215.13c0-7.63,1.28-13.04,3.85-16.23c2.57-3.19,6.95-4.79,13.15-4.79c6.19,0,10.58,1.6,13.15,4.79
				c2.57,3.19,3.85,8.6,3.85,16.23s-1.18,13.07-3.53,16.31c-2.35,3.25-6.83,4.87-13.43,4.87c-6.6,0-11.09-1.62-13.47-4.87
				C326.76,228.2,325.57,222.76,325.57,215.13z M330.6,215.01c0,6.41,0.74,10.85,2.23,13.31c1.49,2.46,4.73,3.69,9.74,3.69
				c5,0,8.26-1.24,9.78-3.73c1.51-2.49,2.27-6.91,2.27-13.27c0-6.36-0.85-10.71-2.56-13.07c-1.7-2.35-4.86-3.53-9.45-3.53
				c-4.6,0-7.75,1.16-9.46,3.49C331.46,204.23,330.6,208.6,330.6,215.01z"/>
			<path class="st1" d="M370.53,235.5v-58.59h4.79v58.59H370.53z"/>
			<path class="st1" d="M413.62,194.93h4.79v40.58h-4.79v-3c-4.17,2.54-8.33,3.81-12.5,3.81c-5.52,0-9.16-1.41-10.92-4.22
				c-1.76-2.81-2.64-8.14-2.64-15.99v-21.18h4.79v21.1c0,6.28,0.58,10.5,1.74,12.66c1.16,2.16,3.69,3.25,7.59,3.25
				c1.89,0,3.84-0.28,5.84-0.85c2-0.57,3.52-1.15,4.54-1.75l1.54-0.81V194.93z"/>
			<path class="st1" d="M451.11,199.23h-13.55v20.04c0,5.25,0.38,8.68,1.14,10.31c0.76,1.62,2.54,2.44,5.36,2.44l7.47-0.57
				l0.33,4.14c-3.57,0.54-6.3,0.81-8.2,0.81c-4.11,0-6.97-1.01-8.56-3.04c-1.6-2.03-2.39-5.91-2.39-11.65v-22.48h-6.01v-4.3h6.01
				v-12.74h4.87v12.74h13.55V199.23z"/>
			<path class="st1" d="M458.74,184.78v-6.09h4.79v6.09H458.74z M458.74,235.5v-40.58h4.79v40.58H458.74z"/>
			<path class="st1" d="M474,215.13c0-7.63,1.28-13.04,3.85-16.23c2.57-3.19,6.95-4.79,13.15-4.79c6.19,0,10.58,1.6,13.15,4.79
				c2.57,3.19,3.85,8.6,3.85,16.23s-1.18,13.07-3.53,16.31c-2.35,3.25-6.83,4.87-13.43,4.87c-6.6,0-11.09-1.62-13.47-4.87
				C475.19,228.2,474,222.76,474,215.13z M479.03,215.01c0,6.41,0.74,10.85,2.23,13.31c1.49,2.46,4.73,3.69,9.74,3.69
				c5,0,8.26-1.24,9.78-3.73c1.51-2.49,2.27-6.91,2.27-13.27c0-6.36-0.85-10.71-2.56-13.07c-1.7-2.35-4.86-3.53-9.45-3.53
				c-4.6,0-7.75,1.16-9.46,3.49C479.88,204.23,479.03,208.6,479.03,215.01z"/>
			<path class="st1" d="M523.26,235.5h-4.79v-40.58h4.79v3c4.54-2.54,8.95-3.81,13.23-3.81c5.41,0,9.02,1.43,10.83,4.3
				c1.81,2.87,2.72,8.12,2.72,15.74v21.34h-4.87v-21.1c0-6.22-0.6-10.43-1.78-12.62c-1.19-2.19-3.73-3.29-7.63-3.29
				c-1.89,0-3.88,0.28-5.97,0.85c-2.08,0.57-3.69,1.15-4.83,1.74l-1.7,0.81V235.5z"/>
			<path class="st1" d="M573.98,198.58c-6.38,0-9.58,2.3-9.58,6.9c0,2.11,0.7,3.6,2.11,4.46c1.41,0.87,4.59,1.72,9.54,2.56
				c4.95,0.84,8.44,1.99,10.47,3.45c2.03,1.46,3.04,4.26,3.04,8.4c0,4.14-1.33,7.17-3.98,9.09c-2.65,1.92-6.55,2.88-11.69,2.88
				c-2.98,0-6.82-0.38-11.53-1.14l-2.35-0.32l0.32-4.3c6.06,0.92,10.71,1.38,13.96,1.38c3.25,0,5.77-0.57,7.59-1.7
				c1.81-1.14,2.72-3.06,2.72-5.76c0-2.7-0.75-4.5-2.23-5.4c-1.49-0.89-4.68-1.72-9.58-2.47c-4.9-0.76-8.34-1.84-10.35-3.25
				c-2-1.41-3-4.06-3-7.95c0-3.9,1.38-6.74,4.14-8.52c2.76-1.79,6.17-2.68,10.22-2.68c3.25,0,7.3,0.35,12.17,1.06l2.19,0.32
				l-0.16,4.3C582.23,199.01,577.55,198.58,573.98,198.58z"/>
		</g>
	</g>
</g>
</svg>
